<svg id="图层_1" data-name="图层 1" xmlns="http://www.w3.org/2000/svg" viewBox="0 0 200 200"><defs><style>.cls-1,.cls-2{fill:none;}.cls-1{stroke:#00e6e6;stroke-linecap:square;stroke-linejoin:round;stroke-width:2px;}.cls-2{stroke:#0087be;stroke-miterlimit:10;stroke-width:3px;}.cls-3{fill:#0087be;}.cls-4{fill:#00e6e6;}</style></defs><title>Folderglocal-view-nodes-b</title><path class="cls-1" d="M100,30.5a73,73,0,0,1,29.11,6l29.64,12.83V88a83.07,83.07,0,0,1-4.83,28.1v0a91.25,91.25,0,0,1-13.64,25.12l-.06.07,0,.07a89.1,89.1,0,0,1-20.75,19.76A75.21,75.21,0,0,1,100,170.62a74.32,74.32,0,0,1-19.52-9.55,88.38,88.38,0,0,1-20.74-19.79l0-.05,0-.06a91.33,91.33,0,0,1-13.55-25l0,0v0a82.52,82.52,0,0,1-4.81-28V49.37L70.9,36.54a73,73,0,0,1,29.14-6"/><path class="cls-2" d="M100,7a96.48,96.48,0,0,0-38.46,8L17.75,33.93V88A105.87,105.87,0,0,0,24,124a115,115,0,0,0,17,31.47,113.19,113.19,0,0,0,26.24,25A98.14,98.14,0,0,0,100,195a98.1,98.1,0,0,0,32.68-14.45,112.34,112.34,0,0,0,26.24-25A115.2,115.2,0,0,0,176,124a106.54,106.54,0,0,0,6.21-36.06v-54L138.44,15A96.71,96.71,0,0,0,100,7Zm0,0"/><path class="cls-3" d="M99,113.2s-5.51-2.72-5.51-3.8L90.82,56.67a2,2,0,0,1,2-2.09h14.26c1.13,0,6.34,2.09,6.23,3.22l-6.86,51.66a1.89,1.89,0,0,1-1.92,1.86Z"/><path class="cls-3" d="M88.33,130.62a11.65,11.65,0,0,0,5.83,10.09,39.59,39.59,0,0,0,6.63,3.08l8-21.9s-1.16-.53-2.89-1.41a12.23,12.23,0,0,0-11.71,0,11.65,11.65,0,0,0-5.83,10.1Zm0,0"/><path class="cls-4" d="M109,113.46H100a2,2,0,0,1-2-1.93L95.34,58.81a2,2,0,0,1,2-2.09h14.26a2,2,0,0,1,2,2.09L111,111.59a1.9,1.9,0,0,1-1.92,1.87Zm0,0"/><path class="cls-4" d="M92.86,132.75a11.65,11.65,0,1,0,5.82-10.09,11.66,11.66,0,0,0-5.82,10.09Zm0,0"/></svg>