<svg id="图层_1" data-name="图层 1" xmlns="http://www.w3.org/2000/svg" viewBox="0 0 200 200"><defs><style>.cls-1{fill:none;}.cls-2{fill:#00e6e6;}.cls-3{fill:#0087be;}.cls-4{fill:#fff;}</style></defs><title>Folderglocal-view-nodes-b</title><rect class="cls-1" x="74.34" y="131.81" width="45.87" height="52.53"/><path class="cls-2" d="M132.89,104.12a57.15,57.15,0,0,0,18.8-42.9c0-30.67-23-55.5-51.41-55.5S48.86,30.55,48.86,61.2a57.49,57.49,0,0,0,15.2,39.36c1.15,1.12,33.85,31.37,68.83,3.56"/><path class="cls-3" d="M169.45,142.5,141.51,117c-10.49,8.59-40.21,26.73-81.3-.64-12.38,9.52-45.42,36.85-41.76,55.29,0,0,.64,19.23,35.6,20.16,0,0,104.17,7.7,121.48-10.24,0,0,18.91-12.18-6.08-39.11"/><polygon class="cls-4" points="90 127.78 110.13 127.78 116.91 142.17 108.02 161.79 108.11 193.72 92.36 193.72 92.53 161.79 83.64 142.17 90 127.78"/></svg>