<svg id="图层_1" data-name="图层 1" xmlns="http://www.w3.org/2000/svg" viewBox="0 0 200 200"><defs><style>.cls-1,.cls-2{fill:none;}.cls-1{stroke:#00e6e6;stroke-linecap:square;stroke-linejoin:round;stroke-width:2px;}.cls-2{stroke:#0087be;stroke-miterlimit:10;stroke-width:3px;}.cls-3{fill:#0087be;}.cls-4{fill:#00e6e6;}</style></defs><title>Folderglocal-view-nodes-b</title><path class="cls-1" d="M100.81,29.5a73,73,0,0,1,29.12,6l29.63,12.83V87a82.58,82.58,0,0,1-4.83,28.1v0a91.25,91.25,0,0,1-13.64,25.12l-.05.07-.06.07a88.86,88.86,0,0,1-20.74,19.76,75.12,75.12,0,0,1-19.45,9.49,74.26,74.26,0,0,1-19.51-9.55,88.43,88.43,0,0,1-20.75-19.79l0-.05,0-.06a91.06,91.06,0,0,1-13.55-25l0,0,0,0a82.76,82.76,0,0,1-4.81-28V48.37L71.68,35.54a73,73,0,0,1,29.13-6"/><path class="cls-2" d="M100.78,6a96.56,96.56,0,0,0-38.47,8L18.53,32.93V87A106.11,106.11,0,0,0,24.73,123a115,115,0,0,0,17,31.47A112.79,112.79,0,0,0,68,179.5,98,98,0,0,0,100.76,194a98.27,98.27,0,0,0,32.68-14.45,112.1,112.1,0,0,0,26.23-25A115.23,115.23,0,0,0,176.82,123,107,107,0,0,0,183,86.91v-54L139.22,14a96.71,96.71,0,0,0-38.44-8Zm0,0"/><path class="cls-3" d="M127.42,79.66A22.77,22.77,0,0,1,115.1,99.9a11.89,11.89,0,0,0-6.38,11.78,1.34,1.34,0,0,1-1.33,1.47l-9.54,2.79c-1.58,0-5.27-4.07-5.27-5.66a29,29,0,0,1,15.34-25.44,5.89,5.89,0,0,0,3.41-5.46A6.5,6.5,0,0,0,104.81,73h-4.19a6.71,6.71,0,0,0-6.05,3.84,2.69,2.69,0,0,1-2.42,1.52l-8.6,2.85c-1.7,0-5.59-4.41-5.25-6.06.15-.73.33-1.44.54-2.15a22.79,22.79,0,0,1,21.78-16.07h4c6.29,0,14.26,4.07,18.35,8.52,4,4.29,4.43,8,4.43,14.25Z"/><path class="cls-3" d="M112.24,130.91c0,3-2.1,5-4,6.91s-6.14,6.3-8.82,5.05c-2.91-1.37-4.39-3.11-6.34-5.05a10.72,10.72,0,0,1,7.58-18.3,11.19,11.19,0,0,1,7.58,3.14c2,1.86.58.54,2.58,2.31Z"/><path class="cls-4" d="M130.67,82.58a22.75,22.75,0,0,1-12.31,20.24A11.89,11.89,0,0,0,112,114.6a1.34,1.34,0,0,1-1.33,1.48H98.71a2.87,2.87,0,0,1-2.87-2.88,29,29,0,0,1,15.34-25.44,5.88,5.88,0,0,0,3.41-5.46,6.49,6.49,0,0,0-6.52-6.41h-4.19a6.7,6.7,0,0,0-6,3.83,2.67,2.67,0,0,1-2.42,1.52H84.19A2.68,2.68,0,0,1,81.56,78a21.6,21.6,0,0,1,.54-2.14,22.79,22.79,0,0,1,21.78-16.08h4a22.77,22.77,0,0,1,22.77,22.77Z"/><path class="cls-4" d="M114.6,133.17a10.72,10.72,0,1,1-3.14-7.58,10.68,10.68,0,0,1,3.14,7.58Z"/></svg>