<svg id="图层_1" data-name="图层 1" xmlns="http://www.w3.org/2000/svg" viewBox="0 0 200 200"><defs><style>.cls-1{fill:#0087be;}.cls-2{fill:#fff;}.cls-3{fill:#00e6e6;}.cls-4{fill:none;}</style></defs><title>Folderglocal-view-nodes-b</title><path class="cls-1" d="M171.64,176.57v17.11H37.31V178.19a35.2,35.2,0,0,1,5.33-70H159.92a35.2,35.2,0,0,1,11.72,68.38Z"/><path class="cls-2" d="M58.63,133.84A10.69,10.69,0,1,0,66.17,137a10.68,10.68,0,0,0-7.54-3.14Z"/><path class="cls-2" d="M101.28,133.84a10.69,10.69,0,1,0,10.66,10.69,10.68,10.68,0,0,0-10.66-10.69Z"/><path class="cls-2" d="M143.93,133.84a10.69,10.69,0,1,0,10.66,10.69,10.71,10.71,0,0,0-10.66-10.69Z"/><path class="cls-3" d="M57.26,65.86l-8.82-11.1c.86-.7,2.34-1.81,4.45-3.21a103.14,103.14,0,0,1,11.65-6.64c30.67-14.91,64-14.52,94.92,11.52l-9,10.95c-26.18-22-53.68-22.34-79.81-9.63a87.7,87.7,0,0,0-10,5.71c-1.15.76-2.27,1.56-3.37,2.4Z"/><path class="cls-3" d="M78.31,73.7c19.9-9.68,41.67-9.42,61.8,7.51l-9,11c-15.35-12.9-31.33-13.1-46.71-5.62a51.25,51.25,0,0,0-5.9,3.36c-1,.66-1.62,1.13-1.89,1.34l-8.82-11.1A57.57,57.57,0,0,1,78.31,73.7Z"/><path class="cls-3" d="M105.93,20.29C89,20.11,72.61,24.44,57.42,31.83a121,121,0,0,0-14,8c-1.41.93-2.64,1.8-3.66,2.56-.59.44-1,.73-1.13.86L29.85,32.1c1.1-.9,3.09-2.38,5.88-4.23A134.76,134.76,0,0,1,51.32,19C68.33,10.72,86.8,5.82,106.1,6c25,.3,49.26,9.22,72,28.31l-9,10.95c-20.2-17-41.36-24.75-63.11-25Z"/><rect class="cls-4" x="7.48" y="5.91" width="187.8" height="188"/></svg>