<svg id="图层_1" data-name="图层 1" xmlns="http://www.w3.org/2000/svg" viewBox="0 0 200 200"><defs><style>.cls-1{fill:#0087be;}.cls-2{fill:#00e6e6;}.cls-3{fill:none;}</style></defs><title>Folderglocal-view-nodes-b</title><path class="cls-1" d="M195.62,58.8V170.2a10.33,10.33,0,0,1-10.32,10.32H16.13A10.32,10.32,0,0,1,5.82,170.2V34A10.32,10.32,0,0,1,16.13,23.72H73.4a10.28,10.28,0,0,1,7.29,3l21.13,21.14a2.09,2.09,0,0,0,1.46.6h82A10.33,10.33,0,0,1,195.62,58.8ZM135,106.4a4.12,4.12,0,0,0-3.33-2.8l-18.85-2.74-8.42-17.07a4.13,4.13,0,0,0-7.4,0L88.6,100.86,69.76,103.6a4.12,4.12,0,0,0-2.29,7L81.1,123.91l-3.22,18.76a4.12,4.12,0,0,0,6,4.35l16.86-8.84L117.57,147a4.12,4.12,0,0,0,6-4.35l-3.22-18.76L134,110.64A4.14,4.14,0,0,0,135,106.4Zm0,0"/><path class="cls-2" d="M5.82,34A10.32,10.32,0,0,1,16.13,23.72H73.4a10.28,10.28,0,0,1,7.29,3l21.13,21.14a2.09,2.09,0,0,0,1.46.6H5.82Z"/><rect id="SVGID" class="cls-3" x="5.84" y="23.62" width="189.97" height="157.13"/></svg>