<svg id="图层_1" data-name="图层 1" xmlns="http://www.w3.org/2000/svg" viewBox="0 0 200 200"><defs><style>.cls-1,.cls-2{fill:none;}.cls-1{stroke:#00e6e6;stroke-linecap:square;stroke-linejoin:round;stroke-width:2px;}.cls-2{stroke:#0087be;stroke-miterlimit:10;stroke-width:3px;}.cls-3{fill:#0087be;}.cls-4{fill:#00e6e6;}</style></defs><title>Folderglocal-view-nodes-b</title><path class="cls-1" d="M99.83,29.06a73,73,0,0,1,29.12,6l29.63,12.83V86.52a82.84,82.84,0,0,1-4.83,28.11v0a91.2,91.2,0,0,1-13.64,25.11l-.05.08-.06.07a89.1,89.1,0,0,1-20.75,19.76,75.37,75.37,0,0,1-19.44,9.49,74.63,74.63,0,0,1-19.52-9.55,88.58,88.58,0,0,1-20.74-19.79l0-.06,0-.05a90.8,90.8,0,0,1-13.55-25l0,0,0,0a82.76,82.76,0,0,1-4.81-28V47.93L70.69,35.1a73.06,73.06,0,0,1,29.14-6"/><path class="cls-2" d="M99.79,5.56a96.48,96.48,0,0,0-38.46,8L17.54,32.49v54a106.36,106.36,0,0,0,6.21,36.05,115,115,0,0,0,17,31.47,113,113,0,0,0,26.23,25,98.14,98.14,0,0,0,32.77,14.5,98.1,98.1,0,0,0,32.68-14.45,112,112,0,0,0,26.24-25,115.5,115.5,0,0,0,17.15-31.56A106.78,106.78,0,0,0,182,86.47v-54l-43.8-19a96.79,96.79,0,0,0-38.45-8Zm0,0"/><path class="cls-3" d="M98.78,88.76a33.46,33.46,0,0,0-23,13.75c-1,1.6-1.35,4.56-.44,6.2s4.19,4.86,6.06,4.88,2.36-4.14,3.3-5.76a23.49,23.49,0,0,1,15.15-8.74c6.84-.74,13.69,2.5,20.35,9.63,2,2,8.75,3.82,10.83,1.91,1.53-1.4,2.7-4.61,1.69-6.18-9.69-15.12-26.93-16.44-34-15.69Z"/><path class="cls-3" d="M102.3,109.22a10,10,0,0,0-9.22,6.15c-1.54,3.73-.66,7.67,1.66,11,2.66,3.81,6,6.58,9.78,4.32,3.46-2.07,10-10.34,8.28-14a14.74,14.74,0,0,0-3.46-4.54,10,10,0,0,0-7-2.92Z"/><path class="cls-3" d="M99.92,70.09C80.34,71,67.21,85,64.78,87.76c-1.82,2.17-1.64,5.7.12,8,1.95,2.59,2.44,2.39,3.95,3.26,0,0,15.86-17.88,31.55-18.6,10.69-.49,21.48,4.38,32,14.47,2.09,1.87,8.55,3.85,10.49,1.82s1.62-7.31-.22-9.43c-12.16-14-29.16-17.86-42.8-17.23Z"/><path class="cls-4" d="M101.2,92.08a33.42,33.42,0,0,0-23,13.75,5.19,5.19,0,1,0,8.91,5.32,23.53,23.53,0,0,1,15.15-8.75c6.84-.73,13.69,2.51,20.35,9.63a5.19,5.19,0,0,0,7.59-7.09c-11.24-12-22-13.61-29-12.86Zm3.51,20.45a10,10,0,1,0,7,2.92,10,10,0,0,0-7-2.92Zm-2.59-39.12C82.54,74.31,69.41,88.29,67,91.08a5.19,5.19,0,0,0,7.83,6.81C76,96.52,86.91,84.5,102.6,83.78c10.7-.49,21.48,4.37,32.05,14.47a5.19,5.19,0,0,0,7.16-7.52c-12.69-12.13-26-18-39.69-17.32Zm0,0"/></svg>