<svg id="图层_1" data-name="图层 1" xmlns="http://www.w3.org/2000/svg" viewBox="0 0 200 200"><defs><style>.cls-1{fill:#0087be;}.cls-2{fill:#fff;}.cls-3{fill:#00e6e6;}</style></defs><title>Folderglocal-view-nodes-b</title><path class="cls-1" d="M176.34,71.44H23.66A10.85,10.85,0,0,1,12.81,60.59V25.16A10.85,10.85,0,0,1,23.66,14.31H176.34a10.85,10.85,0,0,1,10.85,10.85V60.59a10.85,10.85,0,0,1-10.85,10.85Z"/><path class="cls-2" d="M30.85,42.87a10.52,10.52,0,1,0,5.26-9.11,10.52,10.52,0,0,0-5.26,9.11Zm0,0"/><path class="cls-2" d="M157.13,38.36a3,3,0,1,0,1.5-2.6,3,3,0,0,0-1.5,2.6Zm0,0"/><path class="cls-2" d="M145.1,38.36A3,3,0,0,0,146.6,41a3,3,0,0,0,3,0,3,3,0,1,0-4.51-2.61Zm0,0"/><path class="cls-2" d="M163.14,47.38a3,3,0,0,0,1.5,2.61,3,3,0,0,0,3,0,3,3,0,1,0-4.51-2.61Zm0,0"/><path class="cls-2" d="M151.11,47.38a3,3,0,1,0,1.51-2.6,3,3,0,0,0-1.51,2.6Zm0,0"/><path class="cls-2" d="M133.07,38.36A3,3,0,0,0,134.58,41a3,3,0,0,0,3,0,3,3,0,0,0,0-5.21,3,3,0,0,0-3,0,3,3,0,0,0-1.51,2.6Zm0,0"/><path class="cls-2" d="M139.09,47.38a3,3,0,1,0,1.5-2.6,3,3,0,0,0-1.5,2.6Zm0,0"/><path class="cls-2" d="M121.05,38.36a3,3,0,1,0,1.5-2.6,3,3,0,0,0-1.5,2.6Zm0,0"/><path class="cls-2" d="M127.06,47.38a3,3,0,0,0,1.5,2.61,3,3,0,0,0,3,0,3,3,0,1,0-4.51-2.61Zm0,0"/><path class="cls-2" d="M109,38.36a3,3,0,0,0,1.5,2.61,3,3,0,0,0,3,0A3,3,0,1,0,109,38.36Zm0,0"/><path class="cls-2" d="M115,47.38A3,3,0,0,0,116.54,50a3,3,0,0,0,3,0,3,3,0,0,0,0-5.21,3,3,0,0,0-3,0,3,3,0,0,0-1.51,2.6Zm0,0"/><path class="cls-3" d="M176.34,128.56H23.66a10.85,10.85,0,0,1-10.85-10.85V82.28A10.84,10.84,0,0,1,23.66,71.44H176.34a10.84,10.84,0,0,1,10.85,10.84v35.43a10.85,10.85,0,0,1-10.85,10.85Z"/><path class="cls-2" d="M30.85,100a10.52,10.52,0,1,0,5.26-9.11A10.52,10.52,0,0,0,30.85,100Zm0,0"/><path class="cls-2" d="M157.13,95.49a3,3,0,1,0,1.5-2.6,3,3,0,0,0-1.5,2.6Zm0,0"/><path class="cls-2" d="M145.1,95.49a3,3,0,1,0,1.5-2.6,3,3,0,0,0-1.5,2.6Zm0,0"/><path class="cls-2" d="M163.14,104.51a3,3,0,1,0,1.5-2.6,3,3,0,0,0-1.5,2.6Zm0,0"/><path class="cls-2" d="M151.11,104.51a3,3,0,1,0,1.51-2.6,3,3,0,0,0-1.51,2.6Zm0,0"/><path class="cls-2" d="M133.07,95.49a3,3,0,1,0,1.51-2.6,3,3,0,0,0-1.51,2.6Zm0,0"/><path class="cls-2" d="M139.09,104.51a3,3,0,1,0,1.5-2.6,3,3,0,0,0-1.5,2.6Zm0,0"/><path class="cls-2" d="M121.05,95.49a3,3,0,1,0,1.5-2.6,3,3,0,0,0-1.5,2.6Zm0,0"/><path class="cls-2" d="M127.06,104.51a3,3,0,1,0,1.5-2.6,3,3,0,0,0-1.5,2.6Zm0,0"/><path class="cls-2" d="M109,95.49a3,3,0,1,0,1.5-2.6,3,3,0,0,0-1.5,2.6Zm0,0"/><path class="cls-2" d="M115,104.51a3,3,0,1,0,1.51-2.6,3,3,0,0,0-1.51,2.6Zm0,0"/><path class="cls-1" d="M176.34,185.69H23.66a10.85,10.85,0,0,1-10.85-10.85V139.41a10.85,10.85,0,0,1,10.85-10.85H176.34a10.85,10.85,0,0,1,10.85,10.85v35.43a10.85,10.85,0,0,1-10.85,10.85Z"/><path class="cls-2" d="M30.85,157.13A10.52,10.52,0,1,0,36.11,148a10.52,10.52,0,0,0-5.26,9.12Zm0,0"/><path class="cls-2" d="M157.13,152.62a3,3,0,1,0,1.5-2.61,3,3,0,0,0-1.5,2.61Zm0,0"/><path class="cls-2" d="M145.1,152.62a3,3,0,1,0,4.51-2.61,3,3,0,0,0-3,0,3,3,0,0,0-1.5,2.61Zm0,0"/><path class="cls-2" d="M163.14,161.64a3,3,0,1,0,1.5-2.61,3,3,0,0,0-1.5,2.61Zm0,0"/><path class="cls-2" d="M151.11,161.64a3,3,0,1,0,1.51-2.61,3,3,0,0,0-1.51,2.61Zm0,0"/><path class="cls-2" d="M133.07,152.62a3,3,0,0,0,1.51,2.6,3,3,0,0,0,3,0,3,3,0,0,0,0-5.21,3,3,0,0,0-3,0,3,3,0,0,0-1.51,2.61Zm0,0"/><path class="cls-2" d="M139.09,161.64a3,3,0,1,0,1.5-2.61,3,3,0,0,0-1.5,2.61Zm0,0"/><path class="cls-2" d="M121.05,152.62a3,3,0,1,0,1.5-2.61,3,3,0,0,0-1.5,2.61Zm0,0"/><path class="cls-2" d="M127.06,161.64a3,3,0,1,0,1.5-2.61,3,3,0,0,0-1.5,2.61Zm0,0"/><path class="cls-2" d="M109,152.62a3,3,0,1,0,4.51-2.61,3,3,0,0,0-3,0,3,3,0,0,0-1.5,2.61Zm0,0"/><path class="cls-2" d="M115,161.64a3,3,0,0,0,1.51,2.6,3,3,0,0,0,3,0,3,3,0,0,0,0-5.21,3,3,0,0,0-3,0,3,3,0,0,0-1.51,2.61Zm0,0"/></svg>