<svg id="图层_1" data-name="图层 1" xmlns="http://www.w3.org/2000/svg" viewBox="0 0 200 200"><defs><style>.cls-1,.cls-2{fill:none;}.cls-1{stroke:#00e6e6;stroke-linecap:square;stroke-linejoin:round;stroke-width:2px;}.cls-2{stroke:#0087be;stroke-miterlimit:10;stroke-width:3px;}.cls-3{fill:#0087be;}.cls-4{fill:#00e6e6;}</style></defs><title>Folderglocal-view-nodes-b</title><path class="cls-1" d="M100,29.06a73,73,0,0,1,29.11,6l29.64,12.83V86.52A83.09,83.09,0,0,1,154,114.63v0a91.2,91.2,0,0,1-13.64,25.11l-.06.08,0,.07a89.1,89.1,0,0,1-20.75,19.76A75.53,75.53,0,0,1,100,169.18a74.63,74.63,0,0,1-19.52-9.55,88.38,88.38,0,0,1-20.74-19.79l0-.06,0-.05a91.33,91.33,0,0,1-13.55-25l0,0v0a82.52,82.52,0,0,1-4.81-28V47.93L70.9,35.1a73,73,0,0,1,29.14-6"/><path class="cls-2" d="M100,5.56a96.48,96.48,0,0,0-38.46,8L17.75,32.49v54A105.87,105.87,0,0,0,24,122.56,115,115,0,0,0,41,154a113.19,113.19,0,0,0,26.24,25A98.14,98.14,0,0,0,100,193.56a98.1,98.1,0,0,0,32.68-14.45,112.34,112.34,0,0,0,26.24-25A115.2,115.2,0,0,0,176,122.53a106.54,106.54,0,0,0,6.21-36.06v-54l-43.81-19a96.71,96.71,0,0,0-38.44-8Zm0,0"/><path class="cls-3" d="M101.57,124.47c1.42,0,8.54,3.38,8.54,5.15,0,1.42-7.12,0-8.54,0l-10,3.44c-1.42,0-8.06-4.59-8.06-6a2.57,2.57,0,0,1,2.57-2.57Z"/><path class="cls-3" d="M93.85,54.09c16.11,0,27.75,4.42,34.21,24.68,3.39,10.62-11.29,25.34-20.48,30.25v6.87a3.43,3.43,0,0,1-3.43,3.43l-15.57,3.35c-.91,0-6.82-3.71-7.46-4.36a3.43,3.43,0,0,1-1-2.42V109A29.19,29.19,0,0,1,93.85,54.09Z"/><path class="cls-4" d="M107.73,128a2.58,2.58,0,0,1,0,5.15H92.28a2.58,2.58,0,1,1,0-5.15Z"/><path class="cls-4" d="M100,57.62a29.19,29.19,0,0,1,13.73,54.94v6.86a3.43,3.43,0,0,1-3.43,3.44H89.7a3.43,3.43,0,0,1-3.43-3.44v-6.86A29.19,29.19,0,0,1,100,57.62Z"/><path class="cls-3" d="M111.53,91.85a2.59,2.59,0,0,1,.18,3.45l-.18.19-9,9v18.41H97.43V104.45l-9-9a2.57,2.57,0,0,1,3.44-3.81l.2.17L100,99.74l7.89-7.89a2.58,2.58,0,0,1,3.64,0Zm0,0"/></svg>