<svg id="图层_1" data-name="图层 1" xmlns="http://www.w3.org/2000/svg" viewBox="0 0 200 200"><defs><style>.cls-1,.cls-2{fill:none;}.cls-1{stroke:#00e6e6;stroke-linecap:square;stroke-linejoin:round;stroke-width:2px;}.cls-2{stroke:#0087be;stroke-miterlimit:10;stroke-width:3px;}.cls-3{fill:#0087be;}.cls-4{fill:#00e6e6;}</style></defs><title>Folderglocal-view-nodes-b</title><path class="cls-1" d="M101.32,29.06a73,73,0,0,1,29.12,6l29.63,12.83V86.52a82.84,82.84,0,0,1-4.83,28.11v0a91.2,91.2,0,0,1-13.64,25.11l0,.08-.06.07a89.05,89.05,0,0,1-20.74,19.76,75.44,75.44,0,0,1-19.45,9.49,74.57,74.57,0,0,1-19.51-9.55A88.43,88.43,0,0,1,61,139.84l0-.06,0-.05a91.06,91.06,0,0,1-13.55-25l0,0,0,0a82.76,82.76,0,0,1-4.81-28V47.93L72.18,35.1a73.06,73.06,0,0,1,29.14-6"/><path class="cls-2" d="M101.28,5.56a96.51,96.51,0,0,0-38.46,8L19,32.49v54a106.36,106.36,0,0,0,6.21,36.05,115,115,0,0,0,17,31.47,113,113,0,0,0,26.23,25,98.1,98.1,0,0,0,32.78,14.5A98.27,98.27,0,0,0,134,179.11a112.1,112.1,0,0,0,26.23-25,115.23,115.23,0,0,0,17.15-31.56,106.78,106.78,0,0,0,6.2-36.06v-54l-43.8-19a96.79,96.79,0,0,0-38.45-8Zm0,0"/><path class="cls-3" d="M127,66.88c-11.23,3.39-13.28,13-12.56,19.06-5.57-6.91-3.3-32.16-3.3-32.16s-1.54-1.83-4.38-5.69C81.09,58.31,87.06,87.8,86.29,96.75c-2.9-2.5-3.3-13.23-3.3-13.23l-4.38-5.69c-6.82,3.7-10.55,13.29-12,21.29-2.42,13.94,5,41.18,37.88,41.18,18.37,0,41.76-25.1,30.39-40.84-5.71-7.91-3.55-26.88-3.55-26.88s-2.47-3-4.37-5.7Z"/><path class="cls-4" d="M131.38,72.58c-11.22,3.38-13.28,13-12.55,19-8-9.94-7.68-21.38-7.68-37.85C85.47,64,91.44,93.49,90.67,102.44,84.21,96.86,83,83.52,83,83.52c-6.82,3.7-10.24,13.6-10.24,21.63,0,19.41,14.9,35.15,33.28,35.15s33.28-15.74,33.28-35.15c0-11.54-8-16.86-7.93-32.57Z"/></svg>