<?xml version="1.0" encoding="utf-8"?>
<!-- Generator: Adobe Illustrator 24.0.1, SVG Export Plug-In . SVG Version: 6.00 Build 0)  -->
<svg version="1.1" id="图层_5" xmlns="http://www.w3.org/2000/svg" xmlns:xlink="http://www.w3.org/1999/xlink" x="0px" y="0px"
	 width="80px" height="90px" viewBox="0 0 80 90" style="enable-background:new 0 0 80 90;" xml:space="preserve">
<style type="text/css">
	.st0{fill:#F7F7F7;}
	.st1{fill:#D8D8D8;}
	.st2{fill:#E8E8E8;}
	.st3{fill:#EFEFEF;}
	.st4{fill:#0186BE;}
	.st5{fill:url(#SVGID_4_);}
	.st6{fill:#03E5E1;}
	.st7{fill:#04BCD8;}
	.st8{fill:#FFFFFF;}
	.st9{fill:#0087BE;}
	.st10{fill:#00E6E6;}
	.st11{fill:none;}
	.st12{fill:#556080;}
	.st13{fill:#F2F2F2;stroke:#00E6E6;stroke-width:0.5;stroke-linecap:square;stroke-linejoin:round;stroke-miterlimit:10;}
	.st14{fill:#E5E5E5;}
	.st15{fill:none;stroke:#00E6E6;stroke-width:0.5;stroke-linecap:square;stroke-linejoin:round;stroke-miterlimit:10;}
	.st16{fill:none;stroke:#0087BE;stroke-miterlimit:10;}
	.st17{fill:#F2F2F2;}
	.st18{opacity:0.4;fill:url(#SVGID_5_);}
	.st19{opacity:0.4;fill:url(#SVGID_6_);}
	.st20{fill:url(#SVGID_7_);}
	.st21{fill:url(#SVGID_8_);}
	.st22{fill:url(#SVGID_9_);}
	.st23{fill:url(#SVGID_10_);}
	.st24{fill:url(#SVGID_11_);}
	.st25{fill:url(#SVGID_12_);}
	.st26{fill:url(#SVGID_13_);}
	.st27{fill:url(#SVGID_14_);}
	.st28{fill:url(#SVGID_15_);}
	.st29{fill:#01FFB9;}
	.st30{fill:#06486D;}
	.st31{opacity:0.5;fill:#06486D;}
	.st32{fill:#B7B7B7;}
	.st33{fill:#A3A3A3;}
	.st34{fill:url(#SVGID_16_);}
	.st35{fill-rule:evenodd;clip-rule:evenodd;fill:#04BBDA;}
	.st36{fill-rule:evenodd;clip-rule:evenodd;fill:#05A2C6;}
	.st37{fill-rule:evenodd;clip-rule:evenodd;fill:#03E5E1;}
	.st38{fill-rule:evenodd;clip-rule:evenodd;fill:#0087BE;}
	.st39{fill-rule:evenodd;clip-rule:evenodd;fill:#00AEEB;}
	.st40{fill-rule:evenodd;clip-rule:evenodd;fill:#F7F7F7;}
	.st41{fill-rule:evenodd;clip-rule:evenodd;fill:#D8D8D8;}
	.st42{fill-rule:evenodd;clip-rule:evenodd;fill:#AB4C00;}
	.st43{fill-rule:evenodd;clip-rule:evenodd;fill:#E8E8E8;}
	.st44{fill-rule:evenodd;clip-rule:evenodd;fill:#8B3B00;}
	.st45{fill-rule:evenodd;clip-rule:evenodd;fill:#FFFFFF;}
	.st46{fill-rule:evenodd;clip-rule:evenodd;fill:#231815;}
	.st47{fill-rule:evenodd;clip-rule:evenodd;fill:#E5E5E6;}
	.st48{fill-rule:evenodd;clip-rule:evenodd;fill:#F0F0F0;}
	.st49{fill-rule:evenodd;clip-rule:evenodd;fill:#1AFFF3;}
	.st50{fill-rule:evenodd;clip-rule:evenodd;fill:#C8C9CA;}
	.st51{fill-rule:evenodd;clip-rule:evenodd;fill:url(#SVGID_17_);}
	.st52{fill-rule:evenodd;clip-rule:evenodd;fill:#FFD700;}
	.st53{fill-rule:evenodd;clip-rule:evenodd;fill:url(#SVGID_18_);}
	.st54{fill:#04BBDA;}
	.st55{fill:url(#SVGID_19_);}
	.st56{fill:url(#SVGID_20_);}
	.st57{fill:url(#SVGID_21_);}
	.st58{fill:url(#SVGID_22_);}
	.st59{fill:url(#SVGID_23_);}
	.st60{fill:url(#SVGID_24_);}
	.st61{fill:url(#SVGID_25_);}
	.st62{fill:url(#SVGID_26_);}
	.st63{fill:url(#SVGID_27_);}
	.st64{fill:url(#SVGID_28_);}
	.st65{fill-rule:evenodd;clip-rule:evenodd;fill:#C6C6C6;}
	.st66{fill-rule:evenodd;clip-rule:evenodd;fill:#E0E0E0;}
	.st67{fill:url(#SVGID_29_);}
	.st68{fill:url(#SVGID_30_);}
	.st69{fill:#C6C6C6;}
	.st70{fill:url(#SVGID_31_);}
	.st71{fill:url(#SVGID_32_);}
	.st72{fill:url(#SVGID_33_);}
	.st73{fill:url(#SVGID_34_);}
	.st74{fill:url(#SVGID_35_);}
	.st75{fill:url(#SVGID_36_);}
	.st76{fill:url(#SVGID_37_);}
	.st77{fill:url(#SVGID_38_);}
	.st78{fill:url(#SVGID_39_);}
	.st79{fill:url(#SVGID_40_);}
	.st80{fill:url(#SVGID_41_);}
	.st81{fill:url(#SVGID_42_);}
	.st82{fill:url(#SVGID_43_);}
	.st83{fill:url(#SVGID_44_);}
	.st84{fill:#00FFFF;}
	.st85{fill:#0061A2;}
	.st86{opacity:0.3;fill:url(#SVGID_45_);}
	.st87{fill:url(#SVGID_46_);}
	.st88{fill:url(#SVGID_47_);}
	.st89{fill:url(#SVGID_48_);}
	.st90{fill:url(#SVGID_49_);}
	.st91{fill:url(#SVGID_50_);}
	.st92{fill:url(#SVGID_51_);}
	.st93{fill:url(#SVGID_52_);}
	.st94{fill:url(#SVGID_53_);}
	.st95{fill:url(#SVGID_54_);}
	.st96{fill:url(#SVGID_55_);}
	.st97{fill:url(#SVGID_56_);}
	.st98{fill:url(#SVGID_57_);}
	.st99{fill:url(#SVGID_58_);}
	.st100{fill:url(#SVGID_59_);}
	.st101{fill:url(#SVGID_60_);}
	.st102{fill:url(#SVGID_61_);}
	.st103{fill:url(#SVGID_62_);}
	.st104{fill:url(#SVGID_63_);}
	.st105{fill:url(#SVGID_64_);}
	.st106{fill:url(#SVGID_65_);}
	.st107{fill:url(#SVGID_66_);}
	.st108{fill:url(#SVGID_67_);}
	.st109{fill:url(#SVGID_68_);}
	.st110{fill:url(#SVGID_69_);}
	.st111{fill:url(#SVGID_70_);}
	.st112{opacity:0.3;fill:url(#SVGID_71_);}
	.st113{fill:url(#SVGID_72_);}
	.st114{fill:url(#SVGID_73_);}
	.st115{fill:url(#SVGID_74_);}
	.st116{fill:url(#SVGID_75_);}
	.st117{fill:url(#SVGID_76_);}
	.st118{fill:url(#SVGID_77_);}
	.st119{fill:url(#SVGID_78_);}
	.st120{fill:url(#SVGID_79_);}
	.st121{fill:url(#SVGID_80_);}
	.st122{fill:url(#SVGID_81_);}
	.st123{fill:url(#SVGID_82_);}
	.st124{fill:url(#SVGID_83_);}
	.st125{fill:url(#SVGID_84_);}
	.st126{fill:url(#SVGID_85_);}
	.st127{fill:url(#SVGID_86_);}
	.st128{fill:url(#SVGID_87_);}
	.st129{fill:url(#SVGID_88_);}
	.st130{fill:url(#SVGID_89_);}
	.st131{fill:url(#SVGID_90_);}
	.st132{fill:url(#SVGID_91_);}
	.st133{fill:url(#SVGID_92_);}
	.st134{fill:url(#SVGID_93_);}
	.st135{fill:url(#SVGID_94_);}
	.st136{fill:url(#SVGID_95_);}
	.st137{fill:url(#SVGID_96_);}
	.st138{opacity:0.3;fill:url(#SVGID_97_);}
	.st139{fill:url(#SVGID_98_);}
	.st140{fill:url(#SVGID_99_);}
	.st141{fill:url(#SVGID_100_);}
	.st142{fill:url(#SVGID_101_);}
	.st143{fill:url(#SVGID_102_);}
	.st144{fill:url(#SVGID_103_);}
	.st145{fill:url(#SVGID_104_);}
	.st146{fill:url(#SVGID_105_);}
	.st147{fill:url(#SVGID_106_);}
	.st148{fill:url(#SVGID_107_);}
	.st149{fill:url(#SVGID_108_);}
	.st150{fill:url(#SVGID_109_);}
	.st151{fill:url(#SVGID_110_);}
	.st152{fill:url(#SVGID_111_);}
	.st153{fill:url(#SVGID_112_);}
	.st154{fill:url(#SVGID_113_);}
	.st155{fill:url(#SVGID_114_);}
	.st156{fill:url(#SVGID_115_);}
	.st157{fill:url(#SVGID_116_);}
	.st158{fill:url(#SVGID_117_);}
	.st159{fill:url(#SVGID_118_);}
	.st160{fill:url(#SVGID_119_);}
	.st161{fill:url(#SVGID_120_);}
	.st162{fill:url(#SVGID_121_);}
	.st163{fill:url(#SVGID_122_);}
	.st164{opacity:0.3;fill:url(#SVGID_123_);}
	.st165{fill:url(#SVGID_124_);}
	.st166{fill:url(#SVGID_125_);}
	.st167{fill:url(#SVGID_126_);}
	.st168{fill:url(#SVGID_127_);}
	.st169{fill:url(#SVGID_128_);}
	.st170{fill:url(#SVGID_129_);}
	.st171{fill:url(#SVGID_130_);}
	.st172{fill:url(#SVGID_131_);}
	.st173{fill:url(#SVGID_132_);}
	.st174{fill:url(#SVGID_133_);}
	.st175{fill:url(#SVGID_134_);}
	.st176{fill:url(#SVGID_135_);}
	.st177{fill:url(#SVGID_136_);}
	.st178{fill:url(#SVGID_137_);}
	.st179{fill:url(#SVGID_138_);}
	.st180{fill:url(#SVGID_139_);}
	.st181{fill:url(#SVGID_140_);}
	.st182{fill:url(#SVGID_141_);}
	.st183{fill:url(#SVGID_142_);}
	.st184{fill:url(#SVGID_143_);}
	.st185{fill:url(#SVGID_144_);}
	.st186{fill:url(#SVGID_145_);}
	.st187{fill:url(#SVGID_146_);}
	.st188{fill:url(#SVGID_147_);}
	.st189{fill:url(#SVGID_148_);}
	.st190{fill:url(#SVGID_149_);}
	.st191{fill:url(#SVGID_150_);}
	.st192{fill:url(#SVGID_151_);}
	.st193{fill:#00686C;}
	.st194{fill:url(#SVGID_152_);}
	.st195{fill:url(#SVGID_153_);}
	.st196{fill:url(#SVGID_154_);}
	.st197{fill:url(#SVGID_155_);}
	.st198{fill:url(#SVGID_156_);}
	.st199{fill:url(#SVGID_157_);}
	.st200{fill:url(#SVGID_158_);}
	.st201{fill:url(#SVGID_159_);}
	.st202{fill:url(#SVGID_160_);}
	.st203{fill:url(#SVGID_161_);}
	.st204{fill:url(#SVGID_162_);}
	.st205{fill:url(#SVGID_163_);}
	.st206{fill:url(#SVGID_164_);}
	.st207{fill:url(#SVGID_165_);}
	.st208{fill:url(#SVGID_166_);}
	.st209{fill:url(#SVGID_167_);}
	.st210{fill:url(#SVGID_168_);}
	.st211{fill:url(#SVGID_169_);}
	.st212{fill:url(#SVGID_170_);}
	.st213{fill:url(#SVGID_171_);}
	.st214{fill:url(#SVGID_172_);}
	.st215{fill:url(#SVGID_173_);}
	.st216{fill:url(#SVGID_174_);}
	.st217{fill:url(#SVGID_175_);}
	.st218{fill:url(#SVGID_176_);}
	.st219{fill:url(#SVGID_177_);}
	.st220{fill:url(#SVGID_178_);}
	.st221{fill:url(#SVGID_179_);}
	.st222{fill:url(#SVGID_180_);}
	.st223{fill:url(#SVGID_181_);}
	.st224{fill:url(#SVGID_182_);}
	.st225{fill:url(#SVGID_183_);}
	.st226{fill:url(#SVGID_184_);}
	.st227{fill:url(#SVGID_185_);}
	.st228{fill:url(#SVGID_186_);}
	.st229{fill:url(#SVGID_187_);}
	.st230{fill:url(#SVGID_188_);}
	.st231{fill:url(#SVGID_189_);}
	.st232{fill:url(#SVGID_190_);}
	.st233{fill:url(#SVGID_191_);}
	.st234{fill:url(#SVGID_192_);}
	.st235{fill:url(#SVGID_193_);}
	.st236{fill:url(#SVGID_194_);}
	.st237{fill:url(#SVGID_195_);}
	.st238{fill:url(#SVGID_196_);}
	.st239{fill:url(#SVGID_197_);}
	.st240{fill:url(#SVGID_198_);}
	.st241{fill:url(#SVGID_199_);}
	.st242{fill:url(#SVGID_200_);}
	.st243{fill:url(#SVGID_201_);}
	.st244{fill:url(#SVGID_202_);}
	.st245{fill:url(#SVGID_203_);}
	.st246{fill:url(#SVGID_204_);}
	.st247{fill:url(#SVGID_205_);}
	.st248{fill:url(#SVGID_206_);}
	.st249{fill:#05B0C1;}
	.st250{clip-path:url(#SVGID_209_);}
	.st251{clip-path:url(#SVGID_210_);}
	.st252{clip-path:url(#SVGID_215_);}
	.st253{clip-path:url(#SVGID_216_);}
	.st254{fill:#06DAAE;}
	.st255{fill:url(#SVGID_219_);}
	.st256{fill:url(#SVGID_220_);}
	.st257{fill:url(#SVGID_221_);}
	.st258{fill:url(#SVGID_222_);}
	.st259{clip-path:url(#SVGID_225_);}
	.st260{clip-path:url(#SVGID_226_);}
	.st261{fill:#F2EFFA;}
	.st262{clip-path:url(#SVGID_231_);}
	.st263{clip-path:url(#SVGID_232_);}
	.st264{clip-path:url(#SVGID_237_);}
	.st265{clip-path:url(#SVGID_238_);}
	.st266{clip-path:url(#SVGID_243_);}
	.st267{clip-path:url(#SVGID_244_);}
	.st268{enable-background:new    ;}
	.st269{fill:url(#SVGID_247_);}
	.st270{fill:url(#SVGID_248_);}
	.st271{fill:url(#SVGID_249_);}
	.st272{fill:url(#SVGID_250_);}
	.st273{fill:url(#SVGID_251_);}
	.st274{fill:url(#SVGID_252_);}
	.st275{fill:url(#SVGID_253_);}
	.st276{fill:url(#SVGID_254_);}
	.st277{fill:url(#SVGID_255_);}
	.st278{fill:url(#SVGID_256_);}
	.st279{fill:url(#SVGID_257_);}
	.st280{fill:url(#SVGID_258_);}
	.st281{fill:url(#SVGID_259_);}
	.st282{fill:#4CFFD5;}
	.st283{fill:url(#SVGID_260_);}
	.st284{fill:url(#SVGID_261_);}
	.st285{fill:url(#SVGID_262_);}
	.st286{fill:url(#SVGID_263_);}
	.st287{opacity:0.4;fill:url(#SVGID_264_);}
	.st288{opacity:0.4;fill:url(#SVGID_265_);}
	.st289{fill:url(#SVGID_266_);}
	.st290{fill:url(#SVGID_267_);}
	.st291{fill:#00AEEB;}
	.st292{fill:url(#SVGID_268_);}
	.st293{opacity:0.4;fill:url(#SVGID_269_);}
	.st294{fill:url(#SVGID_270_);}
	.st295{opacity:0.4;fill:url(#SVGID_271_);}
	.st296{opacity:0.4;fill:url(#SVGID_272_);}
	.st297{fill:url(#SVGID_273_);}
	.st298{fill:url(#SVGID_274_);}
	.st299{fill:url(#SVGID_275_);}
	.st300{fill:url(#SVGID_276_);}
	.st301{fill:url(#SVGID_277_);}
	.st302{opacity:0.4;fill:url(#SVGID_278_);}
	.st303{opacity:0.4;fill:url(#SVGID_279_);}
	.st304{fill:url(#SVGID_280_);}
	.st305{clip-path:url(#SVGID_281_);enable-background:new    ;}
	.st306{fill:#007878;}
	.st307{clip-path:url(#SVGID_283_);enable-background:new    ;}
	.st308{fill:#007C7C;}
	.st309{fill:#008181;}
	.st310{fill:#00D4D4;}
	.st311{fill:#00445F;}
	.st312{clip-path:url(#SVGID_285_);enable-background:new    ;}
	.st313{fill:#004C6A;}
	.st314{fill:#004967;}
	.st315{fill:#004663;}
	.st316{fill:#004460;}
	.st317{fill:#007CAF;}
	.st318{clip-path:url(#SVGID_287_);enable-background:new    ;}
	.st319{fill:#8F8F8F;}
	.st320{clip-path:url(#SVGID_289_);enable-background:new    ;}
	.st321{clip-path:url(#SVGID_291_);enable-background:new    ;}
	.st322{clip-path:url(#SVGID_293_);enable-background:new    ;}
	.st323{fill:#808080;}
	.st324{fill:#EBEBEB;}
	.st325{fill:#818181;}
	.st326{clip-path:url(#SVGID_295_);enable-background:new    ;}
	.st327{clip-path:url(#SVGID_297_);enable-background:new    ;}
	.st328{clip-path:url(#SVGID_299_);enable-background:new    ;}
	.st329{fill:#131415;}
	.st330{fill:url(#SVGID_301_);}
	.st331{fill:url(#SVGID_302_);}
	.st332{fill:url(#SVGID_303_);}
	.st333{fill:url(#SVGID_304_);}
	.st334{fill:url(#SVGID_305_);}
	.st335{fill:url(#SVGID_306_);}
	.st336{fill:url(#SVGID_307_);}
	.st337{fill:#5C5C66;}
	.st338{fill:#546178;}
	.st339{fill:#4A79DE;}
	.st340{fill:url(#SVGID_308_);}
	.st341{fill-rule:evenodd;clip-rule:evenodd;fill:none;stroke:#D1D1D1;stroke-miterlimit:10;}
	.st342{fill:none;stroke:#45B4FF;}
	.st343{fill:none;stroke:#45B4FF;stroke-dasharray:1.9811,1.9811;}
	.st344{fill:none;stroke:#45B4FF;stroke-dasharray:1.9807,1.9807;}
	.st345{fill:none;stroke:#FF000D;}
	.st346{fill:none;stroke:#45B4FF;stroke-dasharray:2;}
	.st347{fill-rule:evenodd;clip-rule:evenodd;fill:none;stroke:#0ABAFF;stroke-miterlimit:10;}
	.st348{fill:none;stroke:url(#SVGID_309_);stroke-miterlimit:10;}
	.st349{fill:none;stroke:url(#SVGID_310_);stroke-miterlimit:10;}
	.st350{fill:none;stroke:url(#SVGID_311_);stroke-miterlimit:10;}
	.st351{fill:none;stroke:url(#SVGID_312_);stroke-miterlimit:10;}
	.st352{fill:none;stroke:url(#SVGID_313_);stroke-miterlimit:10;}
	.st353{fill:none;stroke:url(#SVGID_314_);stroke-miterlimit:10;}
	.st354{fill:none;stroke:url(#SVGID_315_);stroke-miterlimit:10;}
	.st355{fill:none;stroke:url(#SVGID_316_);stroke-miterlimit:10;}
	.st356{fill:none;stroke:url(#SVGID_317_);stroke-miterlimit:10;}
	.st357{fill:none;stroke:url(#SVGID_318_);stroke-miterlimit:10;}
	.st358{fill:none;stroke:url(#SVGID_319_);stroke-miterlimit:10;}
	.st359{fill:none;stroke:url(#SVGID_320_);stroke-miterlimit:10;}
	.st360{fill:#0ABAFF;}
	.st361{fill:url(#SVGID_321_);}
	.st362{fill:#868686;}
	.st363{fill:url(#SVGID_322_);}
	.st364{fill:#331500;}
	.st365{fill:url(#SVGID_323_);}
	.st366{fill:url(#SVGID_324_);}
	.st367{fill-rule:evenodd;clip-rule:evenodd;fill:url(#SVGID_325_);}
	.st368{fill-rule:evenodd;clip-rule:evenodd;fill:url(#SVGID_326_);}
	.st369{fill:none;stroke:url(#SVGID_327_);stroke-width:2;stroke-linecap:round;stroke-linejoin:round;stroke-miterlimit:10;}
	.st370{fill:url(#SVGID_328_);}
	.st371{fill:none;stroke:url(#SVGID_329_);stroke-width:2;stroke-linecap:round;stroke-linejoin:round;stroke-miterlimit:10;}
	.st372{fill:url(#SVGID_330_);}
	.st373{fill:url(#SVGID_331_);}
	.st374{fill:url(#SVGID_332_);}
	.st375{fill:url(#SVGID_333_);}
	.st376{clip-path:url(#SVGID_334_);enable-background:new    ;}
	.st377{clip-path:url(#SVGID_336_);enable-background:new    ;}
	.st378{clip-path:url(#SVGID_338_);enable-background:new    ;}
	.st379{fill:#858585;}
	.st380{fill:#8A8A8A;}
	.st381{clip-path:url(#SVGID_340_);enable-background:new    ;}
	.st382{clip-path:url(#SVGID_342_);enable-background:new    ;}
	.st383{clip-path:url(#SVGID_344_);enable-background:new    ;}
	.st384{clip-path:url(#SVGID_346_);enable-background:new    ;}
	.st385{clip-path:url(#SVGID_348_);enable-background:new    ;}
	.st386{clip-path:url(#SVGID_350_);enable-background:new    ;}
	.st387{clip-path:url(#SVGID_352_);enable-background:new    ;}
	.st388{clip-path:url(#SVGID_354_);enable-background:new    ;}
	.st389{clip-path:url(#SVGID_356_);enable-background:new    ;}
	.st390{fill:#004B6A;}
	.st391{clip-path:url(#SVGID_358_);enable-background:new    ;}
	.st392{clip-path:url(#SVGID_360_);enable-background:new    ;}
	.st393{clip-path:url(#SVGID_362_);enable-background:new    ;}
	.st394{clip-path:url(#SVGID_364_);enable-background:new    ;}
	.st395{fill:#007373;}
	.st396{clip-path:url(#SVGID_366_);enable-background:new    ;}
	.st397{clip-path:url(#SVGID_368_);enable-background:new    ;}
	.st398{clip-path:url(#SVGID_370_);enable-background:new    ;}
</style>
<g id="图层_855">
</g>
<g id="图层_854">
</g>
<g id="图层_853">
</g>
<g id="图层_840">
</g>
<g id="图层_823">
</g>
<g>
	<polygon class="st0" points="79,60.6 68.9,83 28.8,89.2 0.5,73 0.5,65.4 79,53 	"/>
	<polygon class="st1" points="79,60.6 68.9,83 68.9,75.4 79,53 	"/>
	<polygon class="st2" points="79,53 68.9,75.4 28.8,81.6 0.5,65.4 10.9,42.8 51.2,36.9 	"/>
	<polygon class="st3" points="68.9,75.4 68.9,83 28.8,89.2 28.8,81.6 	"/>
</g>
<g>
	<path class="st4" d="M61.8,53v-2.1h-0.4c-0.8-2.3-2.9-4.6-6.1-6.4c-8.7-4.9-22.8-4.9-31.4-0.1c-3.3,1.8-5.3,4.1-6.1,6.4h-0.4v2
		c0,0.2,0,0.4,0,0.6v0.2h0c0.2,3.1,2.4,6.1,6.5,8.4c8.7,4.9,22.8,4.9,31.4,0.1C59.8,59.6,62,56.3,61.8,53z"/>
	<linearGradient id="SVGID_4_" gradientUnits="userSpaceOnUse" x1="17.3709" y1="51.1654" x2="61.7907" y2="51.1654">
		<stop  offset="0" style="stop-color:#0186BE"/>
		<stop  offset="4.621859e-02" style="stop-color:#0196C5"/>
		<stop  offset="0.1825" style="stop-color:#00C1D7"/>
		<stop  offset="0.2889" style="stop-color:#00DCE2"/>
		<stop  offset="0.3516" style="stop-color:#00E6E6"/>
		<stop  offset="0.4657" style="stop-color:#00DDE2"/>
		<stop  offset="0.6555" style="stop-color:#00C3D7"/>
		<stop  offset="0.8961" style="stop-color:#019AC6"/>
		<stop  offset="1" style="stop-color:#0186BE"/>
	</linearGradient>
	<path class="st5" d="M60.7,47.5L60.7,47.5L57.2,42L54,41.8c-7.1-3.4-17.1-4-25-1.6l-1.4-0.1l-5.3,1.2L19.3,46
		c-3.6,4.6-2.1,10.1,4.7,13.9c8.7,4.9,22.8,4.9,31.4,0.1C61.4,56.6,63.2,51.7,60.7,47.5z"/>
	<ellipse transform="matrix(5.124820e-03 -1 1 5.124820e-03 -5.66 84.3879)" class="st6" cx="39.6" cy="45" rx="10.4" ry="18.5"/>
	<path class="st7" d="M54,44.8v0.6c-0.1,1.1-0.5,2.3-1.5,3.3c-0.7,0.8-1.6,1.5-2.7,2.1c-5.6,3.1-14.7,3.1-20.4,0
		c-1.2-0.7-2.1-1.4-2.8-2.2c-0.9-1-1.4-2.1-1.4-3.2c0-0.2,0-0.5,0-0.7c0.2-1.9,1.5-3.8,4.2-5.3c5.6-3.1,14.7-3.1,20.4,0
		C52.4,40.8,53.8,42.8,54,44.8z"/>
</g>
<linearGradient id="SVGID_5_" gradientUnits="userSpaceOnUse" x1="39.3959" y1="52.1592" x2="39.3959" y2="9.9164">
	<stop  offset="0" style="stop-color:#00D8FF"/>
	<stop  offset="8.933572e-02" style="stop-color:#11DBFF"/>
	<stop  offset="0.2658" style="stop-color:#3CE1FF"/>
	<stop  offset="0.5124" style="stop-color:#83ECFF"/>
	<stop  offset="0.8169" style="stop-color:#E2FBFF"/>
	<stop  offset="0.904" style="stop-color:#FFFFFF"/>
</linearGradient>
<path class="st18" d="M54.2,46.6V47c-0.1,0.9-0.5,1.8-1.5,2.7c-0.7,0.6-1.6,1.2-2.8,1.7C44.3,54,35,54,29.3,51.4
	c-1.2-0.5-2.1-1.1-2.8-1.8c-0.9-0.8-1.4-1.7-1.5-2.6L24.6,0H54L54.2,46.6z"/>
<g>
	<linearGradient id="SVGID_6_" gradientUnits="userSpaceOnUse" x1="36.2633" y1="40.1349" x2="42.0164" y2="40.1349">
		<stop  offset="0" style="stop-color:#0186BE"/>
		<stop  offset="6.859902e-02" style="stop-color:#018CC0"/>
		<stop  offset="0.1577" style="stop-color:#019CC7"/>
		<stop  offset="0.2582" style="stop-color:#00B7D2"/>
		<stop  offset="0.3662" style="stop-color:#00DCE2"/>
		<stop  offset="0.3925" style="stop-color:#00E6E6"/>
		<stop  offset="0.666" style="stop-color:#01B4D1"/>
		<stop  offset="0.882" style="stop-color:#0192C3"/>
		<stop  offset="1" style="stop-color:#0186BE"/>
	</linearGradient>
	<path style="fill:url(#SVGID_6_);" d="M39,37.3c-1.6,0-2.8,1.4-2.8,3c0,0.8,0.8,2.1,1.3,2.6c0.5,0.5,0.7-0.4,1.5-0.4
		c1.6,0,2.8-1.4,2.8-3c0-0.6,0.4,0,0.1-0.4C41.3,38.4,40,37.2,39,37.3"/>
	<linearGradient id="SVGID_7_" gradientUnits="userSpaceOnUse" x1="30.8283" y1="33.2583" x2="47.3593" y2="33.2583">
		<stop  offset="0" style="stop-color:#0186BE"/>
		<stop  offset="6.859902e-02" style="stop-color:#018CC0"/>
		<stop  offset="0.1577" style="stop-color:#019CC7"/>
		<stop  offset="0.2582" style="stop-color:#00B7D2"/>
		<stop  offset="0.3662" style="stop-color:#00DCE2"/>
		<stop  offset="0.3925" style="stop-color:#00E6E6"/>
		<stop  offset="0.666" style="stop-color:#01B4D1"/>
		<stop  offset="0.882" style="stop-color:#0192C3"/>
		<stop  offset="1" style="stop-color:#0186BE"/>
	</linearGradient>
	<path class="st20" d="M32,32.7c0,0,0.1-0.1,0.1-0.1l0.1-0.1c0,0,0,0,0.1-0.1c3.6-3.5,9.5-3.9,13.1-0.4l0.4,0.4l0.6,0.6
		c0.7,0.7,1.1,2,0.9,2.9c-0.2,1-2.8,0.8-3.5,0.1l-1-1c-2.3-2.2-6-2.1-8.2,0.3l-0.7,0.7c-0.7,0.7-1.5,1.5-2.2,0.9
		c-0.3-0.3-0.9-1.6-0.9-2c0-0.5,0.2-0.9,0.5-1.3L32,32.7z"/>
	<linearGradient id="SVGID_8_" gradientUnits="userSpaceOnUse" x1="26.7106" y1="28.2202" x2="51.6658" y2="28.2202">
		<stop  offset="0" style="stop-color:#0186BE"/>
		<stop  offset="3.838593e-02" style="stop-color:#0190C2"/>
		<stop  offset="0.2395" style="stop-color:#00BED5"/>
		<stop  offset="0.394" style="stop-color:#00DBE1"/>
		<stop  offset="0.4824" style="stop-color:#00E6E6"/>
		<stop  offset="0.6264" style="stop-color:#00CFDD"/>
		<stop  offset="0.9265" style="stop-color:#0195C4"/>
		<stop  offset="1" style="stop-color:#0186BE"/>
	</linearGradient>
	<path class="st21" d="M27,29.3l0.6-0.6c0,0,0,0,0,0l0.5-0.5c0.1-0.1,0.2-0.2,0.3-0.2c5.9-5.5,15.3-5.8,21.3-0.3c0,0,0.1,0,0.1,0.1
		l1.1,1c0.7,0.6,1.2,2.4,0.6,3.1c-0.6,0.7-2.4,0.1-3.1-0.5l-1.1-1c0,0,0,0,0,0c-4.9-4.4-12.4-4.2-17,0.4l-0.8,0.9
		c-0.6,0.7-1.2,1.6-1.8,1C26.9,31.9,26.4,29.9,27,29.3"/>
</g>
<g>
	<path class="st291" d="M39.5,37.9c-1.6,0-2.8,1.4-2.8,3c0,1.6,1.4,2.8,3,2.8c1.6,0,2.8-1.4,2.8-3C42.4,39.1,41.1,37.9,39.5,37.9"/>
	<path class="st291" d="M32.5,34.1c0,0,0.1-0.1,0.1-0.1l0.1-0.1c0,0,0,0,0.1-0.1c3.6-3.5,9.3-3.5,12.9-0.1l0.4,0.4l0.6,0.6
		c0.7,0.7,0.8,1.8,0.1,2.5c-0.7,0.7-1.8,0.8-2.5,0.1l-1-1c-2.3-2.2-6-2.1-8.2,0.3l-0.7,0.7c-0.7,0.7-1.8,0.7-2.5,0.1
		c-0.3-0.3-0.5-0.8-0.6-1.2c0-0.5,0.2-0.9,0.5-1.3L32.5,34.1z"/>
	<path class="st291" d="M27.5,30.7l0.6-0.6c0,0,0,0,0,0l0.5-0.5c0.1-0.1,0.2-0.2,0.3-0.2c5.9-5.5,15.1-5.6,21.1-0.2
		c0,0,0.1,0,0.1,0.1l1.1,1c0.7,0.6,0.7,1.7,0.1,2.3c-0.6,0.7-1.7,0.7-2.3,0.1l-1.1-1c0,0,0,0,0,0c-4.9-4.4-12.4-4.2-17,0.4L29.9,33
		c-0.6,0.7-1.7,0.7-2.3,0.1C26.9,32.4,26.9,31.4,27.5,30.7"/>
</g>
</svg>
