<svg id="图层_1" data-name="图层 1" xmlns="http://www.w3.org/2000/svg" viewBox="0 0 200 200"><defs><style>.cls-1{fill:#00e6e6;}.cls-2{fill:#0087be;}</style></defs><title>Folderglocal-view-nodes-a</title><path class="cls-1" d="M23.34,80.78c0-6.08,4-11,8.9-11H183.92V61.47c0-6.68-4.17-12.11-9.3-12.11H97.53l-8-10.93c-3.49-6.62-8.62-9.57-12.65-9.57H13c-4,0-7.33,4.27-7.33,9.57V153.3Z"/><path class="cls-2" d="M187.76,80.64H39.87c-4.38,0-7.94,4.41-7.94,9.88L13.74,165.24c0,5.47,3.56,9.88,7.94,9.88H169.57c4.38,0,7.94-4.41,7.94-9.88L195.7,90.52c0-5.47-3.57-9.88-7.94-9.88Zm-44.93,41.13L127.9,136.26a4,4,0,0,0-1,2.85l3.46,20.53a3.26,3.26,0,0,1-1.16,3.36,3,3,0,0,1-1.69.55,4,4,0,0,1-1.87-.51L107.3,153.3a3.86,3.86,0,0,0-3,0l-18.46,9.64a3.38,3.38,0,0,1-3.57,0,3.24,3.24,0,0,1-1.12-3.39L84.7,139a3.93,3.93,0,0,0-.92-2.85L68.92,121.57a3.06,3.06,0,0,1,1.8-5.5l20.59-2.95a3.92,3.92,0,0,0,2.45-1.77L103,92.69a3.07,3.07,0,0,1,5.81,0l9.16,18.7a3.78,3.78,0,0,0,2.44,1.76l20.6,3.06a3.24,3.24,0,0,1,2.85,2.13,3.3,3.3,0,0,1-1,3.43Zm0,0"/></svg>