<svg id="图层_1" data-name="图层 1" xmlns="http://www.w3.org/2000/svg" viewBox="0 0 200 200"><defs><style>.cls-1{fill:#00e6e6;}.cls-2{fill:#0087be;}.cls-3{fill:#fff;}.cls-4{fill:#e5e5e5;}</style></defs><title>Folderglocal-view-nodes-a</title><path class="cls-1" d="M156.78,26.37h-10v10.8h3.69v16H50.29v-16H58l-1.34-10.8H35.54a11,11,0,0,0-10.8,11.29V176.58c0,5.89,11.8,17.17,17.69,17.17l114.35-5.88a11,11,0,0,0,10.8-11.29L175.51,41c-.49-6.38-12.84-14.58-18.73-14.58Z"/><path class="cls-2" d="M165.41,32.41H148.2v10.8h3.69v16h-93v-16H63.1V32.41H44.17A11,11,0,0,0,33.37,43.7V182.62c0,5.89,4.91,11.29,10.8,11.29H165.41a11,11,0,0,0,10.8-11.29V43.7c-.49-6.38-4.91-11.29-10.8-11.29Z"/><path class="cls-3" d="M103.14,77.08c5.5,0,8.65,2.46,8.65,7.37V138c0,4.91-3.15,7.36-8.65,7.36s-8.65-2.45-8.65-7.36V84.45c0-4.91,3.14-7.37,8.65-7.37Z"/><path class="cls-4" d="M140.58,5.91H61.06A10.37,10.37,0,0,0,50.75,16.22V26.37l4.15,6,2.69,15.68c0,5.4-2.43,10.83,3.47,10.83h80a10.36,10.36,0,0,0,10.3-10.31l4.16-29.13C155.53,13.59,146.47,5.91,140.58,5.91Zm-.5,41.72H61.55V16.71h78.53Z"/><path class="cls-3" d="M144.79,10.33H65.27A10.35,10.35,0,0,0,55,20.63V53a10.36,10.36,0,0,0,10.3,10.31h80A10.37,10.37,0,0,0,155.59,53V20.63C155.59,14.74,150.68,10.33,144.79,10.33Zm-.49,41.72H65.76V21.12H144.3Z"/><rect class="cls-3" x="94.49" y="150.1" width="17.3" height="17.3" rx="1.84"/></svg>