<svg id="图层_1" data-name="图层 1" xmlns="http://www.w3.org/2000/svg" viewBox="0 0 200 200"><defs><style>.cls-1{fill:#0087be;}.cls-2{fill:#00e6e6;}.cls-3{fill:#fff;}.cls-4{fill:none;}</style></defs><title>Folderglocal-view-nodes-a</title><path class="cls-1" d="M63.31,71.67,43.9,53.6c.82-.66,2.22-1.72,4.22-3a96.17,96.17,0,0,1,11-6.29c29-14.12,60.56-13.75,89.88,10.91l-8.52,10.36C115.72,44.7,89.68,44.4,64.94,56.43c-3.28,1.59,3.54,2.42.5,4.43-1.09.72-1.65.59-2.69,1.38Z"/><path class="cls-1" d="M72.19,71.53c18.84-9.16,39.46-8.92,58.52,7.11L122.18,89C107.65,76.8,92.52,76.61,78,83.69c-1.93.94,7.22,9.58,5.43,10.77-.93.61-1.53,1.06-1.78,1.26L62.23,77.63a54.59,54.59,0,0,1,10-6.1Z"/><path class="cls-1" d="M98.34,21c-16-.18-31.55,3.92-45.93,10.93a114.26,114.26,0,0,0-13.22,7.53c-1.33.88,8.55,9.26,7.58,10l-1.07.82L26.3,32.14c1.05-.86,2.93-2.25,5.57-4a127.28,127.28,0,0,1,14.76-8.41C62.74,11.9,80.23,7.25,98.51,7.46c23.63.28,46.64,8.73,68.13,26.8l-8.53,10.37C139,28.56,118.94,21.2,98.35,21Z"/><path class="cls-2" d="M161.47,168.66v16.2L44.41,192.7l-10.14-7.84-.1-10.17C16.17,167.54,6,150.87,6,137.3a33.36,33.36,0,0,1,33.32-33.39H150.37c18.4,0,42.74,15.9,42.74,34.34,0,14.52-18.73,25.81-31.64,30.41Z"/><path class="cls-1" d="M171.62,176.5v16.2H44.41V178a33.34,33.34,0,0,1,5.05-66.29h111a33.33,33.33,0,0,1,11.11,64.75Z"/><path class="cls-3" d="M64.6,136a10.11,10.11,0,1,0,7.15,3,10.11,10.11,0,0,0-7.15-3Z"/><path class="cls-3" d="M105,136a10.12,10.12,0,1,0,10.09,10.12A10.12,10.12,0,0,0,105,136Z"/><path class="cls-3" d="M145.37,136a10.12,10.12,0,1,0,10.1,10.12A10.14,10.14,0,0,0,145.37,136Z"/><path class="cls-2" d="M63.31,71.67,55,61.16c.82-.66,2.22-1.72,4.22-3a96.17,96.17,0,0,1,11-6.29c29-14.12,60.56-13.75,89.88,10.91L151.56,73.1C126.76,52.26,100.73,52,76,64a82.24,82.24,0,0,0-9.49,5.4c-1.09.73-2.15,1.48-3.19,2.28Z"/><path class="cls-2" d="M83.23,79.09c18.85-9.16,39.46-8.92,58.53,7.11l-8.53,10.37C118.7,84.36,103.57,84.17,89,91.25a47.75,47.75,0,0,0-5.6,3.19c-.93.62-1.53,1.06-1.78,1.26L73.28,85.19a54.44,54.44,0,0,1,10-6.1Z"/><path class="cls-2" d="M109.39,28.52c-16-.18-31.55,3.92-45.93,10.93A113.44,113.44,0,0,0,50.24,47c-1.33.88-2.5,1.7-3.47,2.42l-1.07.82L37.35,39.7c1-.86,2.92-2.25,5.57-4a127.28,127.28,0,0,1,14.76-8.41C73.79,19.46,91.27,14.81,109.55,15c23.64.27,46.65,8.73,68.14,26.8l-8.53,10.37C150,36.12,130,28.75,109.4,28.52Z"/><rect class="cls-4" x="16.17" y="14.9" width="177.83" height="178.02"/></svg>