<svg id="图层_1" data-name="图层 1" xmlns="http://www.w3.org/2000/svg" viewBox="0 0 200 200"><defs><style>.cls-1{fill:#0087be;}.cls-2{fill:#00e6e6;}.cls-3{fill:#fff;}.cls-4{fill:#f2f2f2;}</style></defs><title>Folderglocal-view-nodes-a</title><polygon class="cls-1" points="194.27 136.06 194.27 129.69 93.72 80.47 6.27 120.01 6.27 126.38 106.82 181.97 194.27 136.06"/><polygon class="cls-2" points="194.27 129.69 93.72 74.1 6.27 120.01 106.82 175.61 194.27 129.69"/><polygon class="cls-1" points="41.35 57.11 105.23 80.47 170.58 58.22 170.58 127.55 105.43 158.8 41.35 123.35 41.35 57.11"/><polygon class="cls-2" points="105.23 80.47 41.35 57.11 106.7 34.84 170.58 58.2 105.23 80.47"/><polygon class="cls-3" points="130.54 71.82 66.66 48.47 81.06 43.61 144.94 66.97 130.54 71.82"/><polygon class="cls-4" points="144.94 78.38 130.54 83.24 130.54 71.82 144.94 66.96 144.94 78.38"/></svg>