<svg id="图层_1" data-name="图层 1" xmlns="http://www.w3.org/2000/svg" viewBox="0 0 200 200"><defs><style>.cls-1{fill:#0087be;}.cls-2{fill:#00e6e6;}.cls-3{fill:#fff;}</style></defs><title>Folderglocal-view-nodes-a</title><path class="cls-1" d="M105,105.86c11-9.78,48.29-57.53,39.92-71.92C131.94,11.61,113.57,6,94.3,6,67,6,44.82,29.89,44.82,59.39A55.3,55.3,0,0,0,59.44,97.26c1.11,1.08,16.8,18.26,42.51,21.51"/><path class="cls-2" d="M145.39,120.21,134,113.12c-10.09,8.27-38.69,25.72-78.22-.62C43.82,121.66,12,148,15.55,165.7c0,0,4.69,25.08,38.32,26,0,0,96.17.85,112.84-16.42,0,0,18.2-11.72-5.86-37.64"/><path class="cls-2" d="M137.1,107.78A55,55,0,0,0,155.18,66.5c0-29.52-22.15-53.41-49.46-53.41S56.24,37,56.24,66.48a55.34,55.34,0,0,0,14.62,37.87c1.11,1.08,32.58,30.19,66.24,3.43"/><path class="cls-1" d="M172.27,144.71l-26.88-24.5c-10.09,8.27-38.69,25.72-78.23-.62-11.92,9.16-43.71,35.46-40.19,53.2,0,0,.62,18.51,34.26,19.41,0,0,100.24,7.41,116.9-9.86,0,0,18.2-11.72-5.86-37.63"/><path class="cls-3" d="M95.18,132a73.84,73.84,0,0,0,10.07,1.47,58.46,58.46,0,0,0,11.11-.46l5.36,11.37-8.55,18.88.09,30.73H98.09l.17-30.73L89.7,144.39Z"/></svg>