<svg id="图层_1" data-name="图层 1" xmlns="http://www.w3.org/2000/svg" viewBox="0 0 200 200"><defs><style>.cls-1{fill:#f2f2f2;stroke:#00e6e6;stroke-linecap:square;stroke-linejoin:round;stroke-width:0.5px;}.cls-2{fill:#0087be;}.cls-3{fill:#e5e5e5;}</style></defs><title>Folderglocal-view-nodes-a</title><path class="cls-1" d="M101,29.78a73,73,0,0,1,29.11,6l29.64,12.83V87.24A83.09,83.09,0,0,1,155,115.35v0a91.2,91.2,0,0,1-13.64,25.11l-.06.08,0,.07a89.1,89.1,0,0,1-20.75,19.76A75.53,75.53,0,0,1,101,169.9a74.63,74.63,0,0,1-19.52-9.55,88.38,88.38,0,0,1-20.74-19.79l0-.06,0-.05a91.33,91.33,0,0,1-13.55-25l0,0v0a82.52,82.52,0,0,1-4.81-28V48.65L71.9,35.82a73,73,0,0,1,29.14-6"/><path class="cls-2" d="M101,18a84.86,84.86,0,0,1,33.8,7l36.72,15.9v46.3A94.49,94.49,0,0,1,166,119.3a103.06,103.06,0,0,1-15.4,28.33l0,0,0,0a100.3,100.3,0,0,1-23.48,22.4,86.56,86.56,0,0,1-26,12A86.41,86.41,0,0,1,74.87,170a100.45,100.45,0,0,1-23.48-22.39l0,0v0a103.57,103.57,0,0,1-15.3-28.26v0a94.27,94.27,0,0,1-5.51-32.08V40.94L67.26,25a85.92,85.92,0,0,1,16.63-5.25A83.56,83.56,0,0,1,101,18m0-11.75a96.64,96.64,0,0,0-38.46,8l-43.79,19v54A105.89,105.89,0,0,0,25,123.28a115,115,0,0,0,17,31.47,112.94,112.94,0,0,0,26.24,25A98,98,0,0,0,101,194.28a98.3,98.3,0,0,0,32.68-14.45,112.34,112.34,0,0,0,26.24-25A115.2,115.2,0,0,0,177,123.25a106.54,106.54,0,0,0,6.21-36.06v-54l-43.81-19a96.71,96.71,0,0,0-38.44-8Zm0,0"/><path class="cls-3" d="M101.39,30.7a72,72,0,0,1,28.73,6l29.24,12.67V87.41a81.73,81.73,0,0,1-4.76,27.74v0A90.07,90.07,0,0,1,141.14,140l-.06.07-.05.07a87.94,87.94,0,0,1-20.47,19.5A74.21,74.21,0,0,1,101.37,169l0-138.27"/></svg>