<svg id="图层_1" data-name="图层 1" xmlns="http://www.w3.org/2000/svg" viewBox="0 0 200 200"><defs><style>.cls-1{fill:#0087be;}.cls-2{fill:#00e6e6;}.cls-3{fill:#fff;}</style></defs><title>Folderglocal-view-nodes-a</title><path class="cls-1" d="M100,150.2C57.53,150.2,23.09,138,23.09,123v45.39h.15C25.58,182.66,59.05,194,100,194s74.42-11.34,76.76-25.64h.15V123c0,15-34.43,27.23-76.91,27.23ZM23.09,121.36V123a9.64,9.64,0,0,1,.15-1.61Zm153.67,0a8.69,8.69,0,0,1,.15,1.61v-1.61Zm0,0"/><path class="cls-2" d="M100,104.27c-42.47,0-76.91-12.19-76.91-27.24v47.54h.15C25.58,138.86,59.05,150.2,100,150.2s74.42-11.34,76.76-25.63h.15V77c0,15-34.43,27.24-76.91,27.24ZM23.09,75.43V77a9.62,9.62,0,0,1,.15-1.6Zm153.67,0a8.66,8.66,0,0,1,.15,1.6v-1.6Zm0,0"/><path class="cls-2" d="M23.09,33.24c0,15,34.44,27.24,76.91,27.24s76.91-12.2,76.91-27.24S142.48,6,100,6,23.09,18.2,23.09,33.24Zm0,0"/><path class="cls-1" d="M100,60.48c-42.47,0-76.91-12.2-76.91-27.24v45.4h.15c2.34,14.29,35.81,25.63,76.76,25.63s74.42-11.34,76.76-25.63h.15V33.24c0,15-34.43,27.24-76.91,27.24ZM23.09,31.64v1.6a9.52,9.52,0,0,1,.15-1.6Zm153.67,0a8.58,8.58,0,0,1,.15,1.6v-1.6Zm0,0"/><path class="cls-3" d="M42.54,76.23a11.35,11.35,0,1,0,5.67-9.82,11.35,11.35,0,0,0-5.67,9.82Zm0,0"/><path class="cls-3" d="M42.54,122.16a11.35,11.35,0,1,0,5.67-9.82,11.35,11.35,0,0,0-5.67,9.82Zm0,0"/><path class="cls-3" d="M42.54,165.86A11.35,11.35,0,1,0,48.21,156a11.34,11.34,0,0,0-5.67,9.83Zm0,0"/><path class="cls-3" d="M143.81,72.23a3.24,3.24,0,1,0,4.86-2.81,3.28,3.28,0,0,0-3.24,0,3.23,3.23,0,0,0-1.62,2.81Z"/><path class="cls-3" d="M130.84,75a3.25,3.25,0,0,0,1.62,2.81,3.28,3.28,0,0,0,3.24,0A3.24,3.24,0,1,0,130.84,75Z"/><path class="cls-3" d="M150.29,82a3.24,3.24,0,1,0,1.62-2.81A3.23,3.23,0,0,0,150.29,82Z"/><path class="cls-3" d="M137.32,84.15a3.25,3.25,0,1,0,1.62-2.81,3.25,3.25,0,0,0-1.62,2.81Z"/><path class="cls-3" d="M117.88,76.76A3.24,3.24,0,1,0,122.74,74a3.28,3.28,0,0,0-3.24,0,3.23,3.23,0,0,0-1.62,2.81Z"/><path class="cls-3" d="M124.36,85.2A3.24,3.24,0,1,0,126,82.39a3.25,3.25,0,0,0-1.62,2.81Z"/><path class="cls-3" d="M104.91,78a3.24,3.24,0,1,0,4.86-2.81,3.28,3.28,0,0,0-3.24,0A3.25,3.25,0,0,0,104.91,78Z"/><path class="cls-3" d="M111.39,86.49A3.25,3.25,0,1,0,113,83.68a3.25,3.25,0,0,0-1.62,2.81Z"/><path class="cls-3" d="M91.94,78a3.25,3.25,0,1,0,4.87-2.81,3.28,3.28,0,0,0-3.24,0A3.24,3.24,0,0,0,91.94,78Z"/><path class="cls-3" d="M98.43,87.39a3.2,3.2,0,0,0,1.62,2.8,3.24,3.24,0,1,0-1.62-2.8Z"/><path class="cls-3" d="M143.81,115.39a3.24,3.24,0,1,0,1.62-2.81,3.23,3.23,0,0,0-1.62,2.81Z"/><path class="cls-3" d="M130.84,118.11a3.24,3.24,0,1,0,1.62-2.8,3.25,3.25,0,0,0-1.62,2.8Z"/><path class="cls-3" d="M150.29,125.11a3.24,3.24,0,1,0,1.62-2.8,3.25,3.25,0,0,0-1.62,2.8Z"/><path class="cls-3" d="M137.32,127.3a3.25,3.25,0,1,0,1.62-2.81,3.25,3.25,0,0,0-1.62,2.81Z"/><path class="cls-3" d="M117.88,119.92a3.23,3.23,0,0,0,1.62,2.81,3.28,3.28,0,0,0,3.24,0,3.24,3.24,0,1,0-4.86-2.81Z"/><path class="cls-3" d="M124.36,128.35a3.24,3.24,0,1,0,1.62-2.8,3.25,3.25,0,0,0-1.62,2.8Z"/><path class="cls-3" d="M104.91,121.11a3.25,3.25,0,0,0,1.62,2.81,3.28,3.28,0,0,0,3.24,0,3.24,3.24,0,1,0-4.86-2.81Z"/><path class="cls-3" d="M111.39,129.64a3.25,3.25,0,1,0,4.87-2.81,3.3,3.3,0,0,0-3.25,0,3.25,3.25,0,0,0-1.62,2.81Z"/><path class="cls-3" d="M91.94,121.11a3.25,3.25,0,0,0,6.49,0,3.25,3.25,0,0,0-6.49,0Z"/><path class="cls-3" d="M98.43,130.54a3.24,3.24,0,1,0,4.86-2.81,3.28,3.28,0,0,0-3.24,0,3.23,3.23,0,0,0-1.62,2.81Z"/><path class="cls-3" d="M143.81,161.72a3.24,3.24,0,1,0,1.62-2.8,3.23,3.23,0,0,0-1.62,2.8Z"/><path class="cls-3" d="M130.84,164.45a3.24,3.24,0,1,0,1.62-2.81,3.25,3.25,0,0,0-1.62,2.81Z"/><path class="cls-3" d="M150.29,171.45a3.25,3.25,0,0,0,1.62,2.81,3.28,3.28,0,0,0,3.24,0,3.24,3.24,0,1,0-4.86-2.81Z"/><path class="cls-3" d="M137.32,173.64a3.25,3.25,0,1,0,1.62-2.81,3.22,3.22,0,0,0-1.62,2.81Z"/><path class="cls-3" d="M117.88,166.25a3.24,3.24,0,1,0,1.62-2.8,3.23,3.23,0,0,0-1.62,2.8Z"/><path class="cls-3" d="M124.36,174.69a3.24,3.24,0,1,0,1.62-2.81,3.25,3.25,0,0,0-1.62,2.81Z"/><path class="cls-3" d="M104.91,167.44a3.24,3.24,0,1,0,1.62-2.8,3.25,3.25,0,0,0-1.62,2.8Z"/><path class="cls-3" d="M111.39,176a3.25,3.25,0,0,0,1.62,2.81,3.3,3.3,0,0,0,3.25,0,3.25,3.25,0,1,0-4.87-2.81Z"/><path class="cls-3" d="M91.94,167.44a3.25,3.25,0,1,0,1.63-2.8,3.24,3.24,0,0,0-1.63,2.8Z"/><path class="cls-3" d="M98.43,176.88a3.24,3.24,0,1,0,1.62-2.81,3.23,3.23,0,0,0-1.62,2.81Z"/></svg>