<svg id="图层_1" data-name="图层 1" xmlns="http://www.w3.org/2000/svg" viewBox="0 0 200 200"><defs><style>.cls-1{fill:#0087be;}.cls-2{fill:#00e6e6;}.cls-3{fill:none;}</style></defs><title>扁平风格</title><path class="cls-1" d="M194.8,56.89V168.3a10.34,10.34,0,0,1-10.32,10.32H15.31A10.33,10.33,0,0,1,5,168.3V32.14A10.33,10.33,0,0,1,15.31,21.82H72.57a10.25,10.25,0,0,1,7.3,3L101,46a2,2,0,0,0,1.46.61h82A10.34,10.34,0,0,1,194.8,56.89ZM134.19,104.5a4.1,4.1,0,0,0-3.33-2.8L112,99l-8.43-17.07a4.13,4.13,0,0,0-7.4,0L87.77,99,68.94,101.7a4.12,4.12,0,0,0-2.29,7L80.28,122l-3.23,18.76a4.12,4.12,0,0,0,6,4.35l16.85-8.84,16.85,8.85a4.12,4.12,0,0,0,6-4.35L119.51,122l13.63-13.28a4.12,4.12,0,0,0,1.05-4.24Zm0,0"/><path class="cls-2" d="M5,32.14A10.33,10.33,0,0,1,15.31,21.82H72.57a10.25,10.25,0,0,1,7.3,3L101,46a2,2,0,0,0,1.46.61H5Z"/><rect id="SVGID" class="cls-3" x="5.02" y="21.72" width="189.97" height="157.13"/></svg>