<svg id="图层_1" data-name="图层 1" xmlns="http://www.w3.org/2000/svg" viewBox="0 0 200 200"><defs><style>.cls-1{fill:#0087be;}.cls-2{fill:#fff;}.cls-3{fill:#00e6e6;}</style></defs><title>扁平风格</title><path class="cls-1" d="M176.18,75.17H23.82A10.83,10.83,0,0,1,13,64.35V29A10.83,10.83,0,0,1,23.82,18.17H176.17A10.83,10.83,0,0,1,187,29V64.34a10.83,10.83,0,0,1-10.82,10.83Z"/><path class="cls-2" d="M31,46.67a10.5,10.5,0,1,0,5.25-9.09A10.5,10.5,0,0,0,31,46.67Zm0,0"/><path class="cls-2" d="M157,42.17a3,3,0,1,0,1.5-2.6,3,3,0,0,0-1.5,2.6Zm0,0"/><path class="cls-2" d="M145,42.17a3,3,0,1,0,1.5-2.6,3,3,0,0,0-1.5,2.6Zm0,0"/><path class="cls-2" d="M163,51.17a3,3,0,1,0,1.5-2.6,3,3,0,0,0-1.5,2.6Zm0,0"/><path class="cls-2" d="M151,51.17a3,3,0,1,0,1.5-2.6,3,3,0,0,0-1.5,2.6Zm0,0"/><path class="cls-2" d="M133,42.17a3,3,0,1,0,1.5-2.6,3,3,0,0,0-1.5,2.6Zm0,0"/><path class="cls-2" d="M139,51.17a3,3,0,1,0,1.5-2.6,3,3,0,0,0-1.5,2.6Zm0,0"/><path class="cls-2" d="M121,42.17a3,3,0,1,0,1.5-2.6,3,3,0,0,0-1.5,2.6Zm0,0"/><path class="cls-2" d="M127,51.17a3,3,0,1,0,1.5-2.6,3,3,0,0,0-1.5,2.6Zm0,0"/><path class="cls-2" d="M109,42.17a3,3,0,1,0,1.5-2.6,3,3,0,0,0-1.5,2.6Zm0,0"/><path class="cls-2" d="M115,51.17a3,3,0,1,0,1.5-2.6,3,3,0,0,0-1.5,2.6Zm0,0"/><path class="cls-3" d="M176.18,132.17H23.82A10.83,10.83,0,0,1,13,121.35V86A10.83,10.83,0,0,1,23.82,75.17H176.17A10.83,10.83,0,0,1,187,86v35.35a10.83,10.83,0,0,1-10.82,10.83Z"/><path class="cls-2" d="M31,103.67a10.5,10.5,0,1,0,5.25-9.09A10.5,10.5,0,0,0,31,103.67Zm0,0"/><path class="cls-2" d="M157,99.17a3,3,0,1,0,1.5-2.6,3,3,0,0,0-1.5,2.6Zm0,0"/><path class="cls-2" d="M145,99.17a3,3,0,1,0,1.5-2.6,3,3,0,0,0-1.5,2.6Zm0,0"/><path class="cls-2" d="M163,108.17a3,3,0,1,0,1.5-2.6,3,3,0,0,0-1.5,2.6Zm0,0"/><path class="cls-2" d="M151,108.17a3,3,0,1,0,1.5-2.6,3,3,0,0,0-1.5,2.6Zm0,0"/><path class="cls-2" d="M133,99.17a3,3,0,1,0,1.5-2.6,3,3,0,0,0-1.5,2.6Zm0,0"/><path class="cls-2" d="M139,108.17a3,3,0,1,0,1.5-2.6,3,3,0,0,0-1.5,2.6Zm0,0"/><path class="cls-2" d="M121,99.17a3,3,0,1,0,1.5-2.6,3,3,0,0,0-1.5,2.6Zm0,0"/><path class="cls-2" d="M127,108.17a3,3,0,1,0,1.5-2.6,3,3,0,0,0-1.5,2.6Zm0,0"/><path class="cls-2" d="M109,99.17a3,3,0,1,0,1.5-2.6,3,3,0,0,0-1.5,2.6Zm0,0"/><path class="cls-2" d="M115,108.17a3,3,0,1,0,1.5-2.6,3,3,0,0,0-1.5,2.6Zm0,0"/><path class="cls-1" d="M176.18,189.17H23.82A10.83,10.83,0,0,1,13,178.35V143a10.83,10.83,0,0,1,10.82-10.82H176.17A10.83,10.83,0,0,1,187,143v35.35a10.83,10.83,0,0,1-10.82,10.83Z"/><path class="cls-2" d="M31,160.67a10.5,10.5,0,1,0,5.25-9.09A10.5,10.5,0,0,0,31,160.67Zm0,0"/><path class="cls-2" d="M157,156.17a3,3,0,1,0,1.5-2.6,3,3,0,0,0-1.5,2.6Zm0,0"/><path class="cls-2" d="M145,156.17a3,3,0,1,0,1.5-2.6,3,3,0,0,0-1.5,2.6Zm0,0"/><path class="cls-2" d="M163,165.17a3,3,0,1,0,1.5-2.6,3,3,0,0,0-1.5,2.6Zm0,0"/><path class="cls-2" d="M151,165.17a3,3,0,1,0,1.5-2.6,3,3,0,0,0-1.5,2.6Zm0,0"/><path class="cls-2" d="M133,156.17a3,3,0,1,0,1.5-2.6,3,3,0,0,0-1.5,2.6Zm0,0"/><path class="cls-2" d="M139,165.17a3,3,0,1,0,1.5-2.6,3,3,0,0,0-1.5,2.6Zm0,0"/><path class="cls-2" d="M121,156.17a3,3,0,1,0,1.5-2.6,3,3,0,0,0-1.5,2.6Zm0,0"/><path class="cls-2" d="M127,165.17a3,3,0,1,0,1.5-2.6,3,3,0,0,0-1.5,2.6Zm0,0"/><path class="cls-2" d="M109,156.17a3,3,0,1,0,1.5-2.6,3,3,0,0,0-1.5,2.6Zm0,0"/><path class="cls-2" d="M115,165.17a3,3,0,1,0,1.5-2.6,3,3,0,0,0-1.5,2.6Zm0,0"/></svg>