<svg id="图层_1" data-name="图层 1" xmlns="http://www.w3.org/2000/svg" viewBox="0 0 200 200"><defs><style>.cls-1{fill:#00e6e6;}.cls-2{fill:#0087be;}.cls-3{fill:#fff;}.cls-4{fill:none;}</style></defs><title>扁平风格</title><path class="cls-1" d="M100,17.93a85.1,85.1,0,0,1,33.8,7l36.72,15.9v46.3A94.53,94.53,0,0,1,165,119.21a102.86,102.86,0,0,1-15.4,28.32l0,0,0,0A100.5,100.5,0,0,1,126.07,170a86.56,86.56,0,0,1-26,12A86.65,86.65,0,0,1,73.87,170a100.49,100.49,0,0,1-23.48-22.4l0,0h0a103.57,103.57,0,0,1-15.3-28.26v0a94.17,94.17,0,0,1-5.51-32.07V40.85L66.26,25A84.56,84.56,0,0,1,82.89,19.7,82.88,82.88,0,0,1,100,17.93m0-11.75a96.65,96.65,0,0,0-38.46,8L17.75,33.12v54A106,106,0,0,0,24,123.19a115,115,0,0,0,17,31.47,113.14,113.14,0,0,0,26.24,25A98.14,98.14,0,0,0,100,194.18a98.28,98.28,0,0,0,32.68-14.44,112.38,112.38,0,0,0,26.24-25A114.91,114.91,0,0,0,176,123.15a106.46,106.46,0,0,0,6.21-36.06v-54l-43.81-19a96.88,96.88,0,0,0-38.44-8Zm0,0"/><path class="cls-2" d="M100,29.68a73,73,0,0,1,29.12,6l29.63,12.84V87.15a82.88,82.88,0,0,1-4.83,28.11v0a91.11,91.11,0,0,1-13.64,25.12l-.05.07-.06.08a89.05,89.05,0,0,1-20.75,19.75A75.05,75.05,0,0,1,100,169.8a74.07,74.07,0,0,1-19.51-9.54,88.63,88.63,0,0,1-20.75-19.79l0-.06,0,0A90.85,90.85,0,0,1,46.1,115.31l0,0,0,0a82.8,82.8,0,0,1-4.81-28V48.56L70.86,35.72a73.06,73.06,0,0,1,29.14-6"/><path class="cls-3" d="M96.67,85.62a33.37,33.37,0,0,0-23,13.74,5.19,5.19,0,1,0,8.92,5.32,23.51,23.51,0,0,1,15.15-8.74c6.83-.74,13.68,2.5,20.35,9.63a5.19,5.19,0,0,0,7.58-7.09c-11.23-12-22-13.62-29-12.86Zm3.51,20.45a10,10,0,1,0,7,2.91,10,10,0,0,0-7-2.91ZM97.6,66.94C78,67.84,64.88,81.82,62.45,84.61a5.19,5.19,0,0,0,7.83,6.82c1.19-1.37,12.11-13.4,27.8-14.11,10.69-.5,21.47,4.37,32.05,14.46a5.19,5.19,0,0,0,7.15-7.51c-12.69-12.13-26-18-39.68-17.33Zm0,0"/><rect id="SVGID" class="cls-4" x="61.25" y="66.85" width="77.57" height="59.23"/></svg>