<svg id="图层_1" data-name="图层 1" xmlns="http://www.w3.org/2000/svg" viewBox="0 0 200 200"><defs><style>.cls-1,.cls-2{fill:none;}.cls-1{stroke:#00e6e6;stroke-linecap:square;stroke-linejoin:round;stroke-width:2px;}.cls-2{stroke:#0087be;stroke-miterlimit:10;stroke-width:3px;}.cls-3{fill:#0087be;}.cls-4{fill:#00e6e6;}</style></defs><title>扁平风格</title><path class="cls-1" d="M100.58,30.88a73,73,0,0,1,29.12,6l29.63,12.84V88.35a82.92,82.92,0,0,1-4.82,28.11v0a91.55,91.55,0,0,1-13.65,25.12l-.05.07-.06.07A88.86,88.86,0,0,1,120,161.51,75.21,75.21,0,0,1,100.57,171a74.17,74.17,0,0,1-19.52-9.55A88.43,88.43,0,0,1,60.3,141.66l0,0,0-.06a91.06,91.06,0,0,1-13.55-25l0,0,0,0a82.82,82.82,0,0,1-4.81-28.06V49.76L71.45,36.92a73,73,0,0,1,29.13-6"/><path class="cls-2" d="M100.55,7.38a96.56,96.56,0,0,0-38.47,8L18.3,34.31v54a106.21,106.21,0,0,0,6.2,36.06,115,115,0,0,0,17,31.46,112.78,112.78,0,0,0,26.24,25,98.14,98.14,0,0,0,32.77,14.5,98.1,98.1,0,0,0,32.68-14.45,112.1,112.1,0,0,0,26.23-25,115.23,115.23,0,0,0,17.15-31.56,106.79,106.79,0,0,0,6.21-36.06v-54L139,15.35a96.71,96.71,0,0,0-38.44-8Zm0,0"/><path class="cls-3" d="M102.12,126.29c1.42,0,8.54,3.39,8.54,5.15,0,1.42-7.12,0-8.54,0l-10,3.45c-1.42,0-8.06-4.6-8.06-6a2.57,2.57,0,0,1,2.57-2.58Z"/><path class="cls-3" d="M94.39,55.91c16.12,0,27.76,4.42,34.22,24.68,3.38,10.63-11.29,25.35-20.48,30.26v6.86a3.43,3.43,0,0,1-3.44,3.43l-15.56,3.35c-.91,0-6.82-3.71-7.46-4.35a3.43,3.43,0,0,1-1-2.43v-6.86A29.19,29.19,0,0,1,94.39,55.91Z"/><path class="cls-4" d="M108.27,129.83a2.58,2.58,0,1,1,0,5.15H92.82a2.58,2.58,0,0,1,0-5.15Z"/><path class="cls-4" d="M100.55,59.45a29.18,29.18,0,0,1,13.73,54.93v6.87a3.45,3.45,0,0,1-3.43,3.43H90.25a3.45,3.45,0,0,1-3.44-3.43v-6.86a29.19,29.19,0,0,1,13.74-54.94Z"/><path class="cls-3" d="M112.08,93.68a2.56,2.56,0,0,1,.17,3.44l-.17.2-9,9v18.41H98V106.27l-9-9a2.57,2.57,0,0,1,3.44-3.82l.2.17,7.89,7.9,7.89-7.9a2.58,2.58,0,0,1,3.64,0Zm0,0"/></svg>