<svg id="图层_1" data-name="图层 1" xmlns="http://www.w3.org/2000/svg" viewBox="0 0 200 200"><defs><style>.cls-1,.cls-2{fill:none;}.cls-1{stroke:#00e6e6;stroke-linecap:square;stroke-linejoin:round;stroke-width:2px;}.cls-2{stroke:#0087be;stroke-miterlimit:10;stroke-width:3px;}.cls-3{fill:#0087be;}.cls-4{fill:#00e6e6;}</style></defs><title>扁平风格</title><path class="cls-1" d="M99.84,29.77a73,73,0,0,1,29.12,6l29.63,12.84V87.24a82.68,82.68,0,0,1-4.83,28.11v0a91.25,91.25,0,0,1-13.64,25.12l-.05.07-.06.07a88.86,88.86,0,0,1-20.74,19.76,75.12,75.12,0,0,1-19.45,9.49,74.26,74.26,0,0,1-19.51-9.55,88.43,88.43,0,0,1-20.75-19.79l0-.05,0-.06a91.06,91.06,0,0,1-13.55-25l0,0,0,0a82.82,82.82,0,0,1-4.81-28.06V48.65L70.71,35.81a73,73,0,0,1,29.13-6"/><path class="cls-2" d="M99.81,6.27a96.56,96.56,0,0,0-38.47,8l-43.78,19v54a106.21,106.21,0,0,0,6.2,36.06,115,115,0,0,0,17,31.46,112.59,112.59,0,0,0,26.24,25,98,98,0,0,0,32.77,14.5,98.27,98.27,0,0,0,32.68-14.45,112.1,112.1,0,0,0,26.23-25,115.23,115.23,0,0,0,17.15-31.56,107,107,0,0,0,6.21-36.06v-54l-43.81-19a96.71,96.71,0,0,0-38.44-8Zm0,0"/><path class="cls-3" d="M98.8,112.47s-5.52-2.72-5.52-3.8L90.62,56a2,2,0,0,1,2-2.1h14.26c1.13,0,6.35,2.1,6.24,3.23l-6.86,51.65a1.9,1.9,0,0,1-1.92,1.87Z"/><path class="cls-3" d="M88.14,129.89A11.66,11.66,0,0,0,94,140a40.49,40.49,0,0,0,6.64,3.09l8-21.91s-1.16-.53-2.89-1.41a12.25,12.25,0,0,0-11.72,0,11.67,11.67,0,0,0-5.82,10.1Zm0,0"/><path class="cls-4" d="M108.84,112.73h-9a2,2,0,0,1-2-1.92L95.15,58.08a2,2,0,0,1,2-2.09h14.26a2,2,0,0,1,2,2.09l-2.61,52.78a1.89,1.89,0,0,1-1.92,1.87Zm0,0"/><path class="cls-4" d="M92.66,132a11.66,11.66,0,1,0,5.83-10.09A11.63,11.63,0,0,0,92.66,132Zm0,0"/></svg>