<svg id="图层_1" data-name="图层 1" xmlns="http://www.w3.org/2000/svg" viewBox="0 0 200 200"><defs><style>.cls-1,.cls-2{fill:none;}.cls-1{stroke:#00e6e6;stroke-linecap:square;stroke-linejoin:round;stroke-width:2px;}.cls-2{stroke:#0087be;stroke-miterlimit:10;stroke-width:3px;}.cls-3{fill:#0087be;}.cls-4{fill:#00e6e6;}</style></defs><title>扁平风格</title><path class="cls-1" d="M96.91,30a73,73,0,0,1,29.12,6l29.63,12.84V87.51a82.87,82.87,0,0,1-4.82,28.11v0a91.4,91.4,0,0,1-13.65,25.12l-.05.07-.06.08a88.81,88.81,0,0,1-20.74,19.75,75.12,75.12,0,0,1-19.45,9.49,74.22,74.22,0,0,1-19.51-9.54,88.63,88.63,0,0,1-20.75-19.79l0-.06,0-.06a90.92,90.92,0,0,1-13.55-25l0,0,0,0a82.8,82.8,0,0,1-4.81-28V48.92L67.78,36.08a73,73,0,0,1,29.13-6"/><path class="cls-2" d="M96.88,6.54a96.73,96.73,0,0,0-38.47,8L14.63,33.48v54a106.21,106.21,0,0,0,6.2,36.06,115,115,0,0,0,17,31.47,113,113,0,0,0,26.24,25,98,98,0,0,0,32.77,14.5,98.28,98.28,0,0,0,32.68-14.44,112.14,112.14,0,0,0,26.23-25,114.94,114.94,0,0,0,17.15-31.56,106.71,106.71,0,0,0,6.21-36.06v-54l-43.81-19a96.88,96.88,0,0,0-38.44-8Zm0,0"/><path class="cls-3" d="M123.52,80.21a22.76,22.76,0,0,1-12.32,20.23,12.08,12.08,0,0,0-4.71,4.39,11.91,11.91,0,0,0-1.67,7.39,1.34,1.34,0,0,1-1.33,1.48L94,116.48c-1.58,0-5.27-4.06-5.27-5.65A29,29,0,0,1,104,85.38a5.87,5.87,0,0,0,3.41-5.46,6.49,6.49,0,0,0-6.52-6.41H96.72a6.7,6.7,0,0,0-6,3.83,2.7,2.7,0,0,1-2.42,1.53l-8.6,2.84c-1.7,0-5.59-4.4-5.25-6.06.15-.73.33-1.44.54-2.14A22.8,22.8,0,0,1,96.72,57.43h4c6.29,0,14.26,4.08,18.35,8.52,4,4.29,4.43,8,4.43,14.26Z"/><path class="cls-3" d="M108.34,131.45c0,3-2.1,5-4,6.91s-6.14,6.3-8.82,5c-2.9-1.36-4.39-3.1-6.34-5a10.71,10.71,0,0,1,7.58-18.29,11.19,11.19,0,0,1,7.58,3.14c2,1.85.58.53,2.58,2.3Z"/><path class="cls-4" d="M126.78,83.13a22.77,22.77,0,0,1-12.32,20.24,11.87,11.87,0,0,0-6.38,11.78,1.34,1.34,0,0,1-1.33,1.47H94.81a2.87,2.87,0,0,1-2.87-2.87A29,29,0,0,1,107.28,88.3a5.87,5.87,0,0,0,3.41-5.46,6.49,6.49,0,0,0-6.52-6.41H100a6.7,6.7,0,0,0-6,3.83,2.68,2.68,0,0,1-2.42,1.53H80.29a2.68,2.68,0,0,1-2.63-3.22,21.6,21.6,0,0,1,.54-2.14A22.8,22.8,0,0,1,100,60.35h4a22.81,22.81,0,0,1,22.78,22.78Z"/><path class="cls-4" d="M110.7,133.71a10.72,10.72,0,1,1-3.14-7.58,10.7,10.7,0,0,1,3.14,7.58Z"/></svg>