<svg id="图层_1" data-name="图层 1" xmlns="http://www.w3.org/2000/svg" viewBox="0 0 200 200"><defs><style>.cls-1,.cls-2{fill:none;}.cls-1{stroke:#00e6e6;stroke-linecap:square;stroke-linejoin:round;stroke-width:2px;}.cls-2{stroke:#0087be;stroke-miterlimit:10;stroke-width:3px;}.cls-3{fill:#0087be;}.cls-4{fill:#00e6e6;}</style></defs><title>扁平风格</title><path class="cls-1" d="M100.15,30.59a73,73,0,0,1,29.12,6L158.9,49.46V88.05a82.84,82.84,0,0,1-4.83,28.11v0a91.2,91.2,0,0,1-13.64,25.11l-.05.08-.06.07a89.1,89.1,0,0,1-20.75,19.76,75.37,75.37,0,0,1-19.44,9.49,74.63,74.63,0,0,1-19.52-9.55,88.58,88.58,0,0,1-20.74-19.79l0-.06,0-.05a90.8,90.8,0,0,1-13.55-25l0,0,0,0a82.76,82.76,0,0,1-4.81-28V49.46L71,36.63a73.06,73.06,0,0,1,29.14-6"/><path class="cls-2" d="M100.11,7.09a96.48,96.48,0,0,0-38.46,8L17.86,34V88a106.38,106.38,0,0,0,6.21,36.06,115,115,0,0,0,17,31.47,112.7,112.7,0,0,0,26.23,25,98,98,0,0,0,32.77,14.51,98.3,98.3,0,0,0,32.68-14.45,112,112,0,0,0,26.24-25,115.5,115.5,0,0,0,17.15-31.56A106.78,106.78,0,0,0,182.36,88V34l-43.8-19a96.79,96.79,0,0,0-38.45-8Zm0,0"/><path class="cls-3" d="M99.1,90.29a33.46,33.46,0,0,0-23,13.75c-1,1.6-1.35,4.56-.44,6.2s4.19,4.86,6.06,4.88,2.36-4.14,3.3-5.76a23.49,23.49,0,0,1,15.15-8.74c6.84-.74,13.69,2.5,20.35,9.63,2,2,8.75,3.82,10.83,1.91,1.54-1.4,2.7-4.61,1.69-6.18-9.69-15.12-26.93-16.44-34-15.69Z"/><path class="cls-3" d="M102.62,110.75a10,10,0,0,0-9.22,6.15c-1.54,3.72-.66,7.67,1.66,11,2.66,3.81,6,6.58,9.78,4.31,3.46-2.07,10-10.33,8.28-14a14.74,14.74,0,0,0-3.46-4.54,10,10,0,0,0-7-2.92Z"/><path class="cls-3" d="M100.24,71.62c-19.58.9-32.71,14.88-35.14,17.67-1.82,2.17-1.64,5.7.12,8,2,2.59,2.44,2.39,4,3.26,0,0,15.86-17.88,31.55-18.6,10.69-.49,21.48,4.38,32.05,14.47,2.09,1.87,8.55,3.85,10.49,1.82s1.62-7.31-.22-9.43c-12.16-14-29.16-17.86-42.8-17.23Z"/><path class="cls-4" d="M101.52,93.61a33.39,33.39,0,0,0-23,13.75,5.19,5.19,0,1,0,8.91,5.31,23.56,23.56,0,0,1,15.15-8.74c6.84-.73,13.69,2.51,20.35,9.63a5.19,5.19,0,0,0,7.59-7.09c-11.24-12-22-13.62-29-12.86ZM105,114.06a10,10,0,1,0,7,2.92,10,10,0,0,0-7-2.92Zm-2.59-39.12c-19.58.9-32.71,14.88-35.14,17.67a5.19,5.19,0,0,0,7.83,6.81c1.19-1.37,12.1-13.39,27.79-14.11,10.7-.49,21.48,4.37,32.05,14.46a5.19,5.19,0,0,0,7.16-7.51c-12.69-12.13-26-18-39.69-17.32Zm0,0"/></svg>