<svg id="图层_1" data-name="图层 1" xmlns="http://www.w3.org/2000/svg" viewBox="0 0 200 200"><defs><style>.cls-1,.cls-2{fill:none;}.cls-1{stroke:#00e6e6;stroke-linecap:square;stroke-linejoin:round;stroke-width:2px;}.cls-2{stroke:#0087be;stroke-miterlimit:10;stroke-width:3px;}.cls-3{fill:#0087be;}.cls-4{fill:#00e6e6;}</style></defs><title>扁平风格</title><path class="cls-1" d="M97.5,30.41a73,73,0,0,1,29.12,6l29.63,12.83V87.87A82.6,82.6,0,0,1,151.42,116v0a91.2,91.2,0,0,1-13.64,25.11l-.05.08-.06.07A88.86,88.86,0,0,1,116.93,161a75.44,75.44,0,0,1-19.45,9.49A74.57,74.57,0,0,1,78,161a88.43,88.43,0,0,1-20.75-19.79l0-.06,0,0A91.06,91.06,0,0,1,43.6,116l0,0,0,0a82.76,82.76,0,0,1-4.81-28V49.28L68.37,36.45a73,73,0,0,1,29.13-6"/><path class="cls-2" d="M97.47,6.91A96.56,96.56,0,0,0,59,14.9L15.22,33.84v54a106.12,106.12,0,0,0,6.2,36.06,115,115,0,0,0,17,31.47,112.55,112.55,0,0,0,26.24,25,97.87,97.87,0,0,0,32.77,14.51,98.27,98.27,0,0,0,32.68-14.45,112.1,112.1,0,0,0,26.23-25,115.23,115.23,0,0,0,17.15-31.56,107,107,0,0,0,6.21-36.06v-54l-43.81-19a96.71,96.71,0,0,0-38.44-8Zm0,0"/><path class="cls-3" d="M123.19,68.23c-11.23,3.38-13.28,13-12.56,19.06-5.56-6.92-3.3-32.16-3.3-32.16s-1.54-1.83-4.38-5.7C77.27,59.66,83.24,89.15,82.48,98.1c-2.9-2.5-3.31-13.23-3.31-13.23L74.8,79.18C68,82.88,64.24,92.47,62.85,100.47c-2.43,13.94,4.95,41.18,37.87,41.18,18.38,0,41.76-25.1,30.39-40.84-5.71-7.91-3.54-26.89-3.54-26.89s-2.47-3-4.38-5.69Z"/><path class="cls-4" d="M127.57,73.92C116.34,77.31,114.29,86.89,115,93c-8-9.94-7.68-21.38-7.68-37.85C81.65,65.35,87.62,94.84,86.85,103.79c-6.46-5.58-7.68-18.92-7.68-18.92-6.82,3.7-10.24,13.6-10.24,21.63,0,19.41,14.9,35.15,33.28,35.15s33.28-15.74,33.28-35.15c0-11.54-8-16.86-7.92-32.58Z"/></svg>