<svg id="图层_1" data-name="图层 1" xmlns="http://www.w3.org/2000/svg" viewBox="0 0 200 200"><defs><style>.cls-1{fill:#0087be;}.cls-2{fill:#fff;}.cls-3{fill:#00e6e6;}.cls-4{fill:none;}</style></defs><title>扁平风格</title><path class="cls-1" d="M168.45,177v17.1H34.11V178.57a35.2,35.2,0,0,1,5.33-70H156.72A35.2,35.2,0,0,1,168.45,177Z"/><path class="cls-2" d="M55.44,134.22A10.67,10.67,0,1,0,63,137.35a10.68,10.68,0,0,0-7.54-3.13Z"/><path class="cls-2" d="M98.08,134.22a10.69,10.69,0,1,0,10.66,10.69,10.69,10.69,0,0,0-10.66-10.69Z"/><path class="cls-2" d="M140.73,134.22a10.69,10.69,0,1,0,10.66,10.69,10.69,10.69,0,0,0-10.66-10.69Z"/><path class="cls-3" d="M54.07,66.24l-8.83-11.1c.86-.7,2.35-1.82,4.46-3.21a100,100,0,0,1,11.65-6.64C92,30.38,125.3,30.77,156.27,56.8l-9,11c-26.19-22-53.69-22.33-79.81-9.62a86.23,86.23,0,0,0-10,5.71c-1.15.76-2.27,1.56-3.37,2.4Z"/><path class="cls-3" d="M75.11,74.08c19.9-9.68,41.67-9.43,61.8,7.51l-9,11c-15.35-12.9-31.33-13.1-46.7-5.62a49.94,49.94,0,0,0-5.91,3.36c-1,.66-1.62,1.12-1.88,1.34L64.6,80.52a56.86,56.86,0,0,1,10.51-6.44Z"/><path class="cls-3" d="M102.74,20.67c-16.92-.19-33.32,4.14-48.51,11.54a120.13,120.13,0,0,0-14,7.95c-1.41.94-2.64,1.8-3.67,2.56l-1.12.86L26.65,32.47c1.11-.9,3.09-2.37,5.88-4.23a135.66,135.66,0,0,1,15.6-8.88c17-8.26,35.47-13.17,54.78-12.95,25,.29,49.25,9.22,72,28.31l-9,11c-20.2-17-41.37-24.75-63.11-25Z"/><rect class="cls-4" x="4.29" y="6.28" width="187.8" height="188"/></svg>