<svg id="图层_1" data-name="图层 1" xmlns="http://www.w3.org/2000/svg" viewBox="0 0 200 200"><defs><style>.cls-1{fill:#00e6e6;}.cls-2{fill:#0087be;}.cls-3{fill:#fff;}</style></defs><title>扁平风格</title><path class="cls-1" d="M100,17.93a85.19,85.19,0,0,1,33.8,7l36.71,15.9v46.3A94.52,94.52,0,0,1,165,119.21a102.89,102.89,0,0,1-15.41,28.32v0l0,0A100.69,100.69,0,0,1,126.07,170,86.72,86.72,0,0,1,100,182,86.6,86.6,0,0,1,73.87,170a100.3,100.3,0,0,1-23.48-22.4l0,0h0a103.81,103.81,0,0,1-15.29-28.26v0a93.93,93.93,0,0,1-5.51-32.07V40.85L66.25,25A84.56,84.56,0,0,1,82.88,19.7,83,83,0,0,1,100,17.93m0-11.75a96.73,96.73,0,0,0-38.47,8L17.75,33.12v54A106.21,106.21,0,0,0,24,123.19a115,115,0,0,0,17,31.47,112.75,112.75,0,0,0,26.24,25A98,98,0,0,0,100,194.18a98.45,98.45,0,0,0,32.68-14.44,112.14,112.14,0,0,0,26.23-25A114.94,114.94,0,0,0,176,123.15a107,107,0,0,0,6.21-36.06v-54l-43.81-19a96.88,96.88,0,0,0-38.44-8Zm0,0"/><path class="cls-2" d="M100,29.68a73,73,0,0,1,29.11,6l29.64,12.84V87.15a83.13,83.13,0,0,1-4.83,28.11v0a91.64,91.64,0,0,1-13.64,25.12l-.06.07-.05.08a89.05,89.05,0,0,1-20.75,19.75A75.21,75.21,0,0,1,100,169.8a74.29,74.29,0,0,1-19.52-9.54,88.39,88.39,0,0,1-20.74-19.79l0-.06,0,0a91.38,91.38,0,0,1-13.55-25.05l0,0v0a82.56,82.56,0,0,1-4.81-28V48.56L70.86,35.72a73,73,0,0,1,29.14-6"/><path class="cls-3" d="M104.5,110.51h-9a2,2,0,0,1-2-1.93L90.81,55.86a2,2,0,0,1,2-2.09h14.26a2,2,0,0,1,2,2.09l-2.6,52.78a1.9,1.9,0,0,1-1.93,1.87Zm0,0"/><path class="cls-3" d="M88.32,129.8a11.66,11.66,0,1,0,5.83-10.09,11.67,11.67,0,0,0-5.83,10.09Zm0,0"/></svg>