<svg id="图层_1" data-name="图层 1" xmlns="http://www.w3.org/2000/svg" viewBox="0 0 200 200"><defs><style>.cls-1{fill:none;}.cls-2{fill:#00e6e6;}.cls-3{fill:#0087be;}.cls-4{fill:#fff;}</style></defs><title>扁平风格</title><rect class="cls-1" x="55.52" y="49.06" width="88.95" height="101.86"/><path class="cls-2" d="M132.61,104.4a57.11,57.11,0,0,0,18.8-42.9c0-30.67-23-55.5-51.4-55.5S48.59,30.83,48.59,61.48a57.5,57.5,0,0,0,15.19,39.36c1.16,1.12,33.86,31.37,68.83,3.56"/><path class="cls-3" d="M169.17,142.77l-27.94-25.45c-10.49,8.59-40.21,26.72-81.29-.65C47.55,126.2,14.51,153.53,18.17,172c0,0,.65,19.24,35.6,20.17,0,0,104.17,7.7,121.49-10.25,0,0,18.91-12.17-6.09-39.11"/><polygon class="cls-4" points="89.73 128.06 109.85 128.06 116.64 142.45 107.75 162.06 107.84 194 92.08 194 92.25 162.06 83.36 142.45 89.73 128.06"/></svg>