<svg id="图层_1" data-name="图层 1" xmlns="http://www.w3.org/2000/svg" viewBox="0 0 200 200"><defs><style>.cls-1{fill:#00e6e6;}.cls-2{fill:#0087be;}.cls-3{fill:#fff;}</style></defs><title>扁平风格</title><path class="cls-1" d="M100,17.57a85.33,85.33,0,0,1,17.16,1.74,86.23,86.23,0,0,1,16.64,5.25l36.71,15.9v46.3A94.52,94.52,0,0,1,165,118.84a102.89,102.89,0,0,1-15.41,28.32v0l0,0a100.49,100.49,0,0,1-23.48,22.4,86.72,86.72,0,0,1-26.06,12,86.6,86.6,0,0,1-26.14-12.08,100.3,100.3,0,0,1-23.48-22.4l0,0h0A103.81,103.81,0,0,1,35.1,118.89v0a93.93,93.93,0,0,1-5.51-32.07V40.48l36.7-15.9a85.11,85.11,0,0,1,16.64-5.25A82.87,82.87,0,0,1,100,17.57m0-11.75a96.72,96.72,0,0,0-38.47,8l-43.78,19v54A106.21,106.21,0,0,0,24,122.82a115,115,0,0,0,17,31.47,112.75,112.75,0,0,0,26.24,25A98.18,98.18,0,0,0,100,193.82a98.68,98.68,0,0,0,32.68-14.45,111.94,111.94,0,0,0,26.23-25,114.94,114.94,0,0,0,17.15-31.56,106.94,106.94,0,0,0,6.21-36v-54l-43.81-19a96.87,96.87,0,0,0-38.44-8Zm0,0"/><path class="cls-2" d="M100,29.31a72.8,72.8,0,0,1,29.11,6.05l29.64,12.83V86.78A83.13,83.13,0,0,1,154,114.89v0A91.73,91.73,0,0,1,140.32,140l-.06.07,0,.08a89.05,89.05,0,0,1-20.75,19.75A74.89,74.89,0,0,1,100,169.43a74.29,74.29,0,0,1-19.52-9.54A88.59,88.59,0,0,1,59.76,140.1l0-.06,0,0a91.38,91.38,0,0,1-13.55-25.05l0,0v0a82.56,82.56,0,0,1-4.81-28.05V48.19L70.9,35.36A72.87,72.87,0,0,1,100,29.31"/><path class="cls-3" d="M107.8,129.32a2.58,2.58,0,0,1,0,5.15H92.35a2.58,2.58,0,1,1,0-5.15Z"/><path class="cls-3" d="M100.07,58.94a29.19,29.19,0,0,1,13.74,54.94v6.86a3.43,3.43,0,0,1-3.44,3.43H89.77a3.43,3.43,0,0,1-3.43-3.43v-6.86a29.19,29.19,0,0,1,13.73-54.94Z"/><path class="cls-2" d="M111.6,93.17a2.58,2.58,0,0,1,.18,3.45l-.18.19-8.95,9v18.4H97.5v-18.4l-9-9A2.58,2.58,0,0,1,92,93l.19.18,7.89,7.89L108,93.17a2.58,2.58,0,0,1,3.64,0Zm0,0"/></svg>