<svg id="图层_1" data-name="图层 1" xmlns="http://www.w3.org/2000/svg" viewBox="0 0 200 200"><defs><style>.cls-1{fill:#00e6e6;}.cls-2{fill:#0087be;}.cls-3{fill:#fff;}</style></defs><title>扁平风格</title><path class="cls-1" d="M98.46,17.93a85.19,85.19,0,0,1,33.8,7L169,40.83v46.3a94.53,94.53,0,0,1-5.53,32.08,102.86,102.86,0,0,1-15.4,28.32l0,0,0,0A100.5,100.5,0,0,1,124.53,170a86.67,86.67,0,0,1-26,12A86.65,86.65,0,0,1,72.33,170a100.49,100.49,0,0,1-23.48-22.4l0,0h0a103.81,103.81,0,0,1-15.29-28.26v0A94.17,94.17,0,0,1,28,87.15V40.85L64.71,25A84.86,84.86,0,0,1,81.35,19.7a82.88,82.88,0,0,1,17.11-1.77m0-11.75a96.65,96.65,0,0,0-38.46,8L16.21,33.12v54a106.21,106.21,0,0,0,6.2,36.06,115.28,115.28,0,0,0,17,31.47,113,113,0,0,0,26.24,25,98.14,98.14,0,0,0,32.77,14.5,98.28,98.28,0,0,0,32.68-14.44,112.38,112.38,0,0,0,26.24-25,115.18,115.18,0,0,0,17.14-31.56,106.71,106.71,0,0,0,6.21-36.06v-54l-43.81-19a96.88,96.88,0,0,0-38.44-8Zm0,0"/><path class="cls-2" d="M98.46,29.68a73,73,0,0,1,29.12,6l29.63,12.84V87.15a82.88,82.88,0,0,1-4.83,28.11v0a91.11,91.11,0,0,1-13.64,25.12l-.06.07-.05.08a89.05,89.05,0,0,1-20.75,19.75,75.21,75.21,0,0,1-19.44,9.49,74.29,74.29,0,0,1-19.52-9.54,88.59,88.59,0,0,1-20.74-19.79l0-.06,0,0a91.09,91.09,0,0,1-13.54-25.05l0,0,0,0a82.8,82.8,0,0,1-4.81-28V48.56L69.32,35.72a73.06,73.06,0,0,1,29.14-6"/><path class="cls-3" d="M125,81.3a22.76,22.76,0,0,1-12.32,20.24,11.89,11.89,0,0,0-6.38,11.78A1.34,1.34,0,0,1,105,114.8H93.06a2.88,2.88,0,0,1-2.88-2.88,29,29,0,0,1,15.34-25.44A5.88,5.88,0,0,0,108.93,81a6.5,6.5,0,0,0-6.52-6.42H98.22a6.71,6.71,0,0,0-6,3.84A2.69,2.69,0,0,1,89.75,80H78.53a2.68,2.68,0,0,1-2.63-3.21c.15-.73.33-1.44.54-2.15A22.79,22.79,0,0,1,98.22,58.53h4A22.79,22.79,0,0,1,125,81.3Z"/><path class="cls-3" d="M108.94,128.19a10.72,10.72,0,1,1-3.14-7.58,10.69,10.69,0,0,1,3.14,7.58Z"/></svg>