<svg id="图层_1" data-name="图层 1" xmlns="http://www.w3.org/2000/svg" viewBox="0 0 200 200"><defs><style>.cls-1{fill:#00e6e6;}.cls-2{fill:#0087be;}.cls-3{fill:#fff;}</style></defs><title>扁平风格</title><path class="cls-1" d="M100,18a84.86,84.86,0,0,1,33.8,7l36.72,15.9v46.3A94.53,94.53,0,0,1,165,119.3a103.06,103.06,0,0,1-15.4,28.33l0,0,0,0a100.3,100.3,0,0,1-23.48,22.4,86.56,86.56,0,0,1-26,12A86.65,86.65,0,0,1,73.87,170a100.49,100.49,0,0,1-23.48-22.4h0v0a103.57,103.57,0,0,1-15.3-28.26v0a94.27,94.27,0,0,1-5.51-32.08V40.94L66.26,25a85.23,85.23,0,0,1,16.63-5.25A82.87,82.87,0,0,1,100,18m0-11.75a96.64,96.64,0,0,0-38.46,8l-43.79,19v54A105.93,105.93,0,0,0,24,123.28a115,115,0,0,0,17,31.47,112.94,112.94,0,0,0,26.24,25A98.16,98.16,0,0,0,100,194.28a98.3,98.3,0,0,0,32.68-14.45,112.18,112.18,0,0,0,26.24-25A114.91,114.91,0,0,0,176,123.24a106.45,106.45,0,0,0,6.21-36v-54l-43.81-19a96.87,96.87,0,0,0-38.44-8Zm0,0"/><path class="cls-2" d="M100,29.78a72.87,72.87,0,0,1,29.12,6l29.63,12.83V87.24a82.88,82.88,0,0,1-4.83,28.11v0a91.2,91.2,0,0,1-13.64,25.11l-.05.08-.06.07a89.05,89.05,0,0,1-20.75,19.75A75.09,75.09,0,0,1,100,169.9a74.41,74.41,0,0,1-19.51-9.55,88.63,88.63,0,0,1-20.75-19.79l0-.06,0-.05a90.8,90.8,0,0,1-13.55-25l0,0,0,0a82.76,82.76,0,0,1-4.81-28V48.65L70.86,35.82a72.89,72.89,0,0,1,29.14-6"/><path class="cls-3" d="M125.28,72.71c-11.23,3.38-13.28,13-12.56,19.05-8-9.94-7.68-21.38-7.68-37.85C79.36,64.14,85.33,93.62,84.56,102.58,78.1,97,76.88,83.65,76.88,83.65c-6.82,3.71-10.24,13.6-10.24,21.63,0,19.41,14.9,35.15,33.28,35.15s33.28-15.74,33.28-35.15c0-11.53-8-16.86-7.92-32.57Z"/></svg>