<svg id="图层_1" data-name="图层 1" xmlns="http://www.w3.org/2000/svg" viewBox="0 0 200 200"><defs><style>.cls-1{fill:#0087be;}.cls-2{fill:#00e6e6;}.cls-3{fill:#fff;}.cls-4{fill:#f2f2f2;}</style></defs><title>Global View</title><polygon class="cls-1" points="194 126.65 194 120.29 93.45 71.06 6 110.61 6 116.98 106.55 172.57 194 126.65"/><polygon class="cls-2" points="194 120.29 93.45 64.7 6 110.61 106.55 166.2 194 120.29"/><polygon class="cls-1" points="41.08 47.71 104.96 71.06 170.31 48.82 170.31 118.15 105.16 149.4 41.08 113.94 41.08 47.71"/><polygon class="cls-2" points="104.96 71.06 41.08 47.71 106.43 25.44 170.31 48.79 104.96 71.06"/><polygon class="cls-3" points="130.27 62.42 66.39 39.06 80.79 34.21 144.67 57.56 130.27 62.42"/><polygon class="cls-4" points="144.67 68.98 130.27 73.84 130.27 62.42 144.67 57.56 144.67 68.98"/></svg>