<svg id="图层_1" data-name="图层 1" xmlns="http://www.w3.org/2000/svg" viewBox="0 0 200 200"><defs><style>.cls-1{fill:#0087be;}.cls-2{fill:#00e6e6;}.cls-3{fill:#fff;}.cls-4{fill:none;}</style></defs><title>Global View</title><path class="cls-1" d="M58.85,69.05,39.18,50.73c.82-.67,2.25-1.74,4.28-3.08a95.59,95.59,0,0,1,11.18-6.37C84.07,27,116,27.34,145.75,52.33l-8.64,10.51C112,41.71,85.58,41.4,60.5,53.6c-3.32,1.61,3.59,2.45.51,4.49-1.1.73-1.67.6-2.72,1.4Z"/><path class="cls-1" d="M67.85,68.91c19.1-9.29,40-9,59.32,7.21l-8.64,10.51C103.8,74.25,88.46,74.06,73.7,81.23c-2,1,7.32,9.71,5.51,10.92a21.85,21.85,0,0,0-1.81,1.28L57.75,75.09a54.93,54.93,0,0,1,10.1-6.18Z"/><path class="cls-1" d="M94.36,17.65c-16.24-.18-32,4-46.55,11.07A116.73,116.73,0,0,0,34.4,36.36c-1.35.89,8.67,9.39,7.69,10.12L41,47.3,21.34,29c1.06-.87,3-2.28,5.64-4.06a129.24,129.24,0,0,1,15-8.53C58.27,8.46,76,3.75,94.53,4c24,.28,47.28,8.85,69.06,27.17L155,41.64c-19.39-16.29-39.7-23.76-60.58-24Z"/><path class="cls-2" d="M158.36,167.36v16.42L39.7,191.73l-10.29-7.95-.1-10.3C11.07,166.23.76,149.33.76,135.58a33.81,33.81,0,0,1,33.77-33.85H147.1c18.65,0,43.32,16.11,43.32,34.81,0,14.71-19,26.16-32.06,30.82Z"/><path class="cls-1" d="M168.64,175.31v16.42H39.7V176.87a33.79,33.79,0,0,1,5.11-67.19H157.38a33.78,33.78,0,0,1,11.26,65.63Z"/><path class="cls-3" d="M60.16,134.3a10.26,10.26,0,1,0,7.24,3,10.24,10.24,0,0,0-7.24-3Z"/><path class="cls-3" d="M101.1,134.3a10.26,10.26,0,1,0,10.23,10.26A10.26,10.26,0,0,0,101.1,134.3Z"/><path class="cls-3" d="M142,134.3a10.26,10.26,0,1,0,10.24,10.26A10.24,10.24,0,0,0,142,134.3Z"/><path class="cls-2" d="M58.85,69.05,50.38,58.39c.82-.67,2.25-1.74,4.28-3.08a95.59,95.59,0,0,1,11.18-6.37C95.27,34.63,127.22,35,157,60L148.31,70.5C123.17,49.37,96.78,49.07,71.7,61.26a82.94,82.94,0,0,0-9.61,5.48q-1.67,1.1-3.24,2.31Z"/><path class="cls-2" d="M79.05,76.57c19.1-9.29,40-9,59.32,7.21l-8.64,10.51C115,81.91,99.66,81.72,84.9,88.9a46.76,46.76,0,0,0-5.67,3.23c-.94.62-1.55,1.07-1.81,1.28L69,82.76a55.42,55.42,0,0,1,10.1-6.19Z"/><path class="cls-2" d="M105.56,25.31c-16.24-.18-32,4-46.55,11.08A115.19,115.19,0,0,0,45.6,44c-1.35.89-2.53,1.73-3.51,2.46L41,47.3,32.53,36.64c1.07-.87,3-2.28,5.65-4.06a129.24,129.24,0,0,1,15-8.53c16.32-7.93,34.05-12.64,52.58-12.43,24,.28,47.28,8.85,69.06,27.17L166.15,49.3c-19.39-16.29-39.7-23.75-60.58-24Z"/><rect class="cls-4" x="11.07" y="11.5" width="180.26" height="180.45"/></svg>