<svg id="图层_1" data-name="图层 1" xmlns="http://www.w3.org/2000/svg" viewBox="0 0 200 200"><defs><style>.cls-1{fill:#f2f2f2;stroke:#00e6e6;stroke-linecap:square;stroke-linejoin:round;stroke-width:0.5px;}.cls-2{fill:#0087be;}.cls-3{fill:#e5e5e5;}.cls-4{fill:#00e6e6;}</style></defs><title>Global View</title><path class="cls-1" d="M100.4,28.25a73,73,0,0,1,29.12,6l29.63,12.84V85.72a82.88,82.88,0,0,1-4.83,28.11v0A91.25,91.25,0,0,1,140.68,139l-.05.07-.06.08a89.26,89.26,0,0,1-20.75,19.75,75.05,75.05,0,0,1-19.44,9.49,74.07,74.07,0,0,1-19.51-9.54A88.47,88.47,0,0,1,60.12,139l0-.05,0-.06a90.8,90.8,0,0,1-13.55-25l0,0,0,0a82.8,82.8,0,0,1-4.81-28V47.13L71.26,34.29a73.06,73.06,0,0,1,29.14-6"/><path class="cls-2" d="M100.36,16.5a85.1,85.1,0,0,1,33.8,7l36.72,15.9V85.7a94.42,94.42,0,0,1-5.52,32.07A103.06,103.06,0,0,1,150,146.1l0,0,0,0a100.25,100.25,0,0,1-23.48,22.39,86.34,86.34,0,0,1-26.05,12,86.6,86.6,0,0,1-26.14-12.08,100.3,100.3,0,0,1-23.48-22.4l0,0,0,0a103.07,103.07,0,0,1-15.29-28.25v0a93.93,93.93,0,0,1-5.51-32.07V39.42l36.7-15.9a84.56,84.56,0,0,1,16.63-5.25,83,83,0,0,1,17.11-1.77m0-11.75a96.65,96.65,0,0,0-38.46,8l-43.79,19v54a106.46,106.46,0,0,0,6.21,36.06,115,115,0,0,0,17,31.47,112.9,112.9,0,0,0,26.23,25,98.14,98.14,0,0,0,32.77,14.5A98.1,98.1,0,0,0,133,178.3a111.75,111.75,0,0,0,26.24-25,115.09,115.09,0,0,0,17.15-31.56,106.7,106.7,0,0,0,6.2-36.06v-54l-43.8-19a97,97,0,0,0-38.45-8Zm0,0"/><path class="cls-3" d="M100.75,29.18a72,72,0,0,1,28.73,6L158.73,47.8V85.88A81.94,81.94,0,0,1,154,113.62v0a90.15,90.15,0,0,1-13.46,24.78l-.05.08-.06.07a87.9,87.9,0,0,1-20.47,19.49,73.93,73.93,0,0,1-19.19,9.37l0-138.27"/><path class="cls-2" d="M99.35,88a33.43,33.43,0,0,0-23,13.75c-1,1.59-1.35,4.56-.44,6.19s4.19,4.87,6.06,4.89,2.36-4.14,3.3-5.77a23.53,23.53,0,0,1,15.15-8.74c6.84-.73,13.69,2.51,20.35,9.63,2,2,8.75,3.83,10.83,1.92,1.54-1.4,2.7-4.61,1.69-6.19C123.64,88.52,106.4,87.2,99.35,88Z"/><path class="cls-2" d="M102.87,108.41a10,10,0,0,0-9.22,6.15c-1.54,3.73-.66,7.67,1.66,11,2.66,3.8,6,6.57,9.78,4.31,3.46-2.07,10-10.34,8.28-14a14.74,14.74,0,0,0-3.46-4.54,10,10,0,0,0-7-2.92Z"/><path class="cls-2" d="M100.49,69.29C80.91,70.19,67.78,84.17,65.35,87c-1.82,2.17-1.64,5.7.12,8,2,2.59,2.44,2.4,4,3.27,0,0,15.86-17.88,31.55-18.6C111.66,79.17,122.45,84,133,94.12c2.09,1.87,8.55,3.85,10.49,1.82s1.78-7.46-.22-9.42C129,72.6,114.13,68.65,100.49,69.29Z"/><path class="cls-4" d="M101.77,91.27a33.42,33.42,0,0,0-23,13.75,5.19,5.19,0,1,0,8.91,5.32,23.52,23.52,0,0,1,15.15-8.74c6.84-.74,13.69,2.5,20.35,9.63a5.2,5.2,0,0,0,7.59-7.1c-11.23-12-22-13.61-29-12.86Zm3.51,20.46a9.94,9.94,0,1,0,7,2.91,10,10,0,0,0-7-2.91ZM102.69,72.6C83.11,73.5,70,87.48,67.55,90.27a5.19,5.19,0,0,0,7.83,6.82c1.19-1.37,12.1-13.4,27.79-14.12,10.7-.49,21.48,4.38,32.05,14.47a5.19,5.19,0,0,0,7.16-7.51c-12.69-12.14-26-18-39.69-17.33Zm0,0"/></svg>