<svg id="图层_1" data-name="图层 1" xmlns="http://www.w3.org/2000/svg" viewBox="0 0 200 200"><defs><style>.cls-1{fill:#00e6e6;}.cls-2{fill:#0087be;}</style></defs><title>Global View</title><path class="cls-1" d="M23.25,76.74c0-6.07,4-11,8.9-11H183.83V57.44c0-6.69-4.17-12.12-9.3-12.12H97.44l-8-10.93c-3.49-6.61-8.62-9.57-12.65-9.57H12.94c-4,0-7.33,4.28-7.33,9.57V149.26Z"/><path class="cls-2" d="M187.67,76.61H39.78c-4.38,0-7.94,4.41-7.94,9.87L13.65,161.21c0,5.46,3.56,9.87,7.94,9.87H169.48c4.38,0,7.94-4.41,7.94-9.87l18.19-74.73c0-5.46-3.57-9.87-7.94-9.87Zm-44.93,41.13-14.93,14.49a4,4,0,0,0-1,2.85l3.46,20.53a3.27,3.27,0,0,1-1.16,3.36,3,3,0,0,1-1.69.54,4,4,0,0,1-1.87-.51l-18.39-9.74a4,4,0,0,0-3,0L85.73,158.9a3.36,3.36,0,0,1-3.57,0,3.27,3.27,0,0,1-1.12-3.4l3.57-20.53a4,4,0,0,0-.92-2.85L68.83,117.53a3.06,3.06,0,0,1,1.8-5.49l20.59-3a3.91,3.91,0,0,0,2.45-1.76l9.26-18.67a3.08,3.08,0,0,1,5.81,0l9.16,18.7a3.8,3.8,0,0,0,2.44,1.77l20.6,3a3.26,3.26,0,0,1,2.85,2.14,3.3,3.3,0,0,1-1,3.43Zm0,0"/></svg>