<svg id="图层_1" data-name="图层 1" xmlns="http://www.w3.org/2000/svg" viewBox="0 0 200 200"><defs><style>.cls-1{fill:#0087be;}.cls-2{fill:#00e6e6;}.cls-3{fill:#fff;}</style></defs><title>Global View</title><path class="cls-1" d="M100,148.25c-42.48,0-76.91-12.19-76.91-27.24v45.4h.15c2.34,14.3,35.81,25.64,76.76,25.64s74.42-11.34,76.76-25.64h.15V121c0,15-34.43,27.24-76.91,27.24ZM23.09,119.41V121a9.52,9.52,0,0,1,.15-1.6Zm153.67,0a9.52,9.52,0,0,1,.15,1.6v-1.6Zm0,0"/><path class="cls-2" d="M100,102.32c-42.48,0-76.91-12.2-76.91-27.24v47.53h.15c2.34,14.3,35.81,25.64,76.76,25.64s74.42-11.34,76.76-25.64h.15V75.08c0,15-34.43,27.24-76.91,27.24ZM23.09,73.48v1.6a9.52,9.52,0,0,1,.15-1.6Zm153.67,0a9.52,9.52,0,0,1,.15,1.6v-1.6Zm0,0"/><path class="cls-2" d="M23.09,31.28c0,15,34.43,27.24,76.91,27.24s76.91-12.19,76.91-27.24S142.48,4.05,100,4.05,23.09,16.24,23.09,31.28Zm0,0"/><path class="cls-1" d="M100,58.52c-42.48,0-76.91-12.19-76.91-27.24v45.4h.15C25.58,91,59.05,102.32,100,102.32S174.42,91,176.76,76.68h.15V31.28c0,15-34.43,27.24-76.91,27.24ZM23.09,29.68v1.6a9.52,9.52,0,0,1,.15-1.6Zm153.67,0a9.52,9.52,0,0,1,.15,1.6v-1.6Zm0,0"/><path class="cls-3" d="M42.54,74.28a11.34,11.34,0,1,0,5.67-9.83,11.34,11.34,0,0,0-5.67,9.83Zm0,0"/><path class="cls-3" d="M42.54,120.21a11.34,11.34,0,1,0,5.67-9.83,11.34,11.34,0,0,0-5.67,9.83Zm0,0"/><path class="cls-3" d="M42.54,163.9a11.34,11.34,0,1,0,5.67-9.82,11.35,11.35,0,0,0-5.67,9.82Zm0,0"/><path class="cls-3" d="M143.81,70.28a3.24,3.24,0,1,0,1.62-2.81,3.23,3.23,0,0,0-1.62,2.81Z"/><path class="cls-3" d="M130.84,73a3.24,3.24,0,1,0,1.62-2.8,3.25,3.25,0,0,0-1.62,2.8Z"/><path class="cls-3" d="M150.29,80a3.24,3.24,0,1,0,1.62-2.8,3.25,3.25,0,0,0-1.62,2.8Z"/><path class="cls-3" d="M137.32,82.19a3.25,3.25,0,1,0,1.62-2.81,3.25,3.25,0,0,0-1.62,2.81Z"/><path class="cls-3" d="M117.87,74.81a3.24,3.24,0,0,0,1.63,2.81,3.28,3.28,0,0,0,3.24,0,3.24,3.24,0,1,0-4.87-2.81Z"/><path class="cls-3" d="M124.36,83.24a3.24,3.24,0,1,0,1.62-2.8,3.23,3.23,0,0,0-1.62,2.8Z"/><path class="cls-3" d="M104.91,76a3.25,3.25,0,0,0,1.62,2.81,3.28,3.28,0,0,0,3.24,0A3.24,3.24,0,1,0,104.91,76Z"/><path class="cls-3" d="M111.39,84.53a3.24,3.24,0,1,0,4.86-2.81,3.28,3.28,0,0,0-3.24,0,3.25,3.25,0,0,0-1.62,2.81Z"/><path class="cls-3" d="M91.94,76a3.25,3.25,0,1,0,1.62-2.81A3.22,3.22,0,0,0,91.94,76Z"/><path class="cls-3" d="M98.43,85.43a3.24,3.24,0,1,0,4.86-2.81,3.28,3.28,0,0,0-3.24,0,3.23,3.23,0,0,0-1.62,2.81Z"/><path class="cls-3" d="M143.81,113.43a3.24,3.24,0,1,0,1.62-2.8,3.23,3.23,0,0,0-1.62,2.8Z"/><path class="cls-3" d="M130.84,116.16a3.25,3.25,0,0,0,1.62,2.81,3.28,3.28,0,0,0,3.24,0,3.24,3.24,0,1,0-4.86-2.81Z"/><path class="cls-3" d="M150.29,123.16a3.25,3.25,0,0,0,1.62,2.81,3.28,3.28,0,0,0,3.24,0,3.24,3.24,0,1,0-4.86-2.81Z"/><path class="cls-3" d="M137.32,125.35a3.25,3.25,0,1,0,1.62-2.81,3.25,3.25,0,0,0-1.62,2.81Z"/><path class="cls-3" d="M117.87,118a3.25,3.25,0,1,0,4.87-2.81,3.28,3.28,0,0,0-3.24,0,3.24,3.24,0,0,0-1.63,2.81Z"/><path class="cls-3" d="M124.36,126.4a3.24,3.24,0,1,0,1.62-2.81,3.23,3.23,0,0,0-1.62,2.81Z"/><path class="cls-3" d="M104.91,119.15a3.24,3.24,0,1,0,4.86-2.81,3.28,3.28,0,0,0-3.24,0,3.25,3.25,0,0,0-1.62,2.81Z"/><path class="cls-3" d="M111.39,127.69a3.24,3.24,0,1,0,1.62-2.81,3.23,3.23,0,0,0-1.62,2.81Z"/><path class="cls-3" d="M91.94,119.15a3.25,3.25,0,1,0,1.62-2.8,3.25,3.25,0,0,0-1.62,2.8Z"/><path class="cls-3" d="M98.43,128.59a3.23,3.23,0,0,0,1.62,2.81,3.28,3.28,0,0,0,3.24,0,3.24,3.24,0,1,0-4.86-2.81Z"/><path class="cls-3" d="M143.81,159.77a3.24,3.24,0,1,0,1.62-2.81,3.23,3.23,0,0,0-1.62,2.81Z"/><path class="cls-3" d="M130.84,162.5a3.24,3.24,0,1,0,1.62-2.81,3.25,3.25,0,0,0-1.62,2.81Z"/><path class="cls-3" d="M150.29,169.49a3.24,3.24,0,1,0,1.62-2.8,3.25,3.25,0,0,0-1.62,2.8Z"/><path class="cls-3" d="M137.32,171.68a3.25,3.25,0,1,0,4.87-2.81,3.3,3.3,0,0,0-3.25,0,3.25,3.25,0,0,0-1.62,2.81Z"/><path class="cls-3" d="M117.87,164.3a3.25,3.25,0,1,0,1.63-2.81,3.24,3.24,0,0,0-1.63,2.81Z"/><path class="cls-3" d="M124.36,172.74a3.24,3.24,0,1,0,1.62-2.81,3.23,3.23,0,0,0-1.62,2.81Z"/><path class="cls-3" d="M104.91,165.49a3.24,3.24,0,1,0,1.62-2.81,3.25,3.25,0,0,0-1.62,2.81Z"/><path class="cls-3" d="M111.39,174a3.24,3.24,0,1,0,6.48,0,3.24,3.24,0,0,0-6.48,0Z"/><path class="cls-3" d="M91.94,165.49a3.25,3.25,0,0,0,1.62,2.81,3.3,3.3,0,0,0,3.25,0,3.25,3.25,0,1,0-4.87-2.81Z"/><path class="cls-3" d="M98.43,174.92a3.24,3.24,0,1,0,1.62-2.8,3.23,3.23,0,0,0-1.62,2.8Z"/></svg>