<svg id="图层_1" data-name="图层 1" xmlns="http://www.w3.org/2000/svg" viewBox="0 0 200 200"><defs><style>.cls-1{fill:#f2f2f2;stroke:#00e6e6;stroke-linecap:square;stroke-linejoin:round;stroke-width:0.5px;}.cls-2{fill:#0087be;}.cls-3{fill:#e5e5e5;}.cls-4{fill:#00e6e6;}</style></defs><title>Global View</title><path class="cls-1" d="M99.82,29.68a73,73,0,0,1,29.12,6l29.63,12.84V87.15a82.88,82.88,0,0,1-4.83,28.11v0a91.11,91.11,0,0,1-13.64,25.12l0,.07-.06.08a89,89,0,0,1-20.74,19.75A75.12,75.12,0,0,1,99.8,169.8a74.22,74.22,0,0,1-19.51-9.54,88.63,88.63,0,0,1-20.75-19.79l0-.06,0,0a91.12,91.12,0,0,1-13.55-25.05l0,0,0,0a82.8,82.8,0,0,1-4.81-28V48.56L70.69,35.72a73,73,0,0,1,29.13-6"/><path class="cls-2" d="M99.79,17.93a85.19,85.19,0,0,1,33.8,7l36.71,15.9v46.3a94.52,94.52,0,0,1-5.52,32.08,102.89,102.89,0,0,1-15.41,28.32v0l0,0A100.69,100.69,0,0,1,125.86,170,86.72,86.72,0,0,1,99.8,182,86.6,86.6,0,0,1,73.66,170a100.3,100.3,0,0,1-23.48-22.4l0,0h0a103.81,103.81,0,0,1-15.29-28.26v0a93.93,93.93,0,0,1-5.51-32.07V40.85L66,25A84.44,84.44,0,0,1,82.68,19.7a82.88,82.88,0,0,1,17.11-1.77m0-11.75a96.73,96.73,0,0,0-38.47,8L17.54,33.12v54a106.21,106.21,0,0,0,6.2,36.06,115,115,0,0,0,17,31.47,112.75,112.75,0,0,0,26.24,25,98,98,0,0,0,32.77,14.5,98.45,98.45,0,0,0,32.68-14.44,112.14,112.14,0,0,0,26.23-25,114.94,114.94,0,0,0,17.15-31.56A107,107,0,0,0,182,87.09v-54l-43.81-19a96.88,96.88,0,0,0-38.44-8Zm0,0"/><path class="cls-3" d="M100.17,30.61a72,72,0,0,1,28.74,6l29.24,12.66V87.32a81.68,81.68,0,0,1-4.77,27.73v0a90.15,90.15,0,0,1-13.46,24.78l0,.08-.06.07a87.7,87.7,0,0,1-20.47,19.49,73.93,73.93,0,0,1-19.19,9.37l0-138.27"/><path class="cls-2" d="M98.78,112.38s-5.52-2.72-5.52-3.8L90.6,55.86a2,2,0,0,1,2-2.09h14.26c1.13,0,6.35,2.09,6.24,3.22l-6.86,51.65a1.9,1.9,0,0,1-1.93,1.87Z"/><path class="cls-2" d="M88.12,129.8a11.66,11.66,0,0,0,5.82,10.09,40.49,40.49,0,0,0,6.64,3.09l8-21.91s-1.15-.52-2.88-1.41a12.25,12.25,0,0,0-11.72,0,11.66,11.66,0,0,0-5.82,10.09Zm0,0"/><path class="cls-4" d="M108.82,112.64h-9a2,2,0,0,1-2-1.92L95.13,58a2,2,0,0,1,2-2.09h14.26a2,2,0,0,1,2,2.09l-2.61,52.79a1.89,1.89,0,0,1-1.92,1.86Zm0,0"/><path class="cls-4" d="M92.64,131.93a11.66,11.66,0,1,0,5.83-10.09,11.65,11.65,0,0,0-5.83,10.09Zm0,0"/></svg>