<?xml version="1.0" encoding="utf-8"?>
<!-- Generator: Adobe Illustrator 24.0.1, SVG Export Plug-In . SVG Version: 6.00 Build 0)  -->
<svg version="1.1" id="图层_1" xmlns="http://www.w3.org/2000/svg" xmlns:xlink="http://www.w3.org/1999/xlink" x="0px" y="0px"
	 viewBox="0 0 200 200" style="enable-background:new 0 0 200 200;" xml:space="preserve">
<style type="text/css">
	.st0{fill:#F2F2F2;stroke:#00E6E6;stroke-width:0.5;stroke-linecap:square;stroke-linejoin:round;}
	.st1{fill:#0087BE;}
	.st2{fill:#E5E5E5;}
	.st3{fill:#00E6E6;}
</style>
<title>Global View</title>
<g>
	<path class="st0" d="M100,29.5c10,0,19.9,2,29.1,6l29.6,12.8V87c0,9.6-1.6,19.1-4.9,28.2l0,0c-3.2,9-7.8,17.5-13.6,25.1l-0.1,0.1
		v0.1c-5.8,7.7-12.8,14.3-20.8,19.8c-6,4.1-12.5,7.3-19.4,9.5c-6.9-2.2-13.5-5.4-19.5-9.6c-7.9-5.4-14.9-12.1-20.7-19.8v-0.1v0
		c-5.8-7.6-10.4-16-13.5-25l0,0l0,0c-3.2-9-4.8-18.5-4.8-28V48.4l29.5-12.8C80.1,31.6,90.1,29.6,100,29.5"/>
	<path class="st1" d="M100,17.8c11.6,0,23.1,2.4,33.8,7l36.7,15.9V87c0,10.9-1.8,21.8-5.5,32.1c-3.6,10.2-8.8,19.8-15.4,28.3l0,0
		l0,0c-6.6,8.7-14.5,16.3-23.5,22.4c-7.9,5.4-16.7,9.5-26,12c-9.3-2.5-18.2-6.6-26.2-12.1c-9-6.1-16.9-13.7-23.5-22.4l0,0l0,0
		c-6.5-8.6-11.7-18.1-15.3-28.3l0,0c-3.7-10.3-5.6-21.1-5.6-32.1V40.7l36.7-15.9c5.4-2.3,11-4.1,16.7-5.3
		C88.6,18.4,94.3,17.8,100,17.8 M100.1,6c-13.2,0-26.3,2.7-38.5,8L17.8,33v54c0,12.3,2.1,24.5,6.2,36.1c4,11.3,9.7,21.9,17,31.5
		c7.3,9.7,16.2,18.1,26.2,25c9.9,6.8,21,11.7,32.8,14.5c11.7-2.8,22.8-7.7,32.7-14.5c10-6.9,18.9-15.3,26.2-25
		c7.3-9.6,13.1-20.2,17.1-31.6c4.1-11.6,6.3-23.8,6.3-36.1V33l-43.8-19C126.3,8.7,113.2,6,100.1,6L100.1,6z"/>
	<path class="st2" d="M100.4,30.5c9.9,0,19.7,2,28.7,6l29.2,12.7v38c0,9.5-1.6,18.9-4.8,27.8l0,0c-3.2,8.9-7.7,17.3-13.5,24.8
		l-0.1,0.1v0.1c-5.7,7.6-12.6,14.1-20.5,19.5c-5.9,4-12.4,7.2-19.2,9.4L100.4,30.5"/>
	<g>
		<path class="st1" d="M102.6,126.3c1.4,0,8.2,3.3,8.2,5c0,1.4-6.9,0-8.2,0l-9.6,3.3c-1.4,0-7.8-4.4-7.8-5.8c0-1.4,1.1-2.5,2.5-2.5
			c0,0,0,0,0,0L102.6,126.3z"/>
		<g>
			<g>
				<path class="st1" d="M95.1,58.4c15.6,0,26.8,4.3,33.1,23.9c3.3,10.2-10.9,24.4-19.7,29.2v6.6c0,0.9-0.4,1.7-1,2.3
					c-0.6,0.6-1.5,1-2.4,1l-15,3.2c-2.6-1.1-5-2.5-7.2-4.2c-0.6-0.6-1-1.5-1-2.3v-6.6C68.2,104.2,63,87.2,70.3,73.4
					C75.2,64.2,84.7,58.5,95.1,58.4L95.1,58.4z"/>
				<path class="st3" d="M108.5,129.7c1.4-0.1,2.6,0.9,2.7,2.3c0.1,1.4-0.9,2.6-2.3,2.7c-0.1,0-0.3,0-0.4,0H93.6
					c-1.4,0.1-2.6-0.9-2.7-2.3c-0.1-1.4,0.9-2.6,2.3-2.7c0.1,0,0.3,0,0.4,0H108.5z"/>
				<path class="st3" d="M101.1,61.8c15.6,0,28.2,12.6,28.2,28.1c0,10.4-5.7,20-14.9,24.9v6.6c0,1.8-1.5,3.3-3.3,3.3H91.1
					c-1.8,0-3.3-1.5-3.3-3.3v-6.6c-13.7-7.3-18.9-24.4-11.6-38.1C81.1,67.6,90.6,61.8,101.1,61.8L101.1,61.8z"/>
			</g>
			<path class="st1" d="M112.2,94.9c0.9,0.9,1,2.3,0.2,3.3l-0.2,0.2l-8.6,8.6v17.8h-5V107l-8.6-8.6c-1-1-1-2.5,0-3.5
				c0.9-0.9,2.4-1,3.3-0.2l0.2,0.2l7.6,7.6l7.6-7.6C109.6,93.9,111.2,93.9,112.2,94.9L112.2,94.9z"/>
		</g>
	</g>
</g>
</svg>
