<svg id="图层_1" data-name="图层 1" xmlns="http://www.w3.org/2000/svg" viewBox="0 0 200 200"><defs><style>.cls-1{fill:#f2f2f2;stroke:#00e6e6;stroke-linecap:square;stroke-linejoin:round;stroke-width:0.5px;}.cls-2{fill:#0087be;}.cls-3{fill:#e5e5e5;}.cls-4{fill:#00e6e6;}</style></defs><title>Global View</title><path class="cls-1" d="M97.1,29.58a73,73,0,0,1,29.11,6l29.64,12.83V87A83.09,83.09,0,0,1,151,115.15v0a91.46,91.46,0,0,1-13.64,25.11l-.06.08,0,.07a89.1,89.1,0,0,1-20.75,19.76,75.53,75.53,0,0,1-19.44,9.49,74.63,74.63,0,0,1-19.52-9.55,88.38,88.38,0,0,1-20.74-19.79l0-.06,0-.05a91.33,91.33,0,0,1-13.55-25l0,0v0a82.52,82.52,0,0,1-4.81-28V48.45L68,35.62a73,73,0,0,1,29.14-6"/><path class="cls-2" d="M97.06,17.83a84.86,84.86,0,0,1,33.8,7l36.72,15.9V87a94.49,94.49,0,0,1-5.53,32.08,103.06,103.06,0,0,1-15.4,28.33l0,0,0,0a100.3,100.3,0,0,1-23.48,22.4,86.67,86.67,0,0,1-26,12,86.41,86.41,0,0,1-26.15-12.08,100.45,100.45,0,0,1-23.48-22.39l0,0v0a103.57,103.57,0,0,1-15.3-28.26v0A94.27,94.27,0,0,1,26.61,87V40.74l36.71-15.9A85.92,85.92,0,0,1,80,19.59a83.56,83.56,0,0,1,17.11-1.76m0-11.75a96.64,96.64,0,0,0-38.46,8L14.81,33V87A106.12,106.12,0,0,0,21,123.08a115.28,115.28,0,0,0,17,31.47,112.94,112.94,0,0,0,26.24,25A98,98,0,0,0,97,194.08a98.3,98.3,0,0,0,32.68-14.45,112.34,112.34,0,0,0,26.24-25,115.47,115.47,0,0,0,17.14-31.56A106.79,106.79,0,0,0,179.31,87V33l-43.81-19a96.71,96.71,0,0,0-38.44-8Zm0,0"/><path class="cls-3" d="M97.45,30.5a72,72,0,0,1,28.73,6l29.24,12.67V87.21A81.73,81.73,0,0,1,150.66,115v0a90.07,90.07,0,0,1-13.46,24.79l-.06.07,0,.07a87.79,87.79,0,0,1-20.48,19.5,74,74,0,0,1-19.18,9.36l0-138.27"/><path class="cls-2" d="M123.7,79.74A22.77,22.77,0,0,1,111.38,100,11.93,11.93,0,0,0,105,111.76a1.32,1.32,0,0,1-1.33,1.47L94.14,116c-1.59,0-5.27-4.07-5.27-5.66a29,29,0,0,1,15.34-25.45,5.87,5.87,0,0,0,3.4-5.45A6.49,6.49,0,0,0,101.09,73H96.91a6.71,6.71,0,0,0-6.06,3.84,2.68,2.68,0,0,1-2.42,1.52l-8.6,2.85c-1.7,0-5.58-4.41-5.25-6.07.15-.72.33-1.44.55-2.14A22.79,22.79,0,0,1,96.91,57h4c6.29,0,14.26,4.08,18.35,8.53,4,4.29,4.43,8,4.43,14.25Z"/><path class="cls-2" d="M108.53,131c0,2.95-2.1,5-4,6.91s-6.14,6.3-8.81,5c-2.91-1.36-4.4-3.1-6.34-5a10.72,10.72,0,0,1,7.58-18.3,11.18,11.18,0,0,1,7.57,3.14c2,1.86.59.54,2.58,2.3Z"/><path class="cls-4" d="M127,82.66a22.76,22.76,0,0,1-12.32,20.24,11.93,11.93,0,0,0-6.38,11.78,1.34,1.34,0,0,1-1.33,1.48H95a2.87,2.87,0,0,1-2.87-2.88,29.05,29.05,0,0,1,15.33-25.44,5.89,5.89,0,0,0,3.41-5.46A6.49,6.49,0,0,0,104.35,76h-4.19a6.71,6.71,0,0,0-6,3.84,2.69,2.69,0,0,1-2.42,1.52H80.47a2.68,2.68,0,0,1-2.63-3.21c.15-.73.33-1.44.54-2.15a22.79,22.79,0,0,1,21.78-16.07h4A22.79,22.79,0,0,1,127,82.66Z"/><path class="cls-4" d="M110.88,133.24a10.72,10.72,0,1,1-3.14-7.57,10.69,10.69,0,0,1,3.14,7.57Z"/></svg>