<svg id="图层_1" data-name="图层 1" xmlns="http://www.w3.org/2000/svg" viewBox="0 0 200 200"><defs><style>.cls-1{fill:#0087be;}.cls-2{fill:#00e6e6;}.cls-3{fill:#fff;}</style></defs><title>Global View</title><path class="cls-1" d="M105.47,105.15c11-9.79,48.3-57.53,39.93-71.92C132.41,10.89,114,5.29,94.76,5.29c-27.32,0-49.48,23.89-49.48,53.39A55.34,55.34,0,0,0,59.9,96.55c1.12,1.07,16.81,18.26,42.51,21.51"/><path class="cls-2" d="M145.85,119.5l-11.42-7.09c-10.09,8.27-38.69,25.72-78.23-.62C44.28,121,12.49,147.25,16,165c0,0,4.69,25.08,38.33,26,0,0,96.17.84,112.83-16.42,0,0,18.2-11.72-5.86-37.64"/><path class="cls-2" d="M137.56,107.07a55,55,0,0,0,18.09-41.29c0-29.51-22.16-53.4-49.46-53.4S56.71,36.27,56.71,65.77a55.3,55.3,0,0,0,14.62,37.87c1.11,1.08,32.58,30.19,66.23,3.43"/><path class="cls-1" d="M172.74,144,145.85,119.5c-10.09,8.27-38.69,25.72-78.22-.62-11.92,9.16-43.72,35.46-40.19,53.2,0,0,.62,18.51,34.26,19.41,0,0,100.23,7.4,116.9-9.86,0,0,18.2-11.72-5.86-37.64"/><path class="cls-3" d="M95.64,131.3a73.83,73.83,0,0,0,10.08,1.47,58.46,58.46,0,0,0,11.11-.46l5.36,11.37-8.56,18.88.09,30.73H98.56l.16-30.73-8.55-18.88Z"/></svg>