<svg id="图层_1" data-name="图层 1" xmlns="http://www.w3.org/2000/svg" viewBox="0 0 200 200"><defs><style>.cls-1{fill:#f2f2f2;stroke:#00e6e6;stroke-linecap:square;stroke-linejoin:round;stroke-width:0.5px;}.cls-2{fill:#0087be;}.cls-3{fill:#e5e5e5;}.cls-4{fill:#00e6e6;}</style></defs><title>Global View</title><path class="cls-1" d="M97.38,29.67a73,73,0,0,1,29.12,6l29.63,12.83v38.6a82.83,82.83,0,0,1-4.83,28.1v0a91.25,91.25,0,0,1-13.64,25.12l0,.07-.06.07a89.05,89.05,0,0,1-20.74,19.76,75.27,75.27,0,0,1-19.45,9.49,74.26,74.26,0,0,1-19.51-9.55A88.43,88.43,0,0,1,57.1,140.45l0,0,0-.06a90.8,90.8,0,0,1-13.55-25l0,0,0,0a82.86,82.86,0,0,1-4.81-28.06V48.54L68.24,35.71a73.06,73.06,0,0,1,29.14-6"/><path class="cls-2" d="M97.34,17.92a85.43,85.43,0,0,1,17.17,1.75,84.56,84.56,0,0,1,16.63,5.25l36.72,15.9v46.3a94.47,94.47,0,0,1-5.52,32.07,103.06,103.06,0,0,1-15.41,28.33l0,0v0A100.34,100.34,0,0,1,123.41,170a86.82,86.82,0,0,1-26,12,86.84,86.84,0,0,1-26.14-12.08,100.3,100.3,0,0,1-23.48-22.4l0,0,0,0a103.07,103.07,0,0,1-15.29-28.25v0A94,94,0,0,1,26.9,87.14V40.83l36.7-15.9a85.92,85.92,0,0,1,16.63-5.25,83.63,83.63,0,0,1,17.11-1.76m0-11.75a96.51,96.51,0,0,0-38.46,8L15.09,33.1v54a106.46,106.46,0,0,0,6.21,36.06,115.1,115.1,0,0,0,17,31.46,112.74,112.74,0,0,0,26.23,25,98.1,98.1,0,0,0,32.78,14.5A98.27,98.27,0,0,0,130,179.72a112.1,112.1,0,0,0,26.23-25,115.23,115.23,0,0,0,17.15-31.56,106.78,106.78,0,0,0,6.2-36.06v-54l-43.8-19a96.79,96.79,0,0,0-38.45-8Zm0,0"/><path class="cls-3" d="M97.73,30.59a72,72,0,0,1,28.74,6l29.24,12.67V87.3A81.94,81.94,0,0,1,150.94,115v0a90.15,90.15,0,0,1-13.46,24.78l0,.07-.06.08A87.9,87.9,0,0,1,116.9,159.5a74.25,74.25,0,0,1-19.19,9.37l0-138.28"/><path class="cls-2" d="M123.07,67.5c-11.23,3.38-13.28,13-12.56,19-5.57-6.91-3.3-32.16-3.3-32.16s-1.54-1.83-4.38-5.69C77.15,58.92,83.12,88.41,82.35,97.36c-2.9-2.5-3.3-13.23-3.3-13.23l-4.38-5.69c-6.82,3.71-10.55,13.29-12,21.29-2.42,13.94,5,41.18,37.88,41.18,18.37,0,41.76-25.1,30.39-40.84-5.71-7.9-3.55-26.88-3.55-26.88s-2.47-3-4.37-5.69Z"/><path class="cls-4" d="M127.44,73.19c-11.22,3.38-13.28,13-12.55,19-8-9.94-7.68-21.38-7.68-37.85C81.53,64.61,87.5,94.1,86.73,103.06c-6.46-5.59-7.68-18.93-7.68-18.93-6.82,3.71-10.24,13.6-10.24,21.63,0,19.41,14.9,35.15,33.28,35.15s33.28-15.74,33.28-35.15c0-11.54-8-16.86-7.93-32.57Z"/></svg>