<svg id="图层_1" data-name="图层 1" xmlns="http://www.w3.org/2000/svg" xmlns:xlink="http://www.w3.org/1999/xlink" viewBox="0 0 200 200"><defs><style>.cls-1{fill:#f7f7f7;}.cls-2{fill:#d8d8d8;}.cls-3{fill:#e8e8e8;}.cls-4{fill:#efefef;}.cls-5{fill:#0186be;}.cls-6{fill:url(#未命名的渐变_8);}.cls-7{fill:#03e5e1;}.cls-8{fill:#04bcd8;}.cls-9{opacity:0.4;fill:url(#linear-gradient);}.cls-10{opacity:0.6;fill:url(#linear-gradient-2);}.cls-11{fill:url(#未命名的渐变_7);}.cls-12{fill:url(#未命名的渐变_7-2);}.cls-13{fill:url(#未命名的渐变_11);}.cls-14{fill:#00aeeb;}</style><linearGradient id="未命名的渐变_8" x1="56.33" y1="126.77" x2="143.93" y2="126.77" gradientUnits="userSpaceOnUse"><stop offset="0" stop-color="#0186be"/><stop offset="0.05" stop-color="#0196c5"/><stop offset="0.18" stop-color="#00c1d7"/><stop offset="0.29" stop-color="#00dce2"/><stop offset="0.35" stop-color="#00e6e6"/><stop offset="0.47" stop-color="#00dde2"/><stop offset="0.66" stop-color="#00c3d7"/><stop offset="0.9" stop-color="#019ac6"/><stop offset="1" stop-color="#0186be"/></linearGradient><linearGradient id="linear-gradient" x1="100.43" y1="127.99" x2="100.43" y2="43.13" gradientUnits="userSpaceOnUse"><stop offset="0" stop-color="aqua"/><stop offset="0.36" stop-color="aqua" stop-opacity="0.6"/><stop offset="0.67" stop-color="aqua" stop-opacity="0.28"/><stop offset="0.89" stop-color="aqua" stop-opacity="0.08"/><stop offset="1" stop-color="aqua" stop-opacity="0"/></linearGradient><linearGradient id="linear-gradient-2" x1="100.05" y1="128.4" x2="100.05" y2="54.98" xlink:href="#linear-gradient"/><linearGradient id="未命名的渐变_7" x1="93.59" y1="109.03" x2="104.93" y2="109.03" gradientUnits="userSpaceOnUse"><stop offset="0" stop-color="#0186be"/><stop offset="0.07" stop-color="#018cc0"/><stop offset="0.16" stop-color="#019cc7"/><stop offset="0.26" stop-color="#00b7d2"/><stop offset="0.37" stop-color="#00dce2"/><stop offset="0.39" stop-color="#00e6e6"/><stop offset="0.67" stop-color="#01b4d1"/><stop offset="0.88" stop-color="#0192c3"/><stop offset="1" stop-color="#0186be"/></linearGradient><linearGradient id="未命名的渐变_7-2" x1="82.87" y1="95.47" x2="115.47" y2="95.47" xlink:href="#未命名的渐变_7"/><linearGradient id="未命名的渐变_11" x1="74.75" y1="85.53" x2="123.96" y2="85.53" gradientUnits="userSpaceOnUse"><stop offset="0" stop-color="#0186be"/><stop offset="0.04" stop-color="#0190c2"/><stop offset="0.24" stop-color="#00bed5"/><stop offset="0.39" stop-color="#00dbe2"/><stop offset="0.48" stop-color="#00e6e6"/><stop offset="0.63" stop-color="#00cfdd"/><stop offset="0.93" stop-color="#0195c4"/><stop offset="1" stop-color="#0186be"/></linearGradient></defs><title>Folderlocal-view-nodes-b</title><polygon class="cls-1" points="177.82 141.21 157.99 185.41 78.9 197.68 23.03 165.69 23.03 150.64 177.82 126.15 177.82 141.21"/><polygon class="cls-2" points="177.82 141.21 157.99 185.41 157.99 170.35 177.82 126.15 177.82 141.21"/><polygon class="cls-3" points="177.82 126.15 157.99 170.35 78.9 182.63 23.03 150.64 43.63 106.16 123 94.55 177.82 126.15"/><polygon class="cls-4" points="157.99 170.35 157.99 185.41 78.9 197.68 78.9 182.63 157.99 170.35"/><path class="cls-5" d="M144,130.38v-4.1h-.85c-1.66-4.61-5.68-9-12.07-12.6-17.17-9.63-44.93-9.68-62-.11-6.41,3.6-10.4,8.05-12,12.71H56.3v4c0,.38,0,.75,0,1.12v.3h0c.36,6,4.67,12,12.91,16.64,17.17,9.64,44.93,9.69,62,.11C140.08,143.49,144.32,136.91,144,130.38Z"/><path class="cls-6" d="M141.86,119.45l0,0-7.1-10.81-6.18-.4c-14-6.77-33.69-7.83-49.34-3.13l-2.67-.17L66.1,107.33l-6,9.34c-7.14,9-4.07,20,9.18,27.41,17.16,9.63,44.89,9.68,61.94.11C143.11,137.51,146.65,127.91,141.86,119.45Z"/><ellipse class="cls-7" cx="100.13" cy="114.69" rx="20.42" ry="36.4" transform="matrix(0.01, -1, 1, 0.01, -15.07, 214.23)"/><path class="cls-8" d="M128.53,114.16v1.1a10.71,10.71,0,0,1-2.86,6.53,20.64,20.64,0,0,1-5.38,4.21c-11.06,6.2-29.05,6.18-40.2-.08a20.67,20.67,0,0,1-5.5-4.32,10.92,10.92,0,0,1-2.85-6.34,8.65,8.65,0,0,1,0-1.44c.32-3.81,3.06-7.55,8.23-10.45,11.06-6.2,29.06-6.16,40.2.08C125.47,106.42,128.26,110.28,128.53,114.16Z"/><path class="cls-9" d="M131.63,115.08v1.06a9.67,9.67,0,0,1-3.28,6.32,23,23,0,0,1-6.15,4.08c-12.66,6-33.24,6-46-.08a23.21,23.21,0,0,1-6.29-4.18,9.79,9.79,0,0,1-3.26-6.14L11.6-7.34,189.25-8Z"/><path class="cls-10" d="M128.82,117.69v.89a8,8,0,0,1-2.9,5.29,20.61,20.61,0,0,1-5.45,3.4c-11.21,5-29.44,5-40.74-.06a20.86,20.86,0,0,1-5.57-3.5,8.1,8.1,0,0,1-2.89-5.13V15.35l57.17-4.58Z"/><path class="cls-11" d="M99.07,103.37a5.66,5.66,0,0,0-5.48,5.83,9.85,9.85,0,0,0,2.58,5.18c1,1,1.31-.71,2.87-.76a5.67,5.67,0,0,0,5.48-5.83c0-1.19.82.09.17-.8-1.07-1.45-3.69-3.68-5.62-3.62"/><path class="cls-12" d="M85.14,94.32l.25-.25.25-.25.14-.12c7.1-6.87,18.66-7.63,25.85-.87l.85.8,1.16,1.09a6.47,6.47,0,0,1,1.7,5.7c-.47,1.91-5.49,1.49-6.91.15l-2-1.89a11.41,11.41,0,0,0-16.09.5L89,100.59c-1.32,1.41-2.86,3-4.28,1.72a9.32,9.32,0,0,1-1.8-4,3.49,3.49,0,0,1,.95-2.51Z"/><path class="cls-13" d="M75.29,87.63l1.14-1.21a0,0,0,0,1,0,0l.9-1a2.7,2.7,0,0,1,.52-.44c11.59-10.84,30.15-11.37,42-.63l.18.13,2.19,2.06c1.29,1.22,2.38,4.77,1.16,6.08s-4.73.15-6-1.07l-2.19-2s0,0,0,0a24.3,24.3,0,0,0-33.54.86L80,92.07c-1.22,1.3-2.28,3.24-3.59,2s-2.35-5.15-1.13-6.45"/><path class="cls-14" d="M100,104.69a5.66,5.66,0,1,0,5.84,5.48,5.65,5.65,0,0,0-5.84-5.48"/><path class="cls-14" d="M86.19,97.14c.08-.09.17-.17.25-.25l.25-.25.14-.12a18.45,18.45,0,0,1,25.5-.19l.84.79,1.17,1.1a3.55,3.55,0,0,1-4.86,5.18l-2-1.9a11.41,11.41,0,0,0-16.09.5L90,103.41a3.52,3.52,0,0,1-5,.15,3.59,3.59,0,0,1-1.11-2.46,3.49,3.49,0,0,1,1-2.51Z"/><path class="cls-14" d="M76.34,90.45l1.14-1.21h0l.9-1a2.7,2.7,0,0,1,.52-.44,30.79,30.79,0,0,1,41.61-.34,2.2,2.2,0,0,1,.18.14l2.19,2.05a3.24,3.24,0,0,1-4.44,4.72l-2.19-2.05,0,0a24.3,24.3,0,0,0-33.54.86l-1.62,1.72a3.24,3.24,0,0,1-4.72-4.44"/></svg>