<svg xmlns="http://www.w3.org/2000/svg" xmlns:xlink="http://www.w3.org/1999/xlink" viewBox="0 0 200 200"><defs><style>.cls-1{isolation:isolate;}.cls-2{fill:#f7f7f7;}.cls-3{fill:#d8d8d8;}.cls-4{fill:#e8e8e8;}.cls-5{fill:#efefef;}.cls-6{fill:url(#未命名的渐变_27);}.cls-7{fill:url(#未命名的渐变_22);}.cls-8{fill:#04bcd8;}.cls-9{fill:url(#未命名的渐变_24);}.cls-10{fill:url(#linear-gradient);}.cls-11{fill:url(#未命名的渐变_58);}.cls-12{fill:url(#未命名的渐变_61);}.cls-13{fill:url(#未命名的渐变_61-2);}.cls-14{fill:url(#未命名的渐变_8);}.cls-15{fill:url(#未命名的渐变_61-3);}.cls-16{fill:url(#未命名的渐变_8-2);}.cls-17{fill:#0186be;}.cls-18{fill:#01ffb9;}.cls-19,.cls-20{fill:#06486d;}.cls-20{opacity:0.5;mix-blend-mode:multiply;}.cls-21{fill:#b7b7b7;}.cls-22{fill:#a3a3a3;}.cls-23{fill:url(#未命名的渐变_8-3);}.cls-24{font-size:20px;fill:#333;font-family:SourceHanSansCN-Bold-GBpc-EUC-H, Source Han Sans CN;}.cls-25{letter-spacing:-0.02em;}.cls-26{letter-spacing:0.01em;}.cls-27{letter-spacing:-0.01em;}.cls-28{letter-spacing:-0.02em;}.cls-29{letter-spacing:0em;}.cls-30{letter-spacing:0.01em;}</style><linearGradient id="未命名的渐变_27" x1="41.69" y1="144.02" x2="133.37" y2="144.02" gradientUnits="userSpaceOnUse"><stop offset="0" stop-color="#0186be"/><stop offset="0.01" stop-color="#018bc0"/><stop offset="0.05" stop-color="#01accc"/><stop offset="0.1" stop-color="#00c6d6"/><stop offset="0.15" stop-color="#00d8dd"/><stop offset="0.2" stop-color="#00e3e1"/><stop offset="0.26" stop-color="#00e7e2"/><stop offset="0.42" stop-color="#00e3e1"/><stop offset="0.57" stop-color="#00d8dc"/><stop offset="0.71" stop-color="#00c5d5"/><stop offset="0.85" stop-color="#01aacc"/><stop offset="0.99" stop-color="#0189bf"/><stop offset="1" stop-color="#0186be"/></linearGradient><linearGradient id="未命名的渐变_22" x1="121.62" y1="140.38" x2="133.37" y2="140.38" gradientUnits="userSpaceOnUse"><stop offset="0" stop-color="#0186be"/><stop offset="1" stop-color="#00e6e6"/></linearGradient><linearGradient id="未命名的渐变_24" x1="74.78" y1="157.11" x2="121.62" y2="157.11" gradientUnits="userSpaceOnUse"><stop offset="0" stop-color="#0186be"/><stop offset="0.26" stop-color="#0192c4"/><stop offset="0.73" stop-color="#03b1d4"/><stop offset="0.88" stop-color="#03bcda"/></linearGradient><linearGradient id="linear-gradient" x1="59.7" y1="132.02" x2="115.36" y2="132.02" gradientUnits="userSpaceOnUse"><stop offset="0" stop-color="#dbdbdb"/><stop offset="0.3" stop-color="#d8d8d8"/><stop offset="0.54" stop-color="#cecece"/><stop offset="0.76" stop-color="#bcbcbc"/><stop offset="0.98" stop-color="#a4a4a4"/><stop offset="1" stop-color="#a1a1a1"/></linearGradient><linearGradient id="未命名的渐变_58" x1="63.7" y1="101.51" x2="109.6" y2="107.56" gradientUnits="userSpaceOnUse"><stop offset="0" stop-color="#ededed"/><stop offset="0.23" stop-color="#fafafa"/><stop offset="0.45" stop-color="#fff"/><stop offset="0.56" stop-color="#fcfcfc"/><stop offset="0.65" stop-color="#f1f1f1"/><stop offset="0.74" stop-color="#dfdfdf"/><stop offset="0.83" stop-color="#c6c6c6"/><stop offset="0.91" stop-color="#a6a6a6"/><stop offset="0.99" stop-color="#7f7f7f"/><stop offset="1" stop-color="#7a7a7a"/></linearGradient><linearGradient id="未命名的渐变_61" x1="120.69" y1="21.89" x2="132.19" y2="30.36" gradientTransform="translate(24.36 -47.68) rotate(21.69)" gradientUnits="userSpaceOnUse"><stop offset="0" stop-color="#ededed"/><stop offset="0.2" stop-color="#fafafa"/><stop offset="0.38" stop-color="#fff"/><stop offset="0.5" stop-color="#fcfcfc"/><stop offset="0.61" stop-color="#f1f1f1"/><stop offset="0.71" stop-color="#dfdfdf"/><stop offset="0.81" stop-color="#c6c6c6"/><stop offset="0.9" stop-color="#a6a6a6"/><stop offset="0.99" stop-color="#7f7f7f"/><stop offset="1" stop-color="#7a7a7a"/></linearGradient><linearGradient id="未命名的渐变_61-2" x1="145.93" y1="36.86" x2="153.71" y2="33.46" xlink:href="#未命名的渐变_61"/><linearGradient id="未命名的渐变_8" x1="103.19" y1="38.83" x2="121.23" y2="53.09" gradientTransform="translate(24.36 -47.68) rotate(21.69)" gradientUnits="userSpaceOnUse"><stop offset="0" stop-color="#0186be"/><stop offset="0.05" stop-color="#0196c5"/><stop offset="0.18" stop-color="#00c1d7"/><stop offset="0.29" stop-color="#00dce2"/><stop offset="0.35" stop-color="#00e6e6"/><stop offset="0.47" stop-color="#00dde2"/><stop offset="0.66" stop-color="#00c3d7"/><stop offset="0.9" stop-color="#019ac6"/><stop offset="1" stop-color="#0186be"/></linearGradient><linearGradient id="未命名的渐变_61-3" x1="93.01" y1="49.12" x2="114.56" y2="65.1" gradientTransform="matrix(0.6, 0.8, -0.8, 0.6, 83.42, -73.62)" xlink:href="#未命名的渐变_61"/><linearGradient id="未命名的渐变_8-2" x1="71.92" y1="71.78" x2="101.94" y2="71.75" gradientTransform="matrix(1, 0, 0, 1, 0, 0)" xlink:href="#未命名的渐变_8"/><linearGradient id="未命名的渐变_8-3" x1="156.38" y1="66.94" x2="168.66" y2="62.18" gradientTransform="matrix(-0.36, 0.93, -0.93, -0.36, 270.04, -56.65)" xlink:href="#未命名的渐变_8"/></defs><title>Folderlocal-view-nodes-b</title><g class="cls-1"><g id="图层_1" data-name="图层 1"><polygon class="cls-2" points="187.05 136.3 164.95 185.57 76.79 199.25 14.51 163.59 14.51 146.81 187.05 119.52 187.05 136.3"/><polygon class="cls-3" points="187.05 136.3 164.95 185.57 164.95 168.79 187.05 119.52 187.05 136.3"/><polygon class="cls-4" points="187.05 119.52 164.95 168.79 76.79 182.47 14.51 146.81 37.47 97.23 125.95 84.28 187.05 119.52"/><polygon class="cls-5" points="164.95 168.79 164.95 185.57 76.79 199.25 76.79 182.47 164.95 168.79"/><polygon class="cls-6" points="133.37 130.58 121.63 156.76 74.78 164.03 41.69 145.08 41.69 138.5 133.37 124 133.37 130.58"/><polygon class="cls-7" points="133.37 130.58 121.63 156.76 121.63 150.18 126.68 138.9 133.37 124 133.37 130.58"/><polygon class="cls-8" points="133.37 124 121.63 150.18 74.78 157.45 41.69 138.5 53.89 112.16 100.9 105.28 133.37 124"/><polygon class="cls-9" points="121.63 150.18 121.63 156.76 74.78 164.03 74.78 157.45 121.63 150.18"/><path class="cls-10" d="M115.36,132c0,4.25-17.45,7.7-27.83,7.7-15.37,0-27.83-3.45-27.83-7.7s12.46-7.71,27.83-7.71S115.36,127.76,115.36,132Z"/><path class="cls-11" d="M109.9,132.3q0-.48,0-1V95.25a23.15,23.15,0,0,0-46.3,0v36.09c0,.32,0,.64,0,1,0,0,8.16,4.23,22.62,4.23S109.9,132.3,109.9,132.3Z"/><polygon class="cls-12" points="154.06 19.63 145.59 4.85 110.22 26.83 118.69 41.61 154.06 19.63"/><polygon class="cls-13" points="147.81 72.71 157 70.39 155.44 7.93 142.83 16.01 147.81 72.71"/><polygon class="cls-14" points="128.22 42.38 113.86 19.09 95.07 30.62 109.43 53.92 128.22 42.38"/><rect class="cls-15" x="88.82" y="28.88" width="22.04" height="30.2" transform="translate(-8.26 58.69) rotate(-31.52)"/><path class="cls-16" d="M103.48,92.77a16.71,16.71,0,0,1-16.7,16.71h0A16.71,16.71,0,0,1,70.07,92.77v-42A16.71,16.71,0,0,1,86.78,34.05h0a16.71,16.71,0,0,1,16.7,16.71Z"/><path class="cls-17" d="M98.55,92.11A11.78,11.78,0,1,1,86.78,80.34,11.77,11.77,0,0,1,98.55,92.11Z"/><path class="cls-18" d="M95.35,92.11a8.57,8.57,0,1,1-8.57-8.56A8.57,8.57,0,0,1,95.35,92.11Z"/><path class="cls-17" d="M92.86,92.11A6.09,6.09,0,1,1,86.78,86,6.09,6.09,0,0,1,92.86,92.11Z"/><path class="cls-17" d="M153.87,19.94a9,9,0,1,1,2.9-12.4A9,9,0,0,1,153.87,19.94Z"/><path class="cls-18" d="M152.58,17.86a6.55,6.55,0,1,1,2.1-9A6.56,6.56,0,0,1,152.58,17.86Z"/><path class="cls-17" d="M151.57,16.24a4.65,4.65,0,1,1,1.5-6.4A4.65,4.65,0,0,1,151.57,16.24Z"/><polygon class="cls-19" points="144.52 71.08 145.91 63.96 157.8 64.13 159 71.28 144.52 71.08"/><polygon class="cls-20" points="152.28 64.05 152.19 71.08 158.98 71.18 157.8 64.13 152.28 64.05"/><path class="cls-17" d="M93.35,53.44a6.58,6.58,0,1,1-6.57-6.58A6.58,6.58,0,0,1,93.35,53.44Z"/><path class="cls-18" d="M91.56,53.44a4.79,4.79,0,1,1-4.78-4.79A4.78,4.78,0,0,1,91.56,53.44Z"/><path class="cls-17" d="M90.18,53.44a3.4,3.4,0,1,1-3.4-3.4A3.4,3.4,0,0,1,90.18,53.44Z"/><polygon class="cls-21" points="159.77 76.04 166.44 85.32 158.65 96.45 154.88 96.4 154.93 92.35 158.23 92.45 160.92 85.78 151.69 75.93 159.77 76.04"/><polygon class="cls-21" points="143.81 75.82 136.89 84.91 144.36 96.25 148.14 96.31 148.19 92.26 144.89 92.26 142.39 85.53 151.89 75.94 143.81 75.82"/><polygon class="cls-22" points="149.87 75.91 140.88 85.07 144.32 93.4 148.17 93.43 148.19 92.25 144.88 92.26 142.38 85.53 151.88 75.93 149.87 75.91"/><rect class="cls-23" x="148.18" y="64.29" width="7.13" height="16.16" transform="translate(77.3 223.1) rotate(-89.21)"/><path class="cls-17" d="M151.63,80.4A3.47,3.47,0,1,1,155.15,77,3.48,3.48,0,0,1,151.63,80.4Z"/><path class="cls-18" d="M151.64,79.45A2.52,2.52,0,1,1,154.2,77,2.52,2.52,0,0,1,151.64,79.45Z"/><path class="cls-17" d="M151.65,78.72a1.79,1.79,0,0,1,0-3.58,1.79,1.79,0,1,1,0,3.58Z"/><polygon class="cls-22" points="159.77 76.04 166.44 85.32 158.65 96.45 154.88 96.4 154.89 95.42 158.37 95.57 165.37 85.37 158.33 76.02 159.77 76.04"/><text class="cls-24" transform="translate(-222.29 -18.37)"><tspan class="cls-25">F</tspan><tspan x="11.32" y="0">olde</tspan><tspan class="cls-26" x="54.64" y="0">r</tspan><tspan x="63.64" y="0">:lo</tspan><tspan class="cls-27" x="88.96" y="0">c</tspan><tspan x="99.26" y="0">al</tspan><tspan class="cls-28" x="117.38" y="0">-</tspan><tspan x="124.46" y="0">vi</tspan><tspan class="cls-29" x="142.06" y="0">e</tspan><tspan x="153.6" y="0">w-node</tspan><tspan class="cls-30" x="228.1" y="0">s</tspan><tspan x="238.24" y="0">-b</tspan></text></g></g></svg>