<svg id="图层_1" data-name="图层 1" xmlns="http://www.w3.org/2000/svg" xmlns:xlink="http://www.w3.org/1999/xlink" viewBox="0 0 200 200"><defs><style>.cls-1{fill:#f7f7f7;}.cls-2{fill:#d8d8d8;}.cls-3{fill:#e8e8e8;}.cls-4{fill:#efefef;}.cls-5{fill:#0186be;}.cls-6{fill:url(#未命名的渐变_8);}.cls-7{fill:#03e5e1;}.cls-8{fill:#04bcd8;}.cls-9{opacity:0.4;fill:url(#linear-gradient);}.cls-10{opacity:0.6;fill:url(#linear-gradient-2);}.cls-11{fill:url(#未命名的渐变_10);}.cls-12{fill:url(#未命名的渐变_7);}.cls-13{fill:#00aeeb;}</style><linearGradient id="未命名的渐变_8" x1="55.65" y1="126.58" x2="143.24" y2="126.58" gradientUnits="userSpaceOnUse"><stop offset="0" stop-color="#0186be"/><stop offset="0.05" stop-color="#0196c5"/><stop offset="0.18" stop-color="#00c1d7"/><stop offset="0.29" stop-color="#00dce2"/><stop offset="0.35" stop-color="#00e6e6"/><stop offset="0.47" stop-color="#00dde2"/><stop offset="0.66" stop-color="#00c3d7"/><stop offset="0.9" stop-color="#019ac6"/><stop offset="1" stop-color="#0186be"/></linearGradient><linearGradient id="linear-gradient" x1="99.44" y1="127.81" x2="99.44" y2="42.95" gradientUnits="userSpaceOnUse"><stop offset="0" stop-color="aqua"/><stop offset="0.36" stop-color="aqua" stop-opacity="0.6"/><stop offset="0.67" stop-color="aqua" stop-opacity="0.28"/><stop offset="0.89" stop-color="aqua" stop-opacity="0.08"/><stop offset="1" stop-color="aqua" stop-opacity="0"/></linearGradient><linearGradient id="linear-gradient-2" x1="99.06" y1="128.21" x2="99.06" y2="54.8" xlink:href="#linear-gradient"/><linearGradient id="未命名的渐变_10" x1="102.3" y1="102.91" x2="95.74" y2="107.86" gradientUnits="userSpaceOnUse"><stop offset="0.05" stop-color="#0186be"/><stop offset="0.16" stop-color="#019fc8"/><stop offset="0.4" stop-color="#00d2de"/><stop offset="0.51" stop-color="#00e6e6"/><stop offset="0.73" stop-color="#01b4d1"/><stop offset="0.91" stop-color="#0192c3"/><stop offset="1" stop-color="#0186be"/></linearGradient><linearGradient id="未命名的渐变_7" x1="107.84" y1="74.31" x2="93.99" y2="85.6" gradientUnits="userSpaceOnUse"><stop offset="0" stop-color="#0186be"/><stop offset="0.07" stop-color="#018cc0"/><stop offset="0.16" stop-color="#019cc7"/><stop offset="0.26" stop-color="#00b7d2"/><stop offset="0.37" stop-color="#00dce2"/><stop offset="0.39" stop-color="#00e6e6"/><stop offset="0.67" stop-color="#01b4d1"/><stop offset="0.88" stop-color="#0192c3"/><stop offset="1" stop-color="#0186be"/></linearGradient></defs><title>Folderlocal-view-nodes-b</title><polygon class="cls-1" points="177.13 141.02 157.31 185.23 78.22 197.5 22.35 165.51 22.35 150.45 177.13 125.97 177.13 141.02"/><polygon class="cls-2" points="177.13 141.02 157.31 185.23 157.31 170.17 177.13 125.97 177.13 141.02"/><polygon class="cls-3" points="177.13 125.97 157.31 170.17 78.22 182.44 22.35 150.45 42.94 105.97 122.32 94.36 177.13 125.97"/><polygon class="cls-4" points="157.31 170.17 157.31 185.23 78.22 197.5 78.22 182.44 157.31 170.17"/><path class="cls-5" d="M143.26,130.2v-4.11h-.85c-1.66-4.61-5.68-9-12.06-12.59-17.18-9.64-44.94-9.68-62-.11-6.42,3.6-10.41,8-12,12.7h-.75v4a10.46,10.46,0,0,0,0,1.12v.29h0c.37,6,4.67,12,12.91,16.65,17.18,9.63,44.93,9.68,62,.11C139.4,143.31,143.63,136.73,143.26,130.2Z"/><path class="cls-6" d="M141.18,119.26l0,0-7.1-10.82-6.18-.39c-14-6.78-33.69-7.83-49.33-3.13l-2.68-.17-10.51,2.42-6,9.33c-7.13,9-4.07,20,9.18,27.42,17.16,9.62,44.89,9.67,61.94.11C142.42,137.33,146,127.73,141.18,119.26Z"/><ellipse class="cls-7" cx="99.44" cy="114.5" rx="20.42" ry="36.4" transform="translate(-15.57 213.36) rotate(-89.71)"/><path class="cls-8" d="M127.84,114v1.1A10.66,10.66,0,0,1,125,121.6a20,20,0,0,1-5.37,4.21c-11.07,6.2-29.06,6.18-40.2-.07a20.67,20.67,0,0,1-5.5-4.32,10.85,10.85,0,0,1-2.85-6.35,6.93,6.93,0,0,1,0-1.44c.31-3.8,3-7.55,8.22-10.44,11.07-6.2,29.07-6.17,40.2.08C124.79,106.23,127.57,110.09,127.84,114Z"/><path class="cls-9" d="M130.64,114.9V116a9.66,9.66,0,0,1-3.27,6.32,22.87,22.87,0,0,1-6.15,4.07c-12.66,6-33.24,6-46-.07a23.45,23.45,0,0,1-6.29-4.18A9.88,9.88,0,0,1,65.67,116L10.62-7.53l177.65-.63Z"/><path class="cls-10" d="M127.84,117.51v.89a8,8,0,0,1-2.9,5.28,20.78,20.78,0,0,1-5.45,3.41c-11.21,5-29.44,5-40.74-.07a20.69,20.69,0,0,1-5.57-3.49,8.12,8.12,0,0,1-2.89-5.13V15.16l57.17-4.58Z"/><path class="cls-11" d="M98.6,100.57c1.85-.37,4,1.3,5,1.88.1.4-.71,1.26-.71,2.14a5.31,5.31,0,0,1-4.29,5.23c-.33.05,1,1.19.62,1.19-2.13-1.4-4.94-1.68-4.9-5.21A5.44,5.44,0,0,1,98.6,100.57Z"/><path class="cls-12" d="M100.19,64.79c1.87-.39,3.89,1.23,5.1,1.91,0,1-2.25,26.94-2.25,26.94-.16,2.54-3.77,6.34-3.77,6.34s-5.1-1.71-5.1-5.09L92.68,71a5.52,5.52,0,0,1,4.45-5.75Z"/><path class="cls-13" d="M103.24,66.45c2.57-.37,4.61,1.7,4.43,4.5L106.09,95.3a5.51,5.51,0,0,1-4.45,5.09,3.88,3.88,0,0,1-4.42-3.85L95.73,72.63a5.53,5.53,0,0,1,4.44-5.75Z"/><ellipse class="cls-13" cx="101.63" cy="106.85" rx="4.82" ry="4.12" transform="translate(-40.79 145.07) rotate(-61.45)"/></svg>