<svg id="图层_1" data-name="图层 1" xmlns="http://www.w3.org/2000/svg" xmlns:xlink="http://www.w3.org/1999/xlink" viewBox="0 0 200 200"><defs><style>.cls-1{fill:#f7f7f7;}.cls-2{fill:#d8d8d8;}.cls-3{fill:#e8e8e8;}.cls-4{fill:#efefef;}.cls-5{fill:#0186be;}.cls-6{fill:url(#未命名的渐变_8);}.cls-7{fill:#03e5e1;}.cls-8{fill:#04bcd8;}.cls-9{opacity:0.4;fill:url(#linear-gradient);}.cls-10{opacity:0.6;fill:url(#linear-gradient-2);}.cls-11{fill:#00aeeb;}.cls-12{fill:url(#未命名的渐变_14);}.cls-13{fill:url(#未命名的渐变_13);}.cls-14{fill:url(#未命名的渐变_11);}.cls-15{fill:url(#未命名的渐变_11-2);}</style><linearGradient id="未命名的渐变_8" x1="55.66" y1="126.77" x2="143.26" y2="126.77" gradientUnits="userSpaceOnUse"><stop offset="0" stop-color="#0186be"/><stop offset="0.05" stop-color="#0196c5"/><stop offset="0.18" stop-color="#00c1d7"/><stop offset="0.29" stop-color="#00dce2"/><stop offset="0.35" stop-color="#00e6e6"/><stop offset="0.47" stop-color="#00dde2"/><stop offset="0.66" stop-color="#00c3d7"/><stop offset="0.9" stop-color="#019ac6"/><stop offset="1" stop-color="#0186be"/></linearGradient><linearGradient id="linear-gradient" x1="99.46" y1="127.99" x2="99.46" y2="43.13" gradientUnits="userSpaceOnUse"><stop offset="0" stop-color="aqua"/><stop offset="0.36" stop-color="aqua" stop-opacity="0.6"/><stop offset="0.67" stop-color="aqua" stop-opacity="0.28"/><stop offset="0.89" stop-color="aqua" stop-opacity="0.08"/><stop offset="1" stop-color="aqua" stop-opacity="0"/></linearGradient><linearGradient id="linear-gradient-2" x1="99.08" y1="128.4" x2="99.08" y2="54.98" xlink:href="#linear-gradient"/><linearGradient id="未命名的渐变_14" x1="97.13" y1="102.46" x2="106.33" y2="101.07" gradientUnits="userSpaceOnUse"><stop offset="0" stop-color="#00e6e6"/><stop offset="0.18" stop-color="#00cfdd"/><stop offset="0.55" stop-color="#0195c4"/><stop offset="0.64" stop-color="#0186be"/></linearGradient><linearGradient id="未命名的渐变_13" x1="98.48" y1="103.62" x2="95.44" y2="108.61" gradientUnits="userSpaceOnUse"><stop offset="0.07" stop-color="#00e6e6"/><stop offset="0.33" stop-color="#00cfdd"/><stop offset="0.87" stop-color="#0195c4"/><stop offset="1" stop-color="#0186be"/></linearGradient><linearGradient id="未命名的渐变_11" x1="85.87" y1="75.73" x2="108.33" y2="75.73" gradientUnits="userSpaceOnUse"><stop offset="0" stop-color="#0186be"/><stop offset="0.04" stop-color="#0190c2"/><stop offset="0.24" stop-color="#00bed5"/><stop offset="0.39" stop-color="#00dbe2"/><stop offset="0.48" stop-color="#00e6e6"/><stop offset="0.63" stop-color="#00cfdd"/><stop offset="0.93" stop-color="#0195c4"/><stop offset="1" stop-color="#0186be"/></linearGradient><linearGradient id="未命名的渐变_11-2" x1="95.47" y1="88.25" x2="107.5" y2="88.25" xlink:href="#未命名的渐变_11"/></defs><title>Folderlocal-view-nodes-b</title><polygon class="cls-1" points="177.15 141.21 157.32 185.41 78.23 197.68 22.36 165.69 22.36 150.64 177.15 126.15 177.15 141.21"/><polygon class="cls-2" points="177.15 141.21 157.32 185.41 157.32 170.35 177.15 126.15 177.15 141.21"/><polygon class="cls-3" points="177.15 126.15 157.32 170.35 78.23 182.63 22.36 150.64 42.96 106.16 122.33 94.55 177.15 126.15"/><polygon class="cls-4" points="157.32 170.35 157.32 185.41 78.23 197.68 78.23 182.63 157.32 170.35"/><path class="cls-5" d="M143.28,130.38v-4.1h-.85c-1.66-4.61-5.68-9-12.07-12.6-17.17-9.63-44.93-9.68-62-.11-6.41,3.6-10.4,8.05-12,12.71h-.76v4c0,.38,0,.75,0,1.12v.3h0c.36,6,4.67,12,12.91,16.64,17.17,9.64,44.93,9.69,62,.11C139.41,143.49,143.65,136.91,143.28,130.38Z"/><path class="cls-6" d="M141.19,119.45l0,0-7.1-10.81-6.18-.4c-14-6.77-33.69-7.83-49.34-3.13l-2.67-.17-10.51,2.42-6,9.34c-7.14,9-4.07,20,9.18,27.41,17.15,9.63,44.89,9.68,61.94.11C142.43,137.51,146,127.91,141.19,119.45Z"/><ellipse class="cls-7" cx="99.46" cy="114.69" rx="20.42" ry="36.4" transform="translate(-15.74 213.56) rotate(-89.71)"/><path class="cls-8" d="M127.86,114.16v1.1a10.82,10.82,0,0,1-2.86,6.53,20.64,20.64,0,0,1-5.38,4.21c-11.06,6.2-29.05,6.18-40.2-.08a20.67,20.67,0,0,1-5.5-4.32,10.92,10.92,0,0,1-2.85-6.34,8.65,8.65,0,0,1,0-1.44c.32-3.81,3.06-7.55,8.23-10.45,11.06-6.2,29.06-6.16,40.2.08C124.8,106.42,127.59,110.28,127.86,114.16Z"/><path class="cls-9" d="M130.66,115.08v1.06a9.67,9.67,0,0,1-3.28,6.32,23,23,0,0,1-6.14,4.08c-12.66,6-33.25,6-46-.08A23.21,23.21,0,0,1,69,122.28a9.84,9.84,0,0,1-3.26-6.14L10.63-7.34,188.28-8Z"/><path class="cls-10" d="M127.85,117.69v.89a7.94,7.94,0,0,1-2.9,5.29,20.53,20.53,0,0,1-5.44,3.4c-11.22,5-29.45,5-40.74-.06a20.54,20.54,0,0,1-5.57-3.5,8.05,8.05,0,0,1-2.89-5.13V15.35l57.16-4.58Z"/><path class="cls-11" d="M105.4,102.07l-.05,0H105l-2.52.35-.55.08-3.5.49H98.1a.35.35,0,0,0-.16.18h0v0h0v0h0v.09h0v0h0v.19c0,.7,0,1.4,0,2.09v2.45c0,.79,0,1.61,0,2.42v.06h0v0h0v0h0c0,.2,0,.31.11.36h0a.75.75,0,0,0,.45,0l3.82-.54,2.63-.37c.48-.07.58-.18.58-.7,0-2.56,0-4.86,0-7C105.5,102.27,105.47,102.13,105.4,102.07Z"/><path class="cls-12" d="M98.17,103h.34l2.82-.4.68-.1,1.88-.26h0l.14,0,1-.14-2.11-1.15h-.37l-3.07.43-3.49.5h-.27L98,103.17a.52.52,0,0,1,.19-.12Z"/><path class="cls-13" d="M95.64,101.84h0v0h0v0h0v0h0v.14h0v.05h0v.13c0,.69,0,1.4,0,2.08v2.46c0,.79,0,1.61,0,2.42,0,.34,0,.5.14.55l2.2,1.2s0-.06,0-.09h0v0h0v-2.65c0-.34,0-.69,0-1v-3.57h0v0h0v0h0v-.06h0v0h0v-.06h0a.09.09,0,0,1,0,0h0v0h0l0,0h0v0l-2.31-1.35Z"/><path class="cls-11" d="M114.25,75.41a9.29,9.29,0,0,0-6-5.53h0l-.12,0-.07,0-.1,0-.09,0-.07,0h0l-.16,0h-.07l-.12,0-.07,0-.13,0h-.06l-.19,0-.46-.08a14,14,0,0,0-3.85-.13c-.28,0-.57.06-.86.1s-.86.13-1.3.23l-.15,0-.3.06-.6.15-.26.07h0a15.35,15.35,0,0,0-3.9,1.69h0l-.09.06,0,0h0c-.2.12-.4.26-.59.4h0a14.57,14.57,0,0,0-2.33,2l0,0-.09.1-.11.12,0,0-.08.1,0,.05-.12.14h0l-.1.12,0,0-.06.07,0,.07,0,0-.07.09h0a15.14,15.14,0,0,0-1.83,3v0l0,.06,0,.08v0l0,.08h0v0l0,.1,0,.09h0l0,.11v0a1.17,1.17,0,0,0,0,.11h0a13.44,13.44,0,0,0-.83,3.5v.33a.37.37,0,0,0,0,.11V83h0v.19a.25.25,0,0,0,0,.17h0a.83.83,0,0,0,.38,0l5.79,0,.43,0c.26,0,.29-.12.44-.78A10.82,10.82,0,0,1,96.77,79a7,7,0,0,1,2.1-2.13,7.3,7.3,0,0,1,2.62-1l.46-.07a8,8,0,0,1,1.06-.08,5.69,5.69,0,0,1,.94.07h0a3.71,3.71,0,0,1,.81.21h0l.06,0h0l0,0,.06,0h0l.08,0h0a2.53,2.53,0,0,1,.37.18l0,0h0l.1.06h0l.08,0h0l0,0,.06,0,0,0,.08.05h0l0,0h0l0,0h0l0,0h0l0,0h0l0,0,0,.05,0,0,0,0,0,0v0l0,0,0,0h0l0,0v0l0,0,0,0,0,0,0,0h0l0,0,0,0h0v0l0,.06h0l.05.06v0h0l0,0,0,0,0,.05,0,0,0,0,0,0,0,.06h0l0,.09,0,0v0l0,0h0l0,0v0l0,.05h0v0l0,0h0v0l0,0v0l0,.09v0l0,.07v0l0,0v0l0,0v.47h0v0h0v.07h0v0h0v.06h0v0h0v.18a.34.34,0,0,0,0,.1v.12h0V80h0v.22h0v.23h0v.1h0v.06h0v.11h0v0h0s0,.06,0,.09v0l0,.08v.14l0,.06v.11h0v0l0,.07v0h0s0,.07,0,.11v0l0,.07h0v0h0l0,.07h0v0h0l0,.06v0l0,.08,0,0,0,.08v0l-.05.1h0l0,.09v0h0l0,.07v0h0l0,0h0v0l0,.06h0v0h0v0l0,.09a.61.61,0,0,1-.07.1l0,0v0l0,.07,0,0,0,0v0h0l0,.07h0l0,0h0l0,.06,0,0,0,0v0l-.08.1h0l0,0h0l0,0,0,.06h0l0,0,0,0,0,0h0l0,0v0l0,0,0,0,0,0h0l0,.06,0,0h0l0,0-.05.06-.38.42h0l-.11.11,0,0-.08.08,0,0-.1.11-.24.26v0h0l-.6.66h0l0,0-.18.2,0,0h0l-.49.53-.32.34,0,0-.27.29-.1.1-.27.29,0,0-.3.34,0,0-.27.3-.09.1-.24.27-.09.1-.24.26,0,0v0h0l0,0h0c-.11.12-.21.23-.3.35l-.12.14,0,0a.44.44,0,0,1-.08.11l-.06.07-.08.1,0,0a11.26,11.26,0,0,0-2,3.93h0a.74.74,0,0,1,0,.14v.1l0,.12h0c0,.11,0,.22-.08.33l0,.18a20.32,20.32,0,0,0-.31,3.32c0,.55,0,1.08,0,1.57v.16h0c0,.09,0,.16,0,.22h0v0H98a.84.84,0,0,0,.47,0l1.2-.16.43-.06,1.25-.18.86-.12.85-.12,1.21-.17c.47-.07.55-.17.57-.69,0-.21,0-.43,0-.65s0-.67,0-1a5.81,5.81,0,0,1,.83-3.05,17.6,17.6,0,0,1,1.46-1.85c.43-.47.86-.94,1.29-1.39a53.59,53.59,0,0,0,4.19-4.89,12.13,12.13,0,0,0,2.26-5.18,9.53,9.53,0,0,0-.66-5.24Z"/><path class="cls-14" d="M88.42,81.4a2.07,2.07,0,0,1,0-.22v0c0-.07,0-.14,0-.21v0a1.6,1.6,0,0,0,0-.21v0a1.46,1.46,0,0,1,0-.2v0a1.6,1.6,0,0,1,0-.21v0l.06-.2v0l.07-.21h0c0-.06,0-.13.07-.21v0c0-.07,0-.13.07-.2l0,0a1.34,1.34,0,0,1,.07-.18h0v0l0-.07v0l0-.11h0l0-.1v0l0-.07h0l0,0,0-.08,0,0,0-.07h0v-.06l0,0,.06-.15,0,0a2.2,2.2,0,0,1,.09-.21c0-.06.07-.13.11-.2v0l.1-.19,0,0,.1-.17v0l.09-.16,0,0,.1-.16,0,0,.09-.15,0,0,.1-.16,0,0,.1-.17h0a1.63,1.63,0,0,1,.11-.17l0,0,.12-.16,0,0,.07-.1,0,0L91,75.7l0,0,.07-.09,0,0,.11-.13v0l.06-.07h0l0,0,0-.05,0,0,0,0v0l0,0h0l0-.07h0l0,0h0l.1-.12h0l.12-.14h0l0,0h0a.39.39,0,0,0,.08-.1h0l0,0h0a.69.69,0,0,1,.11-.13v0l0,0,0,0,0,0,0,0,0,0,.14-.14v0l.13-.13,0,0,.12-.12,0,0,.14-.13,0,0,.12-.11,0,0a.86.86,0,0,0,.14-.13l0,0,.14-.13,0,0,.16-.13,0,0,.16-.13h0l.16-.13,0,0,.17-.13h0l.16-.11,0,0,.16-.12,0,0,.06,0h0l.07-.05,0,0,0,0,0,0,0,0,.06,0,0,0,0,0,.06,0,0,0,0,0,.06,0,0,0,0,0,0,0h0l0,0,0,0h0l.08,0,0,0,.12-.07h0l.1-.06.06,0,.07,0,0,0,0,0,.06,0,0,0,0,0,.06,0,0,0h0l.06,0,0,0,0,0,.06,0,0,0,0,0,.06,0,0,0h0l.06,0,0,0h0l.06,0,.05,0,.11,0,0,0,.13-.06h0l.15-.07,0,0,.12,0,0,0,.12,0,0,0,.16-.06h0l.14,0,0,0,.11,0,0,0,.14,0h0l.16,0,0,0,.12,0h0l.13,0h0L99,70h0l.13,0,0,0h.07l0,0h0l.17,0a19.6,19.6,0,0,1,2.38-.47l.17,0a14.49,14.49,0,0,1,5,.24l.21,0h0l.14,0h0l0,0h0l.13,0h.05l.22.06h0l.14,0h0l0,0,.07,0h0l-.64-.45-.18-.1h0l0,0-.11-.05h0a.84.84,0,0,0-.16-.07l0,0a.61.61,0,0,0-.14-.07h0L106.8,69l0,0-.14,0,0,0-.17-.06,0,0-.14,0h0l-.17-.06h0l-.15,0,0,0-.17,0h0l-.18,0,0,0-.16,0h0l-.17,0h0l-.14,0h-.06l-.18,0a12.65,12.65,0,0,0-2.14-.27h0a16.26,16.26,0,0,0-3,.15,22.47,22.47,0,0,0-2.36.48l-.16,0h0l-.12,0h0l-.13,0h0l-.16,0h0l-.13,0h0L96,69l0,0-.16,0h0l-.14,0,0,0-.11,0-.05,0-.14,0h0l-.15.06-.05,0-.11.05,0,0-.12,0,0,0-.15.07h0l-.12.06,0,0-.11,0,0,0-.06,0h0l0,0-.06,0,0,0,0,0-.06,0h0l0,0-.06,0,0,0,0,0,0,0,0,0,0,0-.05,0,0,0,0,0-.06,0,0,0,0,0-.07,0-.06,0-.09,0,0,0-.13.08,0,0-.09,0-.06,0-.07,0,0,0,0,0,0,0,0,0,0,0,0,0,0,0,0,0-.06,0,0,0,0,0-.06,0,0,0a.71.71,0,0,0-.14.1l0,0-.17.12,0,0-.15.12h0l-.16.12,0,0-.16.13h0l-.15.12,0,0-.15.13,0,0-.14.12,0,0-.14.12,0,0-.12.11,0,0-.14.13h0a1.59,1.59,0,0,1-.13.13l0,0-.13.12v0l-.14.14,0,0-.11.12,0,0-.13.15,0,0-.1.12,0,0-.13.15-.1.12,0,0-.08.08,0,0L89,74l0,0a.76.76,0,0,1-.08.11l0,0a1.13,1.13,0,0,1-.1.13l0,0-.07.09,0,0-.06.09,0,0-.07.1,0,0-.11.16,0,0a1.63,1.63,0,0,1-.11.17h0l-.11.17,0,0-.1.17,0,0-.09.15,0,0-.1.16,0,0-.09.16h0l-.09.17,0,0-.1.19v0l-.11.2h0l-.09.2,0,0c0,.06,0,.12-.09.19v0l-.09.19v0a2,2,0,0,1-.09.2h0l-.08.21v0c0,.06,0,.13-.07.2l0,0-.07.19v0c0,.08,0,.15-.07.21h0l-.06.2v0l-.06.19v0l-.06.2v0a1.33,1.33,0,0,1,0,.19v0c0,.06,0,.13,0,.2v0c0,.07,0,.14,0,.2v0c0,.08,0,.15,0,.21h0a1.55,1.55,0,0,1,0,.21v0c0,.07,0,.14,0,.21v0l0,.21v0A1.49,1.49,0,0,0,86,81v0a1.8,1.8,0,0,1,0,.22v0a1.49,1.49,0,0,0,0,.21v0c0,.09,0,.16,0,.23a.75.75,0,0,0,0,.43l0,0,2.25,1.22c0-.09,0-.2,0-.32a.45.45,0,0,0,0-.12v-.14h0v-.25c0-.08,0-.15,0-.21v0a1.49,1.49,0,0,1,0-.21v0l0-.22v0a1.55,1.55,0,0,0,0-.21v0a1.24,1.24,0,0,1,0-.22Z"/><path class="cls-15" d="M98.11,94.91a1.16,1.16,0,0,1,0-.18c0-.16.07-.32.11-.48v0h0v0s0-.09,0-.14h0l.12-.4h0v0h0l.06-.16h0c0-.06,0-.12.07-.19l0-.08h0c.1-.27.21-.54.33-.8l0-.08,0-.09v0l.16-.31h0l0-.09,0-.07,0,0s0-.09.07-.14h0l0,0h0l.09-.16,0,0h0s0-.09.07-.13l0,0h0l0-.06h0l0,0h0l.1-.17,0,0h0v0l0,0h0l.06-.08h0l0,0,0,0,.11-.14h0l0,0,0,0,0-.06h0l.21-.27,0,0,0,0h0l0,0,0,0,.05-.07.09-.11,0,0h0l.12-.13.25-.3h0l0,0,.08-.09.13-.15h0l0-.06,0,0h0v0l.09-.09,0,0,.14-.16h0l.07-.07h0l.1-.11c.08-.1.17-.19.26-.29l0,0,0,0h0l.15-.16.1-.12h0l0,0,.11-.13h0l.09-.09h0l.07-.07.09-.1,0,0h0l.05-.06L103,87l.14-.16h0l.59-.63,0,0,.11-.11L104,86l.06-.06.12-.12,0,0,.61-.67,0,0,.24-.26h0l.21-.23h0l.11-.13h0l.06-.07.18-.19,0,0,.09-.09.06-.07v0l.07-.07,0,0,.06-.07,0,0,.06-.07,0,0,.07-.07,0,0,.2-.25,0,0,0-.07,0-.06,0-.06v0l.06-.08h0l0,0,.06-.1a.41.41,0,0,1,.05-.09v0l0-.05,0-.06a4.93,4.93,0,0,0,.62-2.85h0s0-.06,0-.09v-.22h0s0-.06,0-.09h0A3.82,3.82,0,0,0,106,77.07h0l-.07,0h0l-.08-.06h0l-.08,0h0l0,0,0,0-.07,0,0,0-.07,0-.12-.07h0l-.12-.05,0,0-.07,0-.06,0,0,0a4.36,4.36,0,0,0-.64-.21l0,0h0l0,.05,0,0,0,0,0,0,0,.06h0v0l0,.06v0a.56.56,0,0,1,0,.08v0l0,.06,0,0,0,.06v0l0,.05v0l0,0h0v0l0,.07v0l0,.09v0l0,.07v0h0l0,.06v.13l0,.06h0v0s0,.05,0,.08h0a.44.44,0,0,1,0,.1h0V78h0v.29s0,.06,0,.09h0s0,.07,0,.1v.13h0v.16h0V79h0a.28.28,0,0,1,0,.09v0h0v.09h0v.28h0v0s0,.06,0,.1h0s0,.06,0,.09v0h0v.11l0,.06v.11h0v0l0,.08v0a.69.69,0,0,1,0,.1v0l0,.08v0l0,.07v0l0,.06v0l0,.07h0v0l0,.07v0a1,1,0,0,0,0,.1v0a.2.2,0,0,0,0,.08l0,0h0l0,.07,0,0,0,0a.41.41,0,0,0,0,.09h0v0a.75.75,0,0,0-.07.12.62.62,0,0,0-.08.12l0,0-.08.12v0l-.07.09h0l0,0a.44.44,0,0,1-.08.11h0l-.09.12,0,0-.07.08,0,0a.27.27,0,0,1-.07.08l0,0-.09.11h0l-.09.1-.18.2,0,0c-.05.07-.11.13-.17.2l-.22.23-.19.21-.25.28-.09.09-.17.19-.1.11-.16.17-.1.12-.16.16-.87.94-.26.28,0,.06-.2.21-.09.1-.17.18-.1.11-.16.17-.1.12-.15.16,0,0-.09.1-.15.17-.1.11L99,87.6l0,0,0,.06,0,0-.12.13-.07.08,0,.06-.25.29-.12.13,0,0v0l-.08.09,0,0h0l-.07.09,0,0-.07.09,0,0-.07.1h0l0,0-.09.12v0a1.47,1.47,0,0,0-.1.13h0l0,0,0,0-.06.09,0,0v0l-.06.09,0,0h0l0,.09,0,.06h0l-.05.08,0,.07,0,.08,0,.07,0,.09,0,.07,0,.09,0,.07,0,0v0l0,.09,0,.07,0,.09,0,.08,0,.09,0,.08,0,.09,0,.08,0,.09,0,.08,0,.1,0,.08,0,.09,0,.08,0,.1v.05h0v0l0,.12v.07l-.06.16v0l-.06.2v.06a.57.57,0,0,0,0,.14l0,0v0s0,.08,0,.13l0,.07,0,.13h0v.07l0,.14v.06c0,.08,0,.14,0,.21a24.2,24.2,0,0,0-.31,4.9c0,.34,0,.48.13.53l2.21,1.21a3.53,3.53,0,0,1,0-.36,28.05,28.05,0,0,1,.11-3.48c0-.16,0-.32,0-.48s0-.33.07-.49S98.08,95.07,98.11,94.91Z"/></svg>