<svg id="图层_1" data-name="图层 1" xmlns="http://www.w3.org/2000/svg" xmlns:xlink="http://www.w3.org/1999/xlink" viewBox="0 0 200 200"><defs><style>.cls-1{fill:#f7f7f7;}.cls-2{fill:#d8d8d8;}.cls-3{fill:#e8e8e8;}.cls-4{fill:#efefef;}.cls-5{fill:#0186be;}.cls-6{fill:url(#未命名的渐变_8);}.cls-7{fill:#03e5e1;}.cls-8{fill:#04bcd8;}.cls-9{opacity:0.4;fill:url(#linear-gradient);}.cls-10{opacity:0.6;fill:url(#linear-gradient-2);}.cls-11{fill:url(#未命名的渐变_18);}.cls-12{fill:#00aeeb;}</style><linearGradient id="未命名的渐变_8" x1="55.76" y1="126.77" x2="143.35" y2="126.77" gradientUnits="userSpaceOnUse"><stop offset="0" stop-color="#0186be"/><stop offset="0.05" stop-color="#0196c5"/><stop offset="0.18" stop-color="#00c1d7"/><stop offset="0.29" stop-color="#00dce2"/><stop offset="0.35" stop-color="#00e6e6"/><stop offset="0.47" stop-color="#00dde2"/><stop offset="0.66" stop-color="#00c3d7"/><stop offset="0.9" stop-color="#019ac6"/><stop offset="1" stop-color="#0186be"/></linearGradient><linearGradient id="linear-gradient" x1="99.56" y1="127.99" x2="99.56" y2="43.13" gradientUnits="userSpaceOnUse"><stop offset="0" stop-color="aqua"/><stop offset="0.36" stop-color="aqua" stop-opacity="0.6"/><stop offset="0.67" stop-color="aqua" stop-opacity="0.28"/><stop offset="0.89" stop-color="aqua" stop-opacity="0.08"/><stop offset="1" stop-color="aqua" stop-opacity="0"/></linearGradient><linearGradient id="linear-gradient-2" x1="99.18" y1="128.4" x2="99.18" y2="54.98" xlink:href="#linear-gradient"/><linearGradient id="未命名的渐变_18" x1="90.74" y1="97.57" x2="111.15" y2="73.17" gradientUnits="userSpaceOnUse"><stop offset="0.05" stop-color="#0186be"/><stop offset="0.13" stop-color="#018cc0"/><stop offset="0.24" stop-color="#019cc7"/><stop offset="0.36" stop-color="#00b7d2"/><stop offset="0.48" stop-color="#00dce2"/><stop offset="0.51" stop-color="#00e6e6"/><stop offset="0.65" stop-color="#01b4d1"/><stop offset="0.77" stop-color="#0192c3"/><stop offset="0.83" stop-color="#0186be"/></linearGradient></defs><title>Folderlocal-view-nodes-b</title><polygon class="cls-1" points="177.25 141.21 157.42 185.41 78.33 197.68 22.46 165.69 22.46 150.64 177.25 126.15 177.25 141.21"/><polygon class="cls-2" points="177.25 141.21 157.42 185.41 157.42 170.35 177.25 126.15 177.25 141.21"/><polygon class="cls-3" points="177.25 126.15 157.42 170.35 78.33 182.63 22.46 150.64 43.05 106.16 122.43 94.55 177.25 126.15"/><polygon class="cls-4" points="157.42 170.35 157.42 185.41 78.33 197.68 78.33 182.63 157.42 170.35"/><path class="cls-5" d="M143.37,130.38v-4.1h-.85c-1.65-4.61-5.68-9-12.06-12.6-17.17-9.63-44.93-9.68-62-.11-6.41,3.6-10.41,8.05-12,12.71h-.75v4a10.46,10.46,0,0,0,0,1.12v.3h0c.37,6,4.67,12,12.91,16.64,17.18,9.64,44.94,9.69,62,.11C139.51,143.49,143.75,136.91,143.37,130.38Z"/><path class="cls-6" d="M141.29,119.45l0,0-7.11-10.81-6.17-.4c-14-6.77-33.7-7.83-49.34-3.13L76,104.91l-10.5,2.42-6,9.34c-7.14,9-4.08,20,9.17,27.41,17.16,9.63,44.89,9.68,61.94.11C142.53,137.51,146.08,127.91,141.29,119.45Z"/><ellipse class="cls-7" cx="99.56" cy="114.69" rx="20.42" ry="36.4" transform="translate(-15.64 213.65) rotate(-89.71)"/><path class="cls-8" d="M128,114.16v1.1a10.78,10.78,0,0,1-2.87,6.53,20.41,20.41,0,0,1-5.37,4.21c-11.07,6.2-29.06,6.18-40.2-.08A20.67,20.67,0,0,1,74,121.6a10.92,10.92,0,0,1-2.85-6.34,6.93,6.93,0,0,1,0-1.44c.32-3.81,3-7.55,8.22-10.45,11.07-6.2,29.07-6.16,40.2.08C124.9,106.42,127.68,110.28,128,114.16Z"/><path class="cls-9" d="M130.76,115.08v1.06a9.67,9.67,0,0,1-3.28,6.32,23,23,0,0,1-6.15,4.08c-12.66,6-33.24,6-46-.08a23.21,23.21,0,0,1-6.29-4.18,9.84,9.84,0,0,1-3.26-6.14L10.73-7.34,188.38-8Z"/><path class="cls-10" d="M128,117.69v.89a7.94,7.94,0,0,1-2.9,5.29,20.61,20.61,0,0,1-5.45,3.4c-11.21,5-29.44,5-40.73-.06a20.77,20.77,0,0,1-5.58-3.5,8.14,8.14,0,0,1-2.89-5.13V15.35l57.17-4.58Z"/><path class="cls-11" d="M91.19,107.14c0,1.18,3.65,4.48,4.92,4.48l7.11-2.25c1.27,0,5.29-.77,5.29-2l-3.06-2.29H91.19Zm7.13-40.55c-8.88,0-16,6.67-16,14.93a14.72,14.72,0,0,0,6.84,12.32v4.83c0,1.18.62,1.4,1.72,2.26l2.29,1.76,12.08-1.88a2.23,2.23,0,0,0,2.3-2.14V93.84a14.73,14.73,0,0,0,6.85-12.32c0-3.37-5.85-11.1-5.85-11.1s-4.93-3.83-10.19-3.83"/><path class="cls-12" d="M94.26,109.43a2.22,2.22,0,0,0,2.22,2.22h9.81a2.22,2.22,0,0,0,2.22-2.22v-2H94.26Zm7.13-40.55c-8.88,0-16,6.67-16,14.92a14.72,14.72,0,0,0,6.84,12.32V101a2.23,2.23,0,0,0,2.3,2.14h13.8a2.23,2.23,0,0,0,2.3-2.14V96.12a14.71,14.71,0,0,0,6.85-12.32c0-8.25-7.17-14.92-16-14.92"/></svg>