<svg id="图层_1" data-name="图层 1" xmlns="http://www.w3.org/2000/svg" xmlns:xlink="http://www.w3.org/1999/xlink" viewBox="0 0 200 200"><defs><style>.cls-1{fill:#f7f7f7;}.cls-2{fill:#d8d8d8;}.cls-3{fill:#e8e8e8;}.cls-4{fill:#efefef;}.cls-5{fill:url(#未命名的渐变_8);}.cls-6{fill:#03e5e1;}.cls-7{fill:#0186be;}.cls-8{fill:#4cffd5;}.cls-9{fill:url(#未命名的渐变_58);}.cls-10{fill:url(#Degradado_sin_nombre_19);}.cls-11{fill:url(#未命名的渐变_58-2);}.cls-12{fill:#01ffb9;}</style><linearGradient id="未命名的渐变_8" x1="120.19" y1="3.87" x2="46.3" y2="158.42" gradientUnits="userSpaceOnUse"><stop offset="0" stop-color="#0186be"/><stop offset="0.05" stop-color="#0196c5"/><stop offset="0.18" stop-color="#00c1d7"/><stop offset="0.29" stop-color="#00dce2"/><stop offset="0.35" stop-color="#00e6e6"/><stop offset="0.47" stop-color="#00dde2"/><stop offset="0.66" stop-color="#00c3d7"/><stop offset="0.9" stop-color="#019ac6"/><stop offset="1" stop-color="#0186be"/></linearGradient><linearGradient id="未命名的渐变_58" x1="85.58" y1="89.73" x2="136.42" y2="89.73" gradientUnits="userSpaceOnUse"><stop offset="0" stop-color="#ededed"/><stop offset="0.23" stop-color="#fafafa"/><stop offset="0.45" stop-color="#fff"/><stop offset="0.56" stop-color="#fcfcfc"/><stop offset="0.65" stop-color="#f1f1f1"/><stop offset="0.74" stop-color="#dfdfdf"/><stop offset="0.83" stop-color="#c6c6c6"/><stop offset="0.91" stop-color="#a6a6a6"/><stop offset="0.99" stop-color="#7f7f7f"/><stop offset="1" stop-color="#7a7a7a"/></linearGradient><linearGradient id="Degradado_sin_nombre_19" x1="152.86" y1="57.49" x2="107.17" y2="140.39" gradientUnits="userSpaceOnUse"><stop offset="0.07" stop-color="#3aa8c1"/><stop offset="0.73" stop-color="#252279"/><stop offset="0.81" stop-color="#252d7c"/><stop offset="0.96" stop-color="#254c85"/><stop offset="0.97" stop-color="#254e86"/></linearGradient><linearGradient id="未命名的渐变_58-2" x1="120.84" y1="39.84" x2="75.15" y2="122.74" xlink:href="#未命名的渐变_58"/></defs><title>Folderlocal-view-nodes-b</title><polygon class="cls-1" points="189.14 135.05 166.38 185.78 75.61 199.86 11.49 163.15 11.49 145.87 189.14 117.77 189.14 135.05"/><polygon class="cls-2" points="189.14 135.05 166.38 185.78 166.38 168.5 189.14 117.77 189.14 135.05"/><polygon class="cls-3" points="189.14 117.77 166.38 168.5 75.61 182.58 11.49 145.87 35.12 94.82 126.22 81.5 189.14 117.77"/><polygon class="cls-4" points="166.38 168.5 166.38 185.78 75.61 199.86 75.61 182.58 166.38 168.5"/><polygon class="cls-5" points="140.26 13.98 58.61 61.12 58.61 155.4 66.4 158.61 66.4 64.33 148.04 17.19 140.26 13.98"/><polygon class="cls-6" points="148.04 89.69 148.04 17.19 66.4 64.33 66.4 158.61 129.19 122.35 148.04 89.69"/><path class="cls-7" d="M77.3,67.51a7.91,7.91,0,0,1-3.58,6.2c-2,1.15-3.58.22-3.58-2.07a7.91,7.91,0,0,1,3.58-6.2C75.7,64.3,77.3,65.22,77.3,67.51Z"/><path class="cls-7" d="M143.33,29.39a7.91,7.91,0,0,1-3.58,6.2c-2,1.14-3.59.22-3.59-2.07a7.92,7.92,0,0,1,3.59-6.2C141.73,26.17,143.33,27.1,143.33,29.39Z"/><polygon class="cls-8" points="64.41 139.73 64.41 144.5 60.27 142.11 60.27 137.34 64.41 139.73"/><polygon class="cls-8" points="64.41 131.61 64.41 136.38 60.27 133.99 60.27 129.22 64.41 131.61"/><polygon class="cls-8" points="64.41 123.49 64.41 128.26 60.27 125.88 60.27 121.1 64.41 123.49"/><polygon class="cls-8" points="64.41 115.37 64.41 120.14 60.27 117.76 60.27 112.98 64.41 115.37"/><polygon class="cls-8" points="64.41 107.25 64.41 112.03 60.27 109.64 60.27 104.86 64.41 107.25"/><polygon class="cls-8" points="64.41 99.13 64.41 103.91 60.27 101.52 60.27 96.74 64.41 99.13"/><polygon class="cls-8" points="64.41 91.01 64.41 95.79 60.27 93.4 60.27 88.62 64.41 91.01"/><polygon class="cls-8" points="64.41 82.89 64.41 87.67 60.27 85.28 60.27 80.5 64.41 82.89"/><path class="cls-8" d="M110.59,138.17a2.72,2.72,0,0,0,1.23-2.13c0-.66-.39-1-.93-.84v-6.33l6.81,3.92a2.18,2.18,0,0,0-.17.81c0,.79.55,1.11,1.23.71a2.7,2.7,0,0,0,1.23-2.13c0-.78-.55-1.1-1.23-.71a2.4,2.4,0,0,0-.65.59l-7.81-4.51v8a2.75,2.75,0,0,0-.94,1.92C109.36,138.25,109.91,138.57,110.59,138.17Zm11.21-8.33c0,.78.55,1.1,1.23.71a2.75,2.75,0,0,0,1.24-2.14c0-.78-.56-1.1-1.24-.71a2.21,2.21,0,0,0-.6.55l-10.17-5.87V102.06l-.6.34V123L122,129A2.32,2.32,0,0,0,121.8,129.84Zm4.53,3.58a2.77,2.77,0,0,0-.93,1.9c0,.79.55,1.11,1.23.72a2.75,2.75,0,0,0,1.24-2.14c0-.67-.41-1-1-.83v-8.8l-9.65-5.57V99.16l-.59.35v19.82l9.65,5.57Zm-30,11.21a1.06,1.06,0,0,0-.65.16,2.72,2.72,0,0,0-1.23,2.13c0,.79.55,1.11,1.23.72a2.72,2.72,0,0,0,1.24-2.14,1.08,1.08,0,0,0-.17-.61l6.8-11.78v6.33a2.79,2.79,0,0,0-.93,1.91c0,.78.55,1.1,1.23.71a2.73,2.73,0,0,0,1.24-2.13c0-.67-.41-1-1-.84v-8Zm-8.52,13.82A2.72,2.72,0,0,0,89,156.32c0-.66-.39-1-.92-.84V147l9.65-16.71V110.42l-.6.35v19.54L87.52,147v8.8a2.75,2.75,0,0,0-.94,1.92C86.58,158.53,87.13,158.84,87.81,158.45ZM91.41,146a2.74,2.74,0,0,0-1.23,2.14c0,.78.55,1.1,1.23.71a2.74,2.74,0,0,0,1.23-2.14,1,1,0,0,0-.19-.64l10.33-17.9v-20.6l-.6.34v20.32L92,145.8A1.07,1.07,0,0,0,91.41,146Zm16-8.75V104.84l-.6.34v40a2.76,2.76,0,0,0-.92,1.91c0,.78.55,1.1,1.23.71a2.75,2.75,0,0,0,1.24-2.14c0-.67-.41-1-1-.83v-7.62"/><path class="cls-9" d="M136.42,55.2c0-2.45-.89-4.37-2.44-5.27s-3.66-.7-5.79.52l-37,21.37a11,11,0,0,0-5.61,9.71v42.73c0,2.45.89,4.37,2.44,5.27s3.58.71,5.67-.45v-4.93a10.62,10.62,0,0,1,3.93-6.81l29.39-17a1,1,0,0,1,.95-.15,1,1,0,0,1,.36.91v8l2.49-1.44a11,11,0,0,0,5.61-9.71Z"/><path class="cls-10" d="M128,100.22a1,1,0,0,0-.95.15l-2.47,1.43v5.45l3.78,1.83v-8A1,1,0,0,0,128,100.22Z"/><path class="cls-11" d="M85.58,124.26V81.53a11,11,0,0,1,5.61-9.71l37-21.37c2.13-1.22,4.24-1.41,5.79-.52L130.2,48.1c-1.55-.9-3.66-.71-5.79.52L87.41,70A11.07,11.07,0,0,0,81.8,79.7v42.72c0,2.46.89,4.38,2.44,5.27L88,129.53C86.47,128.63,85.58,126.71,85.58,124.26Z"/><path class="cls-12" d="M103.85,27.31a2.7,2.7,0,0,0-1.23,2.13c0,.66.4,1,.93.84v6.33l-6.8-3.92a2.4,2.4,0,0,0,.17-.81c0-.79-.55-1.11-1.23-.71a2.69,2.69,0,0,0-1.24,2.13c0,.78.55,1.1,1.24.71a2.53,2.53,0,0,0,.64-.59l7.81,4.51v-8a2.76,2.76,0,0,0,1-1.92C105.09,27.23,104.53,26.91,103.85,27.31ZM92.64,35.64c0-.78-.55-1.1-1.23-.71a2.74,2.74,0,0,0-1.23,2.14c0,.78.55,1.1,1.23.71a2.24,2.24,0,0,0,.61-.55l10.16,5.87V63.42l.6-.34V42.47l-10.33-6A2.32,2.32,0,0,0,92.64,35.64Zm-4.52-3.58a2.76,2.76,0,0,0,.92-1.9c0-.79-.55-1.11-1.23-.72a2.74,2.74,0,0,0-1.23,2.14c0,.67.4,1,.94.83v8.8l9.65,5.57V66.32l.6-.35V46.15l-9.65-5.57Zm30-11.21a1.06,1.06,0,0,0,.65-.16A2.72,2.72,0,0,0,120,18.56c0-.79-.55-1.11-1.23-.72A2.74,2.74,0,0,0,117.53,20a1,1,0,0,0,.17.61l-6.81,11.78V26a2.75,2.75,0,0,0,.93-1.91c0-.78-.55-1.1-1.23-.71a2.72,2.72,0,0,0-1.23,2.13c0,.67.4,1,.94.84v8ZM126.63,7a2.72,2.72,0,0,0-1.23,2.13c0,.66.4,1,.93.84v8.52l-9.65,16.71V55.06l.59-.35V35.17l9.65-16.71V9.66a2.76,2.76,0,0,0,1-1.92C127.87,7,127.31,6.64,126.63,7ZM123,19.52a2.75,2.75,0,0,0,1.24-2.14c0-.78-.56-1.1-1.24-.71a2.74,2.74,0,0,0-1.23,2.14,1,1,0,0,0,.19.64l-10.33,17.9V58l.6-.34V37.29l10.17-17.61A1,1,0,0,0,123,19.52Zm-16,8.75V60.64l.6-.34v-40a2.76,2.76,0,0,0,.92-1.91c0-.78-.55-1.1-1.23-.71a2.74,2.74,0,0,0-1.23,2.14c0,.67.4,1,.94.83v7.62"/></svg>