<svg id="图层_1" data-name="图层 1" xmlns="http://www.w3.org/2000/svg" xmlns:xlink="http://www.w3.org/1999/xlink" viewBox="0 0 200 200"><defs><style>.cls-1{font-size:20px;fill:#333;font-family:SourceHanSansCN-Bold-GBpc-EUC-H, Source Han Sans CN;}.cls-2{letter-spacing:-0.02em;}.cls-3{letter-spacing:0.01em;}.cls-4{letter-spacing:-0.01em;}.cls-5{letter-spacing:-0.02em;}.cls-6{letter-spacing:0em;}.cls-7{letter-spacing:0.01em;}.cls-8{fill:#f7f7f7;}.cls-9{fill:#d8d8d8;}.cls-10{fill:#e8e8e8;}.cls-11{fill:#efefef;}.cls-12{fill:#03e5e1;}.cls-13{fill:#0087be;}.cls-14{isolation:isolate;}.cls-15{fill:url(#未命名的渐变_75);}.cls-16{fill:#04bbda;}.cls-17{fill:#06daae;}.cls-18{fill:url(#未命名的渐变_75-2);}.cls-19{fill:url(#未命名的渐变_75-3);}.cls-20{fill:url(#未命名的渐变_75-4);}.cls-21{fill:url(#未命名的渐变_75-5);}.cls-22{fill:#00686c;}.cls-23{fill:url(#未命名的渐变_79);}.cls-24{fill:url(#未命名的渐变_83);}.cls-25{fill:url(#未命名的渐变_58);}.cls-26{fill:#01ffb9;}.cls-27{fill:#05b0c1;}</style><linearGradient id="未命名的渐变_75" x1="48.76" y1="89.77" x2="57.36" y2="104.45" gradientUnits="userSpaceOnUse"><stop offset="0" stop-color="#ccc"/><stop offset="0.04" stop-color="#d2d2d2"/><stop offset="0.21" stop-color="#ebebeb"/><stop offset="0.36" stop-color="#fafafa"/><stop offset="0.49" stop-color="#fff"/><stop offset="0.59" stop-color="#fcfcfc"/><stop offset="0.67" stop-color="#f1f1f1"/><stop offset="0.75" stop-color="#dfdfdf"/><stop offset="0.82" stop-color="#c6c6c6"/><stop offset="0.85" stop-color="#bababa"/></linearGradient><linearGradient id="未命名的渐变_75-2" x1="65.93" y1="99.7" x2="74.64" y2="114.03" xlink:href="#未命名的渐变_75"/><linearGradient id="未命名的渐变_75-3" x1="83.55" y1="109.65" x2="92.62" y2="124.99" xlink:href="#未命名的渐变_75"/><linearGradient id="未命名的渐变_75-4" x1="100.33" y1="118.88" x2="110.04" y2="134.81" xlink:href="#未命名的渐变_75"/><linearGradient id="未命名的渐变_75-5" x1="118.51" y1="130.2" x2="127.56" y2="144.87" xlink:href="#未命名的渐变_75"/><linearGradient id="未命名的渐变_79" x1="79.93" y1="57.7" x2="135.16" y2="161.18" gradientUnits="userSpaceOnUse"><stop offset="0.02" stop-color="#0186be"/><stop offset="0.03" stop-color="#018cc1"/><stop offset="0.05" stop-color="#029cca"/><stop offset="0.06" stop-color="#04b7d8"/><stop offset="0.07" stop-color="#04bbda"/><stop offset="0.27" stop-color="#03c1dc"/><stop offset="0.53" stop-color="#02d1e0"/><stop offset="0.77" stop-color="#00e6e6"/><stop offset="0.79" stop-color="#00dde2"/><stop offset="0.84" stop-color="#00c3d7"/><stop offset="0.9" stop-color="#019ac6"/><stop offset="0.92" stop-color="#0186be"/></linearGradient><linearGradient id="未命名的渐变_83" x1="69.74" y1="81.63" x2="138.58" y2="81.63" gradientUnits="userSpaceOnUse"><stop offset="0" stop-color="#7a7a7a"/><stop offset="0.1" stop-color="#7d7d7d"/><stop offset="0.18" stop-color="#888"/><stop offset="0.26" stop-color="#9a9a9a"/><stop offset="0.33" stop-color="#b3b3b3"/><stop offset="0.4" stop-color="#d3d3d3"/><stop offset="0.47" stop-color="#fafafa"/><stop offset="0.48" stop-color="#fff"/><stop offset="0.52" stop-color="#ededed"/><stop offset="0.58" stop-color="#d2d2d2"/><stop offset="0.65" stop-color="#bdbdbd"/><stop offset="0.73" stop-color="#aeaeae"/><stop offset="0.83" stop-color="#a6a6a6"/><stop offset="0.97" stop-color="#a3a3a3"/></linearGradient><linearGradient id="未命名的渐变_58" x1="69.74" y1="50.63" x2="138.51" y2="50.63" gradientUnits="userSpaceOnUse"><stop offset="0" stop-color="#ededed"/><stop offset="0.23" stop-color="#fafafa"/><stop offset="0.45" stop-color="#fff"/><stop offset="0.56" stop-color="#fcfcfc"/><stop offset="0.65" stop-color="#f1f1f1"/><stop offset="0.74" stop-color="#dfdfdf"/><stop offset="0.83" stop-color="#c6c6c6"/><stop offset="0.91" stop-color="#a6a6a6"/><stop offset="0.99" stop-color="#7f7f7f"/><stop offset="1" stop-color="#7a7a7a"/></linearGradient></defs><title>Folderlocal-view-nodes-b</title><text class="cls-1" transform="translate(1.38 -18.56)"><tspan class="cls-2">F</tspan><tspan x="11.32" y="0">olde</tspan><tspan class="cls-3" x="54.64" y="0">r</tspan><tspan x="63.64" y="0">:lo</tspan><tspan class="cls-4" x="88.96" y="0">c</tspan><tspan x="99.26" y="0">al</tspan><tspan class="cls-5" x="117.38" y="0">-</tspan><tspan x="124.46" y="0">vi</tspan><tspan class="cls-6" x="142.06" y="0">e</tspan><tspan x="153.6" y="0">w-node</tspan><tspan class="cls-7" x="228.1" y="0">s</tspan><tspan x="238.24" y="0">-b</tspan></text><polygon class="cls-8" points="188.86 134.77 166.1 185.5 75.33 199.59 11.21 162.87 11.21 145.59 188.86 117.49 188.86 134.77"/><polygon class="cls-9" points="188.86 134.77 166.1 185.5 166.1 168.22 188.86 117.49 188.86 134.77"/><polygon class="cls-10" points="188.86 117.49 166.1 168.22 75.33 182.31 11.21 145.59 34.85 94.55 125.94 81.22 188.86 117.49"/><polygon class="cls-11" points="166.1 168.22 166.1 185.5 75.33 199.59 75.33 182.31 166.1 168.22"/><path class="cls-12" d="M124.42,159.75,172.11,132c2.18-1.26,3.52-3.95,3.54-7.78a20.37,20.37,0,0,0-1-6.09h0a24.19,24.19,0,0,0-1-2.65c0-.1-.08-.2-.13-.3a.61.61,0,0,0,0-.12c-2.18-4.89-5.82-9.38-10-11.77L106.27,70,103,68l-12.82-7.4c-3.37-1.94-6.43-2.13-8.64-.84L33.88,87.58S29.83,89,29.82,95.2a25.27,25.27,0,0,0,12.47,21.36l73.5,42.34c6.53,3.77,11.87.91,12.15-6.38"/><path class="cls-13" d="M79.18,68.34c0,5.67,4,12.61,8.93,15.46l-47.7,27.71c-4.94-2.85-8.94-9.78-8.93-15.46,0-2.82,1-4.8,2.62-5.74L81.8,62.6C80.19,63.53,79.19,65.52,79.18,68.34Z"/><path class="cls-13" d="M169.77,128.44l-47.7,27.72c-1.63,1-3.89.81-6.37-.63l-80-45.29L87.9,77.36l75.5,50.46C165.88,129.26,168.14,129.39,169.77,128.44Z"/><g class="cls-14"><path class="cls-15" d="M65.24,97.73c0,2.16-.76,3.69-2,4.4l-15.69,9.11c1.23-.72,2-2.24,2-4.4A15.07,15.07,0,0,0,42.73,95c-1.91-1.1-3.63-1.2-4.88-.48l15.68-9.1c1.25-.73,3-.63,4.88.47A15,15,0,0,1,65.24,97.73Z"/><path class="cls-16" d="M42.73,95a15,15,0,0,1,6.83,11.84c0,4.35-3.09,6.11-6.88,3.92a15.08,15.08,0,0,1-6.83-11.84C35.86,94.57,38.94,92.82,42.73,95Z"/><path class="cls-17" d="M42.72,98.72A7.94,7.94,0,0,1,46.33,105c0,2.3-1.63,3.23-3.63,2.07a8,8,0,0,1-3.62-6.26C39.09,98.49,40.72,97.56,42.72,98.72Z"/></g><g class="cls-14"><path class="cls-18" d="M82.78,107.85c0,2.17-.77,3.69-2,4.41l-15.68,9.1c1.23-.71,2-2.23,2-4.4a15.06,15.06,0,0,0-6.84-11.83c-1.9-1.1-3.63-1.2-4.87-.48l15.68-9.11c1.24-.73,3-.62,4.88.48A15.08,15.08,0,0,1,82.78,107.85Z"/><path class="cls-16" d="M60.27,105.13A15.08,15.08,0,0,1,67.1,117c0,4.36-3.09,6.11-6.88,3.92a15,15,0,0,1-6.83-11.83C53.4,104.7,56.48,102.94,60.27,105.13Z"/><path class="cls-17" d="M60.26,108.84a8,8,0,0,1,3.61,6.26c0,2.3-1.63,3.23-3.64,2.07a8,8,0,0,1-3.61-6.26C56.62,108.61,58.25,107.68,60.26,108.84Z"/></g><g class="cls-14"><path class="cls-19" d="M100.31,118c0,2.16-.76,3.68-2,4.4l-15.68,9.11c1.23-.72,2-2.24,2-4.4a15.08,15.08,0,0,0-6.84-11.84c-1.91-1.1-3.63-1.2-4.87-.48l15.67-9.11c1.25-.72,3-.62,4.88.48A15,15,0,0,1,100.31,118Z"/><path class="cls-16" d="M77.8,115.25a15.08,15.08,0,0,1,6.84,11.84c0,4.35-3.09,6.11-6.88,3.92a15.08,15.08,0,0,1-6.84-11.84C70.94,114.82,74,113.07,77.8,115.25Z"/><path class="cls-17" d="M77.79,119a8,8,0,0,1,3.62,6.27c0,2.3-1.64,3.23-3.64,2.07A8,8,0,0,1,74.15,121C74.16,118.74,75.79,117.81,77.79,119Z"/></g><g class="cls-14"><path class="cls-20" d="M117.85,128.1c0,2.17-.77,3.69-2,4.41l-15.68,9.1c1.23-.71,2-2.23,2-4.4a15,15,0,0,0-6.83-11.83c-1.91-1.1-3.63-1.2-4.88-.48l15.68-9.11c1.25-.73,3-.62,4.88.48A15,15,0,0,1,117.85,128.1Z"/><path class="cls-16" d="M95.34,125.38a15,15,0,0,1,6.83,11.84c0,4.35-3.09,6.1-6.88,3.92a15.09,15.09,0,0,1-6.83-11.84C88.47,125,91.55,123.19,95.34,125.38Z"/><path class="cls-17" d="M95.33,129.09a8,8,0,0,1,3.61,6.26c0,2.3-1.63,3.23-3.64,2.07a8,8,0,0,1-3.61-6.26C91.7,128.86,93.32,127.93,95.33,129.09Z"/></g><g class="cls-14"><path class="cls-21" d="M135.39,138.23c0,2.16-.77,3.68-2,4.4l-15.68,9.11c1.23-.72,2-2.24,2-4.4a15.08,15.08,0,0,0-6.84-11.84c-1.9-1.1-3.63-1.2-4.87-.48l15.67-9.11c1.25-.72,3-.62,4.88.48A15.08,15.08,0,0,1,135.39,138.23Z"/><path class="cls-16" d="M112.87,135.5a15.08,15.08,0,0,1,6.84,11.84c0,4.35-3.09,6.11-6.88,3.92A15,15,0,0,1,106,139.42C106,135.07,109.09,133.32,112.87,135.5Z"/><path class="cls-17" d="M112.86,139.21a8,8,0,0,1,3.62,6.27c0,2.3-1.64,3.23-3.64,2.07a8,8,0,0,1-3.61-6.26C109.23,139,110.86,138.06,112.86,139.21Z"/></g><path class="cls-22" d="M115.8,131.28c6.7,3.87,12.11,13.25,12.09,20.93s-5.47,10.8-12.17,6.94L42.21,116.64c-8.07-4.86-12.41-13.3-12.39-21-.2-7.18,4.7-10.84,12.16-6.93Zm-.07,24.22c4.94,2.86,9,.56,9-5.12s-4-12.61-8.93-15.46L42,92.36c-4.94-2.86-9-.55-9,5.12s4,12.61,8.92,15.46l73.82,42.56"/><path class="cls-23" d="M125.5,159.12,172.11,132c2.18-1.26,3.52-3.95,3.54-7.78a20.37,20.37,0,0,0-1-6.09h0a24.19,24.19,0,0,0-1-2.65c0-.1-.08-.2-.13-.3a.61.61,0,0,0,0-.12c-2.18-4.89-5.82-9.38-10-11.77L106.27,70,103,68l-12.82-7.4c-3.37-1.94-6.43-2.13-8.64-.84L33.06,88c4.51-2.62,9.77,1.21,13.27,3.23,5.88,3.5,20.77,12,20.77,12l38.08,22c5.16,3.52,11.73,5.54,16.51,11.29,4.52,5.42,9.13,16.59,3.81,22.67"/><path class="cls-24" d="M69.74,52.59l.05,42.65a2.22,2.22,0,0,0,1.09,1.91l27.66,16.12a6.1,6.1,0,0,0,6.1,0l32.58-18.73a2.69,2.69,0,0,0,1.36-2.34l-.07-43.06Z"/><path class="cls-25" d="M98,70.17,71.25,54.79a3,3,0,0,1,0-5.23L104,30.83a5.89,5.89,0,0,1,5.86,0L137,46.51a3.08,3.08,0,0,1,0,5.32L105.68,70.14A7.69,7.69,0,0,1,98,70.17Z"/><path class="cls-16" d="M84.49,42,119.24,62l9.22-5.32L93.71,36.66Zm0,0"/><path class="cls-26" d="M90,38.79l34.75,20.07-1.8,1L88.19,39.84Zm0,0"/><path class="cls-27" d="M119.24,62v7.62l9.22-5.33V56.72Zm0,0"/></svg>