<svg id="图层_1" data-name="图层 1" xmlns="http://www.w3.org/2000/svg" xmlns:xlink="http://www.w3.org/1999/xlink" viewBox="0 0 200 200"><defs><style>.cls-1{fill:#f7f7f7;}.cls-2{fill:#d8d8d8;}.cls-3{fill:#e8e8e8;}.cls-4{fill:#efefef;}.cls-5{fill:#04bbda;}.cls-6{fill:url(#未命名的渐变_8);}.cls-7{fill:#0186be;}.cls-8{fill:url(#未命名的渐变_8-2);}.cls-9{fill:url(#未命名的渐变_8-3);}.cls-10{fill:url(#未命名的渐变_8-4);}.cls-11{fill:url(#未命名的渐变_8-5);}.cls-12{fill:url(#未命名的渐变_8-6);}.cls-13{fill:url(#未命名的渐变_8-7);}.cls-14{fill:url(#未命名的渐变_84);}.cls-15{fill:url(#未命名的渐变_8-8);}.cls-16{fill:#03e5e1;}.cls-17{fill:url(#未命名的渐变_86);}.cls-18{fill:url(#未命名的渐变_8-9);}.cls-19{fill:url(#未命名的渐变_8-10);}.cls-20{fill:url(#未命名的渐变_8-11);}.cls-21{fill:url(#未命名的渐变_8-12);}.cls-22{fill:#04bcd8;}</style><linearGradient id="未命名的渐变_8" x1="133.08" y1="133.14" x2="150.05" y2="133.14" gradientUnits="userSpaceOnUse"><stop offset="0" stop-color="#0186be"/><stop offset="0.05" stop-color="#0196c5"/><stop offset="0.18" stop-color="#00c1d7"/><stop offset="0.29" stop-color="#00dce2"/><stop offset="0.35" stop-color="#00e6e6"/><stop offset="0.47" stop-color="#00dde2"/><stop offset="0.66" stop-color="#00c3d7"/><stop offset="0.9" stop-color="#019ac6"/><stop offset="1" stop-color="#0186be"/></linearGradient><linearGradient id="未命名的渐变_8-2" x1="139.72" y1="118.88" x2="154.4" y2="118.88" xlink:href="#未命名的渐变_8"/><linearGradient id="未命名的渐变_8-3" x1="139.72" y1="100.33" x2="154.4" y2="100.33" xlink:href="#未命名的渐变_8"/><linearGradient id="未命名的渐变_8-4" x1="133.08" y1="79.72" x2="150.05" y2="79.72" xlink:href="#未命名的渐变_8"/><linearGradient id="未命名的渐变_8-5" x1="121.83" y1="59.54" x2="140.64" y2="59.54" xlink:href="#未命名的渐变_8"/><linearGradient id="未命名的渐变_8-6" x1="107.3" y1="42.23" x2="127.34" y2="42.23" xlink:href="#未命名的渐变_8"/><linearGradient id="未命名的渐变_8-7" x1="91.27" y1="29.88" x2="111.72" y2="29.88" xlink:href="#未命名的渐变_8"/><linearGradient id="未命名的渐变_84" x1="83.44" y1="30.52" x2="87.7" y2="18.03" gradientUnits="userSpaceOnUse"><stop offset="0.08" stop-color="#0186be"/><stop offset="0.14" stop-color="#0196c5"/><stop offset="0.31" stop-color="#00c1d7"/><stop offset="0.44" stop-color="#00dce2"/><stop offset="0.52" stop-color="#00e6e6"/><stop offset="0.6" stop-color="#00dde2"/><stop offset="0.74" stop-color="#00c3d7"/><stop offset="0.92" stop-color="#019ac6"/><stop offset="1" stop-color="#0186be"/></linearGradient><linearGradient id="未命名的渐变_8-8" x1="64.95" y1="29.41" x2="78.83" y2="20.83" xlink:href="#未命名的渐变_8"/><linearGradient id="未命名的渐变_86" x1="75.94" y1="87.19" x2="112.91" y2="87.19" gradientUnits="userSpaceOnUse"><stop offset="0" stop-color="#0186be"/><stop offset="0.07" stop-color="#0196c5"/><stop offset="0.27" stop-color="#00c1d7"/><stop offset="0.42" stop-color="#00dce2"/><stop offset="0.52" stop-color="#00e6e6"/><stop offset="0.6" stop-color="#00dde2"/><stop offset="0.74" stop-color="#00c3d7"/><stop offset="0.92" stop-color="#019ac6"/><stop offset="1" stop-color="#0186be"/></linearGradient><linearGradient id="未命名的渐变_8-9" x1="90.57" y1="139.53" x2="97.32" y2="139.53" xlink:href="#未命名的渐变_8"/><linearGradient id="未命名的渐变_8-10" x1="74.57" y1="146.45" x2="85.7" y2="146.45" xlink:href="#未命名的渐变_8"/><linearGradient id="未命名的渐变_8-11" x1="58.15" y1="143.92" x2="67.68" y2="143.92" xlink:href="#未命名的渐变_8"/><linearGradient id="未命名的渐变_8-12" x1="54" y1="134.72" x2="57.96" y2="134.72" xlink:href="#未命名的渐变_8"/></defs><title>Folderlocal-view-nodes-b</title><polygon class="cls-1" points="187.82 134.96 165.07 185.69 74.3 199.77 10.17 163.06 10.17 145.78 187.82 117.68 187.82 134.96"/><polygon class="cls-2" points="187.82 134.96 165.07 185.69 165.07 168.41 187.82 117.68 187.82 134.96"/><polygon class="cls-3" points="187.82 117.68 165.07 168.41 74.3 182.49 10.17 145.78 33.81 94.73 124.91 81.4 187.82 117.68"/><polygon class="cls-4" points="165.07 168.41 165.07 185.69 74.3 199.77 74.3 182.49 165.07 168.41"/><polygon class="cls-5" points="111.72 134.85 98.24 142.62 98.24 133.71 111.72 125.93 111.72 134.85"/><polygon class="cls-5" points="127.33 139.26 113.86 147.04 111.21 137.12 124.69 129.34 127.33 139.26"/><polygon class="cls-5" points="140.65 136.46 127.17 144.24 122.21 134.56 135.69 126.78 140.65 136.46"/><polygon class="cls-6" points="146.56 131.73 133.08 139.51 136.57 134.55 150.05 126.77 146.56 131.73"/><polygon class="cls-5" points="150.05 126.77 136.57 134.55 129.87 126.22 143.35 118.44 150.05 126.77"/><path class="cls-7" d="M143.35,118.44l-13.48,7.78a28.93,28.93,0,0,0,2.23-5.79l13.48-7.77A29.07,29.07,0,0,1,143.35,118.44Z"/><polygon class="cls-8" points="153.19 118.61 139.72 126.39 140.92 119.16 154.4 111.38 153.19 118.61"/><polygon class="cls-5" points="154.4 111.38 140.92 119.16 133.31 113.21 146.79 105.44 154.4 111.38"/><path class="cls-7" d="M146.79,105.44l-13.48,7.77c.09-1.19.17-2.4.17-3.67L147,101.77C147,103,146.88,104.24,146.79,105.44Z"/><path class="cls-7" d="M147,101.77l-13.48,7.77c0-1.27-.08-2.56-.17-3.86l13.48-7.77C146.88,99.2,147,100.5,147,101.77Z"/><polygon class="cls-5" points="95.69 123.75 82.21 131.53 84.86 124.66 98.34 116.88 95.69 123.75"/><polygon class="cls-9" points="154.4 100.75 140.92 108.53 139.72 99.9 153.19 92.13 154.4 100.75"/><polygon class="cls-5" points="153.19 92.13 139.72 99.9 132.1 97.06 145.58 89.28 153.19 92.13"/><polygon class="cls-5" points="81.17 107.29 67.69 115.07 72.65 111.11 86.13 103.33 81.17 107.29"/><path class="cls-7" d="M145.58,89.28,132.1,97.06a79,79,0,0,0-2.23-8.36l13.48-7.78A79,79,0,0,1,145.58,89.28Z"/><polygon class="cls-5" points="73.12 77.9 59.64 85.67 52.95 86.27 66.42 78.49 73.12 77.9"/><polygon class="cls-10" points="150.05 80.32 136.57 88.1 133.08 79.12 146.56 71.34 150.05 80.32"/><polygon class="cls-5" points="146.56 71.34 133.08 79.12 126.39 79.72 139.87 71.94 146.56 71.34"/><path class="cls-7" d="M139.87,71.94l-13.48,7.77c-1.26-2.78-2.64-5.53-4.18-8.19l13.48-7.78C137.23,66.41,138.61,69.15,139.87,71.94Z"/><polygon class="cls-5" points="135.69 63.74 122.21 71.52 127.17 67.56 140.65 59.78 135.69 63.74"/><path class="cls-7" d="M130.34,55.49l-13.47,7.78a88.54,88.54,0,0,0-5.66-7l13.48-7.77A86.08,86.08,0,0,1,130.34,55.49Z"/><polygon class="cls-11" points="140.65 59.78 127.17 67.56 121.83 59.31 135.31 51.53 140.65 59.78"/><polygon class="cls-5" points="124.69 48.48 111.21 56.25 113.86 49.39 127.33 41.61 124.69 48.48"/><path class="cls-7" d="M118.14,41.94l-13.48,7.78a63.49,63.49,0,0,0-6.42-5l13.48-7.78A66.49,66.49,0,0,1,118.14,41.94Z"/><polygon class="cls-12" points="127.33 41.61 113.86 49.39 107.3 42.85 120.78 35.08 127.33 41.61"/><polygon class="cls-5" points="69.68 60.91 56.2 68.69 48.59 65.85 62.07 58.07 69.68 60.91"/><path class="cls-7" d="M104.75,32.89,91.27,40.66a38.14,38.14,0,0,0-6.41-2.37l13.48-7.78A38.54,38.54,0,0,1,104.75,32.89Z"/><polygon class="cls-5" points="70.89 46.16 57.41 53.94 49.8 47.99 63.28 40.21 70.89 46.16"/><path class="cls-7" d="M91.78,29.48,78.3,37.25a22.16,22.16,0,0,0-5.65.49L86.13,30A22.17,22.17,0,0,1,91.78,29.48Z"/><polygon class="cls-5" points="76.6 35.41 63.12 43.19 56.43 34.87 69.91 27.09 76.6 35.41"/><polygon class="cls-5" points="86.13 29.96 72.65 37.74 67.69 28.05 81.17 20.27 86.13 29.96"/><polygon class="cls-5" points="98.34 30.51 84.86 38.29 82.21 28.36 95.69 20.59 98.34 30.51"/><polygon class="cls-5" points="111.72 36.91 98.24 44.69 98.24 35.78 111.72 28 111.72 36.91"/><polygon class="cls-13" points="111.72 28 98.24 35.78 91.27 31.75 104.75 23.98 111.72 28"/><polygon class="cls-14" points="95.69 20.59 82.21 28.36 75.66 27.33 89.14 19.56 95.69 20.59"/><polygon class="cls-15" points="81.17 20.27 67.69 28.05 62.35 30.14 75.83 22.36 81.17 20.27"/><path class="cls-16" d="M133.48,109.54c0-1.27-.08-2.56-.17-3.86l7.61,2.85-1.2-8.63-7.62-2.84a79,79,0,0,0-2.23-8.36l6.7-.6-3.49-9-6.69.59c-1.26-2.78-2.64-5.53-4.18-8.19l5-4-5.34-8.25-5,4a88.54,88.54,0,0,0-5.66-7l2.65-6.86-6.56-6.54-2.64,6.87a63.49,63.49,0,0,0-6.42-5V35.78l-7-4v8.91a38.14,38.14,0,0,0-6.41-2.37l-2.65-9.93-6.55-1,2.64,9.92a22.16,22.16,0,0,0-5.65.49l-5-9.69-5.34,2.09,4.95,9.67a18.91,18.91,0,0,0-4.18,3.38l-6.69-8.33-3.48,5,6.69,8.33a28.33,28.33,0,0,0-2.22,5.79L49.8,48l-1.21,7.23,7.61,5.94c-.09,1.19-.17,2.4-.17,3.67s.08,2.56.17,3.86l-7.61-2.84,1.21,8.62,7.62,2.85a75.79,75.79,0,0,0,2.22,8.35l-6.69.6,3.48,9,6.69-.6c1.26,2.78,2.65,5.53,4.18,8.2l-4.95,4,5.34,8.26,5-4a88.26,88.26,0,0,0,5.65,7L75.66,125l6.55,6.53,2.65-6.87a63.39,63.39,0,0,0,6.41,5v8.92l7,4v-8.91a38.23,38.23,0,0,0,6.42,2.37L107.3,146l6.56,1-2.65-9.92a22.16,22.16,0,0,0,5.65-.49l5,9.7,5.34-2.09-5-9.68a18.64,18.64,0,0,0,4.18-3.37l6.69,8.32,3.49-5-6.7-8.33a28.93,28.93,0,0,0,2.23-5.79l7.62,6,1.2-7.23-7.61-6C133.4,112,133.48,110.81,133.48,109.54Zm-20.57-6.49a20.1,20.1,0,0,1-4.67-1.94c-10.39-6-18.82-20.59-18.82-32.59a19.77,19.77,0,0,1,.66-5,19.91,19.91,0,0,1,4.68,1.94c10.39,6,18.81,20.59,18.81,32.59A19.83,19.83,0,0,1,112.91,103.05Z"/><path class="cls-17" d="M89.42,68.52a19.77,19.77,0,0,1,.66-5c-3.3-.93-6.29-.73-8.63.62-3.4,2-5.51,6.18-5.51,12.18,0,12,8.43,26.59,18.82,32.59,5.19,3,9.9,3.29,13.3,1.32,2.34-1.35,4-3.83,4.85-7.15a19.67,19.67,0,0,1-4.67-1.94C97.85,95.11,89.42,80.52,89.42,68.52Z"/><path class="cls-18" d="M97.14,133.61l-.28.6c-.73,1.58-3.56,2.52-6.29,2.1v9.8c2.73.43,5.56-.52,6.29-2.09l.28-.6a1.8,1.8,0,0,0,.18-.77v-9.8A1.76,1.76,0,0,1,97.14,133.61Z"/><path class="cls-5" d="M88.25,137.88a19.7,19.7,0,0,1-2.74,1.29V149a19.73,19.73,0,0,0,2.74-1.3,14.9,14.9,0,0,0,2.32-1.57v-9.8C89.5,135.78,89.1,137.39,88.25,137.88Z"/><path class="cls-19" d="M81.9,142.85l-1,.16c-2.73.42-5.56-.52-6.29-2.09v9.8c.73,1.58,3.56,2.52,6.29,2.1l1-.16c2.29-.36,3.8-1.56,3.8-2.88V140C85.7,141.29,84.19,142.5,81.9,142.85Z"/><path class="cls-5" d="M67.68,139.85v9.8a29.33,29.33,0,0,0,6.89,1.07v-9.8A3.88,3.88,0,0,0,67.68,139.85Z"/><path class="cls-5" d="M58,131.26v9.81A7.29,7.29,0,0,0,59.77,145v-9.81A7.26,7.26,0,0,1,58,131.26Z"/><path class="cls-20" d="M60.42,139.85l-.77-.44a2.56,2.56,0,0,1-1.5-2.1v9.81a2.53,2.53,0,0,0,1.5,2.09l.77.44a8,8,0,0,0,7.26,0v-9.8A8.07,8.07,0,0,1,60.42,139.85Z"/><path class="cls-21" d="M57.81,131.24c-2.29-.36-3.81-1.56-3.81-2.87v9.8c0,1.31,1.52,2.52,3.81,2.87l.15,0v-9.81Z"/><path class="cls-22" d="M85.53,139.22l0-.05a19.7,19.7,0,0,0,2.74-1.29,14.1,14.1,0,0,0,2.24-1.59l.08,0c2.73.42,5.56-.52,6.29-2.1l.28-.6a1.76,1.76,0,0,0,.18-.76c0-1.31-1.52-2.52-3.81-2.87l-.16,0a7.09,7.09,0,0,0-1.81-3.89l.12-.07a2.56,2.56,0,0,0,1.5-2.1,2.53,2.53,0,0,0-1.5-2.09l-.76-.44a8.07,8.07,0,0,0-7.26,0l-.12.07a28.57,28.57,0,0,0-6.73-1l0-.09c-.73-1.57-3.56-2.52-6.29-2.09l-1,.16c-2.29.35-3.81,1.56-3.81,2.86a1.8,1.8,0,0,0,.18.77l0,0a19.17,19.17,0,0,0-2.74,1.29,14.07,14.07,0,0,0-2.24,1.58h-.09c-2.73-.42-5.55.52-6.29,2.1l-.28.6a1.9,1.9,0,0,0-.17.76c0,1.31,1.52,2.51,3.81,2.87l.15,0a7.26,7.26,0,0,0,1.81,3.89l-.12.07a2.21,2.21,0,0,0,0,4.19l.77.44a8.07,8.07,0,0,0,7.26,0l.11-.07a28.66,28.66,0,0,0,6.74,1.05l0,.09c.73,1.57,3.56,2.51,6.29,2.09l1-.16c2.29-.35,3.8-1.56,3.8-2.87A1.75,1.75,0,0,0,85.53,139.22Z"/><path class="cls-7" d="M67.09,125.66c4.73-2.73,12.4-2.73,17.13,0s4.73,7.16,0,9.89-12.41,2.74-17.14,0S62.36,128.39,67.09,125.66Z"/></svg>