<svg id="图层_1" data-name="图层 1" xmlns="http://www.w3.org/2000/svg" xmlns:xlink="http://www.w3.org/1999/xlink" viewBox="0 0 200 200"><defs><style>.cls-1{fill:#f7f7f7;}.cls-2{fill:#d8d8d8;}.cls-3{fill:#e8e8e8;}.cls-4{fill:#efefef;}.cls-5{fill:#0186be;}.cls-6{fill:url(#未命名的渐变_8);}.cls-7{fill:#03e5e1;}.cls-8{fill:#04bcd8;}.cls-9{opacity:0.4;fill:url(#linear-gradient);}.cls-10{opacity:0.6;fill:url(#linear-gradient-2);}.cls-11{fill:url(#未命名的渐变_17);}.cls-12{fill:#00aeeb;}</style><linearGradient id="未命名的渐变_8" x1="55.69" y1="126.86" x2="143.28" y2="126.86" gradientUnits="userSpaceOnUse"><stop offset="0" stop-color="#0186be"/><stop offset="0.05" stop-color="#0196c5"/><stop offset="0.18" stop-color="#00c1d7"/><stop offset="0.29" stop-color="#00dce2"/><stop offset="0.35" stop-color="#00e6e6"/><stop offset="0.47" stop-color="#00dde2"/><stop offset="0.66" stop-color="#00c3d7"/><stop offset="0.9" stop-color="#019ac6"/><stop offset="1" stop-color="#0186be"/></linearGradient><linearGradient id="linear-gradient" x1="99.48" y1="128.08" x2="99.48" y2="43.23" gradientUnits="userSpaceOnUse"><stop offset="0" stop-color="aqua"/><stop offset="0.36" stop-color="aqua" stop-opacity="0.6"/><stop offset="0.67" stop-color="aqua" stop-opacity="0.28"/><stop offset="0.89" stop-color="aqua" stop-opacity="0.08"/><stop offset="1" stop-color="aqua" stop-opacity="0"/></linearGradient><linearGradient id="linear-gradient-2" x1="99.1" y1="128.49" x2="99.1" y2="55.08" xlink:href="#linear-gradient"/><linearGradient id="未命名的渐变_17" x1="89.56" y1="112.11" x2="106.64" y2="82.23" gradientUnits="userSpaceOnUse"><stop offset="0" stop-color="#0186be"/><stop offset="0.03" stop-color="#018cc0"/><stop offset="0.06" stop-color="#019cc7"/><stop offset="0.11" stop-color="#00b7d2"/><stop offset="0.15" stop-color="#00dce2"/><stop offset="0.16" stop-color="#00e6e6"/><stop offset="0.25" stop-color="#01b4d1"/><stop offset="0.31" stop-color="#0192c3"/><stop offset="0.35" stop-color="#0186be"/><stop offset="0.51" stop-color="#00e6e6"/><stop offset="0.63" stop-color="#0186be"/><stop offset="0.86" stop-color="#00e6e6"/><stop offset="1" stop-color="#0186be"/></linearGradient></defs><title>Folderlocal-view-nodes-b</title><polygon class="cls-1" points="177.17 141.3 157.34 185.5 78.25 197.77 22.39 165.78 22.39 150.73 177.17 126.25 177.17 141.3"/><polygon class="cls-2" points="177.17 141.3 157.34 185.5 157.34 170.45 177.17 126.25 177.17 141.3"/><polygon class="cls-3" points="177.17 126.25 157.34 170.45 78.25 182.72 22.39 150.73 42.98 106.25 122.36 94.64 177.17 126.25"/><polygon class="cls-4" points="157.34 170.45 157.34 185.5 78.25 197.77 78.25 182.72 157.34 170.45"/><path class="cls-5" d="M143.3,130.47v-4.1h-.85c-1.66-4.61-5.68-9-12.06-12.59-17.18-9.64-44.94-9.69-62-.11-6.42,3.6-10.41,8-12,12.7h-.76v4q0,.56,0,1.11v.3h0c.37,6,4.67,12,12.91,16.65,17.17,9.63,44.93,9.68,62,.11C139.44,143.59,143.67,137,143.3,130.47Z"/><path class="cls-6" d="M141.22,119.54l0,0-7.1-10.82-6.18-.39c-14-6.78-33.69-7.83-49.33-3.13L76,105l-10.51,2.41-6,9.34c-7.14,9-4.07,20,9.18,27.42,17.16,9.62,44.89,9.67,61.94.11C142.46,137.61,146,128,141.22,119.54Z"/><ellipse class="cls-7" cx="99.48" cy="114.78" rx="20.42" ry="36.4" transform="translate(-15.8 213.67) rotate(-89.71)"/><path class="cls-8" d="M127.88,114.25v1.1a10.71,10.71,0,0,1-2.86,6.53,20.07,20.07,0,0,1-5.38,4.21c-11.06,6.2-29,6.18-40.19-.08a20.32,20.32,0,0,1-5.5-4.32,10.76,10.76,0,0,1-2.85-6.34,6.93,6.93,0,0,1,0-1.44c.31-3.8,3.05-7.55,8.22-10.44,11.07-6.2,29.07-6.17,40.2.07C124.83,106.51,127.61,110.37,127.88,114.25Z"/><path class="cls-9" d="M130.68,115.17v1.07a9.61,9.61,0,0,1-3.27,6.31,22.88,22.88,0,0,1-6.15,4.08c-12.66,6-33.24,6-46-.08a23.44,23.44,0,0,1-6.3-4.18,9.84,9.84,0,0,1-3.26-6.13L10.66-7.25l177.65-.63Z"/><path class="cls-10" d="M127.88,117.79v.89A8,8,0,0,1,125,124a20.51,20.51,0,0,1-5.45,3.4c-11.21,5-29.44,5-40.74-.06a20.94,20.94,0,0,1-5.57-3.49,8.08,8.08,0,0,1-2.89-5.13V15.44l57.17-4.58Z"/><path class="cls-11" d="M107,110.71c2-1.69,6-8.15,5.85-16-.07-4.76-4.37-14.33-4.37-14.33a3.38,3.38,0,0,1-2.14-.87c-.24,3.06-1.4,5.17-2.76,5.38a2.92,2.92,0,0,1-2.46-1.39c-2.22-3.67,1.29-11.64,1.29-11.64s-1-.43-2.14-.87a15.51,15.51,0,0,0-6.57,5.32c-3.4,4.89-3.33,10.9-3.19,13.77a7.8,7.8,0,0,1-.06,2.66,1,1,0,0,1-1,.8c-.64-.05-.19-6.53.15-7.05a16.92,16.92,0,0,1-2.14-.87A20.11,20.11,0,0,0,84,95.28c-.09,1-.61,8.27,4,13.81a15.81,15.81,0,0,0,2.07,2.06,13.25,13.25,0,0,0,8.3,2.59,14.16,14.16,0,0,0,8.51-2.93Z"/><path class="cls-12" d="M109.16,111.58c2-1.68,6-8.15,5.84-16-.1-7.37-4.38-12.83-6.5-15.2-.25,3.06-1.4,5.18-2.76,5.39-1.11.17-2.11-1-2.46-1.4-3.23-4-1.28-11-.85-12.51a15.45,15.45,0,0,0-6.57,5.32c-3.4,4.9-3.33,10.91-3.19,13.78a7.81,7.81,0,0,1-.06,2.66,1,1,0,0,1-1,.79,2,2,0,0,1-1.29-.88c-1.39-1.82-.78-6.46-.7-7a20.1,20.1,0,0,0-3.49,9.66c-.09,1-.61,8.28,4,13.81A15.36,15.36,0,0,0,92.22,112a13.25,13.25,0,0,0,8.3,2.59,14.08,14.08,0,0,0,8.51-2.94Z"/></svg>