<svg id="图层_1" data-name="图层 1" xmlns="http://www.w3.org/2000/svg" xmlns:xlink="http://www.w3.org/1999/xlink" viewBox="0 0 200 200"><defs><style>.cls-1{fill:#236568;}.cls-14,.cls-2,.cls-3,.cls-4{fill:none;}.cls-2{clip-path:url(#clip-path);}.cls-3{clip-path:url(#clip-path-2);}.cls-4{clip-path:url(#clip-path-3);}.cls-5{fill:#f7f7f7;}.cls-6{fill:#d8d8d8;}.cls-7{fill:#e8e8e8;}.cls-8{fill:#efefef;}.cls-9{fill:url(#未命名的渐变_68);}.cls-10{fill:url(#未命名的渐变_67);}.cls-11{fill:#04bbda;}.cls-12{fill:#00686c;}.cls-13{fill:#05b0c1;}.cls-15{clip-path:url(#clip-path-4);}.cls-16{fill:#06daae;}.cls-17{clip-path:url(#clip-path-5);}.cls-18{clip-path:url(#clip-path-6);}</style><clipPath id="clip-path"><path id="SVGID" class="cls-1" d="M147.59,104h0l-3-1.7h0a4.36,4.36,0,0,0-4.31.42c-3.72,2.15-6.74,7.91-6.74,12.87,0,2.73.92,4.65,2.36,5.47h0l2.7,1.56h0a4.28,4.28,0,0,0,4.45-.33c3.73-2.14,6.74-7.91,6.74-12.87,0-2.67-.87-4.56-2.25-5.4Zm0,0"/></clipPath><clipPath id="clip-path-2"><path id="SVGID-2" data-name="SVGID" class="cls-1" d="M127.7,112h0l-3-1.7h0a4.34,4.34,0,0,0-4.3.42c-3.73,2.14-6.74,7.91-6.74,12.87,0,2.73.91,4.65,2.35,5.46h0l2.7,1.56h0a4.29,4.29,0,0,0,4.46-.33c3.72-2.15,6.74-7.91,6.74-12.87,0-2.67-.87-4.56-2.25-5.41Zm0,0"/></clipPath><clipPath id="clip-path-3"><path id="SVGID-3" data-name="SVGID" class="cls-1" d="M165.55,94.64h0l-3-1.71h0a4.35,4.35,0,0,0-4.3.42c-3.72,2.15-6.74,7.91-6.74,12.88,0,2.72.91,4.64,2.35,5.46h0l2.7,1.56h0a4.29,4.29,0,0,0,4.45-.32c3.72-2.15,6.74-7.92,6.74-12.88,0-2.67-.87-4.56-2.25-5.4Zm0,0"/></clipPath><linearGradient id="未命名的渐变_68" x1="49.75" y1="105.82" x2="156.92" y2="105.82" gradientUnits="userSpaceOnUse"><stop offset="0" stop-color="#0087be"/><stop offset="0.09" stop-color="#038ebf"/><stop offset="0.23" stop-color="#0aa2c2"/><stop offset="0.4" stop-color="#17c3c6"/><stop offset="0.46" stop-color="#1cd1c8"/><stop offset="0.56" stop-color="#13c9ce"/><stop offset="0.78" stop-color="#08bfd7"/><stop offset="1" stop-color="#04bbda"/></linearGradient><linearGradient id="未命名的渐变_67" x1="49.75" y1="57.55" x2="156.83" y2="57.55" gradientUnits="userSpaceOnUse"><stop offset="0" stop-color="#03e5e1"/><stop offset="0.02" stop-color="#04e5e2"/><stop offset="0.54" stop-color="#10e0ef"/><stop offset="1" stop-color="#14dff4"/></linearGradient><clipPath id="clip-path-4"><rect id="SVGID-4" data-name="SVGID" class="cls-2" x="112.98" y="91.71" width="36.87" height="34.76"/></clipPath><clipPath id="clip-path-5"><rect id="SVGID-5" data-name="SVGID" class="cls-3" x="93.08" y="99.75" width="36.87" height="34.76"/></clipPath><clipPath id="clip-path-6"><rect id="SVGID-6" data-name="SVGID" class="cls-4" x="130.93" y="82.37" width="36.87" height="34.76"/></clipPath></defs><title>Folderlocal-view-nodes-a</title><polygon class="cls-5" points="188.94 130.54 166.18 181.27 75.41 195.35 11.29 158.64 11.29 141.36 188.94 113.26 188.94 130.54"/><polygon class="cls-6" points="188.94 130.54 166.18 181.27 166.18 163.99 188.94 113.26 188.94 130.54"/><polygon class="cls-7" points="188.94 113.26 166.18 163.99 75.41 178.07 11.29 141.36 34.93 90.31 126.03 76.98 188.94 113.26"/><polygon class="cls-8" points="166.18 163.99 166.18 181.27 75.41 195.35 75.41 178.07 166.18 163.99"/><path class="cls-9" d="M49.75,60.62,49.83,127a3.46,3.46,0,0,0,1.71,3l43.06,25.1a9.45,9.45,0,0,0,9.48,0L154.82,126a4.2,4.2,0,0,0,2.1-3.64l-.09-67.05Z"/><path class="cls-10" d="M93.68,88,52.1,64a4.7,4.7,0,0,1,0-8.15l51-29.15a9.18,9.18,0,0,1,9.13,0l42.24,24.39a4.79,4.79,0,0,1,0,8.28L105.71,87.94A12,12,0,0,1,93.68,88Z"/><path class="cls-11" d="M72.72,44.09l54.1,31.24L141.17,67,87.07,35.8Zm0,0"/><path class="cls-12" d="M81.29,39.13,135.4,70.37,132.59,72,78.48,40.76Zm0,0"/><path class="cls-13" d="M126.82,75.33V87.18l14.35-8.28V67Zm0,0"/><rect class="cls-14" x="20.76" y="35.5" width="128.05" height="130.77"/><path id="SVGID-7" data-name="SVGID" class="cls-1" d="M147.59,104h0l-3-1.7h0a4.36,4.36,0,0,0-4.31.42c-3.72,2.15-6.74,7.91-6.74,12.87,0,2.73.92,4.65,2.36,5.47h0l2.7,1.56h0a4.28,4.28,0,0,0,4.45-.33c3.73-2.14,6.74-7.91,6.74-12.87,0-2.67-.87-4.56-2.25-5.4Zm0,0"/><path class="cls-16" d="M147.17,103.76c3,1.27,3.57,6.56,1.33,11.82s-6.47,8.49-9.44,7.22-3.57-6.55-1.33-11.81,6.47-8.49,9.44-7.23Zm0,0"/><path id="SVGID-8" data-name="SVGID" class="cls-1" d="M127.7,112h0l-3-1.7h0a4.34,4.34,0,0,0-4.3.42c-3.73,2.14-6.74,7.91-6.74,12.87,0,2.73.91,4.65,2.35,5.46h0l2.7,1.56h0a4.29,4.29,0,0,0,4.46-.33c3.72-2.15,6.74-7.91,6.74-12.87,0-2.67-.87-4.56-2.25-5.41Zm0,0"/><path class="cls-16" d="M127.27,111.8c3,1.27,3.57,6.56,1.33,11.82s-6.46,8.49-9.44,7.22-3.57-6.56-1.33-11.81,6.47-8.49,9.44-7.23Zm0,0"/><path id="SVGID-9" data-name="SVGID" class="cls-1" d="M165.55,94.64h0l-3-1.71h0a4.35,4.35,0,0,0-4.3.42c-3.72,2.15-6.74,7.91-6.74,12.88,0,2.72.91,4.64,2.35,5.46h0l2.7,1.56h0a4.29,4.29,0,0,0,4.45-.32c3.72-2.15,6.74-7.92,6.74-12.88,0-2.67-.87-4.56-2.25-5.4Zm0,0"/><path class="cls-16" d="M165.13,94.42c3,1.27,3.57,6.56,1.33,11.82s-6.47,8.49-9.45,7.22-3.57-6.55-1.33-11.81,6.47-8.49,9.45-7.23Zm0,0"/></svg>