<svg id="图层_1" data-name="图层 1" xmlns="http://www.w3.org/2000/svg" xmlns:xlink="http://www.w3.org/1999/xlink" viewBox="0 0 200 200"><defs><style>.cls-1{fill:#f7f7f7;}.cls-2{fill:#d8d8d8;}.cls-3{fill:#e8e8e8;}.cls-4{fill:#efefef;}.cls-5{fill:url(#未命名的渐变_8);}.cls-6{fill:url(#未命名的渐变_44);}.cls-7{fill:url(#未命名的渐变_8-2);}.cls-8{fill:url(#未命名的渐变_48);}.cls-9{fill:url(#GradientFill_8);}</style><linearGradient id="未命名的渐变_8" x1="46.04" y1="110.13" x2="156.91" y2="110.13" gradientUnits="userSpaceOnUse"><stop offset="0" stop-color="#0186be"/><stop offset="0.05" stop-color="#0196c5"/><stop offset="0.18" stop-color="#00c1d7"/><stop offset="0.29" stop-color="#00dce2"/><stop offset="0.35" stop-color="#00e6e6"/><stop offset="0.47" stop-color="#00dde2"/><stop offset="0.66" stop-color="#00c3d7"/><stop offset="0.9" stop-color="#019ac6"/><stop offset="1" stop-color="#0186be"/></linearGradient><linearGradient id="未命名的渐变_44" x1="79.97" y1="96.86" x2="123.12" y2="96.86" gradientUnits="userSpaceOnUse"><stop offset="0" stop-color="#ccc"/><stop offset="0.04" stop-color="#d2d2d2"/><stop offset="0.21" stop-color="#ebebeb"/><stop offset="0.36" stop-color="#fafafa"/><stop offset="0.49" stop-color="#fff"/><stop offset="0.65" stop-color="#fcfcfc"/><stop offset="0.78" stop-color="#f1f1f1"/><stop offset="0.9" stop-color="#dfdfdf"/><stop offset="1" stop-color="#ccc"/></linearGradient><linearGradient id="未命名的渐变_8-2" x1="77.13" y1="52.83" x2="125.96" y2="52.83" xlink:href="#未命名的渐变_8"/><radialGradient id="未命名的渐变_48" cx="101.48" cy="48.86" r="24.5" gradientUnits="userSpaceOnUse"><stop offset="0" stop-color="#ffe36e"/><stop offset="1" stop-color="#ffc74a"/></radialGradient><radialGradient id="GradientFill_8" cx="101.43" cy="40.75" r="25.21" gradientUnits="userSpaceOnUse"><stop offset="0" stop-color="#fccf00"/><stop offset="1" stop-color="#e8a900"/></radialGradient></defs><title>Folderlocal-view-nodes-a</title><polygon class="cls-1" points="189.21 131.25 166.45 181.98 75.68 196.06 11.56 159.34 11.56 142.06 189.21 113.97 189.21 131.25"/><polygon class="cls-2" points="189.21 131.25 166.45 181.98 166.45 164.7 189.21 113.97 189.21 131.25"/><polygon class="cls-3" points="189.21 113.97 166.45 164.7 75.68 178.78 11.56 142.06 35.19 91.02 126.29 77.69 189.21 113.97"/><polygon class="cls-4" points="166.45 164.7 166.45 181.98 75.68 196.06 75.68 178.78 166.45 164.7"/><path class="cls-5" d="M101.48,72.51C70.86,72.51,46,100.61,46,135.27c0,0,18.9,12.48,55.44,12.48s55.43-12.48,55.43-12.48C156.91,100.61,132.09,72.51,101.48,72.51Z"/><path class="cls-6" d="M101.48,72.51A50.62,50.62,0,0,0,80,77.41l21.51,43.79,21.64-43.72C119.83,76.22,113,72.51,101.48,72.51Z"/><ellipse class="cls-7" cx="101.54" cy="52.83" rx="24.41" ry="26.91"/><path class="cls-8" d="M124.08,43.75c0,6.6-10.12,19.52-22.61,19.52s-22.6-12.92-22.6-19.52S89,34.46,101.48,34.46,124.08,37.15,124.08,43.75Z"/><path class="cls-9" d="M124.68,44.2c0,6.6-10.72,11.39-23.2,11.39s-23.3-4-23.3-10.57,10.88-19.11,23.36-19.11S124.68,37.6,124.68,44.2Z"/></svg>