<svg id="图层_1" data-name="图层 1" xmlns="http://www.w3.org/2000/svg" xmlns:xlink="http://www.w3.org/1999/xlink" viewBox="0 0 200 200"><defs><style>.cls-1{fill:#f7f7f7;}.cls-2{fill:#d8d8d8;}.cls-3{fill:#e8e8e8;}.cls-4{fill:#efefef;}.cls-5{fill:url(#未命名的渐变_50);}.cls-6{fill:url(#未命名的渐变_60);}.cls-7{fill:url(#linear-gradient);}.cls-8{fill:url(#linear-gradient-2);}.cls-9{fill:#00686c;}.cls-10{fill:url(#未命名的渐变_50-2);}.cls-11{fill:url(#未命名的渐变_60-2);}.cls-12{fill:url(#linear-gradient-3);}.cls-13{fill:url(#linear-gradient-4);}.cls-14{fill:url(#未命名的渐变_50-3);}.cls-15{fill:url(#未命名的渐变_60-3);}.cls-16{fill:url(#linear-gradient-5);}.cls-17{fill:url(#linear-gradient-6);}</style><linearGradient id="未命名的渐变_50" x1="46.82" y1="109.62" x2="154.11" y2="109.62" gradientUnits="userSpaceOnUse"><stop offset="0" stop-color="#03e5e1"/><stop offset="0.01" stop-color="#03e4e1"/><stop offset="0.37" stop-color="#04cddd"/><stop offset="0.7" stop-color="#04c0db"/><stop offset="1" stop-color="#04bbda"/></linearGradient><linearGradient id="未命名的渐变_60" x1="46.82" y1="135.99" x2="154.12" y2="135.99" gradientUnits="userSpaceOnUse"><stop offset="0" stop-color="#0087be"/><stop offset="0.15" stop-color="#008abf"/><stop offset="0.24" stop-color="#0092c2"/><stop offset="0.31" stop-color="#01a1c8"/><stop offset="0.38" stop-color="#01b5cf"/><stop offset="0.44" stop-color="#02cfd9"/><stop offset="0.48" stop-color="#03e5e1"/><stop offset="0.53" stop-color="#02c9d7"/><stop offset="0.58" stop-color="#01b1ce"/><stop offset="0.65" stop-color="#019ec7"/><stop offset="0.72" stop-color="#0091c2"/><stop offset="0.81" stop-color="#0089bf"/><stop offset="1" stop-color="#0087be"/></linearGradient><linearGradient id="linear-gradient" x1="55.3" y1="137.39" x2="90.07" y2="137.39" gradientUnits="userSpaceOnUse"><stop offset="0" stop-color="#fff"/><stop offset="1" stop-color="#fff" stop-opacity="0"/></linearGradient><linearGradient id="linear-gradient-2" x1="-14473.49" y1="132.48" x2="-14438.72" y2="132.48" gradientTransform="matrix(-1, 0, 0, 1, -14323.34, 0)" gradientUnits="userSpaceOnUse"><stop offset="0" stop-color="#fff" stop-opacity="0"/><stop offset="1" stop-color="#fff"/></linearGradient><linearGradient id="未命名的渐变_50-2" x1="46.82" y1="84.04" x2="154.11" y2="84.04" xlink:href="#未命名的渐变_50"/><linearGradient id="未命名的渐变_60-2" x1="46.82" y1="110.41" x2="154.12" y2="110.41" xlink:href="#未命名的渐变_60"/><linearGradient id="linear-gradient-3" x1="55.3" y1="111.81" x2="90.07" y2="111.81" xlink:href="#linear-gradient"/><linearGradient id="linear-gradient-4" x1="-14473.49" y1="106.91" x2="-14438.72" y2="106.91" xlink:href="#linear-gradient-2"/><linearGradient id="未命名的渐变_50-3" x1="46.82" y1="58.46" x2="154.11" y2="58.46" xlink:href="#未命名的渐变_50"/><linearGradient id="未命名的渐变_60-3" x1="46.82" y1="84.83" x2="154.12" y2="84.83" xlink:href="#未命名的渐变_60"/><linearGradient id="linear-gradient-5" x1="55.3" y1="86.24" x2="90.07" y2="86.24" xlink:href="#linear-gradient"/><linearGradient id="linear-gradient-6" x1="-14473.49" y1="81.33" x2="-14438.72" y2="81.33" xlink:href="#linear-gradient-2"/></defs><title>Folderlocal-view-nodes-a</title><polygon class="cls-1" points="190.34 130.94 167.58 181.67 76.81 195.75 12.69 159.04 12.69 141.76 190.34 113.66 190.34 130.94"/><polygon class="cls-2" points="190.34 130.94 167.58 181.67 167.58 164.39 190.34 113.66 190.34 130.94"/><polygon class="cls-3" points="190.34 113.66 167.58 164.39 76.81 178.47 12.69 141.76 36.32 90.71 127.42 77.38 190.34 113.66"/><polygon class="cls-4" points="167.58 164.39 167.58 181.67 76.81 195.75 76.81 178.47 167.58 164.39"/><path class="cls-5" d="M107.92,79.62s-5.37-4.94-12.32,0L50,106.06s-7.09,4.34,0,8.44L92.9,139.62s5.38,4.93,12.32,0L151,113.28c7.09-4.1,0-8.45,0-8.45Z"/><path class="cls-6" d="M46.82,131.47c-.08,1.29.67,2.76,3.15,4.19L92.9,160.78s5.38,4.93,12.32,0L151,134.43c2.48-1.43,3.23-2.89,3.15-4.19V109c0,1.26-.75,2.68-3.15,4.06l-45.74,26.34c-6.94,4.94-12.32,0-12.32,0L50,114.3c-2.4-1.39-3.18-2.8-3.15-4.07Z"/><polygon class="cls-7" points="55.3 124.81 55.3 130.06 90.07 149.97 90.07 144.72 55.3 124.81"/><polygon class="cls-8" points="150.16 119.9 150.16 125.16 115.39 145.07 115.39 139.81 150.16 119.9"/><path class="cls-9" d="M129.35,142.21a3.11,3.11,0,0,1-1.5,2.37c-.83.47-1.5.19-1.5-.64a3.11,3.11,0,0,1,1.5-2.37C128.68,141.09,129.35,141.38,129.35,142.21Z"/><path class="cls-9" d="M134.27,139.37a3.1,3.1,0,0,1-1.5,2.36c-.83.48-1.5.2-1.5-.63a3.11,3.11,0,0,1,1.5-2.37C133.6,138.25,134.27,138.54,134.27,139.37Z"/><path class="cls-9" d="M139.19,136.52a3.11,3.11,0,0,1-1.5,2.37c-.83.48-1.5.2-1.5-.63a3.11,3.11,0,0,1,1.5-2.37C138.52,135.41,139.19,135.7,139.19,136.52Z"/><path class="cls-9" d="M67.94,140.79c0,.83-.67,1.11-1.5.63a3.1,3.1,0,0,1-1.5-2.36c0-.83.67-1.12,1.5-.64A3.11,3.11,0,0,1,67.94,140.79Z"/><path class="cls-9" d="M72.87,143.63c0,.83-.68,1.12-1.51.64a3.14,3.14,0,0,1-1.5-2.37c0-.83.68-1.12,1.5-.64A3.13,3.13,0,0,1,72.87,143.63Z"/><path class="cls-9" d="M77.79,146.47c0,.83-.67,1.12-1.5.64a3.13,3.13,0,0,1-1.51-2.37c0-.83.68-1.12,1.51-.64A3.11,3.11,0,0,1,77.79,146.47Z"/><path class="cls-10" d="M107.92,54s-5.37-4.94-12.32,0L50,80.48s-7.09,4.35,0,8.44L92.9,114s5.38,4.94,12.32,0L151,87.7c7.09-4.1,0-8.44,0-8.44Z"/><path class="cls-11" d="M46.82,105.89c-.08,1.3.67,2.76,3.15,4.19L92.9,135.2s5.38,4.94,12.32,0L151,108.85c2.48-1.43,3.23-2.89,3.15-4.19V83.43c0,1.26-.75,2.68-3.15,4.06l-45.74,26.35c-6.94,4.93-12.32,0-12.32,0L50,88.72c-2.4-1.39-3.18-2.8-3.15-4.06Z"/><polygon class="cls-12" points="55.3 99.23 55.3 104.48 90.07 124.4 90.07 119.14 55.3 99.23"/><polygon class="cls-13" points="150.16 94.32 150.16 99.58 115.39 119.49 115.39 114.23 150.16 94.32"/><path class="cls-9" d="M129.35,116.63a3.11,3.11,0,0,1-1.5,2.37c-.83.48-1.5.19-1.5-.64a3.11,3.11,0,0,1,1.5-2.37C128.68,115.52,129.35,115.8,129.35,116.63Z"/><path class="cls-9" d="M134.27,113.79a3.11,3.11,0,0,1-1.5,2.37c-.83.48-1.5.19-1.5-.64a3.11,3.11,0,0,1,1.5-2.37C133.6,112.67,134.27,113,134.27,113.79Z"/><path class="cls-9" d="M139.19,111a3.11,3.11,0,0,1-1.5,2.37c-.83.48-1.5.19-1.5-.64a3.11,3.11,0,0,1,1.5-2.37C138.52,109.83,139.19,110.12,139.19,111Z"/><path class="cls-9" d="M67.94,115.21c0,.83-.67,1.11-1.5.64a3.11,3.11,0,0,1-1.5-2.37c0-.83.67-1.12,1.5-.64A3.11,3.11,0,0,1,67.94,115.21Z"/><path class="cls-9" d="M72.87,118.05c0,.83-.68,1.12-1.51.64a3.14,3.14,0,0,1-1.5-2.37c0-.83.68-1.12,1.5-.64A3.13,3.13,0,0,1,72.87,118.05Z"/><path class="cls-9" d="M77.79,120.9c0,.82-.67,1.11-1.5.63a3.13,3.13,0,0,1-1.51-2.37c0-.83.68-1.11,1.51-.63A3.1,3.1,0,0,1,77.79,120.9Z"/><path class="cls-14" d="M107.92,28.47s-5.37-4.94-12.32,0L50,54.9s-7.09,4.35,0,8.45L92.9,88.46s5.38,4.94,12.32,0L151,62.12c7.09-4.09,0-8.44,0-8.44Z"/><path class="cls-15" d="M46.82,80.31c-.08,1.3.67,2.76,3.15,4.19L92.9,109.62s5.38,4.94,12.32,0L151,83.28c2.48-1.43,3.23-2.9,3.15-4.19V57.85c0,1.27-.75,2.68-3.15,4.07L105.22,88.26c-6.94,4.94-12.32,0-12.32,0L50,63.14c-2.4-1.39-3.18-2.8-3.15-4.06Z"/><polygon class="cls-16" points="55.3 73.65 55.3 78.91 90.07 98.82 90.07 93.56 55.3 73.65"/><polygon class="cls-17" points="150.16 68.74 150.16 74 115.39 93.91 115.39 88.66 150.16 68.74"/><path class="cls-9" d="M129.35,91.05a3.11,3.11,0,0,1-1.5,2.37c-.83.48-1.5.2-1.5-.63a3.11,3.11,0,0,1,1.5-2.37C128.68,89.94,129.35,90.22,129.35,91.05Z"/><path class="cls-9" d="M134.27,88.21a3.11,3.11,0,0,1-1.5,2.37c-.83.48-1.5.19-1.5-.64a3.1,3.1,0,0,1,1.5-2.36C133.6,87.1,134.27,87.38,134.27,88.21Z"/><path class="cls-9" d="M139.19,85.37a3.11,3.11,0,0,1-1.5,2.37c-.83.48-1.5.19-1.5-.64a3.11,3.11,0,0,1,1.5-2.37C138.52,84.25,139.19,84.54,139.19,85.37Z"/><path class="cls-9" d="M67.94,89.63c0,.83-.67,1.12-1.5.64a3.11,3.11,0,0,1-1.5-2.37c0-.83.67-1.11,1.5-.63A3.08,3.08,0,0,1,67.94,89.63Z"/><path class="cls-9" d="M72.87,92.48c0,.82-.68,1.11-1.51.63a3.14,3.14,0,0,1-1.5-2.37c0-.83.68-1.11,1.5-.63A3.13,3.13,0,0,1,72.87,92.48Z"/><path class="cls-9" d="M77.79,95.32c0,.83-.67,1.11-1.5.63a3.13,3.13,0,0,1-1.51-2.37c0-.83.68-1.11,1.51-.63A3.11,3.11,0,0,1,77.79,95.32Z"/></svg>