<svg id="图层_1" data-name="图层 1" xmlns="http://www.w3.org/2000/svg" xmlns:xlink="http://www.w3.org/1999/xlink" viewBox="0 0 200 200"><defs><style>.cls-1{fill:#f7f7f7;}.cls-2{fill:#d8d8d8;}.cls-3{fill:#e8e8e8;}.cls-4{fill:#efefef;}.cls-5{fill:url(#未命名的渐变_8);}.cls-6{fill:url(#未命名的渐变_44);}.cls-7{fill:#c6c6c6;}.cls-8{fill:url(#未命名的渐变_8-2);}.cls-9{fill:#231815;fill-rule:evenodd;}</style><linearGradient id="未命名的渐变_8" x1="40.5" y1="110.13" x2="151.36" y2="110.13" gradientUnits="userSpaceOnUse"><stop offset="0" stop-color="#0186be"/><stop offset="0.05" stop-color="#0196c5"/><stop offset="0.18" stop-color="#00c1d7"/><stop offset="0.29" stop-color="#00dce2"/><stop offset="0.35" stop-color="#00e6e6"/><stop offset="0.47" stop-color="#00dde2"/><stop offset="0.66" stop-color="#00c3d7"/><stop offset="0.9" stop-color="#019ac6"/><stop offset="1" stop-color="#0186be"/></linearGradient><linearGradient id="未命名的渐变_44" x1="74.43" y1="96.86" x2="117.58" y2="96.86" gradientUnits="userSpaceOnUse"><stop offset="0" stop-color="#ccc"/><stop offset="0.04" stop-color="#d2d2d2"/><stop offset="0.21" stop-color="#ebebeb"/><stop offset="0.36" stop-color="#fafafa"/><stop offset="0.49" stop-color="#fff"/><stop offset="0.65" stop-color="#fcfcfc"/><stop offset="0.78" stop-color="#f1f1f1"/><stop offset="0.9" stop-color="#dfdfdf"/><stop offset="1" stop-color="#ccc"/></linearGradient><linearGradient id="未命名的渐变_8-2" x1="71.59" y1="52.83" x2="120.41" y2="52.83" xlink:href="#未命名的渐变_8"/></defs><title>Folderlocal-view-nodes-a</title><polygon class="cls-1" points="188.82 131.25 166.07 181.98 75.3 196.06 11.18 159.34 11.18 142.06 188.82 113.97 188.82 131.25"/><polygon class="cls-2" points="188.82 131.25 166.07 181.98 166.07 164.7 188.82 113.97 188.82 131.25"/><polygon class="cls-3" points="188.82 113.97 166.07 164.7 75.3 178.78 11.18 142.06 34.81 91.02 125.91 77.69 188.82 113.97"/><polygon class="cls-4" points="166.07 164.7 166.07 181.98 75.3 196.06 75.3 178.78 166.07 164.7"/><path class="cls-5" d="M95.93,72.51c-30.61,0-55.43,28.1-55.43,62.76,0,0,18.9,12.48,55.43,12.48s55.43-12.48,55.43-12.48C151.36,100.61,126.55,72.51,95.93,72.51Z"/><path class="cls-6" d="M95.93,72.51a50.56,50.56,0,0,0-21.5,4.9l21.5,43.79,21.65-43.72C114.29,76.22,107.48,72.51,95.93,72.51Z"/><path class="cls-7" d="M95.86,72.51a50.6,50.6,0,0,0-21.5,4.9l7.36,14.86,14.14-11,14.39,11,7.26-14.76C114.22,76.22,107.41,72.51,95.86,72.51Z"/><ellipse class="cls-8" cx="96" cy="52.83" rx="24.41" ry="26.91"/><path class="cls-9" d="M94.37,96.73h3.26v4.47H94.37Zm0,8.94h3.26v4.47H94.37Zm0-17.87h3.26v4.47H94.37Z"/></svg>