<svg id="图层_1" data-name="图层 1" xmlns="http://www.w3.org/2000/svg" xmlns:xlink="http://www.w3.org/1999/xlink" viewBox="0 0 200 200"><defs><style>.cls-1{fill:#f7f7f7;}.cls-2{fill:#d8d8d8;}.cls-3{fill:#e8e8e8;}.cls-4{fill:#efefef;}.cls-5{fill:url(#未命名的渐变_8);}.cls-6{fill:url(#未命名的渐变_44);}.cls-7{fill:#231815;fill-rule:evenodd;}.cls-8{fill:url(#未命名的渐变_8-2);}.cls-9{fill:url(#未命名的渐变_45);}.cls-10{fill:url(#未命名的渐变_8-3);}</style><linearGradient id="未命名的渐变_8" x1="43.3" y1="109.95" x2="154.16" y2="109.95" gradientUnits="userSpaceOnUse"><stop offset="0" stop-color="#0186be"/><stop offset="0.05" stop-color="#0196c5"/><stop offset="0.18" stop-color="#00c1d7"/><stop offset="0.29" stop-color="#00dce2"/><stop offset="0.35" stop-color="#00e6e6"/><stop offset="0.47" stop-color="#00dde2"/><stop offset="0.66" stop-color="#00c3d7"/><stop offset="0.9" stop-color="#019ac6"/><stop offset="1" stop-color="#0186be"/></linearGradient><linearGradient id="未命名的渐变_44" x1="77.22" y1="96.67" x2="120.37" y2="96.67" gradientUnits="userSpaceOnUse"><stop offset="0" stop-color="#ccc"/><stop offset="0.04" stop-color="#d2d2d2"/><stop offset="0.21" stop-color="#ebebeb"/><stop offset="0.36" stop-color="#fafafa"/><stop offset="0.49" stop-color="#fff"/><stop offset="0.65" stop-color="#fcfcfc"/><stop offset="0.78" stop-color="#f1f1f1"/><stop offset="0.9" stop-color="#dfdfdf"/><stop offset="1" stop-color="#ccc"/></linearGradient><linearGradient id="未命名的渐变_8-2" x1="117.46" y1="119.6" x2="133.95" y2="119.6" xlink:href="#未命名的渐变_8"/><linearGradient id="未命名的渐变_45" x1="117.46" y1="111.14" x2="133.95" y2="111.14" gradientUnits="userSpaceOnUse"><stop offset="0" stop-color="#ccc"/><stop offset="0.11" stop-color="#dbdbdb"/><stop offset="0.34" stop-color="#f5f5f5"/><stop offset="0.48" stop-color="#fff"/><stop offset="0.63" stop-color="#f6f6f6"/><stop offset="0.87" stop-color="#dcdcdc"/><stop offset="1" stop-color="#ccc"/></linearGradient><linearGradient id="未命名的渐变_8-3" x1="74.39" y1="52.64" x2="123.21" y2="52.64" xlink:href="#未命名的渐变_8"/></defs><title>Folderlocal-view-nodes-a</title><polygon class="cls-1" points="187.55 131.06 164.8 181.79 74.03 195.87 9.9 159.16 9.9 141.88 187.55 113.78 187.55 131.06"/><polygon class="cls-2" points="187.55 131.06 164.8 181.79 164.8 164.51 187.55 113.78 187.55 131.06"/><polygon class="cls-3" points="187.55 113.78 164.8 164.51 74.03 178.59 9.9 141.88 33.54 90.83 124.64 77.51 187.55 113.78"/><polygon class="cls-4" points="164.8 164.51 164.8 181.79 74.03 195.87 74.03 178.59 164.8 164.51"/><path class="cls-5" d="M98.73,72.33c-30.61,0-55.43,28.1-55.43,62.76,0,0,18.9,12.47,55.43,12.47s55.43-12.47,55.43-12.47C154.16,100.43,129.34,72.33,98.73,72.33Z"/><path class="cls-6" d="M98.73,72.33a50.46,50.46,0,0,0-21.51,4.9L98.73,121l21.64-43.72C117.09,76,110.27,72.33,98.73,72.33Z"/><polygon class="cls-7" points="102.63 113.12 98.73 121.02 94.85 113.12 96.99 77.86 100.3 75.81 102.63 113.12"/><rect class="cls-8" x="117.46" y="109.95" width="16.49" height="19.31"/><rect class="cls-9" x="117.46" y="109.95" width="16.49" height="2.39"/><ellipse class="cls-10" cx="98.8" cy="52.64" rx="24.41" ry="26.91"/></svg>