<svg id="图层_1" data-name="图层 1" xmlns="http://www.w3.org/2000/svg" xmlns:xlink="http://www.w3.org/1999/xlink" viewBox="0 0 200 200"><defs><style>.cls-1{fill:#f7f7f7;}.cls-2{fill:#d8d8d8;}.cls-3{fill:#e8e8e8;}.cls-4{fill:#efefef;}.cls-5{fill:#04bbda;}.cls-6{fill:#03e5e1;}.cls-7{fill:#0087be;}.cls-8{fill:url(#未命名的渐变_50);}.cls-9{fill:url(#未命名的渐变_50-2);}.cls-10{fill:url(#未命名的渐变_51);}.cls-11{fill:url(#未命名的渐变_51-2);}.cls-12{fill:url(#未命名的渐变_50-3);}.cls-13{fill:url(#未命名的渐变_74);}.cls-14{fill:url(#未命名的渐变_74-2);}.cls-15{fill:url(#未命名的渐变_74-3);}.cls-16{fill:url(#未命名的渐变_74-4);}.cls-17{fill:url(#未命名的渐变_74-5);}.cls-18{fill:url(#未命名的渐变_74-6);}.cls-19{fill:url(#未命名的渐变_74-7);}.cls-20{fill:url(#未命名的渐变_62);}.cls-21{fill:url(#未命名的渐变_74-8);}.cls-22{fill:url(#未命名的渐变_74-9);}.cls-23{fill:url(#未命名的渐变_74-10);}</style><linearGradient id="未命名的渐变_50" x1="-6051.34" y1="55.91" x2="-5961.64" y2="55.91" gradientTransform="matrix(-1, 0, 0, 1, -5885.06, 0)" gradientUnits="userSpaceOnUse"><stop offset="0" stop-color="#03e5e1"/><stop offset="0.01" stop-color="#03e4e1"/><stop offset="0.37" stop-color="#04cddd"/><stop offset="0.7" stop-color="#04c0db"/><stop offset="1" stop-color="#04bbda"/></linearGradient><linearGradient id="未命名的渐变_50-2" x1="-6051.38" y1="68.9" x2="-5999.81" y2="68.9" xlink:href="#未命名的渐变_50"/><linearGradient id="未命名的渐变_51" x1="56.87" y1="32.67" x2="126.72" y2="60.2" gradientUnits="userSpaceOnUse"><stop offset="0" stop-color="#29abe2"/><stop offset="0.36" stop-color="#1297ce"/><stop offset="0.7" stop-color="#058bc2"/><stop offset="1" stop-color="#0087be"/></linearGradient><linearGradient id="未命名的渐变_51-2" x1="69.62" y1="53.36" x2="103.61" y2="66.75" xlink:href="#未命名的渐变_51"/><linearGradient id="未命名的渐变_50-3" x1="72.59" y1="42.22" x2="127.9" y2="42.22" gradientTransform="matrix(1, 0, 0, 1, 0, 0)" xlink:href="#未命名的渐变_50"/><linearGradient id="未命名的渐变_74" x1="99.54" y1="67.92" x2="129.47" y2="79.72" gradientUnits="userSpaceOnUse"><stop offset="0" stop-color="#4593ff"/><stop offset="1" stop-color="#fff"/></linearGradient><linearGradient id="未命名的渐变_74-2" x1="99.54" y1="78.56" x2="129.47" y2="90.35" xlink:href="#未命名的渐变_74"/><linearGradient id="未命名的渐变_74-3" x1="99.54" y1="89.19" x2="129.47" y2="100.98" xlink:href="#未命名的渐变_74"/><linearGradient id="未命名的渐变_74-4" x1="99.54" y1="99.82" x2="129.47" y2="111.61" xlink:href="#未命名的渐变_74"/><linearGradient id="未命名的渐变_74-5" x1="99.54" y1="110.45" x2="129.47" y2="122.24" xlink:href="#未命名的渐变_74"/><linearGradient id="未命名的渐变_74-6" x1="99.54" y1="121.08" x2="129.47" y2="132.87" xlink:href="#未命名的渐变_74"/><linearGradient id="未命名的渐变_74-7" x1="99.54" y1="131.71" x2="129.47" y2="143.5" xlink:href="#未命名的渐变_74"/><linearGradient id="未命名的渐变_62" x1="61.69" y1="132.29" x2="85.33" y2="132.29" gradientUnits="userSpaceOnUse"><stop offset="0" stop-color="#fff"/><stop offset="0.26" stop-color="#fdfeff"/><stop offset="0.41" stop-color="#f4f9ff"/><stop offset="0.53" stop-color="#e6f1ff"/><stop offset="0.64" stop-color="#d2e5ff"/><stop offset="0.74" stop-color="#b9d6ff"/><stop offset="0.83" stop-color="#99c4ff"/><stop offset="0.92" stop-color="#73aeff"/><stop offset="0.99" stop-color="#4995ff"/><stop offset="1" stop-color="#4593ff"/></linearGradient><linearGradient id="未命名的渐变_74-8" x1="-7509.1" y1="114.24" x2="-7489.67" y2="121.49" gradientTransform="matrix(-1, 0, 0, 1, -7422.65, 0)" xlink:href="#未命名的渐变_74"/><linearGradient id="未命名的渐变_74-9" x1="-7509.1" y1="98.85" x2="-7489.67" y2="106.09" gradientTransform="matrix(-1, 0, 0, 1, -7422.65, 0)" xlink:href="#未命名的渐变_74"/><linearGradient id="未命名的渐变_74-10" x1="-7509.1" y1="83.45" x2="-7489.67" y2="90.7" gradientTransform="matrix(-1, 0, 0, 1, -7422.65, 0)" xlink:href="#未命名的渐变_74"/></defs><title>Folderlocal-view-nodes-a</title><polygon class="cls-1" points="189.41 130.94 166.65 181.67 75.88 195.75 11.76 159.04 11.76 141.76 189.41 113.66 189.41 130.94"/><polygon class="cls-2" points="189.41 130.94 166.65 181.67 166.65 164.39 189.41 113.66 189.41 130.94"/><polygon class="cls-3" points="189.41 113.66 166.65 164.39 75.88 178.47 11.76 141.76 35.4 90.71 126.5 77.38 189.41 113.66"/><polygon class="cls-4" points="166.65 164.39 166.65 181.67 75.88 195.75 75.88 178.47 166.65 164.39"/><polygon class="cls-5" points="54.36 62.38 54.65 139.81 58.77 141.72 58.48 64.29 54.36 62.38"/><polygon class="cls-5" points="58.48 64.29 58.77 141.72 106.04 121.33 105.75 43.9 58.48 64.29"/><polygon class="cls-5" points="105.75 43.9 101.63 41.98 54.36 62.38 58.48 64.29 105.75 43.9"/><polygon class="cls-6" points="55.82 59.59 56.15 147.24 92.03 162.97 91.7 75.31 55.82 59.59"/><polygon class="cls-7" points="91.7 75.31 92.03 162.97 145.54 139.88 145.21 52.23 91.7 75.31"/><polygon class="cls-8" points="145.21 52.23 109.33 36.5 55.82 59.59 91.7 75.31 145.21 52.23"/><polygon class="cls-5" points="93.86 78.14 94.15 155.57 98.27 157.48 97.98 80.05 93.86 78.14"/><polygon class="cls-6" points="97.98 80.05 98.27 157.48 145.54 137.09 145.25 59.66 97.98 80.05"/><polygon class="cls-9" points="145.25 59.66 141.12 57.75 93.86 78.14 97.98 80.05 145.25 59.66"/><polygon class="cls-10" points="127.9 37.45 127.8 52.04 89.54 68.76 89.64 54.16 127.9 37.45"/><polygon class="cls-11" points="89.64 54.16 89.54 68.76 72.48 61.57 72.59 46.98 89.64 54.16"/><polygon class="cls-12" points="127.9 37.45 89.64 54.16 72.59 46.98 110.85 30.27 127.9 37.45"/><polygon class="cls-13" points="129.98 69.97 129.94 76.22 113.54 83.39 113.58 77.13 129.98 69.97"/><polygon class="cls-14" points="129.98 80.6 129.94 86.86 113.54 94.02 113.58 87.76 129.98 80.6"/><polygon class="cls-15" points="129.98 91.23 129.94 97.49 113.54 104.65 113.58 98.39 129.98 91.23"/><polygon class="cls-16" points="129.98 101.86 129.94 108.12 113.54 115.28 113.58 109.03 129.98 101.86"/><polygon class="cls-17" points="129.98 112.5 129.94 118.75 113.54 125.91 113.58 119.66 129.98 112.5"/><polygon class="cls-18" points="129.98 123.13 129.94 129.38 113.54 136.54 113.58 130.29 129.98 123.13"/><polygon class="cls-19" points="129.98 133.76 129.94 140.01 113.54 147.17 113.58 140.92 129.98 133.76"/><polygon class="cls-7" points="61.76 118.25 61.77 129.37 85.39 139.68 85.37 128.56 61.76 118.25"/><polygon class="cls-20" points="77.4 124.96 61.69 129.31 85.33 139.62 85.33 128.56 77.4 124.96"/><polygon class="cls-7" points="61.76 102.85 61.77 113.97 85.39 124.29 85.37 113.17 61.76 102.85"/><polygon class="cls-21" points="77.4 109.56 61.69 113.91 85.33 124.23 85.33 113.17 77.4 109.56"/><polygon class="cls-7" points="61.76 87.45 61.77 98.57 85.39 108.89 85.37 97.77 61.76 87.45"/><polygon class="cls-22" points="77.4 94.17 61.69 98.52 85.33 108.83 85.33 97.77 77.4 94.17"/><polygon class="cls-7" points="61.76 72.06 61.77 83.18 85.39 93.49 85.37 82.37 61.76 72.06"/><polygon class="cls-23" points="77.4 78.77 61.69 83.12 85.33 93.43 85.33 82.37 77.4 78.77"/></svg>