<svg id="图层_1" data-name="图层 1" xmlns="http://www.w3.org/2000/svg" xmlns:xlink="http://www.w3.org/1999/xlink" viewBox="0 0 200 200"><defs><style>.cls-1{fill:#f7f7f7;}.cls-2{fill:#d8d8d8;}.cls-3{fill:#e8e8e8;}.cls-4{fill:#efefef;}.cls-5{fill:url(#未命名的渐变_51);}.cls-6{fill:url(#未命名的渐变_51-2);}.cls-7{fill:url(#未命名的渐变_50);}.cls-8{fill:aqua;}.cls-9{fill:#0061a2;}.cls-10,.cls-36,.cls-62,.cls-88{opacity:0.3;}.cls-10{fill:url(#未命名的渐变_76);}.cls-11{fill:url(#未命名的渐变_76-2);}.cls-12{fill:url(#未命名的渐变_76-3);}.cls-13{fill:url(#未命名的渐变_76-4);}.cls-14{fill:url(#未命名的渐变_76-5);}.cls-15{fill:url(#未命名的渐变_76-6);}.cls-16{fill:url(#未命名的渐变_76-7);}.cls-17{fill:url(#未命名的渐变_76-8);}.cls-18{fill:url(#未命名的渐变_76-9);}.cls-19{fill:url(#未命名的渐变_76-10);}.cls-20{fill:url(#未命名的渐变_76-11);}.cls-21{fill:url(#未命名的渐变_76-12);}.cls-22{fill:url(#未命名的渐变_76-13);}.cls-23{fill:url(#未命名的渐变_76-14);}.cls-24{fill:url(#未命名的渐变_76-15);}.cls-25{fill:url(#未命名的渐变_76-16);}.cls-26{fill:url(#未命名的渐变_76-17);}.cls-27{fill:url(#未命名的渐变_76-18);}.cls-28{fill:url(#未命名的渐变_76-19);}.cls-29{fill:url(#未命名的渐变_76-20);}.cls-30{fill:url(#未命名的渐变_76-21);}.cls-31{fill:url(#未命名的渐变_76-22);}.cls-32{fill:url(#未命名的渐变_76-23);}.cls-33{fill:url(#未命名的渐变_76-24);}.cls-34{fill:url(#未命名的渐变_76-25);}.cls-35{fill:url(#未命名的渐变_76-26);}.cls-36{fill:url(#未命名的渐变_76-27);}.cls-37{fill:url(#未命名的渐变_76-28);}.cls-38{fill:url(#未命名的渐变_76-29);}.cls-39{fill:url(#未命名的渐变_76-30);}.cls-40{fill:url(#未命名的渐变_76-31);}.cls-41{fill:url(#未命名的渐变_76-32);}.cls-42{fill:url(#未命名的渐变_76-33);}.cls-43{fill:url(#未命名的渐变_76-34);}.cls-44{fill:url(#未命名的渐变_76-35);}.cls-45{fill:url(#未命名的渐变_76-36);}.cls-46{fill:url(#未命名的渐变_76-37);}.cls-47{fill:url(#未命名的渐变_76-38);}.cls-48{fill:url(#未命名的渐变_76-39);}.cls-49{fill:url(#未命名的渐变_76-40);}.cls-50{fill:url(#未命名的渐变_76-41);}.cls-51{fill:url(#未命名的渐变_76-42);}.cls-52{fill:url(#未命名的渐变_76-43);}.cls-53{fill:url(#未命名的渐变_76-44);}.cls-54{fill:url(#未命名的渐变_76-45);}.cls-55{fill:url(#未命名的渐变_76-46);}.cls-56{fill:url(#未命名的渐变_76-47);}.cls-57{fill:url(#未命名的渐变_76-48);}.cls-58{fill:url(#未命名的渐变_76-49);}.cls-59{fill:url(#未命名的渐变_76-50);}.cls-60{fill:url(#未命名的渐变_76-51);}.cls-61{fill:url(#未命名的渐变_76-52);}.cls-62{fill:url(#未命名的渐变_76-53);}.cls-63{fill:url(#未命名的渐变_76-54);}.cls-64{fill:url(#未命名的渐变_76-55);}.cls-65{fill:url(#未命名的渐变_76-56);}.cls-66{fill:url(#未命名的渐变_76-57);}.cls-67{fill:url(#未命名的渐变_76-58);}.cls-68{fill:url(#未命名的渐变_76-59);}.cls-69{fill:url(#未命名的渐变_76-60);}.cls-70{fill:url(#未命名的渐变_76-61);}.cls-71{fill:url(#未命名的渐变_76-62);}.cls-72{fill:url(#未命名的渐变_76-63);}.cls-73{fill:url(#未命名的渐变_76-64);}.cls-74{fill:url(#未命名的渐变_76-65);}.cls-75{fill:url(#未命名的渐变_76-66);}.cls-76{fill:url(#未命名的渐变_76-67);}.cls-77{fill:url(#未命名的渐变_76-68);}.cls-78{fill:url(#未命名的渐变_76-69);}.cls-79{fill:url(#未命名的渐变_76-70);}.cls-80{fill:url(#未命名的渐变_76-71);}.cls-81{fill:url(#未命名的渐变_76-72);}.cls-82{fill:url(#未命名的渐变_76-73);}.cls-83{fill:url(#未命名的渐变_76-74);}.cls-84{fill:url(#未命名的渐变_76-75);}.cls-85{fill:url(#未命名的渐变_76-76);}.cls-86{fill:url(#未命名的渐变_76-77);}.cls-87{fill:url(#未命名的渐变_76-78);}.cls-88{fill:url(#未命名的渐变_76-79);}.cls-89{fill:url(#未命名的渐变_76-80);}.cls-90{fill:url(#未命名的渐变_76-81);}.cls-91{fill:url(#未命名的渐变_76-82);}.cls-92{fill:url(#未命名的渐变_76-83);}.cls-93{fill:url(#未命名的渐变_76-84);}.cls-94{fill:url(#未命名的渐变_76-85);}.cls-95{fill:url(#未命名的渐变_76-86);}.cls-96{fill:url(#未命名的渐变_76-87);}.cls-97{fill:url(#未命名的渐变_76-88);}.cls-98{fill:url(#未命名的渐变_76-89);}.cls-99{fill:url(#未命名的渐变_76-90);}.cls-100{fill:url(#未命名的渐变_76-91);}.cls-101{fill:url(#未命名的渐变_76-92);}.cls-102{fill:url(#未命名的渐变_76-93);}.cls-103{fill:url(#未命名的渐变_76-94);}.cls-104{fill:url(#未命名的渐变_76-95);}.cls-105{fill:url(#未命名的渐变_76-96);}.cls-106{fill:url(#未命名的渐变_76-97);}.cls-107{fill:url(#未命名的渐变_76-98);}.cls-108{fill:url(#未命名的渐变_76-99);}.cls-109{fill:url(#未命名的渐变_76-100);}.cls-110{fill:url(#未命名的渐变_76-101);}.cls-111{fill:url(#未命名的渐变_76-102);}.cls-112{fill:url(#未命名的渐变_76-103);}.cls-113{fill:url(#未命名的渐变_76-104);}.cls-114{fill:url(#未命名的渐变_51-3);}.cls-115{fill:url(#未命名的渐变_51-4);}.cls-116{fill:url(#未命名的渐变_50-2);}.cls-117{fill:#00686c;}.cls-118{fill:url(#未命名的渐变_76-105);}.cls-119{fill:url(#未命名的渐变_76-106);}.cls-120{fill:url(#未命名的渐变_76-107);}.cls-121{fill:url(#未命名的渐变_76-108);}.cls-122{fill:url(#未命名的渐变_76-109);}.cls-123{fill:url(#未命名的渐变_76-110);}.cls-124{fill:url(#未命名的渐变_76-111);}.cls-125{fill:url(#未命名的渐变_76-112);}.cls-126{fill:url(#未命名的渐变_76-113);}.cls-127{fill:url(#未命名的渐变_76-114);}.cls-128{fill:url(#未命名的渐变_76-115);}.cls-129{fill:url(#未命名的渐变_76-116);}.cls-130{fill:url(#未命名的渐变_76-117);}.cls-131{fill:url(#未命名的渐变_76-118);}.cls-132{fill:url(#未命名的渐变_76-119);}.cls-133{fill:url(#未命名的渐变_76-120);}.cls-134{fill:url(#未命名的渐变_76-121);}.cls-135{fill:url(#未命名的渐变_76-122);}.cls-136{fill:url(#未命名的渐变_76-123);}.cls-137{fill:url(#未命名的渐变_76-124);}.cls-138{fill:url(#未命名的渐变_76-125);}.cls-139{fill:url(#未命名的渐变_76-126);}.cls-140{fill:url(#未命名的渐变_76-127);}.cls-141{fill:url(#未命名的渐变_76-128);}.cls-142{fill:url(#未命名的渐变_76-129);}</style><linearGradient id="未命名的渐变_51" x1="98.77" y1="133.33" x2="158.54" y2="133.33" gradientUnits="userSpaceOnUse"><stop offset="0" stop-color="#29abe2"/><stop offset="0.36" stop-color="#1297ce"/><stop offset="0.7" stop-color="#058bc2"/><stop offset="1" stop-color="#0087be"/></linearGradient><linearGradient id="未命名的渐变_51-2" x1="38.77" y1="133.33" x2="98.94" y2="133.33" xlink:href="#未命名的渐变_51"/><linearGradient id="未命名的渐变_50" x1="38.94" y1="103.87" x2="158.54" y2="103.87" gradientUnits="userSpaceOnUse"><stop offset="0" stop-color="#03e5e1"/><stop offset="0.01" stop-color="#03e4e1"/><stop offset="0.37" stop-color="#04cddd"/><stop offset="0.7" stop-color="#04c0db"/><stop offset="1" stop-color="#04bbda"/></linearGradient><radialGradient id="未命名的渐变_76" cx="147.36" cy="85.29" r="15.66" gradientUnits="userSpaceOnUse"><stop offset="0" stop-color="aqua"/><stop offset="0.26" stop-color="#02fcfe"/><stop offset="0.47" stop-color="#06f2fb"/><stop offset="0.65" stop-color="#0ee2f5"/><stop offset="0.83" stop-color="#1acaed"/><stop offset="0.99" stop-color="#28ade3"/><stop offset="1" stop-color="#29abe2"/></radialGradient><radialGradient id="未命名的渐变_76-2" cx="142.64" cy="82.81" r="1.63" xlink:href="#未命名的渐变_76"/><radialGradient id="未命名的渐变_76-3" cx="145.48" cy="79.97" r="1.63" xlink:href="#未命名的渐变_76"/><radialGradient id="未命名的渐变_76-4" cx="146.83" cy="84.98" r="1.63" xlink:href="#未命名的渐变_76"/><radialGradient id="未命名的渐变_76-5" cx="149" cy="79.83" r="1.63" xlink:href="#未命名的渐变_76"/><radialGradient id="未命名的渐变_76-6" cx="149.68" cy="88.36" r="1.63" xlink:href="#未命名的渐变_76"/><radialGradient id="未命名的渐变_76-7" cx="151.03" cy="84.71" r="1.63" xlink:href="#未命名的渐变_76"/><radialGradient id="未命名的渐变_76-8" cx="151.98" cy="77.94" r="1.63" xlink:href="#未命名的渐变_76"/><radialGradient id="未命名的渐变_76-9" cx="144.53" cy="88.77" r="1.63" xlink:href="#未命名的渐变_76"/><radialGradient id="未命名的渐变_76-10" cx="-4504.9" cy="3694.34" r="0.2" gradientTransform="matrix(-0.79, -0.61, 0.61, -0.79, -5680.88, 220.82)" xlink:href="#未命名的渐变_76"/><radialGradient id="未命名的渐变_76-11" cx="-4508.59" cy="3690.7" r="0.2" gradientTransform="matrix(-0.79, -0.61, 0.61, -0.79, -5680.88, 220.82)" xlink:href="#未命名的渐变_76"/><radialGradient id="未命名的渐变_76-12" cx="-4508.17" cy="3695.86" r="0.2" gradientTransform="matrix(-0.79, -0.61, 0.61, -0.79, -5680.88, 220.82)" xlink:href="#未命名的渐变_76"/><radialGradient id="未命名的渐变_76-13" cx="-4511.12" cy="3693.18" r="0.2" gradientTransform="matrix(-0.79, -0.61, 0.61, -0.79, -5680.88, 220.82)" xlink:href="#未命名的渐变_76"/><radialGradient id="未命名的渐变_76-14" cx="-4180.22" cy="3882.27" r="0.2" gradientTransform="translate(-5550.69 -133.21) rotate(-135)" xlink:href="#未命名的渐变_76"/><radialGradient id="未命名的渐变_76-15" cx="-4183.28" cy="3880.55" r="0.2" gradientTransform="translate(-5550.69 -133.21) rotate(-135)" xlink:href="#未命名的渐变_76"/><radialGradient id="未命名的渐变_76-16" cx="-4186.15" cy="3880.36" r="0.2" gradientTransform="translate(-5550.69 -133.21) rotate(-135)" xlink:href="#未命名的渐变_76"/><radialGradient id="未命名的渐变_76-17" cx="-4184.71" cy="3876.44" r="0.2" gradientTransform="translate(-5550.69 -133.21) rotate(-135)" xlink:href="#未命名的渐变_76"/><radialGradient id="未命名的渐变_76-18" cx="-4185.77" cy="3873.09" r="0.2" gradientTransform="translate(-5550.69 -133.21) rotate(-135)" xlink:href="#未命名的渐变_76"/><radialGradient id="未命名的渐变_76-19" cx="-467.47" cy="3051.02" r="0.2" gradientTransform="translate(-2263.73 -1845.44) rotate(-60)" xlink:href="#未命名的渐变_76"/><radialGradient id="未命名的渐变_76-20" cx="-472.52" cy="3050.66" r="0.2" gradientTransform="translate(-2263.73 -1845.44) rotate(-60)" xlink:href="#未命名的渐变_76"/><radialGradient id="未命名的渐变_76-21" cx="157.07" cy="1774.66" r="0.2" gradientTransform="translate(-969.61 -1298.62) rotate(-33.69)" xlink:href="#未命名的渐变_76"/><radialGradient id="未命名的渐变_76-22" cx="-213.46" cy="2702.49" r="0.2" gradientTransform="matrix(0.61, -0.79, 0.79, 0.61, -1852.1, -1736.95)" xlink:href="#未命名的渐变_76"/><radialGradient id="未命名的渐变_76-23" cx="-211.21" cy="2705.37" r="0.2" gradientTransform="matrix(0.61, -0.79, 0.79, 0.61, -1852.1, -1736.95)" xlink:href="#未命名的渐变_76"/><radialGradient id="未命名的渐变_76-24" cx="-209.39" cy="2703.09" r="0.2" gradientTransform="matrix(0.61, -0.79, 0.79, 0.61, -1852.1, -1736.95)" xlink:href="#未命名的渐变_76"/><radialGradient id="未命名的渐变_76-25" cx="-206.98" cy="2703.1" r="0.2" gradientTransform="matrix(0.61, -0.79, 0.79, 0.61, -1852.1, -1736.95)" xlink:href="#未命名的渐变_76"/><radialGradient id="未命名的渐变_76-26" cx="34.78" cy="-194.26" r="0.2" gradientTransform="translate(96.57 276.38) rotate(2.86)" xlink:href="#未命名的渐变_76"/><radialGradient id="未命名的渐变_76-27" cx="98.97" cy="58.55" r="15.66" xlink:href="#未命名的渐变_76"/><radialGradient id="未命名的渐变_76-28" cx="94.25" cy="56.07" r="1.63" xlink:href="#未命名的渐变_76"/><radialGradient id="未命名的渐变_76-29" cx="97.09" cy="53.23" r="1.63" xlink:href="#未命名的渐变_76"/><radialGradient id="未命名的渐变_76-30" cx="98.45" cy="58.24" r="1.63" xlink:href="#未命名的渐变_76"/><radialGradient id="未命名的渐变_76-31" cx="100.61" cy="53.09" r="1.63" xlink:href="#未命名的渐变_76"/><radialGradient id="未命名的渐变_76-32" cx="101.29" cy="61.62" r="1.63" xlink:href="#未命名的渐变_76"/><radialGradient id="未命名的渐变_76-33" cx="102.64" cy="57.97" r="1.63" xlink:href="#未命名的渐变_76"/><radialGradient id="未命名的渐变_76-34" cx="103.59" cy="51.2" r="1.63" xlink:href="#未命名的渐变_76"/><radialGradient id="未命名的渐变_76-35" cx="96.15" cy="62.03" r="1.63" xlink:href="#未命名的渐变_76"/><radialGradient id="未命名的渐变_76-36" cx="-4450.29" cy="3685.69" r="0.2" gradientTransform="matrix(-0.79, -0.61, 0.61, -0.79, -5680.88, 220.82)" xlink:href="#未命名的渐变_76"/><radialGradient id="未命名的渐变_76-37" cx="-4453.99" cy="3682.05" r="0.2" gradientTransform="matrix(-0.79, -0.61, 0.61, -0.79, -5680.88, 220.82)" xlink:href="#未命名的渐变_76"/><radialGradient id="未命名的渐变_76-38" cx="-4453.57" cy="3687.21" r="0.2" gradientTransform="matrix(-0.79, -0.61, 0.61, -0.79, -5680.88, 220.82)" xlink:href="#未命名的渐变_76"/><radialGradient id="未命名的渐变_76-39" cx="-4456.52" cy="3684.53" r="0.2" gradientTransform="matrix(-0.79, -0.61, 0.61, -0.79, -5680.88, 220.82)" xlink:href="#未命名的渐变_76"/><radialGradient id="未命名的渐变_76-40" cx="-4127.09" cy="3866.97" r="0.2" gradientTransform="translate(-5550.69 -133.21) rotate(-135)" xlink:href="#未命名的渐变_76"/><radialGradient id="未命名的渐变_76-41" cx="-4130.16" cy="3865.24" r="0.2" gradientTransform="translate(-5550.69 -133.21) rotate(-135)" xlink:href="#未命名的渐变_76"/><radialGradient id="未命名的渐变_76-42" cx="-4133.03" cy="3865.05" r="0.2" gradientTransform="translate(-5550.69 -133.21) rotate(-135)" xlink:href="#未命名的渐变_76"/><radialGradient id="未命名的渐变_76-43" cx="-4131.59" cy="3861.13" r="0.2" gradientTransform="translate(-5550.69 -133.21) rotate(-135)" xlink:href="#未命名的渐变_76"/><radialGradient id="未命名的渐变_76-44" cx="-4132.65" cy="3857.78" r="0.2" gradientTransform="translate(-5550.69 -133.21) rotate(-135)" xlink:href="#未命名的渐变_76"/><radialGradient id="未命名的渐变_76-45" cx="-468.5" cy="2995.75" r="0.2" gradientTransform="translate(-2263.73 -1845.44) rotate(-60)" xlink:href="#未命名的渐变_76"/><radialGradient id="未命名的渐变_76-46" cx="-473.56" cy="2995.39" r="0.2" gradientTransform="translate(-2263.73 -1845.44) rotate(-60)" xlink:href="#未命名的渐变_76"/><radialGradient id="未命名的渐变_76-47" cx="131.64" cy="1725.57" r="0.2" gradientTransform="translate(-969.61 -1298.62) rotate(-33.69)" xlink:href="#未命名的渐变_76"/><radialGradient id="未命名的渐变_76-48" cx="-222.11" cy="2647.89" r="0.2" gradientTransform="matrix(0.61, -0.79, 0.79, 0.61, -1852.1, -1736.95)" xlink:href="#未命名的渐变_76"/><radialGradient id="未命名的渐变_76-49" cx="-219.86" cy="2650.77" r="0.2" gradientTransform="matrix(0.61, -0.79, 0.79, 0.61, -1852.1, -1736.95)" xlink:href="#未命名的渐变_76"/><radialGradient id="未命名的渐变_76-50" cx="-218.04" cy="2648.49" r="0.2" gradientTransform="matrix(0.61, -0.79, 0.79, 0.61, -1852.1, -1736.95)" xlink:href="#未命名的渐变_76"/><radialGradient id="未命名的渐变_76-51" cx="-215.63" cy="2648.5" r="0.2" gradientTransform="matrix(0.61, -0.79, 0.79, 0.61, -1852.1, -1736.95)" xlink:href="#未命名的渐变_76"/><radialGradient id="未命名的渐变_76-52" cx="-14.88" cy="-218.55" r="0.2" gradientTransform="translate(96.57 276.38) rotate(2.86)" xlink:href="#未命名的渐变_76"/><radialGradient id="未命名的渐变_76-53" cx="98.97" cy="112.66" r="15.66" xlink:href="#未命名的渐变_76"/><radialGradient id="未命名的渐变_76-54" cx="94.25" cy="110.19" r="1.63" xlink:href="#未命名的渐变_76"/><radialGradient id="未命名的渐变_76-55" cx="97.09" cy="107.35" r="1.63" xlink:href="#未命名的渐变_76"/><radialGradient id="未命名的渐变_76-56" cx="98.45" cy="112.35" r="1.63" xlink:href="#未命名的渐变_76"/><radialGradient id="未命名的渐变_76-57" cx="100.61" cy="107.21" r="1.63" xlink:href="#未命名的渐变_76"/><radialGradient id="未命名的渐变_76-58" cx="101.29" cy="115.74" r="1.63" xlink:href="#未命名的渐变_76"/><radialGradient id="未命名的渐变_76-59" cx="102.64" cy="112.08" r="1.63" xlink:href="#未命名的渐变_76"/><radialGradient id="未命名的渐变_76-60" cx="103.59" cy="105.32" r="1.63" xlink:href="#未命名的渐变_76"/><radialGradient id="未命名的渐变_76-61" cx="96.15" cy="116.14" r="1.63" xlink:href="#未命名的渐变_76"/><radialGradient id="未命名的渐变_76-62" cx="-4483.56" cy="3643" r="0.2" gradientTransform="matrix(-0.79, -0.61, 0.61, -0.79, -5680.88, 220.82)" xlink:href="#未命名的渐变_76"/><radialGradient id="未命名的渐变_76-63" cx="-4487.25" cy="3639.36" r="0.2" gradientTransform="matrix(-0.79, -0.61, 0.61, -0.79, -5680.88, 220.82)" xlink:href="#未命名的渐变_76"/><radialGradient id="未命名的渐变_76-64" cx="-4486.83" cy="3644.53" r="0.2" gradientTransform="matrix(-0.79, -0.61, 0.61, -0.79, -5680.88, 220.82)" xlink:href="#未命名的渐变_76"/><radialGradient id="未命名的渐变_76-65" cx="-4489.78" cy="3641.85" r="0.2" gradientTransform="matrix(-0.79, -0.61, 0.61, -0.79, -5680.88, 220.82)" xlink:href="#未命名的渐变_76"/><radialGradient id="未命名的渐变_76-66" cx="-4165.36" cy="3828.7" r="0.2" gradientTransform="translate(-5550.69 -133.21) rotate(-135)" xlink:href="#未命名的渐变_76"/><radialGradient id="未命名的渐变_76-67" cx="-4168.42" cy="3826.98" r="0.2" gradientTransform="translate(-5550.69 -133.21) rotate(-135)" xlink:href="#未命名的渐变_76"/><radialGradient id="未命名的渐变_76-68" cx="-4171.29" cy="3826.79" r="0.2" gradientTransform="translate(-5550.69 -133.21) rotate(-135)" xlink:href="#未命名的渐变_76"/><radialGradient id="未命名的渐变_76-69" cx="-4169.86" cy="3822.86" r="0.2" gradientTransform="translate(-5550.69 -133.21) rotate(-135)" xlink:href="#未命名的渐变_76"/><radialGradient id="未命名的渐变_76-70" cx="-4170.91" cy="3819.51" r="0.2" gradientTransform="translate(-5550.69 -133.21) rotate(-135)" xlink:href="#未命名的渐变_76"/><radialGradient id="未命名的渐变_76-71" cx="-515.37" cy="3022.81" r="0.2" gradientTransform="translate(-2263.73 -1845.44) rotate(-60)" xlink:href="#未命名的渐变_76"/><radialGradient id="未命名的渐变_76-72" cx="-520.42" cy="3022.44" r="0.2" gradientTransform="translate(-2263.73 -1845.44) rotate(-60)" xlink:href="#未命名的渐变_76"/><radialGradient id="未命名的渐变_76-73" cx="101.62" cy="1770.6" r="0.2" gradientTransform="translate(-969.61 -1298.62) rotate(-33.69)" xlink:href="#未命名的渐变_76"/><radialGradient id="未命名的渐变_76-74" cx="-264.8" cy="2681.15" r="0.2" gradientTransform="matrix(0.61, -0.79, 0.79, 0.61, -1852.1, -1736.95)" xlink:href="#未命名的渐变_76"/><radialGradient id="未命名的渐变_76-75" cx="-262.55" cy="2684.03" r="0.2" gradientTransform="matrix(0.61, -0.79, 0.79, 0.61, -1852.1, -1736.95)" xlink:href="#未命名的渐变_76"/><radialGradient id="未命名的渐变_76-76" cx="-260.72" cy="2681.75" r="0.2" gradientTransform="matrix(0.61, -0.79, 0.79, 0.61, -1852.1, -1736.95)" xlink:href="#未命名的渐变_76"/><radialGradient id="未命名的渐变_76-77" cx="-258.31" cy="2681.76" r="0.2" gradientTransform="matrix(0.61, -0.79, 0.79, 0.61, -1852.1, -1736.95)" xlink:href="#未命名的渐变_76"/><radialGradient id="未命名的渐变_76-78" cx="-12.17" cy="-164.5" r="0.2" gradientTransform="translate(96.57 276.38) rotate(2.86)" xlink:href="#未命名的渐变_76"/><radialGradient id="未命名的渐变_76-79" cx="50.46" cy="86.85" r="15.66" xlink:href="#未命名的渐变_76"/><radialGradient id="未命名的渐变_76-80" cx="45.74" cy="84.38" r="1.63" xlink:href="#未命名的渐变_76"/><radialGradient id="未命名的渐变_76-81" cx="48.58" cy="81.54" r="1.63" xlink:href="#未命名的渐变_76"/><radialGradient id="未命名的渐变_76-82" cx="49.93" cy="86.55" r="1.63" xlink:href="#未命名的渐变_76"/><radialGradient id="未命名的渐变_76-83" cx="52.1" cy="81.4" r="1.63" xlink:href="#未命名的渐变_76"/><radialGradient id="未命名的渐变_76-84" cx="52.77" cy="89.93" r="1.63" xlink:href="#未命名的渐变_76"/><radialGradient id="未命名的渐变_76-85" cx="54.13" cy="86.28" r="1.63" xlink:href="#未命名的渐变_76"/><radialGradient id="未命名的渐变_76-86" cx="55.07" cy="79.51" r="1.63" xlink:href="#未命名的渐变_76"/><radialGradient id="未命名的渐变_76-87" cx="47.63" cy="90.34" r="1.63" xlink:href="#未命名的渐变_76"/><radialGradient id="未命名的渐变_76-88" cx="-4429.43" cy="3633.54" r="0.2" gradientTransform="matrix(-0.79, -0.61, 0.61, -0.79, -5680.88, 220.82)" xlink:href="#未命名的渐变_76"/><radialGradient id="未命名的渐变_76-89" cx="-4433.12" cy="3629.9" r="0.2" gradientTransform="matrix(-0.79, -0.61, 0.61, -0.79, -5680.88, 220.82)" xlink:href="#未命名的渐变_76"/><radialGradient id="未命名的渐变_76-90" cx="-4432.7" cy="3635.06" r="0.2" gradientTransform="matrix(-0.79, -0.61, 0.61, -0.79, -5680.88, 220.82)" xlink:href="#未命名的渐变_76"/><radialGradient id="未命名的渐变_76-91" cx="-4435.65" cy="3632.38" r="0.2" gradientTransform="matrix(-0.79, -0.61, 0.61, -0.79, -5680.88, 220.82)" xlink:href="#未命名的渐变_76"/><radialGradient id="未命名的渐变_76-92" cx="-4112.81" cy="3812.64" r="0.2" gradientTransform="translate(-5550.69 -133.21) rotate(-135)" xlink:href="#未命名的渐变_76"/><radialGradient id="未命名的渐变_76-93" cx="-4115.87" cy="3810.92" r="0.2" gradientTransform="translate(-5550.69 -133.21) rotate(-135)" xlink:href="#未命名的渐变_76"/><radialGradient id="未命名的渐变_76-94" cx="-4118.74" cy="3810.73" r="0.2" gradientTransform="translate(-5550.69 -133.21) rotate(-135)" xlink:href="#未命名的渐变_76"/><radialGradient id="未命名的渐变_76-95" cx="-4117.3" cy="3806.81" r="0.2" gradientTransform="translate(-5550.69 -133.21) rotate(-135)" xlink:href="#未命名的渐变_76"/><radialGradient id="未命名的渐变_76-96" cx="-4118.36" cy="3803.46" r="0.2" gradientTransform="translate(-5550.69 -133.21) rotate(-135)" xlink:href="#未命名的渐变_76"/><radialGradient id="未命名的渐变_76-97" cx="-517.27" cy="2967.89" r="0.2" gradientTransform="translate(-2263.73 -1845.44) rotate(-60)" xlink:href="#未命名的渐变_76"/><radialGradient id="未命名的渐变_76-98" cx="-522.33" cy="2967.52" r="0.2" gradientTransform="translate(-2263.73 -1845.44) rotate(-60)" xlink:href="#未命名的渐变_76"/><radialGradient id="未命名的渐变_76-99" cx="75.57" cy="1722.22" r="0.2" gradientTransform="translate(-969.61 -1298.62) rotate(-33.69)" xlink:href="#未命名的渐变_76"/><radialGradient id="未命名的渐变_76-100" cx="-274.26" cy="2627.02" r="0.2" gradientTransform="matrix(0.61, -0.79, 0.79, 0.61, -1852.1, -1736.95)" xlink:href="#未命名的渐变_76"/><radialGradient id="未命名的渐变_76-101" cx="-272.02" cy="2629.9" r="0.2" gradientTransform="matrix(0.61, -0.79, 0.79, 0.61, -1852.1, -1736.95)" xlink:href="#未命名的渐变_76"/><radialGradient id="未命名的渐变_76-102" cx="-270.19" cy="2627.62" r="0.2" gradientTransform="matrix(0.61, -0.79, 0.79, 0.61, -1852.1, -1736.95)" xlink:href="#未命名的渐变_76"/><radialGradient id="未命名的渐变_76-103" cx="-267.78" cy="2627.63" r="0.2" gradientTransform="matrix(0.61, -0.79, 0.79, 0.61, -1852.1, -1736.95)" xlink:href="#未命名的渐变_76"/><radialGradient id="未命名的渐变_76-104" cx="-61.92" cy="-187.86" r="0.2" gradientTransform="translate(96.57 276.38) rotate(2.86)" xlink:href="#未命名的渐变_76"/><linearGradient id="未命名的渐变_51-3" x1="99.4" y1="85.58" x2="159.18" y2="85.58" xlink:href="#未命名的渐变_51"/><linearGradient id="未命名的渐变_51-4" x1="39.41" y1="85.58" x2="99.57" y2="85.58" xlink:href="#未命名的渐变_51"/><linearGradient id="未命名的渐变_50-2" x1="39.58" y1="56.12" x2="159.18" y2="56.12" xlink:href="#未命名的渐变_50"/><radialGradient id="未命名的渐变_76-105" cx="89.87" cy="46.9" r="3.25" xlink:href="#未命名的渐变_76"/><radialGradient id="未命名的渐变_76-106" cx="95.54" cy="41.23" r="3.25" xlink:href="#未命名的渐变_76"/><radialGradient id="未命名的渐变_76-107" cx="98.24" cy="51.23" r="3.25" xlink:href="#未命名的渐变_76"/><radialGradient id="未命名的渐变_76-108" cx="102.56" cy="40.96" r="3.25" xlink:href="#未命名的渐变_76"/><radialGradient id="未命名的渐变_76-109" cx="103.91" cy="57.98" r="3.25" xlink:href="#未命名的渐变_76"/><radialGradient id="未命名的渐变_76-110" cx="106.62" cy="50.69" r="3.25" xlink:href="#未命名的渐变_76"/><radialGradient id="未命名的渐变_76-111" cx="108.51" cy="37.18" r="3.25" xlink:href="#未命名的渐变_76"/><radialGradient id="未命名的渐变_76-112" cx="93.65" cy="58.79" r="3.25" xlink:href="#未命名的渐变_76"/><radialGradient id="未命名的渐变_76-113" cx="-4437.55" cy="3696.01" r="0.41" gradientTransform="matrix(-0.79, -0.61, 0.61, -0.79, -5680.88, 220.82)" xlink:href="#未命名的渐变_76"/><radialGradient id="未命名的渐变_76-114" cx="-4444.93" cy="3688.74" r="0.41" gradientTransform="matrix(-0.79, -0.61, 0.61, -0.79, -5680.88, 220.82)" xlink:href="#未命名的渐变_76"/><radialGradient id="未命名的渐变_76-115" cx="-4444.09" cy="3699.05" r="0.41" gradientTransform="matrix(-0.79, -0.61, 0.61, -0.79, -5680.88, 220.82)" xlink:href="#未命名的渐变_76"/><radialGradient id="未命名的渐变_76-116" cx="-4449.97" cy="3693.7" r="0.41" gradientTransform="matrix(-0.79, -0.61, 0.61, -0.79, -5680.88, 220.82)" xlink:href="#未命名的渐变_76"/><radialGradient id="未命名的渐变_76-117" cx="-4119.18" cy="3879.55" r="0.41" gradientTransform="translate(-5550.69 -133.21) rotate(-135)" xlink:href="#未命名的渐变_76"/><radialGradient id="未命名的渐变_76-118" cx="-4125.29" cy="3876.11" r="0.41" gradientTransform="translate(-5550.69 -133.21) rotate(-135)" xlink:href="#未命名的渐变_76"/><radialGradient id="未命名的渐变_76-119" cx="-4131.02" cy="3875.73" r="0.41" gradientTransform="translate(-5550.69 -133.21) rotate(-135)" xlink:href="#未命名的渐变_76"/><radialGradient id="未命名的渐变_76-120" cx="-4128.16" cy="3867.9" r="0.41" gradientTransform="translate(-5550.69 -133.21) rotate(-135)" xlink:href="#未命名的渐变_76"/><radialGradient id="未命名的渐变_76-121" cx="-4130.26" cy="3861.21" r="0.41" gradientTransform="translate(-5550.69 -133.21) rotate(-135)" xlink:href="#未命名的渐变_76"/><radialGradient id="未命名的渐变_76-122" cx="-463.48" cy="2990.28" r="0.41" gradientTransform="translate(-2263.73 -1845.44) rotate(-60)" xlink:href="#未命名的渐变_76"/><radialGradient id="未命名的渐变_76-123" cx="-473.57" cy="2989.56" r="0.41" gradientTransform="translate(-2263.73 -1845.44) rotate(-60)" xlink:href="#未命名的渐变_76"/><radialGradient id="未命名的渐变_76-124" cx="130.99" cy="1723.75" r="0.41" gradientTransform="translate(-969.61 -1298.62) rotate(-33.69)" xlink:href="#未命名的渐变_76"/><radialGradient id="未命名的渐变_76-125" cx="-221.8" cy="2649.26" r="0.41" gradientTransform="matrix(0.61, -0.79, 0.79, 0.61, -1852.1, -1736.95)" xlink:href="#未命名的渐变_76"/><radialGradient id="未命名的渐变_76-126" cx="-217.32" cy="2655.02" r="0.41" gradientTransform="matrix(0.61, -0.79, 0.79, 0.61, -1852.1, -1736.95)" xlink:href="#未命名的渐变_76"/><radialGradient id="未命名的渐变_76-127" cx="-213.67" cy="2650.46" r="0.41" gradientTransform="matrix(0.61, -0.79, 0.79, 0.61, -1852.1, -1736.95)" xlink:href="#未命名的渐变_76"/><radialGradient id="未命名的渐变_76-128" cx="-208.86" cy="2650.48" r="0.41" gradientTransform="matrix(0.61, -0.79, 0.79, 0.61, -1852.1, -1736.95)" xlink:href="#未命名的渐变_76"/><radialGradient id="未命名的渐变_76-129" cx="-21.26" cy="-226.13" r="0.41" gradientTransform="translate(96.57 276.38) rotate(2.86)" xlink:href="#未命名的渐变_76"/></defs><title>Folderlocal-view-nodes-a</title><polygon class="cls-1" points="187.8 130.75 165.04 181.48 74.28 195.56 10.15 158.85 10.15 141.57 187.8 113.47 187.8 130.75"/><polygon class="cls-2" points="187.8 130.75 165.04 181.48 165.04 164.2 187.8 113.47 187.8 130.75"/><polygon class="cls-3" points="187.8 113.47 165.04 164.2 74.28 178.28 10.15 141.57 33.79 90.53 124.89 77.2 187.8 113.47"/><polygon class="cls-4" points="165.04 164.2 165.04 181.48 74.28 195.56 74.28 178.28 165.04 164.2"/><polygon class="cls-5" points="158.54 103.87 158.37 128.15 98.77 162.78 98.94 138.51 158.54 103.87"/><polygon class="cls-6" points="98.94 138.51 98.77 162.78 38.77 128.15 38.94 103.87 98.94 138.51"/><polygon class="cls-7" points="158.54 103.87 98.94 138.51 38.94 103.87 98.55 69.23 158.54 103.87"/><polygon class="cls-8" points="42.82 115.52 39.83 113.79 39.83 110.8 42.82 112.53 42.82 115.52"/><polygon class="cls-8" points="48.06 118.55 45.07 116.82 45.07 113.83 48.06 115.55 48.06 118.55"/><polygon class="cls-8" points="53.3 121.57 50.31 119.84 50.31 116.85 53.3 118.58 53.3 121.57"/><polygon class="cls-8" points="85.49 140.16 55.55 122.87 55.55 119.88 85.49 137.16 85.49 140.16"/><polygon class="cls-8" points="90.48 143.04 87.48 141.31 87.48 138.31 90.48 140.04 90.48 143.04"/><polygon class="cls-8" points="95.72 146.06 92.72 144.33 92.72 141.34 95.72 143.07 95.72 146.06"/><polygon class="cls-8" points="42.82 120.26 39.83 118.53 39.83 115.54 42.82 117.27 42.82 120.26"/><polygon class="cls-8" points="48.06 123.29 45.07 121.56 45.07 118.57 48.06 120.29 48.06 123.29"/><polygon class="cls-8" points="53.3 126.31 50.31 124.58 50.31 121.59 53.3 123.32 53.3 126.31"/><polygon class="cls-8" points="85.49 144.9 55.55 127.61 55.55 124.62 85.49 141.9 85.49 144.9"/><polygon class="cls-8" points="90.48 147.78 87.48 146.05 87.48 143.06 90.48 144.78 90.48 147.78"/><polygon class="cls-8" points="95.72 150.8 92.72 149.07 92.72 146.08 95.72 147.81 95.72 150.8"/><polygon class="cls-8" points="42.82 125 39.83 123.28 39.83 120.28 42.82 122.01 42.82 125"/><polygon class="cls-8" points="48.06 128.03 45.07 126.3 45.07 123.31 48.06 125.03 48.06 128.03"/><polygon class="cls-8" points="53.3 131.05 50.31 129.32 50.31 126.33 53.3 128.06 53.3 131.05"/><polygon class="cls-8" points="85.49 149.64 55.55 132.35 55.55 129.36 85.49 146.64 85.49 149.64"/><polygon class="cls-8" points="90.48 152.52 87.48 150.79 87.48 147.79 90.48 149.52 90.48 152.52"/><polygon class="cls-8" points="95.72 155.54 92.72 153.81 92.72 150.82 95.72 152.55 95.72 155.54"/><polygon class="cls-8" points="153.76 115.52 156.75 113.79 156.75 110.8 153.76 112.53 153.76 115.52"/><polygon class="cls-8" points="148.52 118.55 151.51 116.82 151.51 113.83 148.52 115.55 148.52 118.55"/><polygon class="cls-8" points="143.28 121.57 146.27 119.84 146.27 116.85 143.28 118.58 143.28 121.57"/><polygon class="cls-8" points="111.09 140.16 141.03 122.87 141.03 119.88 111.09 137.16 111.09 140.16"/><polygon class="cls-8" points="106.1 143.04 109.1 141.31 109.1 138.31 106.1 140.04 106.1 143.04"/><polygon class="cls-8" points="100.86 146.06 103.86 144.33 103.86 141.34 100.86 143.07 100.86 146.06"/><polygon class="cls-8" points="153.76 120.26 156.75 118.53 156.75 115.54 153.76 117.27 153.76 120.26"/><polygon class="cls-8" points="148.52 123.29 151.51 121.56 151.51 118.57 148.52 120.29 148.52 123.29"/><polygon class="cls-8" points="143.28 126.31 146.27 124.58 146.27 121.59 143.28 123.32 143.28 126.31"/><polygon class="cls-8" points="111.09 144.9 141.03 127.61 141.03 124.62 111.09 141.9 111.09 144.9"/><polygon class="cls-8" points="106.1 147.78 109.1 146.05 109.1 143.06 106.1 144.78 106.1 147.78"/><polygon class="cls-8" points="100.86 150.8 103.86 149.07 103.86 146.08 100.86 147.81 100.86 150.8"/><polygon class="cls-8" points="153.76 125 156.75 123.28 156.75 120.28 153.76 122.01 153.76 125"/><polygon class="cls-8" points="148.52 128.03 151.51 126.3 151.51 123.31 148.52 125.03 148.52 128.03"/><polygon class="cls-8" points="143.28 131.05 146.27 129.32 146.27 126.33 143.28 128.06 143.28 131.05"/><polygon class="cls-8" points="111.09 149.64 141.03 132.35 141.03 129.36 111.09 146.64 111.09 149.64"/><polygon class="cls-8" points="106.1 152.52 109.1 150.79 109.1 147.79 106.1 149.52 106.1 152.52"/><polygon class="cls-8" points="100.86 155.54 103.86 153.81 103.86 150.82 100.86 152.55 100.86 155.54"/><ellipse class="cls-9" cx="147.42" cy="102.98" rx="3.5" ry="6.04" transform="translate(44.03 250.1) rotate(-89.84)"/><path class="cls-10" d="M153.46,64.13s0,.06,0,.09a.19.19,0,0,1,0,.08s0,.06,0,.09,0,.06,0,.08,0,.06,0,.09a.24.24,0,0,0,0,.08l0,.09,0,.08a.36.36,0,0,0,0,.09.25.25,0,0,1,0,.07l0,.09a.3.3,0,0,0,0,.08.61.61,0,0,0-.07.1.43.43,0,0,1,0,.07l-.09.12,0,0-.15.18,0,0-.13.13-.07.06-.09.08-.08.07-.1.07a.31.31,0,0,1-.09.07l-.1.07-.09.07a.41.41,0,0,0-.11.07l-.14.08c-.13.08-.27.15-.41.22l-.11,0-.39.16-.05,0-.44.14a2.8,2.8,0,0,1-.31.09l-.23.07-.34.07-.24,0h-.1a3,3,0,0,1-.42.06l-.13,0-.24,0-.41,0h-.26c-.11,0-.22,0-.33,0H147l-.3,0-.28,0-.3,0-.27,0-.32-.06-.25,0-.38-.09-.24-.07-.13,0-.36-.12-.11,0-.32-.14-.16-.07a3.68,3.68,0,0,1-.44-.23A3,3,0,0,1,141.38,64l-.13,39.08a3,3,0,0,0,1.79,2.49l.44.23.16.07.27.12H144l.1,0,.37.13.13,0,.08,0,.16,0c.12,0,.24.07.37.09l.1,0,.15,0,.32.06.13,0,.14,0,.3,0,.15,0h1.31l.41,0h.36l.42-.06.1,0h.05l.2-.05.33-.07.24-.06.31-.09.07,0,.36-.13.06,0,.38-.17.11,0,.41-.21.08,0,.06,0a.41.41,0,0,0,.11-.07l.1-.06.1-.07.09-.07.09-.08.09-.07.09-.07,0,0,0,0,.14-.14,0,0,.16-.19h0l0,0,.08-.12a.21.21,0,0,0,0-.06l.07-.11,0,0s0,0,0,0l.05-.09,0-.08a.36.36,0,0,0,0-.09.08.08,0,0,0,0,0s0,0,0,0l0-.08a.31.31,0,0,0,0-.08l0-.09a.09.09,0,0,1,0,0v0s0-.06,0-.09a.19.19,0,0,1,0-.08v-.09s0,0,0-.06v-.05L153.46,64Z"/><ellipse class="cls-9" cx="147.42" cy="64.01" rx="3.5" ry="6.04" transform="translate(82.99 211.24) rotate(-89.84)"/><rect class="cls-11" x="142.57" y="80.51" width="0.14" height="4.6" rx="0.03"/><rect class="cls-12" x="145.41" y="77.67" width="0.14" height="4.6" rx="0.03"/><rect class="cls-13" x="146.77" y="82.68" width="0.14" height="4.6" rx="0.03"/><rect class="cls-14" x="148.93" y="77.53" width="0.14" height="4.6" rx="0.03"/><rect class="cls-15" x="149.61" y="86.06" width="0.14" height="4.6" rx="0.03"/><rect class="cls-16" x="150.96" y="82.41" width="0.14" height="4.6" rx="0.03"/><rect class="cls-17" x="151.91" y="75.64" width="0.14" height="4.6" rx="0.03"/><rect class="cls-18" x="144.46" y="86.47" width="0.14" height="4.6" rx="0.03"/><circle class="cls-19" cx="143.31" cy="75.98" r="0.2"/><circle class="cls-20" cx="143.99" cy="81.12" r="0.2"/><circle class="cls-21" cx="146.83" cy="76.79" r="0.2"/><circle class="cls-22" cx="147.51" cy="80.71" r="0.2"/><circle class="cls-23" cx="150.35" cy="77.47" r="0.2"/><circle class="cls-24" cx="151.3" cy="80.85" r="0.2"/><circle class="cls-25" cx="153.19" cy="83.01" r="0.2"/><circle class="cls-26" cx="149.4" cy="84.77" r="0.2"/><circle class="cls-27" cx="147.78" cy="87.89" r="0.2"/><circle class="cls-28" cx="144.8" cy="84.91" r="0.2"/><circle class="cls-29" cx="141.96" cy="89.11" r="0.2"/><circle class="cls-30" cx="145.48" cy="90.86" r="0.2"/><circle class="cls-31" cx="148.32" cy="92.62" r="0.2"/><circle class="cls-32" cx="151.98" cy="92.62" r="0.2"/><circle class="cls-33" cx="151.3" cy="89.78" r="0.2"/><circle class="cls-34" cx="152.79" cy="87.89" r="0.2"/><circle class="cls-35" cx="141.01" cy="84.1" r="0.2"/><ellipse class="cls-9" cx="99.03" cy="76.24" rx="3.5" ry="6.04" transform="translate(22.52 175.05) rotate(-89.84)"/><path class="cls-36" d="M105.07,37.39v.09a.25.25,0,0,0,0,.08s0,.06,0,.09a.19.19,0,0,1,0,.08.29.29,0,0,1,0,.09.24.24,0,0,1,0,.08l0,.09,0,.08a.36.36,0,0,1,0,.09l0,.07,0,.09s0,0,0,.08a.61.61,0,0,1-.07.1.16.16,0,0,1,0,.07l-.08.12a.1.1,0,0,0,0,.05l-.16.18,0,0-.14.13-.07.06-.08.08-.09.07-.09.07-.09.07-.1.07-.1.07-.11.07-.14.08c-.13.08-.27.15-.41.22l-.11,0a3.52,3.52,0,0,1-.39.16l0,0-.43.14a1.81,1.81,0,0,1-.31.09l-.24.07-.33.07-.25,0h-.1l-.42.06-.12,0-.24,0-.41,0h-.26a1.93,1.93,0,0,1-.34,0h-.27l-.31,0-.28,0-.3,0-.27,0-.32-.06-.25-.05-.38-.09-.24-.07-.12,0-.37-.12-.11,0L95.37,40,95.22,40a3.81,3.81,0,0,1-.45-.23A3,3,0,0,1,93,37.25l-.12,39.08a3,3,0,0,0,1.78,2.49l.44.23.16.07.27.12h0l.11,0,.36.13.13,0,.09,0,.15,0a2.34,2.34,0,0,0,.38.09l.1,0,.15,0,.32,0,.13,0,.14,0,.3,0,.14,0h1.31a2.73,2.73,0,0,0,.41,0h.37l.42-.06.1,0h0l.19,0,.34-.07.23-.06.31-.09.07,0,.37-.13.05,0,.39-.17.11,0,.41-.21.07,0,.07,0,.11-.07.09-.06.1-.07.09-.07.1-.08.08-.06.09-.08,0,0,0,0,.13-.14,0,0,.15-.19h0l0,0,.09-.12,0-.06.07-.11v0l0,0,0-.09,0-.08,0-.09s0,0,0,0l0,0,0-.08a.19.19,0,0,1,0-.08s0-.06,0-.09,0,0,0,0v0s0-.06,0-.09a.25.25,0,0,0,0-.08s0-.06,0-.09v-.11l.13-39.07S105.07,37.36,105.07,37.39Z"/><ellipse class="cls-9" cx="99.03" cy="37.27" rx="3.5" ry="6.04" transform="translate(61.48 136.19) rotate(-89.84)"/><rect class="cls-37" x="94.18" y="53.77" width="0.14" height="4.6" rx="0.03"/><rect class="cls-38" x="97.03" y="50.93" width="0.14" height="4.6" rx="0.03"/><rect class="cls-39" x="98.38" y="55.94" width="0.14" height="4.6" rx="0.03"/><rect class="cls-40" x="100.55" y="50.79" width="0.14" height="4.6" rx="0.03"/><rect class="cls-41" x="101.22" y="59.32" width="0.14" height="4.6" rx="0.03"/><rect class="cls-42" x="102.58" y="55.67" width="0.14" height="4.6" rx="0.03"/><rect class="cls-43" x="103.52" y="48.9" width="0.14" height="4.6" rx="0.03"/><rect class="cls-44" x="96.08" y="59.73" width="0.14" height="4.6" rx="0.03"/><circle class="cls-45" cx="94.93" cy="49.24" r="0.2"/><circle class="cls-46" cx="95.6" cy="54.38" r="0.2"/><circle class="cls-47" cx="98.45" cy="50.05" r="0.2"/><circle class="cls-48" cx="99.12" cy="53.97" r="0.2"/><circle class="cls-49" cx="101.97" cy="50.73" r="0.2"/><circle class="cls-50" cx="102.91" cy="54.11" r="0.2"/><circle class="cls-51" cx="104.81" cy="56.28" r="0.2"/><circle class="cls-52" cx="101.02" cy="58.03" r="0.2"/><circle class="cls-53" cx="99.39" cy="61.15" r="0.2"/><circle class="cls-54" cx="96.42" cy="58.17" r="0.2"/><circle class="cls-55" cx="93.57" cy="62.37" r="0.2"/><circle class="cls-56" cx="97.09" cy="64.13" r="0.2"/><circle class="cls-57" cx="99.94" cy="65.88" r="0.2"/><circle class="cls-58" cx="103.59" cy="65.88" r="0.2"/><circle class="cls-59" cx="102.91" cy="63.04" r="0.2"/><circle class="cls-60" cx="104.4" cy="61.15" r="0.2"/><circle class="cls-61" cx="92.63" cy="57.36" r="0.2"/><ellipse class="cls-9" cx="99.03" cy="130.35" rx="3.5" ry="6.04" transform="translate(-31.6 229.01) rotate(-89.84)"/><path class="cls-62" d="M105.07,91.51v.09a.22.22,0,0,0,0,.08s0,.06,0,.09a.24.24,0,0,1,0,.08.29.29,0,0,1,0,.09.31.31,0,0,1,0,.08l0,.08,0,.08a.36.36,0,0,1,0,.09l0,.08,0,.09,0,.07a.41.41,0,0,1-.07.11l0,.07a1,1,0,0,0-.08.11l0,0c0,.06-.1.13-.16.19l0,0-.14.14-.07.06-.08.08-.09.07-.09.07-.09.07-.1.07-.1.06-.11.07-.14.09a3.17,3.17,0,0,1-.41.21l-.11.06-.39.16,0,0c-.14.06-.28.1-.43.15l-.31.09-.24.06-.33.07-.25,0-.1,0-.42.06h-.12l-.24,0-.41,0H98.33l-.28,0-.3,0-.27,0-.32-.05-.25-.06a2.62,2.62,0,0,1-.38-.09l-.24-.06-.12,0-.37-.13-.11,0-.32-.13-.15-.07c-.16-.07-.3-.15-.45-.23A3,3,0,0,1,93,91.37l-.12,39.07a3,3,0,0,0,1.78,2.49c.14.09.29.16.44.24l.16.06.27.12,0,0,.11,0,.36.12.13,0,.09,0,.15,0,.38.09.1,0,.15,0,.32.06.13,0h.14l.3,0h.28l.3,0h.61a1,1,0,0,0,.17,0h.09l.41,0H100l.12,0,.42,0,.1,0h0l.19,0,.34-.07.23-.07.31-.08.07,0,.37-.13.05,0,.39-.17.11,0c.14-.07.28-.14.41-.22l.07,0,.07,0,.11-.07.09-.07.1-.07.09-.07.1-.07.08-.07.09-.08,0,0,0,0,.13-.13,0,0,.15-.18h0l0,0,.09-.12,0-.06a.41.41,0,0,1,.07-.11v0l0,0a1,1,0,0,0,0-.1.25.25,0,0,0,0-.07l0-.09s0,0,0,0,0,0,0,0l0-.09a.31.31,0,0,1,0-.08s0-.06,0-.09v-.08s0-.06,0-.09a.19.19,0,0,0,0-.08s0-.06,0-.09v-.1l.13-39.08S105.07,91.47,105.07,91.51Z"/><ellipse class="cls-9" cx="99.03" cy="91.38" rx="3.5" ry="6.04" transform="translate(7.37 190.16) rotate(-89.84)"/><rect class="cls-63" x="94.18" y="107.89" width="0.14" height="4.6" rx="0.03"/><rect class="cls-64" x="97.03" y="105.04" width="0.14" height="4.6" rx="0.03"/><rect class="cls-65" x="98.38" y="110.05" width="0.14" height="4.6" rx="0.03"/><rect class="cls-66" x="100.55" y="104.91" width="0.14" height="4.6" rx="0.03"/><rect class="cls-67" x="101.22" y="113.44" width="0.14" height="4.6" rx="0.03"/><rect class="cls-68" x="102.58" y="109.78" width="0.14" height="4.6" rx="0.03"/><rect class="cls-69" x="103.52" y="103.01" width="0.14" height="4.6" rx="0.03"/><rect class="cls-70" x="96.08" y="113.84" width="0.14" height="4.6" rx="0.03"/><circle class="cls-71" cx="94.93" cy="103.35" r="0.2"/><circle class="cls-72" cx="95.6" cy="108.5" r="0.2"/><circle class="cls-73" cx="98.45" cy="104.16" r="0.2"/><circle class="cls-74" cx="99.12" cy="108.09" r="0.2"/><circle class="cls-75" cx="101.97" cy="104.84" r="0.2"/><circle class="cls-76" cx="102.91" cy="108.23" r="0.2"/><circle class="cls-77" cx="104.81" cy="110.39" r="0.2"/><circle class="cls-78" cx="101.02" cy="112.15" r="0.2"/><circle class="cls-79" cx="99.39" cy="115.26" r="0.2"/><circle class="cls-80" cx="96.42" cy="112.29" r="0.2"/><circle class="cls-81" cx="93.57" cy="116.48" r="0.2"/><circle class="cls-82" cx="97.09" cy="118.24" r="0.2"/><circle class="cls-83" cx="99.94" cy="120" r="0.2"/><circle class="cls-84" cx="103.59" cy="120" r="0.2"/><circle class="cls-85" cx="102.91" cy="117.16" r="0.2"/><circle class="cls-86" cx="104.4" cy="115.26" r="0.2"/><circle class="cls-87" cx="92.63" cy="111.47" r="0.2"/><ellipse class="cls-9" cx="50.52" cy="104.54" rx="3.5" ry="6.04" transform="translate(-54.17 154.76) rotate(-89.84)"/><path class="cls-88" d="M56.56,65.7a.28.28,0,0,0,0,.09s0,0,0,.08,0,.06,0,.09a.24.24,0,0,0,0,.08s0,.06,0,.09l0,.08a.32.32,0,0,1,0,.09.19.19,0,0,1,0,.07l0,.1,0,.07a.41.41,0,0,1,0,.09.3.3,0,0,1,0,.08l-.06.1a.25.25,0,0,0,0,.07l-.09.11a.21.21,0,0,1,0,.06l-.15.18,0,0a.93.93,0,0,1-.14.14l-.06.06-.09.08-.08.07-.1.07-.09.07-.1.07-.1.07-.11.07-.14.08-.4.22-.11,0-.39.16,0,0a3.26,3.26,0,0,1-.44.15,2.8,2.8,0,0,1-.31.09l-.24.07-.33.07-.24.05h-.11a2.7,2.7,0,0,1-.41.06l-.13,0-.24,0-.41,0h-.87l-.3,0-.28,0-.3,0L49,69l-.33,0-.25-.05L48,68.76l-.24-.07-.13,0-.37-.12-.1,0-.32-.14-.16-.07-.44-.23a3,3,0,0,1-1.79-2.49l-.12,39.07a3,3,0,0,0,1.78,2.5c.15.08.29.16.45.23l.15.07.28.12h0l.11,0,.37.13.12,0,.09,0,.15,0c.13,0,.25.07.38.09l.1,0,.15,0,.32.06.13,0,.14,0,.3,0,.15,0h.13l.31,0h.87l.41,0h.36l.42-.06.1,0h.05l.2,0,.33-.07.24-.06.31-.09.07,0,.36-.13.05,0a3.52,3.52,0,0,0,.39-.17l.11,0,.41-.21.07,0,.07,0,.11-.07.1-.06.1-.08.09-.06.09-.08.09-.07.08-.07,0,0,0,0,.14-.14,0,0,.16-.18h0l0,0L56,106a.21.21,0,0,0,0-.06l.07-.11,0,0s0,0,0,0l.05-.09,0-.08a.36.36,0,0,0,0-.09s0,0,0,0v0l0-.09a1027571250996.6,1027571250996.6,0,0,1,0-.16s0,0,0-.05v0s0-.06,0-.09a.19.19,0,0,1,0-.08v-.09s0,0,0-.06v0l.12-39.08Z"/><ellipse class="cls-9" cx="50.52" cy="65.58" rx="3.5" ry="6.04" transform="translate(-15.2 115.91) rotate(-89.84)"/><rect class="cls-89" x="45.67" y="82.08" width="0.14" height="4.6" rx="0.03"/><rect class="cls-90" x="48.51" y="79.24" width="0.14" height="4.6" rx="0.03"/><rect class="cls-91" x="49.86" y="84.25" width="0.14" height="4.6" rx="0.03"/><rect class="cls-92" x="52.03" y="79.1" width="0.14" height="4.6" rx="0.03"/><rect class="cls-93" x="52.71" y="87.63" width="0.14" height="4.6" rx="0.03"/><rect class="cls-94" x="54.06" y="83.97" width="0.14" height="4.6" rx="0.03"/><rect class="cls-95" x="55.01" y="77.21" width="0.14" height="4.6" rx="0.03"/><rect class="cls-96" x="47.56" y="88.03" width="0.14" height="4.6" rx="0.03"/><circle class="cls-97" cx="46.41" cy="77.55" r="0.2"/><circle class="cls-98" cx="47.09" cy="82.69" r="0.2"/><circle class="cls-99" cx="49.93" cy="78.36" r="0.2"/><circle class="cls-100" cx="50.61" cy="82.28" r="0.2"/><circle class="cls-101" cx="53.45" cy="79.03" r="0.2"/><circle class="cls-102" cx="54.4" cy="82.42" r="0.2"/><circle class="cls-103" cx="56.29" cy="84.58" r="0.2"/><circle class="cls-104" cx="52.5" cy="86.34" r="0.2"/><circle class="cls-105" cx="50.88" cy="89.46" r="0.2"/><circle class="cls-106" cx="47.9" cy="86.48" r="0.2"/><circle class="cls-107" cx="45.06" cy="90.67" r="0.2"/><circle class="cls-108" cx="48.58" cy="92.43" r="0.2"/><circle class="cls-109" cx="51.42" cy="94.19" r="0.2"/><circle class="cls-110" cx="55.07" cy="94.19" r="0.2"/><circle class="cls-111" cx="54.4" cy="91.35" r="0.2"/><circle class="cls-112" cx="55.89" cy="89.46" r="0.2"/><circle class="cls-113" cx="44.11" cy="85.67" r="0.2"/><polygon class="cls-114" points="159.18 56.12 159.01 80.4 99.4 115.04 99.57 90.76 159.18 56.12"/><polygon class="cls-115" points="99.57 90.76 99.4 115.04 39.41 80.4 39.58 56.12 99.57 90.76"/><polygon class="cls-116" points="159.18 56.12 99.57 90.76 39.58 56.12 99.19 21.48 159.18 56.12"/><polygon class="cls-8" points="43.46 67.77 40.46 66.05 40.46 63.05 43.46 64.78 43.46 67.77"/><polygon class="cls-8" points="48.7 70.8 45.7 69.07 45.7 66.08 48.7 67.81 48.7 70.8"/><polygon class="cls-8" points="53.94 73.82 50.94 72.09 50.94 69.1 53.94 70.83 53.94 73.82"/><polygon class="cls-8" points="86.12 92.41 56.18 75.12 56.18 72.13 86.12 89.41 86.12 92.41"/><polygon class="cls-8" points="91.11 95.29 88.12 93.56 88.12 90.56 91.11 92.29 91.11 95.29"/><polygon class="cls-8" points="96.35 98.31 93.36 96.58 93.36 93.59 96.35 95.32 96.35 98.31"/><polygon class="cls-8" points="43.46 72.51 40.46 70.78 40.46 67.79 43.46 69.52 43.46 72.51"/><polygon class="cls-8" points="48.7 75.54 45.7 73.81 45.7 70.82 48.7 72.55 48.7 75.54"/><polygon class="cls-8" points="53.94 78.56 50.94 76.84 50.94 73.84 53.94 75.57 53.94 78.56"/><polygon class="cls-8" points="86.12 97.15 56.18 79.86 56.18 76.87 86.12 94.15 86.12 97.15"/><polygon class="cls-8" points="91.11 100.03 88.12 98.3 88.12 95.31 91.11 97.03 91.11 100.03"/><polygon class="cls-8" points="96.35 103.05 93.36 101.33 93.36 98.33 96.35 100.06 96.35 103.05"/><polygon class="cls-8" points="43.46 77.25 40.46 75.53 40.46 72.53 43.46 74.26 43.46 77.25"/><polygon class="cls-8" points="48.7 80.28 45.7 78.55 45.7 75.56 48.7 77.29 48.7 80.28"/><polygon class="cls-8" points="53.94 83.31 50.94 81.58 50.94 78.58 53.94 80.31 53.94 83.31"/><polygon class="cls-8" points="86.12 101.89 56.18 84.6 56.18 81.61 86.12 98.89 86.12 101.89"/><polygon class="cls-8" points="91.11 104.77 88.12 103.04 88.12 100.05 91.11 101.78 91.11 104.77"/><polygon class="cls-8" points="96.35 107.79 93.36 106.06 93.36 103.07 96.35 104.8 96.35 107.79"/><polygon class="cls-8" points="154.4 67.77 157.39 66.05 157.39 63.05 154.4 64.78 154.4 67.77"/><polygon class="cls-8" points="149.16 70.8 152.15 69.07 152.15 66.08 149.16 67.81 149.16 70.8"/><polygon class="cls-8" points="143.92 73.82 146.91 72.09 146.91 69.1 143.92 70.83 143.92 73.82"/><polygon class="cls-8" points="111.73 92.41 141.67 75.12 141.67 72.13 111.73 89.41 111.73 92.41"/><polygon class="cls-8" points="106.74 95.29 109.73 93.56 109.73 90.56 106.74 92.29 106.74 95.29"/><polygon class="cls-8" points="101.5 98.31 104.5 96.58 104.5 93.59 101.5 95.32 101.5 98.31"/><polygon class="cls-8" points="154.4 72.51 157.39 70.78 157.39 67.79 154.4 69.52 154.4 72.51"/><polygon class="cls-8" points="149.16 75.54 152.15 73.81 152.15 70.82 149.16 72.55 149.16 75.54"/><polygon class="cls-8" points="143.92 78.56 146.91 76.84 146.91 73.84 143.92 75.57 143.92 78.56"/><polygon class="cls-8" points="111.73 97.15 141.67 79.86 141.67 76.87 111.73 94.15 111.73 97.15"/><polygon class="cls-8" points="106.74 100.03 109.73 98.3 109.73 95.31 106.74 97.03 106.74 100.03"/><polygon class="cls-8" points="101.5 103.05 104.5 101.33 104.5 98.33 101.5 100.06 101.5 103.05"/><polygon class="cls-8" points="154.4 77.25 157.39 75.53 157.39 72.53 154.4 74.26 154.4 77.25"/><polygon class="cls-8" points="149.16 80.28 152.15 78.55 152.15 75.56 149.16 77.29 149.16 80.28"/><polygon class="cls-8" points="143.92 83.31 146.91 81.58 146.91 78.58 143.92 80.31 143.92 83.31"/><polygon class="cls-8" points="111.73 101.89 141.67 84.6 141.67 81.61 111.73 98.89 111.73 101.89"/><polygon class="cls-8" points="106.74 104.77 109.73 103.04 109.73 100.05 106.74 101.78 106.74 104.77"/><polygon class="cls-8" points="101.5 107.79 104.5 106.06 104.5 103.07 101.5 104.8 101.5 107.79"/><ellipse class="cls-117" cx="98.91" cy="58.22" rx="14.63" ry="25.26" transform="translate(40.41 156.97) rotate(-89.84)"/><rect class="cls-118" x="89.73" y="42.31" width="0.27" height="9.18" rx="0.06"/><rect class="cls-119" x="95.41" y="36.64" width="0.27" height="9.18" rx="0.06"/><rect class="cls-120" x="98.11" y="46.63" width="0.27" height="9.18" rx="0.06"/><rect class="cls-121" x="102.43" y="36.37" width="0.27" height="9.18" rx="0.06"/><rect class="cls-122" x="103.78" y="53.39" width="0.27" height="9.18" rx="0.06"/><rect class="cls-123" x="106.48" y="46.09" width="0.27" height="9.18" rx="0.06"/><rect class="cls-124" x="108.37" y="32.59" width="0.27" height="9.18" rx="0.06"/><rect class="cls-125" x="93.52" y="54.2" width="0.27" height="9.18" rx="0.06"/><circle class="cls-126" cx="91.22" cy="33.26" r="0.41"/><circle class="cls-127" cx="92.57" cy="43.53" r="0.41"/><circle class="cls-128" cx="98.24" cy="34.88" r="0.41"/><circle class="cls-129" cx="99.59" cy="42.72" r="0.41"/><circle class="cls-130" cx="105.27" cy="36.24" r="0.41"/><circle class="cls-131" cx="107.16" cy="42.99" r="0.41"/><circle class="cls-132" cx="110.94" cy="47.31" r="0.41"/><circle class="cls-133" cx="103.37" cy="50.82" r="0.41"/><circle class="cls-134" cx="100.13" cy="57.03" r="0.41"/><circle class="cls-135" cx="94.19" cy="51.09" r="0.41"/><circle class="cls-136" cx="88.52" cy="59.46" r="0.41"/><circle class="cls-137" cx="95.54" cy="62.97" r="0.41"/><circle class="cls-138" cx="101.21" cy="66.49" r="0.41"/><circle class="cls-139" cx="108.51" cy="66.49" r="0.41"/><circle class="cls-140" cx="107.16" cy="60.81" r="0.41"/><circle class="cls-141" cx="110.13" cy="57.03" r="0.41"/><circle class="cls-142" cx="86.63" cy="49.47" r="0.41"/></svg>