<svg id="图层_1" data-name="图层 1" xmlns="http://www.w3.org/2000/svg" viewBox="0 0 200 200"><defs><style>.cls-1,.cls-10{fill:#f7f7f7;}.cls-11,.cls-2{fill:#d8d8d8;}.cls-13,.cls-3{fill:#e8e8e8;}.cls-4{fill:#efefef;}.cls-5{fill:#04bbda;}.cls-10,.cls-11,.cls-12,.cls-13,.cls-14,.cls-15,.cls-16,.cls-17,.cls-18,.cls-19,.cls-5,.cls-6,.cls-7,.cls-8,.cls-9{fill-rule:evenodd;}.cls-6{fill:#05a2c6;}.cls-7{fill:#03e5e1;}.cls-8{fill:#0087be;}.cls-9{fill:#00aeeb;}.cls-12{fill:#ab4c00;}.cls-14{fill:#8b3b00;}.cls-15{fill:#fff;}.cls-16{fill:#231815;}.cls-17{fill:#e5e5e6;}.cls-18{fill:#f0f0f0;}.cls-19{fill:#1afff3;}</style></defs><title>Folderlocal-view-nodes-a</title><polygon class="cls-1" points="187.34 134.25 164.61 184.93 73.92 199 9.85 162.32 9.85 145.06 187.34 116.98 187.34 134.25"/><polygon class="cls-2" points="187.34 134.25 164.61 184.93 164.61 167.67 187.34 116.98 187.34 134.25"/><polygon class="cls-3" points="187.34 116.98 164.61 167.67 73.92 181.74 9.85 145.06 33.47 94.05 124.49 80.74 187.34 116.98"/><polygon class="cls-4" points="164.61 167.67 164.61 184.93 73.92 199 73.92 181.74 164.61 167.67"/><polygon class="cls-5" points="55.38 48.48 70.07 56.96 70.07 113.76 55.38 105.28 55.38 48.48"/><polygon class="cls-6" points="70.07 40 84.75 48.48 70.07 56.96 55.38 48.48 70.07 40"/><polygon class="cls-7" points="60.59 47.98 114.89 79.33 114.89 167.13 60.59 135.79 60.59 47.98"/><polygon class="cls-8" points="136.61 66.78 114.89 79.33 114.89 167.13 136.61 154.59 136.61 66.78"/><polygon class="cls-9" points="82.32 35.43 136.61 66.78 114.89 79.33 60.59 47.98 82.32 35.43"/><polygon class="cls-10" points="92.93 46.48 119.74 61.96 102.27 72.04 75.46 56.57 92.93 46.48"/><path class="cls-11" d="M80,19.18l14.51-8.41c23.53-6.73,45.08,32.66,23.1,46L103,65.06Z"/><path class="cls-12" d="M80,19.18l14.5-8.41c14-4,27.21,8.23,31.11,21.62l-14.55,9L83.94,27Z"/><path class="cls-13" d="M91.54,65.27c11.36,3.7,20.57-3.67,20.57-16.46S102.9,22.66,91.54,19,71,22.63,71,35.42,80.18,61.57,91.54,65.27Z"/><path class="cls-14" d="M111.1,41.34C108.43,31.18,100.68,21.94,91.54,19c-6.52-2.12-12.32-.59-16.09,3.5Z"/><polygon class="cls-7" points="119.24 81.9 133.92 90.38 133.92 149.99 119.24 141.51 119.24 81.9"/><polygon class="cls-5" points="148.61 81.9 133.92 90.38 133.92 149.99 148.61 141.51 148.61 81.9"/><polygon class="cls-9" points="133.92 73.42 148.61 81.9 133.92 90.38 119.24 81.9 133.92 73.42"/><polygon class="cls-15" points="102.27 72.04 87.73 97.19 75.46 56.57 102.27 72.04"/><polygon class="cls-16" points="90.91 91.7 87.73 97.19 84.75 87.32 85.92 62.6 89.55 64.7 90.91 91.7"/><polygon class="cls-15" points="96 90.57 106.32 96.53 106.32 100.15 96 94.19 96 90.57"/><polygon class="cls-17" points="107.98 95.58 106.32 96.53 106.32 100.15 107.98 99.2 107.98 95.58"/><polygon class="cls-18" points="97.66 89.62 107.98 95.58 106.32 96.53 96 90.57 97.66 89.62"/><polygon class="cls-19" points="96 94.19 106.32 100.15 106.32 113.02 96 107.07 96 94.19"/><polygon class="cls-8" points="107.98 99.2 106.32 100.15 106.32 113.03 107.98 112.07 107.98 99.2"/></svg>