<svg id="图层_1" data-name="图层 1" xmlns="http://www.w3.org/2000/svg" viewBox="0 0 200 200"><defs><style>.cls-1{fill:#f7f7f7;}.cls-11,.cls-2{fill:#d8d8d8;}.cls-13,.cls-3{fill:#e8e8e8;}.cls-4{fill:#efefef;}.cls-5{fill:#04bbda;}.cls-10,.cls-11,.cls-12,.cls-13,.cls-14,.cls-15,.cls-16,.cls-17,.cls-5,.cls-6,.cls-7,.cls-8,.cls-9{fill-rule:evenodd;}.cls-6{fill:#05a2c6;}.cls-7{fill:#03e5e1;}.cls-8{fill:#0087be;}.cls-9{fill:#00aeeb;}.cls-10{fill:#c6c6c6;}.cls-12{fill:#ab4c00;}.cls-14{fill:#8b3b00;}.cls-15{fill:#fff;}.cls-16{fill:#231815;}.cls-17{fill:#e0e0e0;}</style></defs><title>Folderlocal-view-nodes-a</title><polygon class="cls-1" points="188.82 134.37 166.07 185.1 75.3 199.19 11.18 162.47 11.18 145.19 188.82 117.09 188.82 134.37"/><polygon class="cls-2" points="188.82 134.37 166.07 185.1 166.07 167.82 188.82 117.09 188.82 134.37"/><polygon class="cls-3" points="188.82 117.09 166.07 167.82 75.3 181.91 11.18 145.19 34.81 94.14 125.91 80.82 188.82 117.09"/><polygon class="cls-4" points="166.07 167.82 166.07 185.1 75.3 199.19 75.3 181.91 166.07 167.82"/><polygon class="cls-5" points="47.82 48.25 62.33 56.63 62.33 112.74 47.82 104.37 47.82 48.25"/><polygon class="cls-6" points="62.33 39.87 76.84 48.25 62.33 56.63 47.82 48.25 62.33 39.87"/><polygon class="cls-7" points="54.18 47.7 107.83 78.67 107.83 165.42 54.18 134.45 54.18 47.7"/><polygon class="cls-8" points="129.29 66.28 107.83 78.67 107.83 165.42 129.29 153.03 129.29 66.28"/><polygon class="cls-9" points="75.65 35.31 129.29 66.28 107.83 78.67 54.18 47.7 75.65 35.31"/><polygon class="cls-10" points="86.14 46.23 112.63 61.52 95.37 71.48 68.88 56.19 86.14 46.23"/><path class="cls-11" d="M73.4,19.25l14.33-8.31c23.26-6.65,44.54,32.27,22.83,45.4L96.13,64.58Z"/><path class="cls-12" d="M73.4,19.25l14.33-8.31C101.52,7,114.61,19.08,118.46,32.3l-14.37,8.85L77.26,26.94Z"/><path class="cls-13" d="M84.76,64.79c11.23,3.65,20.33-3.63,20.33-16.26S96,22.69,84.76,19,64.44,22.66,64.44,35.3,73.54,61.13,84.76,64.79Z"/><path class="cls-14" d="M104.09,41.15C101.45,31.11,93.8,22,84.76,19c-6.44-2.1-12.17-.59-15.89,3.46Z"/><polygon class="cls-7" points="112.13 81.22 126.63 89.59 126.63 148.48 112.13 140.11 112.13 81.22"/><polygon class="cls-5" points="141.14 81.22 126.63 89.59 126.63 148.48 141.14 140.11 141.14 81.22"/><polygon class="cls-9" points="126.63 72.84 141.14 81.22 126.63 89.59 112.13 81.22 126.63 72.84"/><polygon class="cls-15" points="95.37 71.48 79.76 114.85 68.88 56.19 95.37 71.48"/><path class="cls-16" d="M79.38,85.24l3.25,1.88h0v4.47h0l-3.25-1.88V85.24Zm0,8.93,3.25,1.88v4.47l-3.25-1.88V94.17Zm0-17.86,3.25,1.88v4.46l-3.25-1.88Z"/><polygon class="cls-17" points="82.63 64.13 71.94 68.78 68.88 56.19 82.63 64.13"/><polygon class="cls-17" points="82.63 64.13 90.01 79.48 95.37 71.48 82.63 64.13"/></svg>