<svg id="图层_1" data-name="图层 1" xmlns="http://www.w3.org/2000/svg" xmlns:xlink="http://www.w3.org/1999/xlink" viewBox="0 0 200 200"><defs><style>.cls-1{fill:#236568;}.cls-2{fill:none;clip-path:url(#clip-path);}.cls-3{fill:#f7f7f7;}.cls-4{fill:#d8d8d8;}.cls-5{fill:#e8e8e8;}.cls-6{fill:#efefef;}.cls-7{fill:url(#未命名的渐变_68);}.cls-8{fill:url(#未命名的渐变_67);}.cls-9{fill:#04bbda;}.cls-10{fill:#00686c;}.cls-11{fill:#05b0c1;}.cls-12{clip-path:url(#clip-path-2);}.cls-13{fill:#06daae;}.cls-14{fill:#f2effa;}</style><clipPath id="clip-path"><path id="SVGID" class="cls-1" d="M158.76,90h0l-9.17-5.28h0C146,82.75,141.31,83,136.23,86c-11.54,6.67-20.91,24.55-20.91,40,0,8.47,2.84,14.41,7.3,16.94h0l8.38,4.84v0c3.69,2.21,8.52,2.05,13.82-1,11.55-6.67,20.91-24.56,20.91-40,0-8.26-2.7-14.12-7-16.75Zm0,0"/></clipPath><linearGradient id="未命名的渐变_68" x1="46.3" y1="105.82" x2="153.47" y2="105.82" gradientUnits="userSpaceOnUse"><stop offset="0" stop-color="#0087be"/><stop offset="0.09" stop-color="#038ebf"/><stop offset="0.23" stop-color="#0aa2c2"/><stop offset="0.4" stop-color="#17c3c6"/><stop offset="0.46" stop-color="#1cd1c8"/><stop offset="0.56" stop-color="#13c9ce"/><stop offset="0.78" stop-color="#08bfd7"/><stop offset="1" stop-color="#04bbda"/></linearGradient><linearGradient id="未命名的渐变_67" x1="46.3" y1="57.55" x2="153.38" y2="57.55" gradientUnits="userSpaceOnUse"><stop offset="0" stop-color="#03e5e1"/><stop offset="0.02" stop-color="#04e5e2"/><stop offset="0.54" stop-color="#10e0ef"/><stop offset="1" stop-color="#14dff4"/></linearGradient><clipPath id="clip-path-2"><rect id="SVGID-2" data-name="SVGID" class="cls-2" x="51.36" y="51.9" width="114.38" height="107.83"/></clipPath></defs><title>Folderlocal-view-nodes-a</title><polygon class="cls-3" points="188.55 130.54 165.8 181.27 75.03 195.35 10.9 158.64 10.9 141.36 188.55 113.26 188.55 130.54"/><polygon class="cls-4" points="188.55 130.54 165.8 181.27 165.8 163.99 188.55 113.26 188.55 130.54"/><polygon class="cls-5" points="188.55 113.26 165.8 163.99 75.03 178.07 10.9 141.36 34.54 90.31 125.64 76.98 188.55 113.26"/><polygon class="cls-6" points="165.8 163.99 165.8 181.27 75.03 195.35 75.03 178.07 165.8 163.99"/><path class="cls-7" d="M46.3,60.62,46.39,127a3.45,3.45,0,0,0,1.7,3l43.06,25.1a9.45,9.45,0,0,0,9.48,0L151.37,126a4.18,4.18,0,0,0,2.1-3.64l-.09-67.05Z"/><path class="cls-8" d="M90.23,88,48.65,64a4.7,4.7,0,0,1,0-8.15l51-29.15a9.18,9.18,0,0,1,9.13,0L151,51.14a4.79,4.79,0,0,1,0,8.28L102.27,87.94A12,12,0,0,1,90.23,88Z"/><path class="cls-9" d="M69.27,44.09l54.1,31.24L137.73,67,83.62,35.8Zm0,0"/><path class="cls-10" d="M77.85,39.13,132,70.37,129.14,72,75,40.76Zm0,0"/><path class="cls-11" d="M123.37,75.33V87.18l14.36-8.28V67Zm0,0"/><path id="SVGID-3" data-name="SVGID" class="cls-1" d="M158.76,90h0l-9.17-5.28h0C146,82.75,141.31,83,136.23,86c-11.54,6.67-20.91,24.55-20.91,40,0,8.47,2.84,14.41,7.3,16.94h0l8.38,4.84v0c3.69,2.21,8.52,2.05,13.82-1,11.55-6.67,20.91-24.56,20.91-40,0-8.26-2.7-14.12-7-16.75Zm0,0"/><path class="cls-13" d="M157.44,89.29c9.23,3.93,11.08,20.34,4.13,36.65s-20.07,26.35-29.29,22.42S121.2,128,128.15,111.7s20.07-26.34,29.29-22.41Zm0,0"/><path class="cls-14" d="M153.94,97.51c6.66,2.83,8,14.68,3,26.45s-14.48,19-21.14,16.18-8-14.68-3-26.46,14.48-19,21.14-16.17Zm0,0"/><path class="cls-13" d="M146.62,114.7c1.29.54,1.55,2.84.58,5.12s-2.81,3.68-4.1,3.13-1.55-2.84-.57-5.12,2.8-3.68,4.09-3.13Zm0,0"/><path class="cls-13" d="M143.69,120.75V103.82a1.14,1.14,0,0,1,2.28,0v13l9.25-5.34a1.13,1.13,0,0,1,1.55.41,1.14,1.14,0,0,1-.42,1.56Zm0,0"/></svg>