<svg id="图层_1" data-name="图层 1" xmlns="http://www.w3.org/2000/svg" xmlns:xlink="http://www.w3.org/1999/xlink" viewBox="0 0 200 200"><defs><style>.cls-1,.cls-11{fill:#f7f7f7;}.cls-2,.cls-9{fill:#d8d8d8;}.cls-10,.cls-3{fill:#e8e8e8;}.cls-4{fill:#efefef;}.cls-5{fill:#04bbda;}.cls-10,.cls-11,.cls-12,.cls-13,.cls-14,.cls-15,.cls-16,.cls-5,.cls-6,.cls-7,.cls-8,.cls-9{fill-rule:evenodd;}.cls-6{fill:#00aeeb;}.cls-7{fill:#03e5e1;}.cls-8{fill:#0087be;}.cls-12{fill:#c8c9ca;}.cls-13{fill:#e5e5e6;}.cls-14{fill:url(#GradientFill_7);}.cls-15{fill:gold;}.cls-16{fill:url(#GradientFill_8);}</style><linearGradient id="GradientFill_7" x1="109.74" y1="44.97" x2="72.05" y2="44.97" gradientUnits="userSpaceOnUse"><stop offset="0" stop-color="#e8a900"/><stop offset="1" stop-color="#fccf00"/></linearGradient><radialGradient id="GradientFill_8" cx="104.14" cy="16.65" r="43.37" gradientUnits="userSpaceOnUse"><stop offset="0" stop-color="#fccf00"/><stop offset="1" stop-color="#e8a900"/></radialGradient></defs><title>Folderlocal-view-nodes-a</title><polygon class="cls-1" points="189.46 134.25 166.72 184.93 76.03 199 11.96 162.32 11.96 145.06 189.46 116.98 189.46 134.25"/><polygon class="cls-2" points="189.46 134.25 166.72 184.93 166.72 167.67 189.46 116.98 189.46 134.25"/><polygon class="cls-3" points="189.46 116.98 166.72 167.67 76.03 181.74 11.96 145.06 35.58 94.05 126.6 80.74 189.46 116.98"/><polygon class="cls-4" points="166.72 167.67 166.72 184.93 76.03 199 76.03 181.74 166.72 167.67"/><polygon class="cls-5" points="56.4 55.03 72.25 64.18 72.25 125.2 56.4 116.06 56.4 55.03"/><polygon class="cls-6" points="72.25 45.88 88.1 55.03 72.25 64.18 56.4 55.03 72.25 45.88"/><polygon class="cls-7" points="66.1 56.77 115.37 85.22 115.37 164.88 66.1 136.44 66.1 56.77"/><polygon class="cls-8" points="135.08 73.83 115.37 85.22 115.37 164.88 135.08 153.5 135.08 73.83"/><polygon class="cls-6" points="85.82 45.39 135.08 73.83 115.37 85.22 66.1 56.77 85.82 45.39"/><path class="cls-9" d="M119.61,63.27l0,0C123,60.52,125,56,125,50.27c0-11.6-8.36-23.72-18.67-27.08a14.6,14.6,0,0,0-10.27.13h0L83.86,30.46l20.87,41.63Z"/><path class="cls-10" d="M94.29,72.27C104.6,75.63,113,68.94,113,57.34S104.6,33.62,94.29,30.26,75.63,33.59,75.63,45.19,84,68.92,94.29,72.27Z"/><polygon class="cls-11" points="104.8 110.17 107.3 111.61 107.3 147.13 104.8 145.69 104.8 110.17"/><polygon class="cls-12" points="150.65 86.58 107.3 111.61 107.3 147.13 150.65 122.1 150.65 86.58"/><polygon class="cls-13" points="148.15 85.14 150.65 86.58 107.3 111.61 104.8 110.17 148.15 85.14"/><polygon class="cls-7" points="117.59 90.36 133.44 99.51 133.44 160.53 117.59 151.38 117.59 90.36"/><polygon class="cls-5" points="149.29 90.36 133.44 99.51 133.44 160.53 149.29 151.38 149.29 90.36"/><polygon class="cls-6" points="133.44 81.21 149.29 90.36 133.44 99.51 117.59 90.36 133.44 81.21"/><path class="cls-14" d="M94.57,54.21c-14.74,0-30.4-2.23-33.09-11.51l-.37-2.83c3.75.88,11.22,2,15.3,4.73,9.86,6.61,26.46,7.54,38.76,2.17,6.5-2.83,10.11-6.88,10.62-11-.27,6.85-2.21,11.21-13,15A64.26,64.26,0,0,1,94.57,54.21Z"/><path class="cls-15" d="M64.7,44.51c-9.89-6.62,2.51-16.34,14.82-21.69s30.27-4.36,40.14,2.25,6.7,14.17-4.41,21.7S75.76,53.41,64.7,44.51Z"/><path class="cls-16" d="M80.92,44c-3.76-2.54-5.57-5.59-5.56-8.62v.09a25.24,25.24,0,0,1,50.48-.75c0,.14,0,.28,0,.42,0,4.07-3.2,8.12-9.46,10.88C105.53,50.81,89.64,49.9,80.92,44Z"/></svg>