<svg id="图层_5" data-name="图层 5"
  xmlns="http://www.w3.org/2000/svg"
  xmlns:xlink="http://www.w3.org/1999/xlink" viewBox="0 0 80 90" width='80' height='90'>
  <defs>
    <style>.cls-1{fill:#f7f7f7;}.cls-2{fill:#d8d8d8;}.cls-3{fill:#e8e8e8;}.cls-4{fill:#efefef;}.cls-5{fill:#0186be;}.cls-6{fill:url(#未命名的渐变_8);}.cls-7{fill:#03e5e1;}.cls-8{fill:#04bcd8;}.cls-10,.cls-9{opacity:0.4;}.cls-9{fill:url(#未命名的渐变_78);}.cls-10{fill:url(#未命名的渐变_87);}.cls-11{fill:#00aeeb;}.cls-12{fill:url(#未命名的渐变_14);}.cls-13{fill:url(#未命名的渐变_13);}.cls-14{fill:url(#未命名的渐变_11);}.cls-15{fill:url(#未命名的渐变_11-2);}</style>
    <linearGradient id="未命名的渐变_8" x1="17.61" y1="51.36" x2="62.03" y2="51.36" gradientUnits="userSpaceOnUse">
      <stop offset="0" stop-color="#0186be"/>
      <stop offset="0.05" stop-color="#0196c5"/>
      <stop offset="0.18" stop-color="#00c1d7"/>
      <stop offset="0.29" stop-color="#00dce2"/>
      <stop offset="0.35" stop-color="#00e6e6"/>
      <stop offset="0.47" stop-color="#00dde2"/>
      <stop offset="0.66" stop-color="#00c3d7"/>
      <stop offset="0.9" stop-color="#019ac6"/>
      <stop offset="1" stop-color="#0186be"/>
    </linearGradient>
    <linearGradient id="未命名的渐变_78" x1="39.97" y1="52.16" x2="39.97" y2="7.76" gradientUnits="userSpaceOnUse">
      <stop offset="0" stop-color="aqua"/>
      <stop offset="0.95" stop-color="#fff"/>
    </linearGradient>
    <linearGradient id="未命名的渐变_87" x1="39.63" y1="52.16" x2="39.63" y2="9.91" gradientUnits="userSpaceOnUse">
      <stop offset="0" stop-color="#00d8ff"/>
      <stop offset="0.09" stop-color="#11dbff"/>
      <stop offset="0.27" stop-color="#3ce1ff"/>
      <stop offset="0.51" stop-color="#83ecff"/>
      <stop offset="0.82" stop-color="#e2fbff"/>
      <stop offset="0.9" stop-color="#fff"/>
    </linearGradient>
    <linearGradient id="未命名的渐变_14" x1="38.64" y1="41.14" x2="43.3" y2="40.43" gradientUnits="userSpaceOnUse">
      <stop offset="0" stop-color="#00e6e6"/>
      <stop offset="0.18" stop-color="#00cfdd"/>
      <stop offset="0.55" stop-color="#0195c4"/>
      <stop offset="0.64" stop-color="#0186be"/>
    </linearGradient>
    <linearGradient id="未命名的渐变_13" x1="39.32" y1="41.73" x2="37.78" y2="44.26" gradientUnits="userSpaceOnUse">
      <stop offset="0.07" stop-color="#00e6e6"/>
      <stop offset="0.33" stop-color="#00cfdd"/>
      <stop offset="0.87" stop-color="#0195c4"/>
      <stop offset="1" stop-color="#0186be"/>
    </linearGradient>
    <linearGradient id="未命名的渐变_11" x1="32.92" y1="27.58" x2="44.32" y2="27.58" gradientUnits="userSpaceOnUse">
      <stop offset="0" stop-color="#0186be"/>
      <stop offset="0.04" stop-color="#0190c2"/>
      <stop offset="0.24" stop-color="#00bed5"/>
      <stop offset="0.39" stop-color="#00dbe2"/>
      <stop offset="0.48" stop-color="#00e6e6"/>
      <stop offset="0.63" stop-color="#00cfdd"/>
      <stop offset="0.93" stop-color="#0195c4"/>
      <stop offset="1" stop-color="#0186be"/>
    </linearGradient>
    <linearGradient id="未命名的渐变_11-2" x1="37.79" y1="33.93" x2="43.9" y2="33.93" xlink:href="#未命名的渐变_11"/>
  </defs>
  <title>图标3</title>
  <polygon class="cls-1" points="79.21 60.79 69.16 83.2 29.05 89.43 0.72 73.2 0.72 65.57 79.21 53.15 79.21 60.79"/>
  <polygon class="cls-2" points="79.21 60.79 69.16 83.2 69.16 75.57 79.21 53.15 79.21 60.79"/>
  <polygon class="cls-3" points="79.21 53.15 69.16 75.57 29.05 81.79 0.72 65.57 11.16 43.01 51.41 37.12 79.21 53.15"/>
  <polygon class="cls-4" points="69.16 75.57 69.16 83.2 29.05 89.43 29.05 81.79 69.16 75.57"/>
  <path class="cls-5" d="M62,53.19V51.11h-.43c-.85-2.34-2.88-4.57-6.12-6.39-8.71-4.88-22.79-4.91-31.44,0-3.26,1.82-5.28,4.08-6.08,6.44h-.38v2a5.23,5.23,0,0,0,0,.56v.15h0c.18,3.07,2.37,6.1,6.54,8.45,8.71,4.88,22.79,4.91,31.45,0C60.08,59.84,62.23,56.5,62,53.19Z"/>
  <path class="cls-6" d="M61,47.65h0l-3.6-5.49L54.26,42c-7.08-3.44-17.08-4-25-1.59l-1.35-.08L22.56,41.5l-3,4.74c-3.62,4.57-2.07,10.13,4.65,13.9,8.7,4.88,22.76,4.91,31.41.06C61.61,56.81,63.41,51.94,61,47.65Z"/>
  <ellipse class="cls-7" cx="39.82" cy="45.23" rx="10.36" ry="18.46" transform="translate(-5.62 84.82) rotate(-89.71)"/>
  <path class="cls-8" d="M54.22,45v.55a5.43,5.43,0,0,1-1.45,3.31A10.42,10.42,0,0,1,50,51c-5.61,3.14-14.73,3.13-20.39,0a10.33,10.33,0,0,1-2.78-2.19,5.49,5.49,0,0,1-1.45-3.22,4.45,4.45,0,0,1,0-.73C25.58,42.86,27,41,29.59,39.5c5.61-3.15,14.74-3.13,20.39,0C52.67,41,54.08,43,54.22,45Z"/>
  <path class="cls-9" d="M55.85,45.24v.53A4.94,4.94,0,0,1,54.19,49a12.15,12.15,0,0,1-3.12,2.07c-6.42,3-16.86,3-23.33,0a12.27,12.27,0,0,1-3.19-2.12,5,5,0,0,1-1.65-3.12L1.79,0H78.14Z"/>
  <path class="cls-10" d="M54.42,46.56V47A4,4,0,0,1,53,49.69a10.41,10.41,0,0,1-2.76,1.73C44.5,54,35.26,54,29.53,51.39a10.71,10.71,0,0,1-2.82-1.78A4.06,4.06,0,0,1,25.24,47l-.4-47H54.2Z"/>
  <path class="cls-11" d="M42.83,40.94h-.2l-1.28.18-.28,0-1.77.25h-.17a.14.14,0,0,0-.08.09h0v0h0v0h0v0h0v0h0V42.8c0,.24,0,.48,0,.72V45.3h0v0h0v0h0a.29.29,0,0,0,.06.19h0a.5.5,0,0,0,.23,0l1.93-.27,1.33-.19c.25,0,.3-.1.3-.36,0-1.29,0-2.46,0-3.57A.35.35,0,0,0,42.83,40.94Z"/>
  <path class="cls-12" d="M39.16,41.43h.17l1.44-.2.34,0,1-.13h.09l.5-.06-1.07-.59H41.4l-1.56.22-1.78.25h-.13l1.13.67.1-.07Z"/>
  <path class="cls-13" d="M37.88,40.82h0v0h0v0h0v0h0v0h0v0h0v0h0v2.34c0,.4,0,.81,0,1.22,0,.18,0,.26.07.29l1.12.6v0h0v0h0v0h0v0h0v0h0v-2.5c0-.34,0-.7,0-1.06v0h0v0h0v0h0v0h0v0h0v0h0v0h0l-1.17-.69Z"/>
  <path class="cls-11" d="M47.32,27.42a4.75,4.75,0,0,0-3-2.81h0l-.06,0h-.09l0,0h0l-.08,0h0l-.06,0h-.13l-.1,0-.23,0a7.39,7.39,0,0,0-2-.07l-.44.05-.66.12h-.07l-.16,0-.3.07-.13,0h0a7.59,7.59,0,0,0-2,.86h0l0,0h0l-.3.2h0a7.28,7.28,0,0,0-1.18,1h0l0,.05-.05.06,0,0,0,.05,0,0-.06.08h0l-.05.06,0,0,0,0,0,0,0,0,0,.05h0a7.86,7.86,0,0,0-.93,1.52h0l0,0v0h0l0,0h0l0,.05,0,.05h0l0,.06h0l0,.06h0A6.72,6.72,0,0,0,34.15,31v.25h0v.1s0,.07,0,.09h0a.41.41,0,0,0,.19,0l2.93,0h.22c.13,0,.15-.07.23-.4a5.41,5.41,0,0,1,.72-1.82,3.67,3.67,0,0,1,1.07-1.08,3.56,3.56,0,0,1,1.33-.52l.23,0a5.29,5.29,0,0,1,.54,0,2.42,2.42,0,0,1,.47,0h0a1.76,1.76,0,0,1,.41.11h.17l.18.1h0l0,0h0l0,0h0l0,0h0l0,0h0l0,0h0l0,0h.06l0,0h0v0h0l0,0h0v0h0l0,0,0,0h0l0,0h0l0,0h0l0,0h0l0,0h0l0,0h0l0,0h0v0l0,0v0h0l0,.05,0,0h0v0h0v0h0v0h0v0h0V29h0v0h0v0h0v0h0v.06h0v.07h0v.05h0v0h0v0h0v0h0v0h0v.16h0v.08h0v.05h0v.06h0v0h0v0h0V30h0v0h0v0h0v0h0v0h0v.2h0v.05h0l0,.05h0l0,0h0v0h0l0,0h0l0,0v0l0,0v.06h0l0,.05h0l0,0h0V31h0l0,0h0l0,0h0l0,0,0,.05v0h0l0,0v0h0l0,0h0l0,0h0l0,.05h0l0,0h0l0,0h0l0,0h0l0,0h0l0,0h0l0,0,0,0h0l0,0-.19.21h0l-.06.06h0l0,0h0l0,0-.12.14h0l-.31.34h0l0,0-.09.1h0l-.25.27-.16.17v0l-.14.14,0,.06-.14.14v0l-.16.17,0,0L41,34l0,0-.13.13,0,0-.12.14h0l0,0h0l-.15.18-.06.07h0l0,.06,0,0,0,0v0a5.71,5.71,0,0,0-1,2h0l0,.07V37h0a1.36,1.36,0,0,0,0,.17s0,.06,0,.09A12.68,12.68,0,0,0,39,38.9v.85h0v0h0a.41.41,0,0,0,0,.12h0a.45.45,0,0,0,.24,0l.61-.08.21,0,.64-.09.43-.06.44-.06.61-.09c.24,0,.28-.09.29-.35v-.33c0-.17,0-.34,0-.51A3,3,0,0,1,43,36.83a10.64,10.64,0,0,1,.75-.94c.21-.24.43-.48.65-.71A25.39,25.39,0,0,0,46.5,32.7a6.1,6.1,0,0,0,1.15-2.62,4.91,4.91,0,0,0-.33-2.66Z"/>
  <path class="cls-14" d="M34.22,30.46a.43.43,0,0,1,0-.11v0a.43.43,0,0,0,0-.11v0a.36.36,0,0,0,0-.1h0a.44.44,0,0,0,0-.1v0l0-.1v0l0-.1v0l0-.1h0a.49.49,0,0,1,0-.11v0a1,1,0,0,0,0-.1v0l0-.09h0v0h0l0-.06h0l0-.05v-.05h0v0l0,0V29h0v0h0v0l0-.07h0l.05-.11a.93.93,0,0,1,0-.1h0a.31.31,0,0,1,.05-.1v0l0-.09h0l.05-.08v0a.56.56,0,0,0,.05-.08v0l0-.08h0l.06-.08v0a.41.41,0,0,0,.05-.09h0a.22.22,0,0,1,0-.08l0,0a.41.41,0,0,1,0-.09h0l0-.05,0,0,0,0,0,0,0-.05h0l0-.07h0l0,0h0l0,0h0l0,0h0v0h0l0,0h0l0,0h0l.05-.06h0l.07-.08h0l0,0h0L36,27h0v0h0l.05-.06h0l0,0v0h0l0,0,0,0,.07-.07h0l.06-.06,0,0,.06-.07h0l.07-.06,0,0,.06-.06h0a.46.46,0,0,1,.07-.07h0l.08-.07h0l.08-.07h0l.07-.06h0L37,26l0,0,.08-.06h0l.08-.06h0l.08-.06h0l0,0h0l0,0h0l0,0h0l0,0h0l0,0h0l0,0h.11l0,0h0l0,0h0l0,0,0,0,0,0h0l0,0h0l0,0h.1l0,0h0l0,0h.07l0,0h0l0,0h0l0,0h0l.06,0h0l.08,0h0l.06,0h0l.06,0h0l.08,0h0l.07,0h0l.06,0h0l.08,0h0l.08,0h0l.06,0h0l.06,0h0l.08,0h0l.07,0h.11l.08,0c.42-.11.83-.19,1.21-.25h.09a7.48,7.48,0,0,1,2.56.12l.1,0h0l.06,0s0,0,0,0h0l.07,0h0l.11,0h0l.07,0h.09L44,24.39l-.09-.05h0l0,0h0l-.08,0h0l-.07,0h0l-.08,0h0l-.07,0h0l-.08,0h0l-.07,0h0l-.08,0h0l-.07,0h0L43,24h0l-.09,0h0l-.08,0h0l-.09,0h0l-.08,0h0l-.1,0a6.38,6.38,0,0,0-1.08-.13h0a7.92,7.92,0,0,0-1.52.07,11.53,11.53,0,0,0-1.19.25l-.09,0h0l-.06,0h0l-.06,0h0l-.08,0h0l-.06,0h0l-.06,0h0l-.08,0h0l-.07,0h0l-.06,0h0l-.07,0h0l-.08,0h0l-.06,0,0,0-.05,0h0l-.08,0h0l-.06,0h0l-.06,0,0,0h-.13l0,0h0l0,0h0l0,0h-.06l0,0h-.1l0,0,0,0,0,0h0l-.06,0h0l-.05,0,0,0,0,0h0l0,0h0l0,0h0l0,0,0,0h0l0,0v0l-.08.05h0l-.09.06h0l-.08.06h0a.27.27,0,0,1-.08.07h0l-.08.07h0l-.08.06,0,0-.08.07h0l-.07.06h0l-.07.07h0l-.06.06,0,0-.07.06h0l-.07.06,0,0-.06.07h0l-.06.08,0,0-.06.06h0l-.07.08,0,0-.05.05v0l-.07.08,0,.07,0,0,0,0v0l0,.05,0,0,0,.05v0l-.05.06v0l0,.05,0,0,0,.05v0l0,.05v0l-.06.08v0l-.06.08h0a.22.22,0,0,0,0,.08v0l-.06.08h0l0,.08v0a.56.56,0,0,0,0,.08v0l-.05.08h0a.56.56,0,0,0,0,.08v0s0,.07,0,.1h0a.93.93,0,0,1-.05.1h0a.54.54,0,0,1,0,.11h0a.93.93,0,0,0,0,.1v0l0,.09v0a1,1,0,0,1,0,.1h0a.3.3,0,0,0,0,.1h0a.42.42,0,0,1,0,.1v0l0,.1v0a.42.42,0,0,0,0,.1h0l0,.1v0l0,.1v0l0,.1h0l0,.1v0l0,.1v0l0,.1v0a.52.52,0,0,0,0,.11h0s0,.07,0,.11h0S33,30,33,30v0s0,.07,0,.11h0s0,.07,0,.1v0s0,.06,0,.1v0a.45.45,0,0,0,0,.11v0a.45.45,0,0,0,0,.11.45.45,0,0,0,0,.22l0,0,1.14.62v-.3h0v-.13a.41.41,0,0,1,0-.11h0s0-.07,0-.11h0s0-.07,0-.11v0a.36.36,0,0,0,0-.1v0a.36.36,0,0,1,0-.11Z"/>
  <path class="cls-15" d="M39.13,37.31s0-.06,0-.09l.06-.25v0h0v0l0-.07h0l.06-.21h0a.29.29,0,0,1,0-.09h0l0-.1v0h0l.17-.41,0,0,0,0h0a1.3,1.3,0,0,0,.08-.17h0l0,0,0,0h0l0-.08h0l0,0h0a.56.56,0,0,0,.05-.08h0l0-.06v0h0l0,0h0v0h0l.06-.08v0h0l0,0h0l0,0h0v0l0-.07h0l0,0,0,0,0,0h0a.76.76,0,0,1,.11-.14v0h0l0,0h0l0,0,0-.06h0l0-.07.13-.15h0l0,0,0,0,.06-.07h0l0,0,0,0h0l0,0h0l.07-.08h0l0,0h0L41,34l.13-.15,0,0h0l.08-.09.05-.06h0l0,0,.06-.07h0l.05,0h0l0,0,0,0,0,0h0l0,0,.06-.06.07-.08h0l.3-.32h0l0-.06,0,0,0,0,.06-.07,0,0,.3-.33,0,0a.69.69,0,0,0,.11-.13h0l.11-.12h0l0-.06h0l0,0,.08-.1h0l0-.05,0,0h0l0,0h0l0,0v0l0,0h0l0,0v0a.64.64,0,0,0,.1-.13l0,0,0,0,0,0,0,0h0l0,0h0v0l0-.05,0,0h0v0l0,0a2.44,2.44,0,0,0,.31-1.44h0v-.08h0v0h0v0h0a2,2,0,0,0-.72-1.14h0l0,0h0l0,0h0l0,0h0l0,0,0,0h0l0,0-.07,0h0l-.06,0h0l0,0h-.06a1.59,1.59,0,0,0-.33-.1h0l0,0V28l0,0h0l0,0h0l0,0h0l0,0h0v.12h0l0,0h0l0,0v.05h0v0h0v.08h0v0h0v.05h0v0h0v.13h0v.05h0v.12h0v.08h0v0h0v.05h0v0h0v.05h0v.14h0v.05h0v0h0v.14h0v.07l0,.05h0v.2h0v0l0,0v0l0,.05h0l0,0h0l0,0v0l0,0h0l0,.06,0,.07h0a.21.21,0,0,0,0,.06h0l0,0h0v0l0,.05h0l-.05.06,0,0,0,0,0,0,0,0,0,0-.05.06h0l0,.05-.09.1,0,0-.09.1-.11.12-.09.1-.13.14-.05,0-.08.1-.06.05-.08.09L41,32l-.08.08-.44.48-.13.14,0,0-.1.11-.05,0-.08.09,0,.06-.08.08,0,.06-.08.08h0l0,0-.08.09,0,.06-.09.09v0l0,0h0l-.06.07,0,0,0,0-.13.15-.06.06v0h0l0,0,0,0h0l0,0,0,0,0,0,0,0,0,0h0l0,.07h0l0,.06h0l0,0h0l0,0v0h0l0,0v0h0l0,.05,0,0h0l0,0,0,0,0,0,0,0,0,0,0,0,0,0,0,0h0v0h0l0,0,0,0,0,0,0,0,0,0,0,0,0,0,0,0,0,0,0,.05,0,0,0,0v0l0,0,0,.05h0v0h0l0,.06v0a.24.24,0,0,0,0,.08v0l0,.1h0l0,.08v0h0l0,.07v.1h0v0l0,.07h0v0a.52.52,0,0,0,0,.11,11.41,11.41,0,0,0-.16,2.48c0,.18,0,.25.07.28L39,40a.9.9,0,0,1,0-.18A15.52,15.52,0,0,1,39,38.05l0-.25,0-.24C39.1,37.47,39.12,37.39,39.13,37.31Z"/>
</svg>