<svg id="图层_5" data-name="图层 5"
  xmlns="http://www.w3.org/2000/svg"
  xmlns:xlink="http://www.w3.org/1999/xlink" viewBox="0 0 80 90" width='80' height='90'>
  <defs>
    <style>.cls-1{fill:#f7f7f7;}.cls-2{fill:#d8d8d8;}.cls-3{fill:#e8e8e8;}.cls-4{fill:#efefef;}.cls-5{fill:#0186be;}.cls-6{fill:url(#未命名的渐变_8);}.cls-7{fill:#03e5e1;}.cls-8{fill:#04bcd8;}.cls-10,.cls-9{opacity:0.4;}.cls-9{fill:url(#未命名的渐变_78);}.cls-10{fill:url(#未命名的渐变_87);}.cls-11{fill:url(#未命名的渐变_10);}.cls-12{fill:url(#未命名的渐变_7);}.cls-13{fill:#00aeeb;}</style>
    <linearGradient id="未命名的渐变_8" x1="17.52" y1="51.17" x2="61.94" y2="51.17" gradientUnits="userSpaceOnUse">
      <stop offset="0" stop-color="#0186be"/>
      <stop offset="0.05" stop-color="#0196c5"/>
      <stop offset="0.18" stop-color="#00c1d7"/>
      <stop offset="0.29" stop-color="#00dce2"/>
      <stop offset="0.35" stop-color="#00e6e6"/>
      <stop offset="0.47" stop-color="#00dde2"/>
      <stop offset="0.66" stop-color="#00c3d7"/>
      <stop offset="0.9" stop-color="#019ac6"/>
      <stop offset="1" stop-color="#0186be"/>
    </linearGradient>
    <linearGradient id="未命名的渐变_78" x1="39.67" y1="52.16" x2="39.67" y2="7.76" gradientUnits="userSpaceOnUse">
      <stop offset="0" stop-color="aqua"/>
      <stop offset="0.95" stop-color="#fff"/>
    </linearGradient>
    <linearGradient id="未命名的渐变_87" x1="39.34" y1="52.16" x2="39.34" y2="9.92" gradientUnits="userSpaceOnUse">
      <stop offset="0" stop-color="#00d8ff"/>
      <stop offset="0.09" stop-color="#11dbff"/>
      <stop offset="0.27" stop-color="#3ce1ff"/>
      <stop offset="0.51" stop-color="#83ecff"/>
      <stop offset="0.82" stop-color="#e2fbff"/>
      <stop offset="0.9" stop-color="#fff"/>
    </linearGradient>
    <linearGradient id="未命名的渐变_10" x1="41.18" y1="39.16" x2="37.85" y2="41.67" gradientUnits="userSpaceOnUse">
      <stop offset="0.05" stop-color="#0186be"/>
      <stop offset="0.16" stop-color="#019fc8"/>
      <stop offset="0.4" stop-color="#00d2de"/>
      <stop offset="0.51" stop-color="#00e6e6"/>
      <stop offset="0.73" stop-color="#01b4d1"/>
      <stop offset="0.91" stop-color="#0192c3"/>
      <stop offset="1" stop-color="#0186be"/>
    </linearGradient>
    <linearGradient id="未命名的渐变_7" x1="43.99" y1="24.65" x2="36.97" y2="30.38" gradientUnits="userSpaceOnUse">
      <stop offset="0" stop-color="#0186be"/>
      <stop offset="0.07" stop-color="#018cc0"/>
      <stop offset="0.16" stop-color="#019cc7"/>
      <stop offset="0.26" stop-color="#00b7d2"/>
      <stop offset="0.37" stop-color="#00dce2"/>
      <stop offset="0.39" stop-color="#00e6e6"/>
      <stop offset="0.67" stop-color="#01b4d1"/>
      <stop offset="0.88" stop-color="#0192c3"/>
      <stop offset="1" stop-color="#0186be"/>
    </linearGradient>
  </defs>
  <title>图标3</title>
  <polygon class="cls-1" points="79.13 60.59 69.08 83.01 28.97 89.23 0.64 73.01 0.64 65.37 79.13 52.96 79.13 60.59"/>
  <polygon class="cls-2" points="79.13 60.59 69.08 83.01 69.08 75.37 79.13 52.96 79.13 60.59"/>
  <polygon class="cls-3" points="79.13 52.96 69.08 75.37 28.97 81.6 0.64 65.37 11.08 42.82 51.33 36.93 79.13 52.96"/>
  <polygon class="cls-4" points="69.08 75.37 69.08 83.01 28.97 89.23 28.97 81.6 69.08 75.37"/>
  <path class="cls-5" d="M62,53V50.92h-.43c-.84-2.34-2.88-4.57-6.11-6.39C46.7,39.64,32.62,39.62,24,44.47c-3.25,1.83-5.27,4.08-6.07,6.45h-.38v2a5.42,5.42,0,0,0,0,.57v.15h0c.18,3.06,2.36,6.1,6.54,8.44C32.77,67,46.85,67,55.5,62.17,60,59.65,62.14,56.31,62,53Z"/>
  <path class="cls-6" d="M60.9,47.45h0L57.31,42l-3.13-.19c-7.09-3.44-17.08-4-25-1.59l-1.35-.09-5.33,1.23L19.42,46C15.8,50.62,17.36,56.18,24.08,60c8.7,4.88,22.76,4.9,31.41,0C61.53,56.61,63.33,51.74,60.9,47.45Z"/>
  <ellipse class="cls-7" cx="39.73" cy="45.04" rx="10.36" ry="18.46" transform="translate(-5.51 84.54) rotate(-89.71)"/>
  <path class="cls-8" d="M54.14,44.77v.56a5.41,5.41,0,0,1-1.46,3.31A10.18,10.18,0,0,1,50,50.77c-5.61,3.15-14.74,3.14-20.39,0a10.37,10.37,0,0,1-2.79-2.2,5.51,5.51,0,0,1-1.44-3.21,3,3,0,0,1,0-.73c.16-1.93,1.55-3.83,4.17-5.3,5.61-3.14,14.74-3.13,20.39,0C52.59,40.85,54,42.8,54.14,44.77Z"/>
  <path class="cls-9" d="M55.56,45.24v.54A4.94,4.94,0,0,1,53.9,49a11.66,11.66,0,0,1-3.12,2.07c-6.42,3-16.86,3-23.33,0a11.86,11.86,0,0,1-3.19-2.12,5,5,0,0,1-1.65-3.11L1.5,0H77.85Z"/>
  <path class="cls-10" d="M54.13,46.56V47a4,4,0,0,1-1.47,2.68,10.16,10.16,0,0,1-2.76,1.73C44.21,54,35,54,29.24,51.39a10.45,10.45,0,0,1-2.82-1.77A4.08,4.08,0,0,1,25,47l-.4-47H53.91Z"/>
  <path class="cls-11" d="M39.31,38c.93-.18,2,.66,2.53,1,0,.2-.36.63-.36,1.08a2.7,2.7,0,0,1-2.18,2.65c-.17,0,.5.61.32.61-1.09-.71-2.51-.86-2.49-2.65A2.76,2.76,0,0,1,39.31,38Z"/>
  <path class="cls-12" d="M40.11,19.83c1-.2,2,.62,2.59,1,0,.48-1.14,13.66-1.14,13.66-.08,1.29-1.92,3.22-1.92,3.22s-2.58-.87-2.58-2.59L36.3,23a2.8,2.8,0,0,1,2.26-2.91Z"/>
  <path class="cls-13" d="M41.66,20.67A2,2,0,0,1,43.9,23L43.1,35.3a2.78,2.78,0,0,1-2.25,2.58,2,2,0,0,1-2.25-2L37.85,23.8a2.8,2.8,0,0,1,2.25-2.91Z"/>
  <ellipse class="cls-13" cx="40.84" cy="41.16" rx="2.44" ry="2.09" transform="translate(-14.83 57.37) rotate(-61.45)"/>
</svg>