<svg id="图层_5" data-name="图层 5"
  xmlns="http://www.w3.org/2000/svg"
  xmlns:xlink="http://www.w3.org/1999/xlink" viewBox="0 0 80 90" width='80' height='90'>
  <defs>
    <style>.cls-1{fill:#f7f7f7;}.cls-2{fill:#d8d8d8;}.cls-3{fill:#e8e8e8;}.cls-4{fill:#efefef;}.cls-5{fill:#0186be;}.cls-6{fill:url(#未命名的渐变_8);}.cls-7{fill:#03e5e1;}.cls-8{fill:#04bcd8;}.cls-10,.cls-9{opacity:0.4;}.cls-9{fill:url(#未命名的渐变_78);}.cls-10{fill:url(#未命名的渐变_87);}.cls-11{fill:url(#未命名的渐变_17);}.cls-12{fill:#00aeeb;}</style>
    <linearGradient id="未命名的渐变_8" x1="17.5" y1="51.36" x2="61.92" y2="51.36" gradientUnits="userSpaceOnUse">
      <stop offset="0" stop-color="#0186be"/>
      <stop offset="0.05" stop-color="#0196c5"/>
      <stop offset="0.18" stop-color="#00c1d7"/>
      <stop offset="0.29" stop-color="#00dce2"/>
      <stop offset="0.35" stop-color="#00e6e6"/>
      <stop offset="0.47" stop-color="#00dde2"/>
      <stop offset="0.66" stop-color="#00c3d7"/>
      <stop offset="0.9" stop-color="#019ac6"/>
      <stop offset="1" stop-color="#0186be"/>
    </linearGradient>
    <linearGradient id="未命名的渐变_78" x1="39.53" y1="52.16" x2="39.53" y2="7.76" gradientUnits="userSpaceOnUse">
      <stop offset="0" stop-color="aqua"/>
      <stop offset="0.95" stop-color="#fff"/>
    </linearGradient>
    <linearGradient id="未命名的渐变_87" x1="39.53" y1="52.16" x2="39.53" y2="9.91" gradientUnits="userSpaceOnUse">
      <stop offset="0" stop-color="#00d8ff"/>
      <stop offset="0.09" stop-color="#11dbff"/>
      <stop offset="0.27" stop-color="#3ce1ff"/>
      <stop offset="0.51" stop-color="#83ecff"/>
      <stop offset="0.82" stop-color="#e2fbff"/>
      <stop offset="0.9" stop-color="#fff"/>
    </linearGradient>
    <linearGradient id="未命名的渐变_17" x1="34.68" y1="45.98" x2="43.34" y2="30.83" gradientUnits="userSpaceOnUse">
      <stop offset="0" stop-color="#0186be"/>
      <stop offset="0.03" stop-color="#018cc0"/>
      <stop offset="0.06" stop-color="#019cc7"/>
      <stop offset="0.11" stop-color="#00b7d2"/>
      <stop offset="0.15" stop-color="#00dce2"/>
      <stop offset="0.16" stop-color="#00e6e6"/>
      <stop offset="0.25" stop-color="#01b4d1"/>
      <stop offset="0.31" stop-color="#0192c3"/>
      <stop offset="0.35" stop-color="#0186be"/>
      <stop offset="0.51" stop-color="#00e6e6"/>
      <stop offset="0.63" stop-color="#0186be"/>
      <stop offset="0.86" stop-color="#00e6e6"/>
      <stop offset="1" stop-color="#0186be"/>
    </linearGradient>
  </defs>
  <title>图标3</title>
  <polygon class="cls-1" points="79.11 60.79 69.06 83.2 28.95 89.43 0.61 73.2 0.61 65.57 79.11 53.15 79.11 60.79"/>
  <polygon class="cls-2" points="79.11 60.79 69.06 83.2 69.06 75.57 79.11 53.15 79.11 60.79"/>
  <polygon class="cls-3" points="79.11 53.15 69.06 75.57 28.95 81.79 0.61 65.57 11.06 43.01 51.31 37.12 79.11 53.15"/>
  <polygon class="cls-4" points="69.06 75.57 69.06 83.2 28.95 89.43 28.95 81.79 69.06 75.57"/>
  <path class="cls-5" d="M61.93,53.19V51.11H61.5c-.84-2.34-2.88-4.57-6.12-6.39-8.7-4.88-22.78-4.91-31.44,0-3.25,1.82-5.27,4.08-6.07,6.44h-.38v2a5.23,5.23,0,0,0,0,.56v.15h0c.19,3.07,2.37,6.1,6.55,8.45,8.71,4.88,22.79,4.91,31.44,0C60,59.84,62.12,56.5,61.93,53.19Z"/>
  <path class="cls-6" d="M60.88,47.65h0l-3.6-5.49L54.16,42c-7.09-3.44-17.08-4-25-1.59l-1.36-.08L22.46,41.5,19.4,46.24c-3.62,4.57-2.06,10.13,4.66,13.9,8.7,4.88,22.76,4.91,31.41.06C61.51,56.81,63.31,51.94,60.88,47.65Z"/>
  <ellipse class="cls-7" cx="39.71" cy="45.23" rx="10.36" ry="18.46" transform="translate(-5.72 84.71) rotate(-89.71)"/>
  <path class="cls-8" d="M54.11,45v.55a5.32,5.32,0,0,1-1.45,3.31A10.2,10.2,0,0,1,49.94,51c-5.61,3.14-14.74,3.13-20.39,0a10.55,10.55,0,0,1-2.79-2.19,5.54,5.54,0,0,1-1.44-3.22,3,3,0,0,1,0-.73c.16-1.93,1.55-3.83,4.17-5.29,5.61-3.15,14.74-3.13,20.38,0C52.57,41,54,43,54.11,45Z"/>
  <path class="cls-9" d="M55.41,45.24v.53A4.94,4.94,0,0,1,53.75,49a12,12,0,0,1-3.12,2.07c-6.42,3-16.86,3-23.32,0a11.93,11.93,0,0,1-3.19-2.12,5,5,0,0,1-1.66-3.12L1.36,0H77.7Z"/>
  <path class="cls-10" d="M54.32,46.56V47a4,4,0,0,1-1.47,2.68,10.41,10.41,0,0,1-2.76,1.73C44.4,54,35.16,54,29.43,51.39a10.78,10.78,0,0,1-2.83-1.78A4.09,4.09,0,0,1,25.14,47l-.4-47H54.1Z"/>
  <path class="cls-11" d="M43.54,45.27a11.83,11.83,0,0,0,3-8.11c0-2.41-2.22-7.27-2.22-7.27a1.64,1.64,0,0,1-1.08-.44c-.12,1.55-.71,2.63-1.4,2.73a1.46,1.46,0,0,1-1.25-.71c-1.12-1.85.66-5.9.66-5.9s-.5-.22-1.09-.44a7.84,7.84,0,0,0-3.33,2.7,11.38,11.38,0,0,0-1.62,7,3.89,3.89,0,0,1,0,1.35.49.49,0,0,1-.49.41c-.33,0-.1-3.32.08-3.58a10.11,10.11,0,0,1-1.09-.44,10.14,10.14,0,0,0,.25,11.9,7.88,7.88,0,0,0,1.06,1,6.71,6.71,0,0,0,4.21,1.31,7.11,7.11,0,0,0,4.31-1.49Z"/>
  <path class="cls-12" d="M44.62,45.72a11.87,11.87,0,0,0,3-8.12,12.1,12.1,0,0,0-3.3-7.71c-.12,1.56-.7,2.63-1.39,2.73s-1.08-.48-1.25-.7c-1.64-2-.65-5.59-.43-6.35a7.78,7.78,0,0,0-3.33,2.7,11.34,11.34,0,0,0-1.62,7,3.9,3.9,0,0,1,0,1.35c0,.11-.15.43-.49.4a1,1,0,0,1-.66-.45c-.7-.92-.4-3.27-.35-3.57A10.15,10.15,0,0,0,35,44.9a7.2,7.2,0,0,0,1.05,1,6.71,6.71,0,0,0,4.21,1.32,7.25,7.25,0,0,0,4.32-1.49Z"/>
</svg>