<svg id="图层_5" data-name="图层 5"
  xmlns="http://www.w3.org/2000/svg"
  xmlns:xlink="http://www.w3.org/1999/xlink" viewBox="0 0 80 90" width='80' height='90'>
  <defs>
    <style>.cls-1{fill:#f7f7f7;}.cls-2{fill:#d8d8d8;}.cls-3{fill:#e8e8e8;}.cls-4{fill:#efefef;}.cls-5{fill:#0186be;}.cls-6{fill:url(#未命名的渐变_8);}.cls-7{fill:#03e5e1;}.cls-8{fill:#04bcd8;}.cls-10,.cls-9{opacity:0.4;}.cls-9{fill:url(#未命名的渐变_78);}.cls-10{fill:url(#未命名的渐变_87);}.cls-11{fill:url(#未命名的渐变_7);}.cls-12{fill:url(#未命名的渐变_7-2);}.cls-13{fill:url(#未命名的渐变_11);}.cls-14{fill:#00aeeb;}</style>
    <linearGradient id="未命名的渐变_8" x1="17.37" y1="51.17" x2="61.79" y2="51.17" gradientUnits="userSpaceOnUse">
      <stop offset="0" stop-color="#0186be"/>
      <stop offset="0.05" stop-color="#0196c5"/>
      <stop offset="0.18" stop-color="#00c1d7"/>
      <stop offset="0.29" stop-color="#00dce2"/>
      <stop offset="0.35" stop-color="#00e6e6"/>
      <stop offset="0.47" stop-color="#00dde2"/>
      <stop offset="0.66" stop-color="#00c3d7"/>
      <stop offset="0.9" stop-color="#019ac6"/>
      <stop offset="1" stop-color="#0186be"/>
    </linearGradient>
    <linearGradient id="未命名的渐变_78" x1="39.73" y1="52.16" x2="39.73" y2="7.76" gradientUnits="userSpaceOnUse">
      <stop offset="0" stop-color="aqua"/>
      <stop offset="0.95" stop-color="#fff"/>
    </linearGradient>
    <linearGradient id="未命名的渐变_87" x1="39.4" y1="52.16" x2="39.4" y2="9.92" gradientUnits="userSpaceOnUse">
      <stop offset="0" stop-color="#00d8ff"/>
      <stop offset="0.09" stop-color="#11dbff"/>
      <stop offset="0.27" stop-color="#3ce1ff"/>
      <stop offset="0.51" stop-color="#83ecff"/>
      <stop offset="0.82" stop-color="#e2fbff"/>
      <stop offset="0.9" stop-color="#fff"/>
    </linearGradient>
    <linearGradient id="未命名的渐变_7" x1="36.26" y1="40.13" x2="42.02" y2="40.13" gradientUnits="userSpaceOnUse">
      <stop offset="0" stop-color="#0186be"/>
      <stop offset="0.07" stop-color="#018cc0"/>
      <stop offset="0.16" stop-color="#019cc7"/>
      <stop offset="0.26" stop-color="#00b7d2"/>
      <stop offset="0.37" stop-color="#00dce2"/>
      <stop offset="0.39" stop-color="#00e6e6"/>
      <stop offset="0.67" stop-color="#01b4d1"/>
      <stop offset="0.88" stop-color="#0192c3"/>
      <stop offset="1" stop-color="#0186be"/>
    </linearGradient>
    <linearGradient id="未命名的渐变_7-2" x1="30.83" y1="33.26" x2="47.36" y2="33.26" xlink:href="#未命名的渐变_7"/>
    <linearGradient id="未命名的渐变_11" x1="26.71" y1="28.22" x2="51.67" y2="28.22" gradientUnits="userSpaceOnUse">
      <stop offset="0" stop-color="#0186be"/>
      <stop offset="0.04" stop-color="#0190c2"/>
      <stop offset="0.24" stop-color="#00bed5"/>
      <stop offset="0.39" stop-color="#00dbe2"/>
      <stop offset="0.48" stop-color="#00e6e6"/>
      <stop offset="0.63" stop-color="#00cfdd"/>
      <stop offset="0.93" stop-color="#0195c4"/>
      <stop offset="1" stop-color="#0186be"/>
    </linearGradient>
  </defs>
  <title>图标3</title>
  <polygon class="cls-1" points="78.98 60.59 68.92 83.01 28.82 89.23 0.48 73.01 0.48 65.37 78.98 52.96 78.98 60.59"/>
  <polygon class="cls-2" points="78.98 60.59 68.92 83.01 68.92 75.37 78.98 52.96 78.98 60.59"/>
  <polygon class="cls-3" points="78.98 52.96 68.92 75.37 28.82 81.6 0.48 65.37 10.93 42.82 51.18 36.93 78.98 52.96"/>
  <polygon class="cls-4" points="68.92 75.37 68.92 83.01 28.82 89.23 28.82 81.6 68.92 75.37"/>
  <path class="cls-5" d="M61.8,53V50.92h-.43c-.84-2.34-2.88-4.57-6.12-6.39-8.71-4.89-22.78-4.91-31.44-.06-3.25,1.83-5.28,4.08-6.07,6.45h-.39v2.75h0c.19,3.06,2.37,6.1,6.55,8.44C32.62,67,46.7,67,55.35,62.17,59.84,59.65,62,56.31,61.8,53Z"/>
  <path class="cls-6" d="M60.74,47.45h0L57.16,42,54,41.76c-7.09-3.44-17.09-4-25-1.59l-1.36-.09-5.33,1.23L19.27,46C15.65,50.62,17.21,56.18,23.92,60c8.71,4.88,22.77,4.9,31.42,0C61.37,56.61,63.17,51.74,60.74,47.45Z"/>
  <ellipse class="cls-7" cx="39.58" cy="45.04" rx="10.36" ry="18.46" transform="translate(-5.66 84.39) rotate(-89.71)"/>
  <path class="cls-8" d="M54,44.77v.56a5.46,5.46,0,0,1-1.45,3.31,10.18,10.18,0,0,1-2.72,2.13c-5.62,3.15-14.74,3.14-20.39,0a10.37,10.37,0,0,1-2.79-2.2,5.59,5.59,0,0,1-1.45-3.21,4.45,4.45,0,0,1,0-.73c.17-1.93,1.55-3.83,4.18-5.3,5.61-3.14,14.74-3.13,20.38,0C52.43,40.85,53.84,42.8,54,44.77Z"/>
  <path class="cls-9" d="M55.61,45.24v.54A4.85,4.85,0,0,1,54,49a11.5,11.5,0,0,1-3.12,2.07c-6.42,3-16.85,3-23.32,0a11.86,11.86,0,0,1-3.19-2.12,5,5,0,0,1-1.66-3.11L1.56,0H77.9Z"/>
  <path class="cls-10" d="M54.19,46.56V47a4,4,0,0,1-1.47,2.68A10.32,10.32,0,0,1,50,51.42C44.27,54,35,54,29.3,51.39a10.52,10.52,0,0,1-2.83-1.77A4.11,4.11,0,0,1,25,47L24.6,0H54Z"/>
  <path class="cls-11" d="M39,37.26a2.88,2.88,0,0,0-2.78,3,5.1,5.1,0,0,0,1.31,2.63c.54.5.66-.36,1.46-.39a2.86,2.86,0,0,0,2.77-3c0-.61.42,0,.09-.41-.54-.73-1.87-1.87-2.85-1.84"/>
  <path class="cls-12" d="M32,32.68l.13-.13.12-.13.07-.06c3.61-3.48,9.46-3.87,13.11-.44l.43.4.59.56a3.24,3.24,0,0,1,.86,2.89c-.23,1-2.78.76-3.5.08l-1-1a5.79,5.79,0,0,0-8.17.25l-.69.72c-.67.71-1.45,1.54-2.17.87a4.71,4.71,0,0,1-.91-2,1.74,1.74,0,0,1,.48-1.28Z"/>
  <path class="cls-13" d="M27,29.28l.58-.61a0,0,0,0,1,0,0l.45-.48a1.86,1.86,0,0,1,.26-.23,15.93,15.93,0,0,1,21.33-.32.31.31,0,0,0,.09.07l1.11,1.05c.65.61,1.21,2.42.58,3.08s-2.39.08-3-.54l-1.11-1s0,0,0,0a12.34,12.34,0,0,0-17,.44l-.82.88c-.62.65-1.16,1.64-1.82,1s-1.19-2.62-.58-3.28"/>
  <path class="cls-14" d="M39.49,37.94a2.87,2.87,0,1,0,3,2.77,2.86,2.86,0,0,0-3-2.77"/>
  <path class="cls-14" d="M32.51,34.11l.13-.13.12-.13.07-.06a9.37,9.37,0,0,1,12.94-.1l.42.41.6.55a1.8,1.8,0,0,1-2.47,2.63l-1-1a5.78,5.78,0,0,0-8.16.25l-.7.72a1.79,1.79,0,0,1-2.52.07,1.79,1.79,0,0,1-.08-2.52Z"/>
  <path class="cls-14" d="M27.52,30.71l.57-.61a0,0,0,0,0,0,0l.46-.48a1.86,1.86,0,0,1,.26-.23,15.62,15.62,0,0,1,21.1-.17l.09.07,1.11,1a1.64,1.64,0,0,1-2.25,2.4l-1.11-1,0,0a12.34,12.34,0,0,0-17,.44l-.82.88a1.64,1.64,0,0,1-2.39-2.26"/>
</svg>