<?xml version="1.0" encoding="utf-8"?>
<!-- Generator: Adobe Illustrator 24.0.1, SVG Export Plug-In . SVG Version: 6.00 Build 0)  -->
<svg version="1.1" id="图层_5" xmlns="http://www.w3.org/2000/svg" xmlns:xlink="http://www.w3.org/1999/xlink" x="0px" y="0px"
	 width="80px" height="90px" viewBox="0 0 80 90" style="enable-background:new 0 0 80 90;" xml:space="preserve">
<style type="text/css">
	.st0{fill:#F7F7F7;}
	.st1{fill:#D8D8D8;}
	.st2{fill:#E8E8E8;}
	.st3{fill:#EFEFEF;}
	.st4{fill:#0186BE;}
	.st5{fill:url(#SVGID_1_);}
	.st6{fill:#03E5E1;}
	.st7{fill:#04BCD8;}
	.st8{opacity:0.4;fill:url(#SVGID_2_);enable-background:new    ;}
	.st9{fill:url(#SVGID_3_);}
	.st10{fill:url(#SVGID_4_);}
	.st11{fill:#00AEEB;}
</style>
<polygon class="st0" points="79.1,60.6 69.1,83 29,89.2 0.6,73 0.6,65.4 79.1,53 "/>
<polygon class="st1" points="79.1,60.6 69.1,83 69.1,75.4 79.1,53 "/>
<polygon class="st2" points="79.1,53 69.1,75.4 29,81.6 0.6,65.4 11.1,42.8 51.3,36.9 "/>
<polygon class="st3" points="69.1,75.4 69.1,83 29,89.2 29,81.6 "/>
<path class="st4" d="M62,53v-2.1h-0.4c-0.8-2.3-2.9-4.6-6.1-6.4c-8.8-4.9-22.8-4.9-31.5-0.1c-3.3,1.8-5.3,4.1-6.1,6.5h-0.4v2
	c0,0.2,0,0.4,0,0.6v0.2l0,0c0.2,3.1,2.4,6.1,6.5,8.4c8.7,4.9,22.8,4.9,31.4,0.1C60,59.7,62.1,56.3,62,53z"/>
<linearGradient id="SVGID_1_" gradientUnits="userSpaceOnUse" x1="17.5218" y1="40.7926" x2="61.9467" y2="40.7926" gradientTransform="matrix(1 0 0 -1 0 92)">
	<stop  offset="0" style="stop-color:#0186BE"/>
	<stop  offset="5.000000e-02" style="stop-color:#0196C5"/>
	<stop  offset="0.18" style="stop-color:#00C1D7"/>
	<stop  offset="0.29" style="stop-color:#00DCE2"/>
	<stop  offset="0.35" style="stop-color:#00E6E6"/>
	<stop  offset="0.47" style="stop-color:#00DDE2"/>
	<stop  offset="0.66" style="stop-color:#00C3D7"/>
	<stop  offset="0.9" style="stop-color:#019AC6"/>
	<stop  offset="1" style="stop-color:#0186BE"/>
</linearGradient>
<path class="st5" d="M60.9,47.5L60.9,47.5L57.3,42l-3.1-0.2c-7.1-3.4-17.1-4-25-1.6l-1.4-0.1l-5.3,1.2L19.4,46
	c-3.6,4.6-2.1,10.2,4.7,14c8.7,4.9,22.8,4.9,31.4,0C61.5,56.6,63.3,51.7,60.9,47.5z"/>
<ellipse transform="matrix(5.061449e-03 -1 1 5.061449e-03 -5.5085 84.5405)" class="st6" cx="39.7" cy="45" rx="10.4" ry="18.5"/>
<path class="st7" d="M54.1,44.8v0.6c-0.1,1.2-0.6,2.4-1.5,3.3c-0.8,0.9-1.7,1.6-2.7,2.1c-5.6,3.2-14.7,3.1-20.4,0
	c-1-0.6-2-1.3-2.8-2.2c-0.8-0.9-1.3-2-1.4-3.2c0-0.2,0-0.5,0-0.7c0.2-1.9,1.5-3.8,4.2-5.3c5.6-3.1,14.7-3.1,20.4,0
	C52.6,40.8,54,42.8,54.1,44.8z"/>
<linearGradient id="SVGID_2_" gradientUnits="userSpaceOnUse" x1="39.365" y1="39.84" x2="39.365" y2="82.08" gradientTransform="matrix(1 0 0 -1 0 92)">
	<stop  offset="0" style="stop-color:#00D8FF"/>
	<stop  offset="9.000000e-02" style="stop-color:#11DBFF"/>
	<stop  offset="0.27" style="stop-color:#3CE1FF"/>
	<stop  offset="0.51" style="stop-color:#83ECFF"/>
	<stop  offset="0.82" style="stop-color:#E2FBFF"/>
	<stop  offset="0.9" style="stop-color:#FFFFFF"/>
</linearGradient>
<path class="st8" d="M54.1,46.6V47c-0.1,1.1-0.6,2-1.5,2.7c-0.8,0.7-1.8,1.3-2.8,1.7C44.2,54,35,54,29.2,51.4c-1-0.4-2-1-2.8-1.8
	C25.6,49,25.1,48,25,47L24.6,0h29.3L54.1,46.6z"/>
<linearGradient id="SVGID_3_" gradientUnits="userSpaceOnUse" x1="41.2101" y1="52.8001" x2="37.8801" y2="50.2901" gradientTransform="matrix(1 0 0 -1 0 92)">
	<stop  offset="5.000000e-02" style="stop-color:#0186BE"/>
	<stop  offset="0.16" style="stop-color:#019FC8"/>
	<stop  offset="0.4" style="stop-color:#00D2DE"/>
	<stop  offset="0.51" style="stop-color:#00E6E6"/>
	<stop  offset="0.73" style="stop-color:#01B4D1"/>
	<stop  offset="0.91" style="stop-color:#0192C3"/>
	<stop  offset="1" style="stop-color:#0186BE"/>
</linearGradient>
<path class="st9" d="M39.3,38c0.9-0.2,2,0.7,2.5,1c0,0.2-0.4,0.6-0.4,1.1c0,1.3-0.9,2.4-2.2,2.7c-0.2,0,0.5,0.6,0.3,0.6
	c-1.1-0.7-2.5-0.9-2.5-2.7C37.1,39.4,38,38.3,39.3,38z"/>
<linearGradient id="SVGID_4_" gradientUnits="userSpaceOnUse" x1="44.0115" y1="67.3236" x2="36.9915" y2="61.5936" gradientTransform="matrix(1 0 0 -1 0 92)">
	<stop  offset="0" style="stop-color:#0186BE"/>
	<stop  offset="7.000000e-02" style="stop-color:#018CC0"/>
	<stop  offset="0.16" style="stop-color:#019CC7"/>
	<stop  offset="0.26" style="stop-color:#00B7D2"/>
	<stop  offset="0.37" style="stop-color:#00DCE2"/>
	<stop  offset="0.39" style="stop-color:#00E6E6"/>
	<stop  offset="0.67" style="stop-color:#01B4D1"/>
	<stop  offset="0.88" style="stop-color:#0192C3"/>
	<stop  offset="1" style="stop-color:#0186BE"/>
</linearGradient>
<path class="st10" d="M40.1,19.8c1-0.2,2,0.6,2.6,1c0,0.5-1.1,13.7-1.1,13.7c-0.1,1.3-1.9,3.2-1.9,3.2s-2.6-0.9-2.6-2.6L36.3,23
	c-0.1-1.4,0.9-2.6,2.3-2.9L40.1,19.8z"/>
<path class="st11" d="M41.7,20.7c1.1-0.1,2.1,0.6,2.3,1.7c0,0.2,0,0.4,0,0.6l-0.8,12.3c-0.1,1.3-1,2.3-2.3,2.6
	c-1.1,0.1-2.1-0.6-2.2-1.7c0-0.1,0-0.2,0-0.3l-0.8-12.1c-0.1-1.4,0.9-2.6,2.3-2.9L41.7,20.7z"/>
<ellipse transform="matrix(0.4779 -0.8784 0.8784 0.4779 -14.8383 57.3694)" class="st11" cx="40.8" cy="41.2" rx="2.4" ry="2.1"/>
</svg>
