<svg id="图层_5" data-name="图层 5"
  xmlns="http://www.w3.org/2000/svg"
  xmlns:xlink="http://www.w3.org/1999/xlink" viewBox="0 0 50.98 51.64" width='50' height='51'>
  <defs>
    <style>.cls-1{fill:none;}.cls-2{isolation:isolate;}.cls-3{clip-path:url(#clip-path);}.cls-4{fill:#004967;}.cls-5{fill:#004663;}.cls-6{clip-path:url(#clip-path-2);}.cls-7{fill:#004c6a;}.cls-8{fill:#ebebeb;}.cls-9{clip-path:url(#clip-path-3);}.cls-10{fill:#858585;}.cls-11{fill:#8a8a8a;}.cls-12{fill:#8f8f8f;}.cls-13{clip-path:url(#clip-path-4);}.cls-14{clip-path:url(#clip-path-5);}.cls-15{clip-path:url(#clip-path-6);}.cls-16{clip-path:url(#clip-path-7);}.cls-17{clip-path:url(#clip-path-8);}.cls-18{clip-path:url(#clip-path-9);}.cls-19{clip-path:url(#clip-path-10);}.cls-20{clip-path:url(#clip-path-11);}.cls-21{clip-path:url(#clip-path-12);}.cls-22{fill:#007caf;}.cls-23{fill:#004b6a;}.cls-24{fill:#00445f;}.cls-25{clip-path:url(#clip-path-13);}.cls-26{fill:#007878;}.cls-27{clip-path:url(#clip-path-14);}.cls-28{clip-path:url(#clip-path-15);}.cls-29{clip-path:url(#clip-path-16);}.cls-30{fill:#007373;}.cls-31{clip-path:url(#clip-path-17);}.cls-32{fill:#007c7c;}.cls-33{fill:#008181;}.cls-34{fill:#00d4d4;}.cls-35{clip-path:url(#clip-path-18);}.cls-36{clip-path:url(#clip-path-19);}</style>
    <clipPath id="clip-path">
      <path id="SVGID" class="cls-1" d="M35.76,35.34h1.66a2.85,2.85,0,0,1,2.78,2.91,2.89,2.89,0,0,1-1.72,2.67H36.83a2.9,2.9,0,0,0,1.72-2.67,2.86,2.86,0,0,0-2.79-2.91h0Z"/>
    </clipPath>
    <clipPath id="clip-path-2">
      <path id="SVGID-2" data-name="SVGID" class="cls-1" d="M35.75,41.14a2.75,2.75,0,0,0,1.08-.22h1.65a2.71,2.71,0,0,1-1.08.22Z"/>
    </clipPath>
    <clipPath id="clip-path-3">
      <path id="SVGID-3" data-name="SVGID" class="cls-1" d="M37.4,41.14H35.75a2.7,2.7,0,0,1-2-.85,3,3,0,0,1-.6-3.16,2.8,2.8,0,0,1,2.58-1.79h1.66a2.78,2.78,0,0,0-2.58,1.79,3,3,0,0,0,.59,3.16A2.73,2.73,0,0,0,37.4,41.14Z"/>
    </clipPath>
    <clipPath id="clip-path-4">
      <path id="SVGID-4" data-name="SVGID" class="cls-1" d="M24.64,35.34h1.65a2.86,2.86,0,0,1,2.79,2.91,2.89,2.89,0,0,1-1.74,2.67H25.69a2.88,2.88,0,0,0,1.73-2.67A2.85,2.85,0,0,0,24.64,35.34Z"/>
    </clipPath>
    <clipPath id="clip-path-5">
      <path id="SVGID-5" data-name="SVGID" class="cls-1" d="M24.62,41.14a2.66,2.66,0,0,0,1.07-.22h1.65a2.62,2.62,0,0,1-1.06.22Z"/>
    </clipPath>
    <clipPath id="clip-path-6">
      <path id="SVGID-6" data-name="SVGID" class="cls-1" d="M26.28,41.14H24.62a2.73,2.73,0,0,1-2-.85,3,3,0,0,1-.59-3.16,2.78,2.78,0,0,1,2.58-1.79h1.65a2.78,2.78,0,0,0-2.58,1.79,3,3,0,0,0,.6,3.16A2.7,2.7,0,0,0,26.28,41.14Z"/>
    </clipPath>
    <clipPath id="clip-path-7">
      <path id="SVGID-7" data-name="SVGID" class="cls-1" d="M16.3,38.25a3,3,0,0,0-.82-2.06h1.66A3,3,0,0,1,18,38.25a2.88,2.88,0,0,1-1.73,2.67H14.57A2.89,2.89,0,0,0,16.3,38.25Z"/>
    </clipPath>
    <clipPath id="clip-path-8">
      <path id="SVGID-8" data-name="SVGID" class="cls-1" d="M14.55,35.34h0Z"/>
    </clipPath>
    <clipPath id="clip-path-9">
      <path id="SVGID-9" data-name="SVGID" class="cls-1" d="M13.51,35.34h1.65a2.78,2.78,0,0,1,2,.85H15.48a2.76,2.76,0,0,0-2-.85h0Z"/>
    </clipPath>
    <clipPath id="clip-path-10">
      <path id="SVGID-10" data-name="SVGID" class="cls-1" d="M13.5,41.14a2.7,2.7,0,0,0,1.07-.22h1.65a2.7,2.7,0,0,1-1.07.22Z"/>
    </clipPath>
    <clipPath id="clip-path-11">
      <path id="SVGID-11" data-name="SVGID" class="cls-1" d="M15.15,41.14H13.5a2.7,2.7,0,0,1-2-.85,3,3,0,0,1-.6-3.16,2.79,2.79,0,0,1,2.58-1.79h1.65a2.78,2.78,0,0,0-2.57,1.79,3,3,0,0,0,.59,3.16A2.71,2.71,0,0,0,15.15,41.14Z"/>
    </clipPath>
    <clipPath id="clip-path-12">
      <path id="SVGID-12" data-name="SVGID" class="cls-1" d="M9.6,47.38H8a9.59,9.59,0,0,1,1.39-19H11a9.59,9.59,0,0,0-1.39,19Z"/>
    </clipPath>
    <clipPath id="clip-path-13">
      <path id="SVGID-13" data-name="SVGID" class="cls-1" d="M44,11.31H42.32C37.05,6.7,31.53,4.6,25.86,4.52h1.65C33.18,4.6,38.7,6.7,44,11.31Z"/>
    </clipPath>
    <clipPath id="clip-path-14">
      <path id="SVGID-14" data-name="SVGID" class="cls-1" d="M27.51,4.52h0Z"/>
    </clipPath>
    <clipPath id="clip-path-15">
      <path id="SVGID-15" data-name="SVGID" class="cls-1" d="M39.12,17.3H37.47c-3.91-3.42-7.94-4.91-11.95-4.91h1.66C31.18,12.39,35.21,13.88,39.12,17.3Z"/>
    </clipPath>
    <clipPath id="clip-path-16">
      <path id="SVGID-16" data-name="SVGID" class="cls-1" d="M34.08,24H32.42a10.43,10.43,0,0,0-7-2.88H27.1A10.45,10.45,0,0,1,34.08,24Z"/>
    </clipPath>
    <clipPath id="clip-path-17">
      <path id="SVGID-17" data-name="SVGID" class="cls-1" d="M17.55,20.77H15.9A14.26,14.26,0,0,1,18.64,19a15.1,15.1,0,0,1,6.83-1.75h1.65A15.17,15.17,0,0,0,20.29,19,14.59,14.59,0,0,0,17.55,20.77Z"/>
    </clipPath>
    <clipPath id="clip-path-18">
      <path id="SVGID-18" data-name="SVGID" class="cls-1" d="M12.51,13.88H10.85c.23-.19.61-.49,1.16-.87a25.29,25.29,0,0,1,3-1.8,23.32,23.32,0,0,1,10.5-2.7H27.2a23.35,23.35,0,0,0-10.5,2.7,25.17,25.17,0,0,0-3,1.8A13,13,0,0,0,12.51,13.88Z"/>
    </clipPath>
    <clipPath id="clip-path-19">
      <path id="SVGID-19" data-name="SVGID" class="cls-1" d="M7.65,7.73H6c.29-.25.81-.65,1.53-1.15a33.6,33.6,0,0,1,4.08-2.41A31,31,0,0,1,25.6.65h1.66a31,31,0,0,0-14,3.52A32.73,32.73,0,0,0,9.19,6.58,18.82,18.82,0,0,0,7.65,7.73Z"/>
    </clipPath>
  </defs>
  <title>图标3</title>
  <g class="cls-2">
    <g class="cls-2">
      <g class="cls-3">
        <g class="cls-2">
          <path class="cls-4" d="M38.48,40.92H36.83a3.1,3.1,0,0,0,.47-.26H39a2.68,2.68,0,0,1-.47.26"/>
          <path class="cls-5" d="M39,40.66H37.3a2.92,2.92,0,0,0,1.25-2.41,2.86,2.86,0,0,0-2.79-2.91h1.66a2.86,2.86,0,0,1,2.78,2.91A2.92,2.92,0,0,1,39,40.66"/>
        </g>
      </g>
    </g>
    <g class="cls-2">
      <g class="cls-6">
        <g class="cls-2">
          <path class="cls-7" d="M37.4,41.14H35.75a2.76,2.76,0,0,0,.75-.1h1.65a2.71,2.71,0,0,1-.75.1"/>
          <path class="cls-4" d="M38.15,41H36.5l.33-.12h1.65l-.33.12"/>
        </g>
      </g>
    </g>
    <path class="cls-8" d="M37.42,35.34a2.86,2.86,0,0,1,2.78,2.91,2.89,2.89,0,0,1-1.72,2.67,2.72,2.72,0,0,1-3-.63,3,3,0,0,1-.59-3.16A2.78,2.78,0,0,1,37.42,35.34Z"/>
    <g class="cls-2">
      <g class="cls-9">
        <g class="cls-2">
          <path class="cls-10" d="M37.4,41.14H35.75a2.7,2.7,0,0,1-2-.85,3,3,0,0,1-.6-3.16,2.89,2.89,0,0,1,1-1.31h1.66a2.83,2.83,0,0,0-1,1.31,3,3,0,0,0,.59,3.16,2.73,2.73,0,0,0,2,.85"/>
          <path class="cls-11" d="M35.88,35.82H34.22a2.94,2.94,0,0,1,.8-.38h1.65a2.88,2.88,0,0,0-.79.38"/>
          <path class="cls-12" d="M36.67,35.44H35a3.07,3.07,0,0,1,.74-.1h1.66a3.08,3.08,0,0,0-.75.1"/>
        </g>
      </g>
    </g>
    <g class="cls-2">
      <g class="cls-13">
        <g class="cls-2">
          <path class="cls-4" d="M27.34,40.92H25.69a2.77,2.77,0,0,0,.48-.26h1.66a2.54,2.54,0,0,1-.49.26"/>
          <path class="cls-5" d="M27.83,40.66H26.17a2.92,2.92,0,0,0,1.25-2.41,2.85,2.85,0,0,0-2.78-2.91h1.65a2.86,2.86,0,0,1,2.79,2.91,2.92,2.92,0,0,1-1.25,2.41"/>
        </g>
      </g>
    </g>
    <g class="cls-2">
      <g class="cls-14">
        <g class="cls-2">
          <path class="cls-7" d="M26.28,41.14H24.62a2.64,2.64,0,0,0,.74-.1H27a2.74,2.74,0,0,1-.74.1"/>
          <path class="cls-4" d="M27,41H25.36l.33-.12h1.65A1.75,1.75,0,0,1,27,41"/>
        </g>
      </g>
    </g>
    <g class="cls-2">
      <g class="cls-15">
        <g class="cls-2">
          <path class="cls-10" d="M26.28,41.14H24.62a2.73,2.73,0,0,1-2-.85,3,3,0,0,1-.59-3.16,2.83,2.83,0,0,1,1-1.31h1.65a2.89,2.89,0,0,0-1,1.31,3,3,0,0,0,.6,3.16,2.7,2.7,0,0,0,2,.85"/>
          <path class="cls-11" d="M24.75,35.82H23.1a2.88,2.88,0,0,1,.79-.38h1.65a3,3,0,0,0-.79.38"/>
          <path class="cls-12" d="M25.54,35.44H23.89a3.08,3.08,0,0,1,.75-.1h1.65a3.08,3.08,0,0,0-.75.1"/>
        </g>
      </g>
    </g>
    <g class="cls-2">
      <g class="cls-16">
        <g class="cls-2">
          <path class="cls-4" d="M16.22,40.92H14.57a2.77,2.77,0,0,0,.48-.26H16.7a2.77,2.77,0,0,1-.48.26"/>
          <path class="cls-5" d="M16.7,40.66H15.05a2.92,2.92,0,0,0,1.25-2.41,3,3,0,0,0-.82-2.06,2.76,2.76,0,0,0-2-.85h1.65a2.78,2.78,0,0,1,2,.85A3,3,0,0,1,18,38.25a2.92,2.92,0,0,1-1.25,2.41"/>
        </g>
      </g>
    </g>
    <g class="cls-2">
      <g class="cls-17">
        <g class="cls-2">
          <path class="cls-5" d="M16.7,40.66H15.05a2.92,2.92,0,0,0,1.25-2.41,3,3,0,0,0-.82-2.06,2.76,2.76,0,0,0-2-.85h1.65a2.78,2.78,0,0,1,2,.85A3,3,0,0,1,18,38.25a2.92,2.92,0,0,1-1.25,2.41"/>
        </g>
      </g>
    </g>
    <g class="cls-2">
      <g class="cls-18">
        <g class="cls-2">
          <path class="cls-5" d="M16.7,40.66H15.05a2.92,2.92,0,0,0,1.25-2.41,3,3,0,0,0-.82-2.06,2.76,2.76,0,0,0-2-.85h1.65a2.78,2.78,0,0,1,2,.85A3,3,0,0,1,18,38.25a2.92,2.92,0,0,1-1.25,2.41"/>
        </g>
      </g>
    </g>
    <g class="cls-2">
      <g class="cls-19">
        <g class="cls-2">
          <path class="cls-7" d="M15.15,41.14H13.5a2.74,2.74,0,0,0,.74-.1h1.65a2.64,2.64,0,0,1-.74.1"/>
          <path class="cls-4" d="M15.89,41H14.24l.33-.12h1.65l-.33.12"/>
        </g>
      </g>
    </g>
    <g class="cls-2">
      <g class="cls-20">
        <g class="cls-2">
          <path class="cls-10" d="M15.15,41.14H13.5a2.7,2.7,0,0,1-2-.85,3,3,0,0,1-.6-3.16,2.89,2.89,0,0,1,1-1.31h1.66a2.77,2.77,0,0,0-1,1.31,3,3,0,0,0,.59,3.16,2.71,2.71,0,0,0,2,.85"/>
          <path class="cls-11" d="M13.63,35.82H12a3,3,0,0,1,.79-.38h1.66a2.88,2.88,0,0,0-.79.38"/>
          <path class="cls-12" d="M14.42,35.44H12.76a3.08,3.08,0,0,1,.75-.1h1.65a3.07,3.07,0,0,0-.74.1"/>
        </g>
      </g>
    </g>
    <g class="cls-2">
      <g class="cls-21">
        <g class="cls-2">
          <path class="cls-5" d="M9.6,47.38H8A9.42,9.42,0,0,1,.16,38,9.69,9.69,0,0,1,4.3,30H6a9.67,9.67,0,0,0-4.15,8A9.43,9.43,0,0,0,9.6,47.38"/>
          <path class="cls-4" d="M6,30H4.3a8.79,8.79,0,0,1,2.59-1.22H8.54A8.62,8.62,0,0,0,6,30"/>
          <path class="cls-7" d="M8.54,28.73H6.89a8.64,8.64,0,0,1,2.45-.35H11a8.69,8.69,0,0,0-2.45.35"/>
        </g>
      </g>
    </g>
    <path class="cls-22" d="M41.59,28.38A9.38,9.38,0,0,1,50.76,38a9.53,9.53,0,0,1-6.11,9v4.64H9.6v-4.2a9.59,9.59,0,0,1,1.39-19ZM27.34,40.92a2.89,2.89,0,0,0,1.74-2.67,2.86,2.86,0,0,0-2.79-2.91,2.78,2.78,0,0,0-2.58,1.79,3,3,0,0,0,.6,3.16,2.7,2.7,0,0,0,2,.85,2.62,2.62,0,0,0,1.06-.22m11.14,0a2.89,2.89,0,0,0,1.72-2.67,2.86,2.86,0,0,0-2.78-2.91,2.78,2.78,0,0,0-2.58,1.79,3,3,0,0,0,.59,3.16,2.72,2.72,0,0,0,3,.63m-22.26,0A2.88,2.88,0,0,0,18,38.25a3,3,0,0,0-.81-2.06,2.74,2.74,0,0,0-4.55.94,3,3,0,0,0,.59,3.16,2.71,2.71,0,0,0,3,.63"/>
    <path class="cls-8" d="M26.29,35.34a2.86,2.86,0,0,1,2.79,2.91,2.89,2.89,0,0,1-1.74,2.67,2.62,2.62,0,0,1-1.06.22,2.7,2.7,0,0,1-2-.85,3,3,0,0,1-.6-3.16A2.78,2.78,0,0,1,26.29,35.34Z"/>
    <path class="cls-8" d="M15.16,35.34a2.78,2.78,0,0,1,2,.85A3,3,0,0,1,18,38.25a2.88,2.88,0,0,1-1.73,2.67,2.71,2.71,0,0,1-3-.63,3,3,0,0,1-.59-3.16A2.78,2.78,0,0,1,15.16,35.34Z"/>
    <polygon class="cls-23" points="10.99 28.38 9.34 28.38 39.93 28.38 41.59 28.38 10.99 28.38"/>
    <rect class="cls-24" x="7.95" y="47.38" width="1.65" height="4.2"/>
  </g>
  <g class="cls-2">
    <g class="cls-2">
      <g class="cls-25">
        <g class="cls-2">
          <path class="cls-26" d="M44,11.31H42.32C37.05,6.7,31.53,4.6,25.86,4.52h1.65C33.18,4.6,38.7,6.7,44,11.31"/>
        </g>
      </g>
    </g>
    <g class="cls-2">
      <g class="cls-27">
        <g class="cls-2">
          <path class="cls-26" d="M27.51,4.52h0"/>
        </g>
      </g>
    </g>
    <g class="cls-2">
      <g class="cls-28">
        <g class="cls-2">
          <path class="cls-26" d="M39.12,17.3H37.47c-3.91-3.42-7.94-4.91-11.95-4.91h1.66c4,0,8,1.49,11.94,4.91"/>
        </g>
      </g>
    </g>
    <g class="cls-2">
      <g class="cls-29">
        <g class="cls-2">
          <path class="cls-26" d="M34.08,24H32.42a10.43,10.43,0,0,0-7-2.88H27.1a10.45,10.45,0,0,1,7,2.88"/>
        </g>
      </g>
    </g>
    <polygon class="cls-30" points="19.85 23.78 18.2 23.78 15.9 20.77 17.55 20.77 19.85 23.78"/>
    <g class="cls-2">
      <g class="cls-31">
        <g class="cls-2">
          <path class="cls-26" d="M17.55,20.77H15.9a10.39,10.39,0,0,1,.83-.63h1.66a9.13,9.13,0,0,0-.84.63"/>
          <path class="cls-32" d="M18.39,20.14H16.73A16.17,16.17,0,0,1,18.64,19a17.66,17.66,0,0,1,3-1.19h1.65a18,18,0,0,0-3,1.19,16.81,16.81,0,0,0-1.9,1.12"/>
          <path class="cls-33" d="M23.29,17.83H21.64a13.92,13.92,0,0,1,3.83-.56h1.65a14,14,0,0,0-3.83.56"/>
        </g>
      </g>
    </g>
    <path class="cls-34" d="M27.12,17.27a13.93,13.93,0,0,1,9.3,3.79l-2.34,3a10.45,10.45,0,0,0-7-2.88,11.5,11.5,0,0,0-5.21,1.36,14.75,14.75,0,0,0-1.54.9c-.26.18-.43.31-.5.37l-2.3-3A14.59,14.59,0,0,1,20.29,19,15.17,15.17,0,0,1,27.12,17.27Z"/>
    <polygon class="cls-30" points="14.81 16.89 13.15 16.89 10.85 13.88 12.51 13.88 14.81 16.89"/>
    <path class="cls-34" d="M27.2,8.51c4.8,0,9.63,1.77,14.27,5.82l-2.35,3c-3.91-3.42-7.94-4.91-11.94-4.91a19.7,19.7,0,0,0-8.88,2.3,23.11,23.11,0,0,0-2.62,1.55c-.29.21-.59.42-.87.65l-2.3-3A13,13,0,0,1,13.67,13a25.17,25.17,0,0,1,3-1.8A23.35,23.35,0,0,1,27.2,8.51Z"/>
    <g class="cls-2">
      <g class="cls-35">
        <g class="cls-2">
          <path class="cls-26" d="M12.51,13.88H10.85c.23-.19.61-.49,1.16-.87L12.1,13h1.65l-.08.06a13,13,0,0,0-1.16.87"/>
          <path class="cls-32" d="M13.75,13H12.1a25.07,25.07,0,0,1,3-1.74,26.56,26.56,0,0,1,4.63-1.84h1.65a26.88,26.88,0,0,0-4.63,1.84A25.91,25.91,0,0,0,13.75,13"/>
          <path class="cls-33" d="M21.33,9.37H19.68a21.11,21.11,0,0,1,5.87-.86H27.2a21.11,21.11,0,0,0-5.87.86"/>
        </g>
      </g>
    </g>
    <polygon class="cls-30" points="9.96 10.74 8.3 10.74 6 7.73 7.65 7.73 9.96 10.74"/>
    <g class="cls-2">
      <g class="cls-36">
        <g class="cls-2">
          <path class="cls-26" d="M7.65,7.73H6c.29-.25.81-.65,1.53-1.15l.09,0H9.27l-.08,0A18.82,18.82,0,0,0,7.65,7.73"/>
          <path class="cls-32" d="M9.27,6.53H7.62a33.44,33.44,0,0,1,4-2.36,33.81,33.81,0,0,1,5.95-2.36h1.66a34.22,34.22,0,0,0-6,2.36,33.44,33.44,0,0,0-4,2.36"/>
          <path class="cls-33" d="M19.22,1.81H17.56a28.94,28.94,0,0,1,8-1.16h1.66a28.84,28.84,0,0,0-8,1.16"/>
        </g>
      </g>
    </g>
    <path class="cls-34" d="M27.26.65h.29C34.06.73,40.4,3.16,46.32,8.34l-2.35,3C38.7,6.7,33.18,4.6,27.51,4.52h-.26a27.44,27.44,0,0,0-12.4,3.14,29.05,29.05,0,0,0-3.64,2.16q-.56.38-1,.69l-.29.23-2.31-3A18.82,18.82,0,0,1,9.19,6.58a32.73,32.73,0,0,1,4.07-2.41A31,31,0,0,1,27.26.65Z"/>
  </g>
</svg>