<svg id="图层_5" data-name="图层 5"
  xmlns="http://www.w3.org/2000/svg" viewBox="0 0 45 51" width='45' height='51'>
  <defs>
    <style>.cls-1{fill:#f2f2f2;stroke:#00e6e6;stroke-linecap:square;stroke-linejoin:round;stroke-width:0.5px;}.cls-2{fill:#0087be;}.cls-3{fill:#e5e5e5;}.cls-4{fill:#00e6e6;}</style>
  </defs>
  <title>图标3</title>
  <path class="cls-1" d="M22.51,6.38A19.85,19.85,0,0,1,30.4,8l8,3.48V22a22.78,22.78,0,0,1-1.31,7.62h0a24.81,24.81,0,0,1-3.7,6.8v0l0,0a24,24,0,0,1-5.62,5.35,20.12,20.12,0,0,1-5.27,2.57,20.05,20.05,0,0,1-5.28-2.58,23.89,23.89,0,0,1-5.62-5.37h0v0a24.47,24.47,0,0,1-3.67-6.78h0A22.58,22.58,0,0,1,6.59,22V11.5l8-3.48a19.81,19.81,0,0,1,7.89-1.64"/>
  <path class="cls-2" d="M22.5,3.2a23.44,23.44,0,0,1,4.65.47A23.18,23.18,0,0,1,31.66,5.1L41.6,9.4V22a25.39,25.39,0,0,1-1.49,8.68,27.8,27.8,0,0,1-4.18,7.68h0a27.16,27.16,0,0,1-6.36,6.07,23.47,23.47,0,0,1-7.06,3.25,23.5,23.5,0,0,1-7.08-3.27,27.14,27.14,0,0,1-6.36-6.07h0a27.92,27.92,0,0,1-4.14-7.65h0A25.49,25.49,0,0,1,3.42,22V9.41L13.36,5.1a23.06,23.06,0,0,1,4.5-1.42A22.56,22.56,0,0,1,22.5,3.2M22.5,0A26.19,26.19,0,0,0,12.08,2.18L.22,7.31V22A28.7,28.7,0,0,0,1.9,31.71a31,31,0,0,0,4.61,8.53A30.52,30.52,0,0,0,13.62,47,26.65,26.65,0,0,0,22.49,51,26.49,26.49,0,0,0,31.35,47a30.32,30.32,0,0,0,7.11-6.78A31.09,31.09,0,0,0,43.1,31.7a28.75,28.75,0,0,0,1.68-9.76V7.31L32.91,2.18A26.14,26.14,0,0,0,22.5,0Zm0,0"/>
  <path class="cls-3" d="M22.6,6.63a19.52,19.52,0,0,1,7.79,1.62l7.92,3.43V22A22.13,22.13,0,0,1,37,29.51h0a24.42,24.42,0,0,1-3.65,6.71v0l0,0a23.53,23.53,0,0,1-5.54,5.28,20.23,20.23,0,0,1-5.2,2.54V6.63"/>
  <path class="cls-2" d="M29.26,20.76a6.17,6.17,0,0,1-3.34,5.49,3.17,3.17,0,0,0-1.27,1.19,3.2,3.2,0,0,0-.46,2,.36.36,0,0,1-.36.4H20.6a.78.78,0,0,1-.78-.78A7.86,7.86,0,0,1,24,22.17a1.59,1.59,0,0,0,.92-1.48A1.75,1.75,0,0,0,23.14,19H22a1.83,1.83,0,0,0-1.64,1,.72.72,0,0,1-.65.41h-3a.73.73,0,0,1-.72-.87c.05-.2.09-.39.15-.58A6.19,6.19,0,0,1,22,14.59h1.09a6.18,6.18,0,0,1,6.17,6.17Z"/>
  <path class="cls-2" d="M24.9,34.47a2.9,2.9,0,1,1-.85-2.06,2.88,2.88,0,0,1,.85,2.06Z"/>
  <path class="cls-4" d="M29.26,21.16a6.17,6.17,0,0,1-3.34,5.48,3.17,3.17,0,0,0-1.27,1.19,3.2,3.2,0,0,0-.46,2,.36.36,0,0,1-.36.4H20.6a.78.78,0,0,1-.78-.78A7.86,7.86,0,0,1,24,22.56a1.59,1.59,0,0,0,.92-1.48,1.75,1.75,0,0,0-1.76-1.74H22a1.83,1.83,0,0,0-1.64,1,.72.72,0,0,1-.65.41h-3a.73.73,0,0,1-.72-.87c.05-.2.09-.39.15-.58A6.18,6.18,0,0,1,22,15h1.09a6.16,6.16,0,0,1,6.17,6.17Z"/>
  <path class="cls-4" d="M24.9,34.86a2.92,2.92,0,1,1-.85-2,2.88,2.88,0,0,1,.85,2Z"/>
</svg>