<svg id="图层_5" data-name="图层 5"
  xmlns="http://www.w3.org/2000/svg" viewBox="0 0 45 51" width='45' height='51'>
  <defs>
    <style>.cls-1{fill:#f2f2f2;stroke:#00e6e6;stroke-linecap:square;stroke-linejoin:round;stroke-width:0.5px;}.cls-2{fill:#0087be;}.cls-3{fill:#e5e5e5;}.cls-4{fill:#00e6e6;}</style>
  </defs>
  <title>图标3</title>
  <path class="cls-1" d="M22.51,6.41A19.68,19.68,0,0,1,30.4,8.05l8,3.47V22a22.68,22.68,0,0,1-1.31,7.61h0a24.87,24.87,0,0,1-3.7,6.81v0l0,0a24.21,24.21,0,0,1-5.62,5.35,20.44,20.44,0,0,1-5.27,2.57,20.08,20.08,0,0,1-5.28-2.59,23.65,23.65,0,0,1-5.62-5.36h0v0a24.61,24.61,0,0,1-3.67-6.78h0A22.58,22.58,0,0,1,6.59,22V11.52l8-3.47a19.64,19.64,0,0,1,7.89-1.64"/>
  <path class="cls-2" d="M22.5,3.23a23.44,23.44,0,0,1,4.65.47,23.85,23.85,0,0,1,4.51,1.42L41.6,9.43V22a25.45,25.45,0,0,1-1.49,8.69,28.08,28.08,0,0,1-4.18,7.68h0a26.92,26.92,0,0,1-6.36,6.06,23.49,23.49,0,0,1-7.06,3.26,23.74,23.74,0,0,1-7.08-3.27,27.56,27.56,0,0,1-6.36-6.07h0a28.06,28.06,0,0,1-4.14-7.65h0A25.49,25.49,0,0,1,3.42,22V9.43l9.94-4.3a22.74,22.74,0,0,1,9.14-1.9M22.5,0A26.2,26.2,0,0,0,12.08,2.21L.22,7.34V22A28.76,28.76,0,0,0,1.9,31.74a31.18,31.18,0,0,0,4.61,8.53A30.48,30.48,0,0,0,13.62,47,26.45,26.45,0,0,0,22.49,51a26.67,26.67,0,0,0,8.86-3.91,30.52,30.52,0,0,0,7.11-6.78,31.24,31.24,0,0,0,4.64-8.55A28.76,28.76,0,0,0,44.78,22V7.34L32.91,2.2A26.31,26.31,0,0,0,22.5,0Zm0,0"/>
  <path class="cls-3" d="M22.6,6.66a19.52,19.52,0,0,1,7.79,1.62l7.92,3.43V22A22.15,22.15,0,0,1,37,29.54h0a24.42,24.42,0,0,1-3.65,6.71v0l0,0a23.94,23.94,0,0,1-5.54,5.28,20.23,20.23,0,0,1-5.2,2.54V6.66"/>
  <path class="cls-2" d="M29.37,18.2A4.61,4.61,0,0,0,26,23.36c-2.17-2.69-2.08-5.79-2.08-10.25-7,2.77-5.34,10.75-5.55,13.18-1.75-1.51-2.08-5.13-2.08-5.13-1.85,1-2.77,3.69-2.77,5.86a9.28,9.28,0,0,0,9,9.53,9.28,9.28,0,0,0,9-9.53c0-3.12-2.17-4.56-2.14-8.82Z"/>
  <path class="cls-4" d="M29.37,18.76A4.62,4.62,0,0,0,26,23.92c-2.17-2.69-2.08-5.79-2.08-10.25-7,2.77-5.34,10.76-5.55,13.18-1.75-1.51-2.08-5.12-2.08-5.12-1.85,1-2.77,3.68-2.77,5.86a9.27,9.27,0,0,0,9,9.52,9.27,9.27,0,0,0,9-9.52c0-3.13-2.17-4.57-2.14-8.83Z"/>
</svg>