<svg id="图层_5" data-name="图层 5"
  xmlns="http://www.w3.org/2000/svg" viewBox="0 0 45 51" width='45' height='51'>
  <defs>
    <style>.cls-1{fill:#f2f2f2;stroke:#00e6e6;stroke-linecap:square;stroke-linejoin:round;stroke-width:0.5px;}.cls-2{fill:#0087be;}.cls-3{fill:#e5e5e5;}.cls-4{fill:#00e6e6;}</style>
  </defs>
  <title>图标3</title>
  <path class="cls-1" d="M22.6,6.4A19.71,19.71,0,0,1,30.49,8l8,3.47V22a22.19,22.19,0,0,1-1.31,7.61h0a24.7,24.7,0,0,1-3.69,6.81l0,0v0a24.2,24.2,0,0,1-5.62,5.35,20.6,20.6,0,0,1-5.27,2.57,20.08,20.08,0,0,1-5.28-2.59,23.65,23.65,0,0,1-5.62-5.36h0v0A24.21,24.21,0,0,1,8,29.6H8A22.33,22.33,0,0,1,6.68,22V11.51L14.7,8A19.72,19.72,0,0,1,22.6,6.4"/>
  <path class="cls-2" d="M22.59,3.22a23,23,0,0,1,9.15,1.89l10,4.31V22a25.46,25.46,0,0,1-1.5,8.69A27.79,27.79,0,0,1,36,38.33h0a26.92,26.92,0,0,1-6.36,6.06,23.25,23.25,0,0,1-7.06,3.26,23.39,23.39,0,0,1-7.08-3.27,27.16,27.16,0,0,1-6.36-6.07h0A28.06,28.06,0,0,1,5,30.67H5A25.5,25.5,0,0,1,3.5,22V9.43l10-4.31A22.2,22.2,0,0,1,18,3.7a22.49,22.49,0,0,1,4.64-.48m0-3.18A26.19,26.19,0,0,0,12.17,2.2L.31,7.33V22A28.72,28.72,0,0,0,2,31.73,31,31,0,0,0,6.6,40.26,30.67,30.67,0,0,0,13.7,47,26.77,26.77,0,0,0,22.58,51a26.56,26.56,0,0,0,8.86-3.91,30.27,30.27,0,0,0,7.1-6.78,31.12,31.12,0,0,0,4.65-8.55A29,29,0,0,0,44.87,22V7.33L33,2.19A26.34,26.34,0,0,0,22.59,0Zm0,0"/>
  <path class="cls-3" d="M22.69,6.65a19.56,19.56,0,0,1,7.79,1.62L38.4,11.7V22a22.39,22.39,0,0,1-1.29,7.52h0a24.42,24.42,0,0,1-3.65,6.71v0l0,0a23.94,23.94,0,0,1-5.54,5.28,20.23,20.23,0,0,1-5.2,2.54V6.65"/>
  <path class="cls-2" d="M23.91,28.87H21.46a.53.53,0,0,1-.54-.52L20.2,14.07a.54.54,0,0,1,.54-.57H24.6a.53.53,0,0,1,.54.57l-.71,14.3a.51.51,0,0,1-.52.5Zm0,0"/>
  <path class="cls-2" d="M19.53,34.1a3.16,3.16,0,1,0,1.58-2.73,3.14,3.14,0,0,0-1.58,2.73Zm0,0"/>
  <path class="cls-4" d="M23.91,29.32H21.46a.53.53,0,0,1-.54-.52L20.2,14.52a.54.54,0,0,1,.54-.57H24.6a.53.53,0,0,1,.54.57l-.71,14.29a.51.51,0,0,1-.52.51Zm0,0"/>
  <path class="cls-4" d="M19.53,34.55a3.15,3.15,0,0,0,1.58,2.73,3.16,3.16,0,1,0-1.58-2.73Zm0,0"/>
</svg>