<?xml version="1.0" encoding="utf-8"?>
<!-- Generator: Adobe Illustrator 24.0.1, SVG Export Plug-In . SVG Version: 6.00 Build 0)  -->
<svg version="1.1" id="图层_5"
	xmlns="http://www.w3.org/2000/svg"
	xmlns:xlink="http://www.w3.org/1999/xlink" x="0px" y="0px" viewBox="0 0 79 86" width="79" height="86" xml:space="preserve">
	<style type="text/css">
	.st0{fill:#FFFFFF;}
	.st1{fill:#0087BE;}
	.st2{fill:#00E6E6;}
	.st3{fill:none;}
	.st4{fill:#556080;}
	.st5{fill:#F2F2F2;stroke:#00E6E6;stroke-width:0.5;stroke-linecap:square;stroke-linejoin:round;stroke-miterlimit:10;}
	.st6{fill:#E5E5E5;}
	.st7{fill:none;stroke:#00E6E6;stroke-width:0.5;stroke-linecap:square;stroke-linejoin:round;stroke-miterlimit:10;}
	.st8{fill:none;stroke:#0087BE;stroke-miterlimit:10;}
	.st9{fill:#F2F2F2;}
	.st10{fill:#F7F7F7;}
	.st11{fill:#D8D8D8;}
	.st12{fill:#E8E8E8;}
	.st13{fill:#EFEFEF;}
	.st14{fill:url(#SVGID_4_);}
	.st15{fill:url(#SVGID_5_);}
	.st16{fill:#04BCD8;}
	.st17{fill:url(#SVGID_6_);}
	.st18{fill:url(#SVGID_7_);}
	.st19{fill:url(#SVGID_8_);}
	.st20{fill:url(#SVGID_9_);}
	.st21{fill:url(#SVGID_10_);}
	.st22{fill:url(#SVGID_11_);}
	.st23{fill:url(#SVGID_12_);}
	.st24{fill:url(#SVGID_13_);}
	.st25{fill:#0186BE;}
	.st26{fill:#01FFB9;}
	.st27{fill:#06486D;}
	.st28{opacity:0.5;fill:#06486D;}
	.st29{fill:#B7B7B7;}
	.st30{fill:#A3A3A3;}
	.st31{fill:url(#SVGID_14_);}
	.st32{fill-rule:evenodd;clip-rule:evenodd;fill:#04BBDA;}
	.st33{fill-rule:evenodd;clip-rule:evenodd;fill:#05A2C6;}
	.st34{fill-rule:evenodd;clip-rule:evenodd;fill:#03E5E1;}
	.st35{fill-rule:evenodd;clip-rule:evenodd;fill:#0087BE;}
	.st36{fill-rule:evenodd;clip-rule:evenodd;fill:#00AEEB;}
	.st37{fill-rule:evenodd;clip-rule:evenodd;fill:#F7F7F7;}
	.st38{fill-rule:evenodd;clip-rule:evenodd;fill:#D8D8D8;}
	.st39{fill-rule:evenodd;clip-rule:evenodd;fill:#AB4C00;}
	.st40{fill-rule:evenodd;clip-rule:evenodd;fill:#E8E8E8;}
	.st41{fill-rule:evenodd;clip-rule:evenodd;fill:#8B3B00;}
	.st42{fill-rule:evenodd;clip-rule:evenodd;fill:#FFFFFF;}
	.st43{fill-rule:evenodd;clip-rule:evenodd;fill:#231815;}
	.st44{fill-rule:evenodd;clip-rule:evenodd;fill:#E5E5E6;}
	.st45{fill-rule:evenodd;clip-rule:evenodd;fill:#F0F0F0;}
	.st46{fill-rule:evenodd;clip-rule:evenodd;fill:#1AFFF3;}
	.st47{fill-rule:evenodd;clip-rule:evenodd;fill:#C8C9CA;}
	.st48{fill-rule:evenodd;clip-rule:evenodd;fill:url(#SVGID_15_);}
	.st49{fill-rule:evenodd;clip-rule:evenodd;fill:#FFD700;}
	.st50{fill-rule:evenodd;clip-rule:evenodd;fill:url(#SVGID_16_);}
	.st51{fill:#04BBDA;}
	.st52{fill:url(#SVGID_17_);}
	.st53{fill:url(#SVGID_18_);}
	.st54{fill:url(#SVGID_19_);}
	.st55{fill:url(#SVGID_20_);}
	.st56{fill:url(#SVGID_21_);}
	.st57{fill:url(#SVGID_22_);}
	.st58{fill:url(#SVGID_23_);}
	.st59{fill:url(#SVGID_24_);}
	.st60{fill:url(#SVGID_25_);}
	.st61{fill:#03E5E1;}
	.st62{fill:url(#SVGID_26_);}
	.st63{fill-rule:evenodd;clip-rule:evenodd;fill:#C6C6C6;}
	.st64{fill-rule:evenodd;clip-rule:evenodd;fill:#E0E0E0;}
	.st65{fill:url(#SVGID_27_);}
	.st66{fill:url(#SVGID_28_);}
	.st67{fill:#C6C6C6;}
	.st68{fill:url(#SVGID_29_);}
	.st69{fill:url(#SVGID_30_);}
	.st70{fill:url(#SVGID_31_);}
	.st71{fill:url(#SVGID_32_);}
	.st72{fill:url(#SVGID_33_);}
	.st73{fill:url(#SVGID_34_);}
	.st74{fill:url(#SVGID_35_);}
	.st75{fill:url(#SVGID_36_);}
	.st76{fill:url(#SVGID_37_);}
	.st77{fill:url(#SVGID_38_);}
	.st78{fill:url(#SVGID_39_);}
	.st79{fill:url(#SVGID_40_);}
	.st80{fill:url(#SVGID_41_);}
	.st81{fill:url(#SVGID_42_);}
	.st82{fill:#00FFFF;}
	.st83{fill:#0061A2;}
	.st84{opacity:0.3;fill:url(#SVGID_43_);}
	.st85{fill:url(#SVGID_44_);}
	.st86{fill:url(#SVGID_45_);}
	.st87{fill:url(#SVGID_46_);}
	.st88{fill:url(#SVGID_47_);}
	.st89{fill:url(#SVGID_48_);}
	.st90{fill:url(#SVGID_49_);}
	.st91{fill:url(#SVGID_50_);}
	.st92{fill:url(#SVGID_51_);}
	.st93{fill:url(#SVGID_52_);}
	.st94{fill:url(#SVGID_53_);}
	.st95{fill:url(#SVGID_54_);}
	.st96{fill:url(#SVGID_55_);}
	.st97{fill:url(#SVGID_56_);}
	.st98{fill:url(#SVGID_57_);}
	.st99{fill:url(#SVGID_58_);}
	.st100{fill:url(#SVGID_59_);}
	.st101{fill:url(#SVGID_60_);}
	.st102{fill:url(#SVGID_61_);}
	.st103{fill:url(#SVGID_62_);}
	.st104{fill:url(#SVGID_63_);}
	.st105{fill:url(#SVGID_64_);}
	.st106{fill:url(#SVGID_65_);}
	.st107{fill:url(#SVGID_66_);}
	.st108{fill:url(#SVGID_67_);}
	.st109{fill:url(#SVGID_68_);}
	.st110{opacity:0.3;fill:url(#SVGID_69_);}
	.st111{fill:url(#SVGID_70_);}
	.st112{fill:url(#SVGID_71_);}
	.st113{fill:url(#SVGID_72_);}
	.st114{fill:url(#SVGID_73_);}
	.st115{fill:url(#SVGID_74_);}
	.st116{fill:url(#SVGID_75_);}
	.st117{fill:url(#SVGID_76_);}
	.st118{fill:url(#SVGID_77_);}
	.st119{fill:url(#SVGID_78_);}
	.st120{fill:url(#SVGID_79_);}
	.st121{fill:url(#SVGID_80_);}
	.st122{fill:url(#SVGID_81_);}
	.st123{fill:url(#SVGID_82_);}
	.st124{fill:url(#SVGID_83_);}
	.st125{fill:url(#SVGID_84_);}
	.st126{fill:url(#SVGID_85_);}
	.st127{fill:url(#SVGID_86_);}
	.st128{fill:url(#SVGID_87_);}
	.st129{fill:url(#SVGID_88_);}
	.st130{fill:url(#SVGID_89_);}
	.st131{fill:url(#SVGID_90_);}
	.st132{fill:url(#SVGID_91_);}
	.st133{fill:url(#SVGID_92_);}
	.st134{fill:url(#SVGID_93_);}
	.st135{fill:url(#SVGID_94_);}
	.st136{opacity:0.3;fill:url(#SVGID_95_);}
	.st137{fill:url(#SVGID_96_);}
	.st138{fill:url(#SVGID_97_);}
	.st139{fill:url(#SVGID_98_);}
	.st140{fill:url(#SVGID_99_);}
	.st141{fill:url(#SVGID_100_);}
	.st142{fill:url(#SVGID_101_);}
	.st143{fill:url(#SVGID_102_);}
	.st144{fill:url(#SVGID_103_);}
	.st145{fill:url(#SVGID_104_);}
	.st146{fill:url(#SVGID_105_);}
	.st147{fill:url(#SVGID_106_);}
	.st148{fill:url(#SVGID_107_);}
	.st149{fill:url(#SVGID_108_);}
	.st150{fill:url(#SVGID_109_);}
	.st151{fill:url(#SVGID_110_);}
	.st152{fill:url(#SVGID_111_);}
	.st153{fill:url(#SVGID_112_);}
	.st154{fill:url(#SVGID_113_);}
	.st155{fill:url(#SVGID_114_);}
	.st156{fill:url(#SVGID_115_);}
	.st157{fill:url(#SVGID_116_);}
	.st158{fill:url(#SVGID_117_);}
	.st159{fill:url(#SVGID_118_);}
	.st160{fill:url(#SVGID_119_);}
	.st161{fill:url(#SVGID_120_);}
	.st162{opacity:0.3;fill:url(#SVGID_121_);}
	.st163{fill:url(#SVGID_122_);}
	.st164{fill:url(#SVGID_123_);}
	.st165{fill:url(#SVGID_124_);}
	.st166{fill:url(#SVGID_125_);}
	.st167{fill:url(#SVGID_126_);}
	.st168{fill:url(#SVGID_127_);}
	.st169{fill:url(#SVGID_128_);}
	.st170{fill:url(#SVGID_129_);}
	.st171{fill:url(#SVGID_130_);}
	.st172{fill:url(#SVGID_131_);}
	.st173{fill:url(#SVGID_132_);}
	.st174{fill:url(#SVGID_133_);}
	.st175{fill:url(#SVGID_134_);}
	.st176{fill:url(#SVGID_135_);}
	.st177{fill:url(#SVGID_136_);}
	.st178{fill:url(#SVGID_137_);}
	.st179{fill:url(#SVGID_138_);}
	.st180{fill:url(#SVGID_139_);}
	.st181{fill:url(#SVGID_140_);}
	.st182{fill:url(#SVGID_141_);}
	.st183{fill:url(#SVGID_142_);}
	.st184{fill:url(#SVGID_143_);}
	.st185{fill:url(#SVGID_144_);}
	.st186{fill:url(#SVGID_145_);}
	.st187{fill:url(#SVGID_146_);}
	.st188{fill:url(#SVGID_147_);}
	.st189{fill:url(#SVGID_148_);}
	.st190{fill:url(#SVGID_149_);}
	.st191{fill:#00686C;}
	.st192{fill:url(#SVGID_150_);}
	.st193{fill:url(#SVGID_151_);}
	.st194{fill:url(#SVGID_152_);}
	.st195{fill:url(#SVGID_153_);}
	.st196{fill:url(#SVGID_154_);}
	.st197{fill:url(#SVGID_155_);}
	.st198{fill:url(#SVGID_156_);}
	.st199{fill:url(#SVGID_157_);}
	.st200{fill:url(#SVGID_158_);}
	.st201{fill:url(#SVGID_159_);}
	.st202{fill:url(#SVGID_160_);}
	.st203{fill:url(#SVGID_161_);}
	.st204{fill:url(#SVGID_162_);}
	.st205{fill:url(#SVGID_163_);}
	.st206{fill:url(#SVGID_164_);}
	.st207{fill:url(#SVGID_165_);}
	.st208{fill:url(#SVGID_166_);}
	.st209{fill:url(#SVGID_167_);}
	.st210{fill:url(#SVGID_168_);}
	.st211{fill:url(#SVGID_169_);}
	.st212{fill:url(#SVGID_170_);}
	.st213{fill:url(#SVGID_171_);}
	.st214{fill:url(#SVGID_172_);}
	.st215{fill:url(#SVGID_173_);}
	.st216{fill:url(#SVGID_174_);}
	.st217{fill:url(#SVGID_175_);}
	.st218{fill:url(#SVGID_176_);}
	.st219{fill:url(#SVGID_177_);}
	.st220{fill:url(#SVGID_178_);}
	.st221{fill:url(#SVGID_179_);}
	.st222{fill:url(#SVGID_180_);}
	.st223{fill:url(#SVGID_181_);}
	.st224{fill:url(#SVGID_182_);}
	.st225{fill:url(#SVGID_183_);}
	.st226{fill:url(#SVGID_184_);}
	.st227{fill:url(#SVGID_185_);}
	.st228{fill:url(#SVGID_186_);}
	.st229{fill:url(#SVGID_187_);}
	.st230{fill:url(#SVGID_188_);}
	.st231{fill:url(#SVGID_189_);}
	.st232{fill:url(#SVGID_190_);}
	.st233{fill:url(#SVGID_191_);}
	.st234{fill:url(#SVGID_192_);}
	.st235{fill:url(#SVGID_193_);}
	.st236{fill:url(#SVGID_194_);}
	.st237{fill:url(#SVGID_195_);}
	.st238{fill:url(#SVGID_196_);}
	.st239{fill:url(#SVGID_197_);}
	.st240{fill:url(#SVGID_198_);}
	.st241{fill:url(#SVGID_199_);}
	.st242{fill:url(#SVGID_200_);}
	.st243{fill:url(#SVGID_201_);}
	.st244{fill:url(#SVGID_202_);}
	.st245{fill:url(#SVGID_203_);}
	.st246{fill:url(#SVGID_204_);}
	.st247{fill:#05B0C1;}
	.st248{clip-path:url(#SVGID_207_);}
	.st249{clip-path:url(#SVGID_208_);}
	.st250{clip-path:url(#SVGID_213_);}
	.st251{clip-path:url(#SVGID_214_);}
	.st252{fill:#06DAAE;}
	.st253{fill:url(#SVGID_217_);}
	.st254{fill:url(#SVGID_218_);}
	.st255{fill:url(#SVGID_219_);}
	.st256{fill:url(#SVGID_220_);}
	.st257{clip-path:url(#SVGID_223_);}
	.st258{clip-path:url(#SVGID_224_);}
	.st259{fill:#F2EFFA;}
	.st260{clip-path:url(#SVGID_229_);}
	.st261{clip-path:url(#SVGID_230_);}
	.st262{clip-path:url(#SVGID_235_);}
	.st263{clip-path:url(#SVGID_236_);}
	.st264{clip-path:url(#SVGID_241_);}
	.st265{clip-path:url(#SVGID_242_);}
	.st266{enable-background:new    ;}
	.st267{fill:url(#SVGID_245_);}
	.st268{fill:url(#SVGID_246_);}
	.st269{fill:url(#SVGID_247_);}
	.st270{fill:url(#SVGID_248_);}
	.st271{fill:url(#SVGID_249_);}
	.st272{fill:url(#SVGID_250_);}
	.st273{fill:url(#SVGID_251_);}
	.st274{fill:url(#SVGID_252_);}
	.st275{fill:url(#SVGID_253_);}
	.st276{fill:url(#SVGID_254_);}
	.st277{fill:url(#SVGID_255_);}
	.st278{fill:url(#SVGID_256_);}
	.st279{fill:url(#SVGID_257_);}
	.st280{fill:#4CFFD5;}
	.st281{fill:url(#SVGID_258_);}
	.st282{fill:url(#SVGID_259_);}
	.st283{fill:url(#SVGID_260_);}
	.st284{fill:url(#SVGID_261_);}
	.st285{opacity:0.4;fill:url(#SVGID_262_);}
	.st286{opacity:0.6;fill:url(#SVGID_263_);}
	.st287{fill:url(#SVGID_264_);}
	.st288{fill:url(#SVGID_265_);}
	.st289{fill:#00AEEB;}
	.st290{fill:url(#SVGID_266_);}
	.st291{opacity:0.4;fill:url(#SVGID_267_);}
	.st292{opacity:0.6;fill:url(#SVGID_268_);}
	.st293{fill:url(#SVGID_269_);}
	.st294{opacity:0.4;fill:url(#SVGID_270_);}
	.st295{opacity:0.6;fill:url(#SVGID_271_);}
	.st296{fill:url(#SVGID_272_);}
	.st297{opacity:0.4;fill:url(#SVGID_273_);}
	.st298{opacity:0.6;fill:url(#SVGID_274_);}
	.st299{fill:url(#SVGID_275_);}
	.st300{opacity:0.4;fill:url(#SVGID_276_);}
	.st301{opacity:0.6;fill:url(#SVGID_277_);}
	.st302{fill:url(#SVGID_278_);}
	.st303{fill:url(#SVGID_279_);}
	.st304{fill:url(#SVGID_280_);}
	.st305{fill:url(#SVGID_281_);}
	.st306{fill:url(#SVGID_282_);}
	.st307{fill:url(#SVGID_283_);}
	.st308{fill:url(#SVGID_284_);}
	.st309{fill:url(#SVGID_285_);}
	.st310{fill:url(#SVGID_286_);}
	.st311{fill:#131415;}
	.st312{fill:url(#SVGID_287_);}
	.st313{fill:url(#SVGID_288_);}
	.st314{fill:url(#SVGID_289_);}
	.st315{fill:url(#SVGID_290_);}
	.st316{fill:url(#SVGID_291_);}
	.st317{fill:url(#SVGID_292_);}
	.st318{fill:url(#SVGID_293_);}
	.st319{fill:url(#SVGID_294_);}
	.st320{fill:url(#SVGID_295_);}
	.st321{fill:#5C5C66;}
	.st322{fill:#546178;}
	.st323{fill:#4A79DE;}
	.st324{fill:url(#SVGID_296_);}
	.st325{fill-rule:evenodd;clip-rule:evenodd;fill:none;stroke:#D1D1D1;stroke-miterlimit:10;}
	.st326{fill:none;stroke:#45B4FF;}
	.st327{fill:none;stroke:#45B4FF;stroke-dasharray:1.9811,1.9811;}
	.st328{fill:none;stroke:#45B4FF;stroke-dasharray:1.9807,1.9807;}
	.st329{fill:none;stroke:#FF000D;}
	.st330{fill:none;stroke:#45B4FF;stroke-dasharray:2;}
	.st331{fill-rule:evenodd;clip-rule:evenodd;fill:none;stroke:#0ABAFF;stroke-miterlimit:10;}
	.st332{fill:none;stroke:url(#SVGID_297_);stroke-miterlimit:10;}
	.st333{fill:none;stroke:url(#SVGID_298_);stroke-miterlimit:10;}
	.st334{fill:none;stroke:url(#SVGID_299_);stroke-miterlimit:10;}
	.st335{fill:none;stroke:url(#SVGID_300_);stroke-miterlimit:10;}
	.st336{fill:none;stroke:url(#SVGID_301_);stroke-miterlimit:10;}
	.st337{fill:none;stroke:url(#SVGID_302_);stroke-miterlimit:10;}
	.st338{fill:none;stroke:url(#SVGID_303_);stroke-miterlimit:10;}
	.st339{fill:none;stroke:url(#SVGID_304_);stroke-miterlimit:10;}
	.st340{fill:none;stroke:url(#SVGID_305_);stroke-miterlimit:10;}
	.st341{fill:none;stroke:url(#SVGID_306_);stroke-miterlimit:10;}
	.st342{fill:none;stroke:url(#SVGID_307_);stroke-miterlimit:10;}
	.st343{fill:none;stroke:url(#SVGID_308_);stroke-miterlimit:10;}
	.st344{fill:#0ABAFF;}
	.st345{fill:url(#SVGID_309_);}
	</style>
	<g id="图层_855">
	</g>
	<g id="图层_854">
	</g>
	<g id="图层_853">
	</g>
	<g id="图层_840">
	</g>
	<g id="图层_823">
	</g>
	<g>
		<polygon class="st10" points="78.7,56.8 68.7,79.2 28.6,85.5 0.3,69.2 0.3,61.6 78.7,49.2 	"/>
		<polygon class="st11" points="78.7,56.8 68.7,79.2 68.7,71.6 78.7,49.2 	"/>
		<polygon class="st12" points="78.7,49.2 68.7,71.6 28.6,77.8 0.3,61.6 10.7,39.1 50.9,33.2 	"/>
		<polygon class="st13" points="68.7,71.6 68.7,79.2 28.6,85.5 28.6,77.8 	"/>
	</g>
	<g>
		<polygon class="st51" points="46.6,54.9 40.2,58.6 40.2,54.3 46.6,50.7 	"/>
		<polygon class="st51" points="54,57 47.6,60.7 46.3,56 52.7,52.3 	"/>
		<polygon class="st51" points="60.3,55.7 53.9,59.3 51.6,54.8 58,51.1 	"/>
		<linearGradient id="SVGID_4_" gradientUnits="userSpaceOnUse" x1="56.7196" y1="54.0786" x2="64.7783" y2="54.0786">
			<stop offset="0" style="stop-color:#0186BE"/>
			<stop offset="4.621859e-02" style="stop-color:#0196C5"/>
			<stop offset="0.1825" style="stop-color:#00C1D7"/>
			<stop offset="0.2889" style="stop-color:#00DCE2"/>
			<stop offset="0.3516" style="stop-color:#00E6E6"/>
			<stop offset="0.4657" style="stop-color:#00DDE2"/>
			<stop offset="0.6555" style="stop-color:#00C3D7"/>
			<stop offset="0.8961" style="stop-color:#019AC6"/>
			<stop offset="1" style="stop-color:#0186BE"/>
		</linearGradient>
		<polygon class="st14" points="63.1,53.4 56.7,57.1 58.4,54.7 64.8,51.1 	"/>
		<polygon class="st51" points="64.8,51.1 58.4,54.7 55.2,50.8 61.6,47.1 	"/>
		<path class="st25" d="M61.6,47.1l-6.4,3.7C55.6,50,56,49,56.3,48l6.4-3.7C62.4,45.4,62,46.3,61.6,47.1z"/>
		<linearGradient id="SVGID_5_" gradientUnits="userSpaceOnUse" x1="59.8704" y1="47.3055" x2="66.8468" y2="47.3055">
			<stop offset="0" style="stop-color:#0186BE"/>
			<stop offset="4.621859e-02" style="stop-color:#0196C5"/>
			<stop offset="0.1825" style="stop-color:#00C1D7"/>
			<stop offset="0.2889" style="stop-color:#00DCE2"/>
			<stop offset="0.3516" style="stop-color:#00E6E6"/>
			<stop offset="0.4657" style="stop-color:#00DDE2"/>
			<stop offset="0.6555" style="stop-color:#00C3D7"/>
			<stop offset="0.8961" style="stop-color:#019AC6"/>
			<stop offset="1" style="stop-color:#0186BE"/>
		</linearGradient>
		<polygon class="st15" points="66.3,47.2 59.9,50.9 60.4,47.4 66.8,43.7 	"/>
		<polygon class="st51" points="66.8,43.7 60.4,47.4 56.8,44.6 63.2,40.9 	"/>
		<path class="st25" d="M63.2,40.9l-6.4,3.7c0-0.6,0.1-1.1,0.1-1.7l6.4-3.7C63.3,39.8,63.3,40.4,63.2,40.9z"/>
		<path class="st25" d="M63.3,39.2l-6.4,3.7c0-0.6,0-1.2-0.1-1.8l6.4-3.7C63.3,38,63.3,38.6,63.3,39.2z"/>
		<polygon class="st51" points="39,49.6 32.6,53.3 33.8,50 40.2,46.4 	"/>
		<linearGradient id="SVGID_6_" gradientUnits="userSpaceOnUse" x1="59.8704" y1="38.4927" x2="66.8468" y2="38.4927">
			<stop offset="0" style="stop-color:#0186BE"/>
			<stop offset="4.621859e-02" style="stop-color:#0196C5"/>
			<stop offset="0.1825" style="stop-color:#00C1D7"/>
			<stop offset="0.2889" style="stop-color:#00DCE2"/>
			<stop offset="0.3516" style="stop-color:#00E6E6"/>
			<stop offset="0.4657" style="stop-color:#00DDE2"/>
			<stop offset="0.6555" style="stop-color:#00C3D7"/>
			<stop offset="0.8961" style="stop-color:#019AC6"/>
			<stop offset="1" style="stop-color:#0186BE"/>
		</linearGradient>
		<polygon class="st17" points="66.8,38.7 60.4,42.4 59.9,38.3 66.3,34.6 	"/>
		<polygon class="st51" points="66.3,34.6 59.9,38.3 56.3,36.9 62.7,33.2 	"/>
		<polygon class="st51" points="32.1,41.8 25.7,45.5 28,43.6 34.4,39.9 	"/>
		<path class="st25" d="M62.7,33.2l-6.4,3.7c-0.3-1.3-0.6-2.6-1.1-4l6.4-3.7C62,30.6,62.4,31.9,62.7,33.2z"/>
		<polygon class="st51" points="28.2,27.8 21.8,31.5 18.7,31.8 25.1,28.1 	"/>
		<linearGradient id="SVGID_7_" gradientUnits="userSpaceOnUse" x1="56.7196" y1="28.7053" x2="64.7783" y2="28.7053">
			<stop offset="0" style="stop-color:#0186BE"/>
			<stop offset="4.621859e-02" style="stop-color:#0196C5"/>
			<stop offset="0.1825" style="stop-color:#00C1D7"/>
			<stop offset="0.2889" style="stop-color:#00DCE2"/>
			<stop offset="0.3516" style="stop-color:#00E6E6"/>
			<stop offset="0.4657" style="stop-color:#00DDE2"/>
			<stop offset="0.6555" style="stop-color:#00C3D7"/>
			<stop offset="0.8961" style="stop-color:#019AC6"/>
			<stop offset="1" style="stop-color:#0186BE"/>
		</linearGradient>
		<polygon class="st18" points="64.8,29 58.4,32.7 56.7,28.4 63.1,24.7 	"/>
		<polygon class="st51" points="63.1,24.7 56.7,28.4 53.5,28.7 59.9,25 	"/>
		<path class="st25" d="M59.9,25l-6.4,3.7c-0.6-1.3-1.3-2.6-2-3.9l6.4-3.7C58.7,22.4,59.3,23.7,59.9,25z"/>
		<polygon class="st51" points="58,21.1 51.6,24.8 53.9,22.9 60.3,19.2 	"/>
		<path class="st25" d="M55.4,17.2L49,20.9c-0.8-1.2-1.7-2.3-2.7-3.3l6.4-3.7C53.7,14.9,54.6,16,55.4,17.2z"/>
		<linearGradient id="SVGID_8_" gradientUnits="userSpaceOnUse" x1="51.3734" y1="19.1219" x2="60.3118" y2="19.1219">
			<stop offset="0" style="stop-color:#0186BE"/>
			<stop offset="4.621859e-02" style="stop-color:#0196C5"/>
			<stop offset="0.1825" style="stop-color:#00C1D7"/>
			<stop offset="0.2889" style="stop-color:#00DCE2"/>
			<stop offset="0.3516" style="stop-color:#00E6E6"/>
			<stop offset="0.4657" style="stop-color:#00DDE2"/>
			<stop offset="0.6555" style="stop-color:#00C3D7"/>
			<stop offset="0.8961" style="stop-color:#019AC6"/>
			<stop offset="1" style="stop-color:#0186BE"/>
		</linearGradient>
		<polygon class="st19" points="60.3,19.2 53.9,22.9 51.4,19 57.8,15.3 	"/>
		<polygon class="st51" points="52.7,13.9 46.3,17.6 47.6,14.3 54,10.6 	"/>
		<path class="st25" d="M49.6,10.8l-6.4,3.7c-1-0.9-2-1.7-3-2.4l6.4-3.7C47.6,9.1,48.6,9.9,49.6,10.8z"/>
		<linearGradient id="SVGID_9_" gradientUnits="userSpaceOnUse" x1="44.476" y1="10.8985" x2="53.9903" y2="10.8985">
			<stop offset="0" style="stop-color:#0186BE"/>
			<stop offset="4.621859e-02" style="stop-color:#0196C5"/>
			<stop offset="0.1825" style="stop-color:#00C1D7"/>
			<stop offset="0.2889" style="stop-color:#00DCE2"/>
			<stop offset="0.3516" style="stop-color:#00E6E6"/>
			<stop offset="0.4657" style="stop-color:#00DDE2"/>
			<stop offset="0.6555" style="stop-color:#00C3D7"/>
			<stop offset="0.8961" style="stop-color:#019AC6"/>
			<stop offset="1" style="stop-color:#0186BE"/>
		</linearGradient>
		<polygon class="st20" points="54,10.6 47.6,14.3 44.5,11.2 50.9,7.5 	"/>
		<polygon class="st51" points="26.6,19.8 20.2,23.5 16.6,22.1 23,18.4 	"/>
		<path class="st25" d="M43.3,6.5l-6.4,3.7c-1-0.5-2.1-0.9-3-1.1l6.4-3.7C41.2,5.6,42.2,6,43.3,6.5z"/>
		<polygon class="st51" points="27.2,12.8 20.8,16.5 17.2,13.6 23.6,9.9 	"/>
		<path class="st25" d="M37.1,4.8l-6.4,3.7c-0.9,0-1.8,0-2.7,0.2l6.4-3.7C35.3,4.9,36.2,4.8,37.1,4.8z"/>
		<polygon class="st51" points="29.9,7.7 23.5,11.4 20.3,7.4 26.7,3.7 	"/>
		<polygon class="st51" points="34.4,5.1 28,8.8 25.7,4.2 32.1,0.5 	"/>
		<polygon class="st51" points="40.2,5.3 33.8,9 32.6,4.3 39,0.6 	"/>
		<polygon class="st51" points="46.6,8.4 40.2,12.1 40.2,7.8 46.6,4.1 	"/>
		<linearGradient id="SVGID_10_" gradientUnits="userSpaceOnUse" x1="36.8606" y1="5.0302" x2="46.5737" y2="5.0302">
			<stop offset="0" style="stop-color:#0186BE"/>
			<stop offset="4.621859e-02" style="stop-color:#0196C5"/>
			<stop offset="0.1825" style="stop-color:#00C1D7"/>
			<stop offset="0.2889" style="stop-color:#00DCE2"/>
			<stop offset="0.3516" style="stop-color:#00E6E6"/>
			<stop offset="0.4657" style="stop-color:#00DDE2"/>
			<stop offset="0.6555" style="stop-color:#00C3D7"/>
			<stop offset="0.8961" style="stop-color:#019AC6"/>
			<stop offset="1" style="stop-color:#0186BE"/>
		</linearGradient>
		<polygon class="st21" points="46.6,4.1 40.2,7.8 36.9,5.9 43.3,2.2 	"/>
		<linearGradient id="SVGID_11_" gradientUnits="userSpaceOnUse" x1="33.1391" y1="5.3383" x2="35.1641" y2="-0.5972">
			<stop offset="7.812791e-02" style="stop-color:#0186BE"/>
			<stop offset="0.1358" style="stop-color:#0196C5"/>
			<stop offset="0.3059" style="stop-color:#00C1D7"/>
			<stop offset="0.4387" style="stop-color:#00DCE2"/>
			<stop offset="0.517" style="stop-color:#00E6E6"/>
			<stop offset="0.602" style="stop-color:#00DDE2"/>
			<stop offset="0.7434" style="stop-color:#00C3D7"/>
			<stop offset="0.9226" style="stop-color:#019AC6"/>
			<stop offset="1" style="stop-color:#0186BE"/>
		</linearGradient>
		<polygon class="st22" points="39,0.6 32.6,4.3 29.4,3.8 35.8,0.1 	"/>
		<linearGradient id="SVGID_12_" gradientUnits="userSpaceOnUse" x1="24.3578" y1="4.8107" x2="30.9518" y2="0.7355">
			<stop offset="0" style="stop-color:#0186BE"/>
			<stop offset="4.621859e-02" style="stop-color:#0196C5"/>
			<stop offset="0.1825" style="stop-color:#00C1D7"/>
			<stop offset="0.2889" style="stop-color:#00DCE2"/>
			<stop offset="0.3516" style="stop-color:#00E6E6"/>
			<stop offset="0.4657" style="stop-color:#00DDE2"/>
			<stop offset="0.6555" style="stop-color:#00C3D7"/>
			<stop offset="0.8961" style="stop-color:#019AC6"/>
			<stop offset="1" style="stop-color:#0186BE"/>
		</linearGradient>
		<polygon class="st23" points="32.1,0.5 25.7,4.2 23.1,5.2 29.5,1.5 	"/>
		<g>
			<g>
				<g>
					<g>
						<path class="st61" d="M56.9,42.9c0-0.6,0-1.2-0.1-1.8l3.6,1.4l-0.6-4.1l-3.6-1.4c-0.3-1.3-0.6-2.6-1.1-4l3.2-0.3l-1.7-4.3
						l-3.2,0.3c-0.6-1.3-1.3-2.6-2-3.9l2.4-1.9L51.4,19L49,20.9c-0.8-1.2-1.7-2.3-2.7-3.3l1.3-3.3l-3.1-3.1l-1.3,3.3
						c-1-0.9-2-1.7-3-2.4V7.8l-3.3-1.9v4.2c-1-0.5-2.1-0.9-3-1.1l-1.3-4.7l-3.1-0.5l1.3,4.7c-0.9,0-1.8,0-2.7,0.2l-2.4-4.6l-2.5,1
						l2.4,4.6c-0.7,0.4-1.4,1-2,1.6l-3.2-4l-1.7,2.4l3.2,4c-0.4,0.8-0.8,1.7-1.1,2.7l-3.6-2.8l-0.6,3.4l3.6,2.8
						c0,0.6-0.1,1.1-0.1,1.7c0,0.6,0,1.2,0.1,1.8l-3.6-1.4l0.6,4.1l3.6,1.4c0.3,1.3,0.6,2.6,1.1,4l-3.2,0.3l1.7,4.3l3.2-0.3
						c0.6,1.3,1.3,2.6,2,3.9l-2.4,1.9l2.5,3.9l2.4-1.9c0.8,1.2,1.7,2.3,2.7,3.3l-1.3,3.3l3.1,3.1l1.3-3.3c1,0.9,2,1.7,3,2.4v4.2
						l3.3,1.9v-4.2c1,0.5,2.1,0.9,3,1.1l1.3,4.7l3.1,0.5L46.3,56c0.9,0,1.8,0,2.7-0.2l2.4,4.6l2.5-1l-2.4-4.6c0.7-0.4,1.4-1,2-1.6
						l3.2,4l1.7-2.4l-3.2-4C55.6,50,56,49,56.3,48l3.6,2.8l0.6-3.4l-3.6-2.8C56.9,44,56.9,43.5,56.9,42.9z M47.1,39.8
						c-0.7-0.2-1.4-0.5-2.2-0.9C40,36,36,29.1,36,23.4c0-0.9,0.1-1.7,0.3-2.4c0.7,0.2,1.5,0.5,2.2,0.9c4.9,2.8,8.9,9.8,8.9,15.5
						C47.5,38.3,47.3,39.1,47.1,39.8z"/>
					</g>
				</g>
				<g>
					<linearGradient id="SVGID_13_" gradientUnits="userSpaceOnUse" x1="29.5799" y1="32.2507" x2="47.1409" y2="32.2507">
						<stop offset="0" style="stop-color:#0186BE"/>
						<stop offset="6.796393e-02" style="stop-color:#0196C5"/>
						<stop offset="0.2683" style="stop-color:#00C1D7"/>
						<stop offset="0.4248" style="stop-color:#00DCE2"/>
						<stop offset="0.517" style="stop-color:#00E6E6"/>
						<stop offset="0.602" style="stop-color:#00DDE2"/>
						<stop offset="0.7434" style="stop-color:#00C3D7"/>
						<stop offset="0.9226" style="stop-color:#019AC6"/>
						<stop offset="1" style="stop-color:#0186BE"/>
					</linearGradient>
					<path class="st24" d="M36,23.4c0-0.9,0.1-1.7,0.3-2.4c-1.6-0.4-3-0.3-4.1,0.3c-1.6,0.9-2.6,2.9-2.6,5.8c0,5.7,4,12.6,8.9,15.5
					c2.5,1.4,4.7,1.6,6.3,0.6c1.1-0.6,1.9-1.8,2.3-3.4c-0.7-0.2-1.4-0.5-2.2-0.9C40,36,36,29.1,36,23.4z"/>
				</g>
			</g>
		</g>
	</g>
	<g>
		<linearGradient id="SVGID_14_" gradientUnits="userSpaceOnUse" x1="36.5297" y1="57.1133" x2="39.7322" y2="57.1133">
			<stop offset="0" style="stop-color:#0186BE"/>
			<stop offset="4.621859e-02" style="stop-color:#0196C5"/>
			<stop offset="0.1825" style="stop-color:#00C1D7"/>
			<stop offset="0.2889" style="stop-color:#00DCE2"/>
			<stop offset="0.3516" style="stop-color:#00E6E6"/>
			<stop offset="0.4657" style="stop-color:#00DDE2"/>
			<stop offset="0.6555" style="stop-color:#00C3D7"/>
			<stop offset="0.8961" style="stop-color:#019AC6"/>
			<stop offset="1" style="stop-color:#0186BE"/>
		</linearGradient>
		<path class="st31" d="M39.6,54.3l-0.1,0.3c-0.3,0.7-1.7,1.2-3,1v4.7c1.3,0.2,2.6-0.2,3-1l0.1-0.3c0.1-0.1,0.1-0.2,0.1-0.4v-4.7
		C39.7,54.1,39.7,54.2,39.6,54.3z"/>
		<path class="st51" d="M35.4,56.3c-0.4,0.2-0.8,0.4-1.3,0.6v4.7c0.5-0.2,0.9-0.4,1.3-0.6c0.4-0.2,0.8-0.5,1.1-0.7v-4.7
		C36,55.3,35.8,56.1,35.4,56.3z"/>
		<linearGradient id="SVGID_15_" gradientUnits="userSpaceOnUse" x1="28.9278" y1="60.3988" x2="34.2161" y2="60.3988">
			<stop offset="0" style="stop-color:#0186BE"/>
			<stop offset="4.621859e-02" style="stop-color:#0196C5"/>
			<stop offset="0.1825" style="stop-color:#00C1D7"/>
			<stop offset="0.2889" style="stop-color:#00DCE2"/>
			<stop offset="0.3516" style="stop-color:#00E6E6"/>
			<stop offset="0.4657" style="stop-color:#00DDE2"/>
			<stop offset="0.6555" style="stop-color:#00C3D7"/>
			<stop offset="0.8961" style="stop-color:#019AC6"/>
			<stop offset="1" style="stop-color:#0186BE"/>
		</linearGradient>
		<path style="fill:url(#SVGID_15_);" d="M32.4,58.7l-0.5,0.1c-1.3,0.2-2.6-0.2-3-1v4.7c0.3,0.7,1.7,1.2,3,1l0.5-0.1
		c1.1-0.2,1.8-0.7,1.8-1.4v-4.7C34.2,57.9,33.5,58.5,32.4,58.7z"/>
		<path class="st51" d="M25.7,57.3v4.7c1,0.3,2.2,0.5,3.3,0.5v-4.7C28.3,56.3,26.6,56.1,25.7,57.3z"/>
		<path class="st51" d="M21,53.2v4.7c0.1,0.6,0.4,1.3,0.9,1.8V55C21.4,54.4,21.1,53.8,21,53.2z"/>
		<linearGradient id="SVGID_16_" gradientUnits="userSpaceOnUse" x1="21.1318" y1="59.1959" x2="25.654" y2="59.1959">
			<stop offset="0" style="stop-color:#0186BE"/>
			<stop offset="4.621859e-02" style="stop-color:#0196C5"/>
			<stop offset="0.1825" style="stop-color:#00C1D7"/>
			<stop offset="0.2889" style="stop-color:#00DCE2"/>
			<stop offset="0.3516" style="stop-color:#00E6E6"/>
			<stop offset="0.4657" style="stop-color:#00DDE2"/>
			<stop offset="0.6555" style="stop-color:#00C3D7"/>
			<stop offset="0.8961" style="stop-color:#019AC6"/>
			<stop offset="1" style="stop-color:#0186BE"/>
		</linearGradient>
		<path style="fill:url(#SVGID_16_);" d="M22.2,57.3l-0.4-0.2c-0.5-0.3-0.7-0.6-0.7-1v4.7c0,0.4,0.2,0.7,0.7,1l0.4,0.2
		c0.9,0.5,2.5,0.5,3.4,0v-4.7C24.7,57.8,23.2,57.8,22.2,57.3z"/>
		<linearGradient id="SVGID_17_" gradientUnits="userSpaceOnUse" x1="19.1589" y1="54.8269" x2="21.0403" y2="54.8269">
			<stop offset="0" style="stop-color:#0186BE"/>
			<stop offset="4.621859e-02" style="stop-color:#0196C5"/>
			<stop offset="0.1825" style="stop-color:#00C1D7"/>
			<stop offset="0.2889" style="stop-color:#00DCE2"/>
			<stop offset="0.3516" style="stop-color:#00E6E6"/>
			<stop offset="0.4657" style="stop-color:#00DDE2"/>
			<stop offset="0.6555" style="stop-color:#00C3D7"/>
			<stop offset="0.8961" style="stop-color:#019AC6"/>
			<stop offset="1" style="stop-color:#0186BE"/>
		</linearGradient>
		<path class="st52" d="M21,53.2c-1.1-0.2-1.8-0.7-1.8-1.4v4.7c0,0.6,0.7,1.2,1.8,1.4l0.1,0L21,53.2L21,53.2z"/>
		<path class="st16" d="M34.1,57L34.1,57c0.4-0.2,0.9-0.4,1.3-0.6c0.4-0.2,0.8-0.5,1.1-0.8l0,0c1.3,0.2,2.6-0.2,3-1l0.1-0.3
		c0.1-0.1,0.1-0.2,0.1-0.4c0-0.6-0.7-1.2-1.8-1.4l-0.1,0c-0.1-0.6-0.4-1.3-0.9-1.8l0.1,0c0.5-0.3,0.7-0.6,0.7-1c0-0.4-0.2-0.7-0.7-1
		l-0.4-0.2c-0.9-0.5-2.5-0.5-3.4,0l-0.1,0c-1-0.3-2.1-0.5-3.2-0.5l0,0c-0.3-0.7-1.7-1.2-3-1l-0.5,0.1c-1.1,0.2-1.8,0.7-1.8,1.4
		c0,0.1,0,0.2,0.1,0.4l0,0c-0.5,0.2-0.9,0.4-1.3,0.6c-0.4,0.2-0.8,0.5-1.1,0.8l0,0c-1.3-0.2-2.6,0.2-3,1l-0.1,0.3
		c-0.1,0.1-0.1,0.2-0.1,0.4c0,0.6,0.7,1.2,1.8,1.4l0.1,0c0.1,0.6,0.4,1.3,0.9,1.8l-0.1,0c-0.5,0.3-0.7,0.6-0.7,1
		c0,0.4,0.2,0.7,0.7,1l0.4,0.2c0.9,0.5,2.5,0.5,3.4,0l0.1,0c1,0.3,2.1,0.5,3.2,0.5l0,0c0.3,0.7,1.7,1.2,3,1l0.5-0.1
		c1.1-0.2,1.8-0.7,1.8-1.4C34.2,57.2,34.2,57.1,34.1,57z"/>
		<path class="st25" d="M25.4,50.5c2.2-1.3,5.9-1.3,8.1,0c2.2,1.3,2.2,3.4,0,4.7c-2.2,1.3-5.9,1.3-8.1,0
		C23.1,53.9,23.1,51.8,25.4,50.5z"/>
	</g>
</svg>
