<?xml version="1.0" encoding="utf-8"?>
<!-- Generator: Adobe Illustrator 24.0.1, SVG Export Plug-In . SVG Version: 6.00 Build 0)  -->
<svg version="1.1" id="图层_5"
	xmlns="http://www.w3.org/2000/svg"
	xmlns:xlink="http://www.w3.org/1999/xlink" x="0px" y="0px" viewBox="0 0 78.6 75.1" width="78.6" height="75.1" xml:space="preserve">
	<style type="text/css">
	.st0{fill:#FFFFFF;}
	.st1{fill:#0087BE;}
	.st2{fill:#00E6E6;}
	.st3{fill:none;}
	.st4{fill:#556080;}
	.st5{fill:#F2F2F2;stroke:#00E6E6;stroke-width:0.5;stroke-linecap:square;stroke-linejoin:round;stroke-miterlimit:10;}
	.st6{fill:#E5E5E5;}
	.st7{fill:none;stroke:#00E6E6;stroke-width:0.5;stroke-linecap:square;stroke-linejoin:round;stroke-miterlimit:10;}
	.st8{fill:none;stroke:#0087BE;stroke-miterlimit:10;}
	.st9{fill:#F2F2F2;}
	.st10{fill:#F7F7F7;}
	.st11{fill:#D8D8D8;}
	.st12{fill:#E8E8E8;}
	.st13{fill:#EFEFEF;}
	.st14{fill:url(#SVGID_4_);}
	.st15{fill:url(#SVGID_5_);}
	.st16{fill:#04BCD8;}
	.st17{fill:url(#SVGID_6_);}
	.st18{fill:url(#SVGID_7_);}
	.st19{fill:url(#SVGID_8_);}
	.st20{fill:url(#SVGID_9_);}
	.st21{fill:url(#SVGID_10_);}
	.st22{fill:url(#SVGID_11_);}
	.st23{fill:url(#SVGID_12_);}
	.st24{fill:url(#SVGID_13_);}
	.st25{fill:#0186BE;}
	.st26{fill:#01FFB9;}
	.st27{fill:#06486D;}
	.st28{opacity:0.5;fill:#06486D;}
	.st29{fill:#B7B7B7;}
	.st30{fill:#A3A3A3;}
	.st31{fill:url(#SVGID_14_);}
	.st32{fill-rule:evenodd;clip-rule:evenodd;fill:#04BBDA;}
	.st33{fill-rule:evenodd;clip-rule:evenodd;fill:#05A2C6;}
	.st34{fill-rule:evenodd;clip-rule:evenodd;fill:#03E5E1;}
	.st35{fill-rule:evenodd;clip-rule:evenodd;fill:#0087BE;}
	.st36{fill-rule:evenodd;clip-rule:evenodd;fill:#00AEEB;}
	.st37{fill-rule:evenodd;clip-rule:evenodd;fill:#F7F7F7;}
	.st38{fill-rule:evenodd;clip-rule:evenodd;fill:#D8D8D8;}
	.st39{fill-rule:evenodd;clip-rule:evenodd;fill:#AB4C00;}
	.st40{fill-rule:evenodd;clip-rule:evenodd;fill:#E8E8E8;}
	.st41{fill-rule:evenodd;clip-rule:evenodd;fill:#8B3B00;}
	.st42{fill-rule:evenodd;clip-rule:evenodd;fill:#FFFFFF;}
	.st43{fill-rule:evenodd;clip-rule:evenodd;fill:#231815;}
	.st44{fill-rule:evenodd;clip-rule:evenodd;fill:#E5E5E6;}
	.st45{fill-rule:evenodd;clip-rule:evenodd;fill:#F0F0F0;}
	.st46{fill-rule:evenodd;clip-rule:evenodd;fill:#1AFFF3;}
	.st47{fill-rule:evenodd;clip-rule:evenodd;fill:#C8C9CA;}
	.st48{fill-rule:evenodd;clip-rule:evenodd;fill:url(#SVGID_15_);}
	.st49{fill-rule:evenodd;clip-rule:evenodd;fill:#FFD700;}
	.st50{fill-rule:evenodd;clip-rule:evenodd;fill:url(#SVGID_16_);}
	.st51{fill:#04BBDA;}
	.st52{fill:url(#SVGID_17_);}
	.st53{fill:url(#SVGID_18_);}
	.st54{fill:url(#SVGID_19_);}
	.st55{fill:url(#SVGID_20_);}
	.st56{fill:url(#SVGID_21_);}
	.st57{fill:url(#SVGID_22_);}
	.st58{fill:url(#SVGID_23_);}
	.st59{fill:url(#SVGID_24_);}
	.st60{fill:url(#SVGID_25_);}
	.st61{fill:#03E5E1;}
	.st62{fill:url(#SVGID_26_);}
	.st63{fill-rule:evenodd;clip-rule:evenodd;fill:#C6C6C6;}
	.st64{fill-rule:evenodd;clip-rule:evenodd;fill:#E0E0E0;}
	.st65{fill:url(#SVGID_27_);}
	.st66{fill:url(#SVGID_28_);}
	.st67{fill:#C6C6C6;}
	.st68{fill:url(#SVGID_29_);}
	.st69{fill:url(#SVGID_30_);}
	.st70{fill:url(#SVGID_31_);}
	.st71{fill:url(#SVGID_32_);}
	.st72{fill:url(#SVGID_33_);}
	.st73{fill:url(#SVGID_34_);}
	.st74{fill:url(#SVGID_35_);}
	.st75{fill:url(#SVGID_36_);}
	.st76{fill:url(#SVGID_37_);}
	.st77{fill:url(#SVGID_38_);}
	.st78{fill:url(#SVGID_39_);}
	.st79{fill:url(#SVGID_40_);}
	.st80{fill:url(#SVGID_41_);}
	.st81{fill:url(#SVGID_42_);}
	.st82{fill:#00FFFF;}
	.st83{fill:#0061A2;}
	.st84{opacity:0.3;fill:url(#SVGID_43_);}
	.st85{fill:url(#SVGID_44_);}
	.st86{fill:url(#SVGID_45_);}
	.st87{fill:url(#SVGID_46_);}
	.st88{fill:url(#SVGID_47_);}
	.st89{fill:url(#SVGID_48_);}
	.st90{fill:url(#SVGID_49_);}
	.st91{fill:url(#SVGID_50_);}
	.st92{fill:url(#SVGID_51_);}
	.st93{fill:url(#SVGID_52_);}
	.st94{fill:url(#SVGID_53_);}
	.st95{fill:url(#SVGID_54_);}
	.st96{fill:url(#SVGID_55_);}
	.st97{fill:url(#SVGID_56_);}
	.st98{fill:url(#SVGID_57_);}
	.st99{fill:url(#SVGID_58_);}
	.st100{fill:url(#SVGID_59_);}
	.st101{fill:url(#SVGID_60_);}
	.st102{fill:url(#SVGID_61_);}
	.st103{fill:url(#SVGID_62_);}
	.st104{fill:url(#SVGID_63_);}
	.st105{fill:url(#SVGID_64_);}
	.st106{fill:url(#SVGID_65_);}
	.st107{fill:url(#SVGID_66_);}
	.st108{fill:url(#SVGID_67_);}
	.st109{fill:url(#SVGID_68_);}
	.st110{opacity:0.3;fill:url(#SVGID_69_);}
	.st111{fill:url(#SVGID_70_);}
	.st112{fill:url(#SVGID_71_);}
	.st113{fill:url(#SVGID_72_);}
	.st114{fill:url(#SVGID_73_);}
	.st115{fill:url(#SVGID_74_);}
	.st116{fill:url(#SVGID_75_);}
	.st117{fill:url(#SVGID_76_);}
	.st118{fill:url(#SVGID_77_);}
	.st119{fill:url(#SVGID_78_);}
	.st120{fill:url(#SVGID_79_);}
	.st121{fill:url(#SVGID_80_);}
	.st122{fill:url(#SVGID_81_);}
	.st123{fill:url(#SVGID_82_);}
	.st124{fill:url(#SVGID_83_);}
	.st125{fill:url(#SVGID_84_);}
	.st126{fill:url(#SVGID_85_);}
	.st127{fill:url(#SVGID_86_);}
	.st128{fill:url(#SVGID_87_);}
	.st129{fill:url(#SVGID_88_);}
	.st130{fill:url(#SVGID_89_);}
	.st131{fill:url(#SVGID_90_);}
	.st132{fill:url(#SVGID_91_);}
	.st133{fill:url(#SVGID_92_);}
	.st134{fill:url(#SVGID_93_);}
	.st135{fill:url(#SVGID_94_);}
	.st136{opacity:0.3;fill:url(#SVGID_95_);}
	.st137{fill:url(#SVGID_96_);}
	.st138{fill:url(#SVGID_97_);}
	.st139{fill:url(#SVGID_98_);}
	.st140{fill:url(#SVGID_99_);}
	.st141{fill:url(#SVGID_100_);}
	.st142{fill:url(#SVGID_101_);}
	.st143{fill:url(#SVGID_102_);}
	.st144{fill:url(#SVGID_103_);}
	.st145{fill:url(#SVGID_104_);}
	.st146{fill:url(#SVGID_105_);}
	.st147{fill:url(#SVGID_106_);}
	.st148{fill:url(#SVGID_107_);}
	.st149{fill:url(#SVGID_108_);}
	.st150{fill:url(#SVGID_109_);}
	.st151{fill:url(#SVGID_110_);}
	.st152{fill:url(#SVGID_111_);}
	.st153{fill:url(#SVGID_112_);}
	.st154{fill:url(#SVGID_113_);}
	.st155{fill:url(#SVGID_114_);}
	.st156{fill:url(#SVGID_115_);}
	.st157{fill:url(#SVGID_116_);}
	.st158{fill:url(#SVGID_117_);}
	.st159{fill:url(#SVGID_118_);}
	.st160{fill:url(#SVGID_119_);}
	.st161{fill:url(#SVGID_120_);}
	.st162{opacity:0.3;fill:url(#SVGID_121_);}
	.st163{fill:url(#SVGID_122_);}
	.st164{fill:url(#SVGID_123_);}
	.st165{fill:url(#SVGID_124_);}
	.st166{fill:url(#SVGID_125_);}
	.st167{fill:url(#SVGID_126_);}
	.st168{fill:url(#SVGID_127_);}
	.st169{fill:url(#SVGID_128_);}
	.st170{fill:url(#SVGID_129_);}
	.st171{fill:url(#SVGID_130_);}
	.st172{fill:url(#SVGID_131_);}
	.st173{fill:url(#SVGID_132_);}
	.st174{fill:url(#SVGID_133_);}
	.st175{fill:url(#SVGID_134_);}
	.st176{fill:url(#SVGID_135_);}
	.st177{fill:url(#SVGID_136_);}
	.st178{fill:url(#SVGID_137_);}
	.st179{fill:url(#SVGID_138_);}
	.st180{fill:url(#SVGID_139_);}
	.st181{fill:url(#SVGID_140_);}
	.st182{fill:url(#SVGID_141_);}
	.st183{fill:url(#SVGID_142_);}
	.st184{fill:url(#SVGID_143_);}
	.st185{fill:url(#SVGID_144_);}
	.st186{fill:url(#SVGID_145_);}
	.st187{fill:url(#SVGID_146_);}
	.st188{fill:url(#SVGID_147_);}
	.st189{fill:url(#SVGID_148_);}
	.st190{fill:url(#SVGID_149_);}
	.st191{fill:#00686C;}
	.st192{fill:url(#SVGID_150_);}
	.st193{fill:url(#SVGID_151_);}
	.st194{fill:url(#SVGID_152_);}
	.st195{fill:url(#SVGID_153_);}
	.st196{fill:url(#SVGID_154_);}
	.st197{fill:url(#SVGID_155_);}
	.st198{fill:url(#SVGID_156_);}
	.st199{fill:url(#SVGID_157_);}
	.st200{fill:url(#SVGID_158_);}
	.st201{fill:url(#SVGID_159_);}
	.st202{fill:url(#SVGID_160_);}
	.st203{fill:url(#SVGID_161_);}
	.st204{fill:url(#SVGID_162_);}
	.st205{fill:url(#SVGID_163_);}
	.st206{fill:url(#SVGID_164_);}
	.st207{fill:url(#SVGID_165_);}
	.st208{fill:url(#SVGID_166_);}
	.st209{fill:url(#SVGID_167_);}
	.st210{fill:url(#SVGID_168_);}
	.st211{fill:url(#SVGID_169_);}
	.st212{fill:url(#SVGID_170_);}
	.st213{fill:url(#SVGID_171_);}
	.st214{fill:url(#SVGID_172_);}
	.st215{fill:url(#SVGID_173_);}
	.st216{fill:url(#SVGID_174_);}
	.st217{fill:url(#SVGID_175_);}
	.st218{fill:url(#SVGID_176_);}
	.st219{fill:url(#SVGID_177_);}
	.st220{fill:url(#SVGID_178_);}
	.st221{fill:url(#SVGID_179_);}
	.st222{fill:url(#SVGID_180_);}
	.st223{fill:url(#SVGID_181_);}
	.st224{fill:url(#SVGID_182_);}
	.st225{fill:url(#SVGID_183_);}
	.st226{fill:url(#SVGID_184_);}
	.st227{fill:url(#SVGID_185_);}
	.st228{fill:url(#SVGID_186_);}
	.st229{fill:url(#SVGID_187_);}
	.st230{fill:url(#SVGID_188_);}
	.st231{fill:url(#SVGID_189_);}
	.st232{fill:url(#SVGID_190_);}
	.st233{fill:url(#SVGID_191_);}
	.st234{fill:url(#SVGID_192_);}
	.st235{fill:url(#SVGID_193_);}
	.st236{fill:url(#SVGID_194_);}
	.st237{fill:url(#SVGID_195_);}
	.st238{fill:url(#SVGID_196_);}
	.st239{fill:url(#SVGID_197_);}
	.st240{fill:url(#SVGID_198_);}
	.st241{fill:url(#SVGID_199_);}
	.st242{fill:url(#SVGID_200_);}
	.st243{fill:url(#SVGID_201_);}
	.st244{fill:url(#SVGID_202_);}
	.st245{fill:url(#SVGID_203_);}
	.st246{fill:url(#SVGID_204_);}
	.st247{fill:#05B0C1;}
	.st248{clip-path:url(#SVGID_207_);}
	.st249{clip-path:url(#SVGID_208_);}
	.st250{clip-path:url(#SVGID_213_);}
	.st251{clip-path:url(#SVGID_214_);}
	.st252{fill:#06DAAE;}
	.st253{fill:url(#SVGID_217_);}
	.st254{fill:url(#SVGID_218_);}
	.st255{fill:url(#SVGID_219_);}
	.st256{fill:url(#SVGID_220_);}
	.st257{clip-path:url(#SVGID_223_);}
	.st258{clip-path:url(#SVGID_224_);}
	.st259{fill:#F2EFFA;}
	.st260{clip-path:url(#SVGID_229_);}
	.st261{clip-path:url(#SVGID_230_);}
	.st262{clip-path:url(#SVGID_235_);}
	.st263{clip-path:url(#SVGID_236_);}
	.st264{clip-path:url(#SVGID_241_);}
	.st265{clip-path:url(#SVGID_242_);}
	.st266{enable-background:new    ;}
	.st267{fill:url(#SVGID_245_);}
	.st268{fill:url(#SVGID_246_);}
	.st269{fill:url(#SVGID_247_);}
	.st270{fill:url(#SVGID_248_);}
	.st271{fill:url(#SVGID_249_);}
	.st272{fill:url(#SVGID_250_);}
	.st273{fill:url(#SVGID_251_);}
	.st274{fill:url(#SVGID_252_);}
	.st275{fill:url(#SVGID_253_);}
	.st276{fill:url(#SVGID_254_);}
	.st277{fill:url(#SVGID_255_);}
	.st278{fill:url(#SVGID_256_);}
	.st279{fill:url(#SVGID_257_);}
	.st280{fill:#4CFFD5;}
	.st281{fill:url(#SVGID_258_);}
	.st282{fill:url(#SVGID_259_);}
	.st283{fill:url(#SVGID_260_);}
	.st284{fill:url(#SVGID_261_);}
	.st285{opacity:0.4;fill:url(#SVGID_262_);}
	.st286{opacity:0.6;fill:url(#SVGID_263_);}
	.st287{fill:url(#SVGID_264_);}
	.st288{fill:url(#SVGID_265_);}
	.st289{fill:#00AEEB;}
	.st290{fill:url(#SVGID_266_);}
	.st291{opacity:0.4;fill:url(#SVGID_267_);}
	.st292{opacity:0.6;fill:url(#SVGID_268_);}
	.st293{fill:url(#SVGID_269_);}
	.st294{opacity:0.4;fill:url(#SVGID_270_);}
	.st295{opacity:0.6;fill:url(#SVGID_271_);}
	.st296{fill:url(#SVGID_272_);}
	.st297{opacity:0.4;fill:url(#SVGID_273_);}
	.st298{opacity:0.6;fill:url(#SVGID_274_);}
	.st299{fill:url(#SVGID_275_);}
	.st300{opacity:0.4;fill:url(#SVGID_276_);}
	.st301{opacity:0.6;fill:url(#SVGID_277_);}
	.st302{fill:url(#SVGID_278_);}
	.st303{fill:url(#SVGID_279_);}
	.st304{fill:url(#SVGID_280_);}
	.st305{fill:url(#SVGID_281_);}
	.st306{fill:url(#SVGID_282_);}
	.st307{fill:url(#SVGID_283_);}
	.st308{fill:url(#SVGID_284_);}
	.st309{fill:url(#SVGID_285_);}
	.st310{fill:url(#SVGID_286_);}
	.st311{fill:#131415;}
	.st312{fill:url(#SVGID_287_);}
	.st313{fill:url(#SVGID_288_);}
	.st314{fill:url(#SVGID_289_);}
	.st315{fill:url(#SVGID_290_);}
	.st316{fill:url(#SVGID_291_);}
	.st317{fill:url(#SVGID_292_);}
	.st318{fill:url(#SVGID_293_);}
	.st319{fill:url(#SVGID_294_);}
	.st320{fill:url(#SVGID_295_);}
	.st321{fill:#5C5C66;}
	.st322{fill:#546178;}
	.st323{fill:#4A79DE;}
	.st324{fill:url(#SVGID_296_);}
	.st325{fill-rule:evenodd;clip-rule:evenodd;fill:none;stroke:#D1D1D1;stroke-miterlimit:10;}
	.st326{fill:none;stroke:#45B4FF;}
	.st327{fill:none;stroke:#45B4FF;stroke-dasharray:1.9811,1.9811;}
	.st328{fill:none;stroke:#45B4FF;stroke-dasharray:1.9807,1.9807;}
	.st329{fill:none;stroke:#FF000D;}
	.st330{fill:none;stroke:#45B4FF;stroke-dasharray:2;}
	.st331{fill-rule:evenodd;clip-rule:evenodd;fill:none;stroke:#0ABAFF;stroke-miterlimit:10;}
	.st332{fill:none;stroke:url(#SVGID_297_);stroke-miterlimit:10;}
	.st333{fill:none;stroke:url(#SVGID_298_);stroke-miterlimit:10;}
	.st334{fill:none;stroke:url(#SVGID_299_);stroke-miterlimit:10;}
	.st335{fill:none;stroke:url(#SVGID_300_);stroke-miterlimit:10;}
	.st336{fill:none;stroke:url(#SVGID_301_);stroke-miterlimit:10;}
	.st337{fill:none;stroke:url(#SVGID_302_);stroke-miterlimit:10;}
	.st338{fill:none;stroke:url(#SVGID_303_);stroke-miterlimit:10;}
	.st339{fill:none;stroke:url(#SVGID_304_);stroke-miterlimit:10;}
	.st340{fill:none;stroke:url(#SVGID_305_);stroke-miterlimit:10;}
	.st341{fill:none;stroke:url(#SVGID_306_);stroke-miterlimit:10;}
	.st342{fill:none;stroke:url(#SVGID_307_);stroke-miterlimit:10;}
	.st343{fill:none;stroke:url(#SVGID_308_);stroke-miterlimit:10;}
	.st344{fill:#0ABAFF;}
	.st345{fill:url(#SVGID_309_);}
	</style>
	<g id="图层_855">
	</g>
	<g id="图层_854">
	</g>
	<g id="图层_853">
	</g>
	<g id="图层_840">
	</g>
	<g id="图层_823">
	</g>
	<g>
		<polygon class="st10" points="78.6,46.5 68.6,68.9 28.5,75.1 0.1,58.9 0.1,51.3 78.6,38.9 	"/>
		<polygon class="st11" points="78.6,46.5 68.6,68.9 68.6,61.3 78.6,38.9 	"/>
		<polygon class="st12" points="78.6,38.9 68.6,61.3 28.5,67.5 0.1,51.3 10.6,28.7 50.8,22.8 	"/>
		<polygon class="st13" points="68.6,61.3 68.6,68.9 28.5,75.1 28.5,67.5 	"/>
	</g>
	<g>
		<path class="st61" d="M50.2,57.5l21.1-12.2c1-0.6,1.6-1.7,1.6-3.4c0-0.9-0.2-1.8-0.4-2.7l0,0c-0.1-0.4-0.3-0.8-0.4-1.2
		c0,0,0-0.1-0.1-0.1c0,0,0,0,0-0.1c-1-2.2-2.6-4.1-4.4-5.2L42.1,17.8L40.7,17L35,13.7c-1.5-0.9-2.8-0.9-3.8-0.4l-21,12.3
		c0,0-1.8,0.6-1.8,3.4c0,3,1.5,6.9,5.5,9.4l32.5,18.7c2.9,1.7,5.2,0.4,5.4-2.8"/>
		<g>
			<g>
				<path class="st1" d="M30.2,17.1c0,2.5,1.8,5.6,3.9,6.8L13,36.2c-2.2-1.3-4-4.3-3.9-6.8c0-1.2,0.4-2.1,1.2-2.5l21.1-12.2
				C30.6,15,30.2,15.9,30.2,17.1z"/>
			</g>
		</g>
		<path class="st1" d="M70.2,43.7L49.1,55.9c-0.7,0.4-1.7,0.4-2.8-0.3L11,35.7L34,21.1l33.4,22.3C68.5,44.1,69.5,44.1,70.2,43.7z"/>
		<g>
			<g>
				<g class="st266">
					<g>
						<linearGradient id="SVGID_4_" gradientUnits="userSpaceOnUse" x1="16.7199" y1="26.6062" x2="20.5204" y2="33.0899">
							<stop offset="0" style="stop-color:#CCCCCC"/>
							<stop offset="3.594546e-02" style="stop-color:#D2D2D2"/>
							<stop offset="0.207" style="stop-color:#EBEBEB"/>
							<stop offset="0.3637" style="stop-color:#FAFAFA"/>
							<stop offset="0.4919" style="stop-color:#FFFFFF"/>
							<stop offset="0.5875" style="stop-color:#FCFCFC"/>
							<stop offset="0.6702" style="stop-color:#F1F1F1"/>
							<stop offset="0.7481" style="stop-color:#DFDFDF"/>
							<stop offset="0.8226" style="stop-color:#C6C6C6"/>
							<stop offset="0.8527" style="stop-color:#BABABA"/>
						</linearGradient>
						<path class="st14" d="M24,30.1c0,1-0.3,1.6-0.9,1.9l-6.9,4c0.5-0.3,0.9-1,0.9-1.9c0-1.9-1.3-4.3-3-5.2
						c-0.8-0.5-1.6-0.5-2.2-0.2l6.9-4c0.6-0.3,1.3-0.3,2.2,0.2C22.7,25.9,24,28.2,24,30.1z"/>
					</g>
					<g>
						<g>
							<path class="st51" d="M14.1,28.9c1.7,1,3,3.3,3,5.2c0,1.9-1.4,2.7-3,1.7c-1.7-1-3-3.3-3-5.2C11,28.7,12.4,28,14.1,28.9z"/>
						</g>
					</g>
					<g>
						<path class="st252" d="M14.1,30.6c0.9,0.5,1.6,1.7,1.6,2.8c0,1-0.7,1.4-1.6,0.9c-0.9-0.5-1.6-1.7-1.6-2.8
						C12.4,30.5,13.2,30,14.1,30.6z"/>
					</g>
				</g>
			</g>
			<g>
				<g class="st266">
					<g>
						<linearGradient id="SVGID_5_" gradientUnits="userSpaceOnUse" x1="24.3102" y1="30.9925" x2="28.1573" y2="37.3268">
							<stop offset="0" style="stop-color:#CCCCCC"/>
							<stop offset="3.594546e-02" style="stop-color:#D2D2D2"/>
							<stop offset="0.207" style="stop-color:#EBEBEB"/>
							<stop offset="0.3637" style="stop-color:#FAFAFA"/>
							<stop offset="0.4919" style="stop-color:#FFFFFF"/>
							<stop offset="0.5875" style="stop-color:#FCFCFC"/>
							<stop offset="0.6702" style="stop-color:#F1F1F1"/>
							<stop offset="0.7481" style="stop-color:#DFDFDF"/>
							<stop offset="0.8226" style="stop-color:#C6C6C6"/>
							<stop offset="0.8527" style="stop-color:#BABABA"/>
						</linearGradient>
						<path class="st15" d="M31.8,34.6c0,1-0.3,1.6-0.9,1.9l-6.9,4c0.5-0.3,0.9-1,0.9-1.9c0-1.9-1.3-4.3-3-5.2
						c-0.8-0.5-1.6-0.5-2.2-0.2l6.9-4c0.6-0.3,1.3-0.3,2.2,0.2C30.4,30.3,31.8,32.7,31.8,34.6z"/>
					</g>
					<g>
						<path class="st51" d="M21.8,33.4c1.7,1,3,3.3,3,5.2c0,1.9-1.4,2.7-3,1.7c-1.7-1-3-3.3-3-5.2C18.8,33.2,20.1,32.4,21.8,33.4z"/>
					</g>
					<g>
						<path class="st252" d="M21.8,35c0.9,0.5,1.6,1.7,1.6,2.8c0,1-0.7,1.4-1.6,0.9c-0.9-0.5-1.6-1.7-1.6-2.8
						C20.2,34.9,20.9,34.5,21.8,35z"/>
					</g>
				</g>
			</g>
			<g>
				<g class="st266">
					<g>
						<linearGradient id="SVGID_6_" gradientUnits="userSpaceOnUse" x1="32.0951" y1="35.3894" x2="36.1024" y2="42.1681">
							<stop offset="0" style="stop-color:#CCCCCC"/>
							<stop offset="3.594546e-02" style="stop-color:#D2D2D2"/>
							<stop offset="0.207" style="stop-color:#EBEBEB"/>
							<stop offset="0.3637" style="stop-color:#FAFAFA"/>
							<stop offset="0.4919" style="stop-color:#FFFFFF"/>
							<stop offset="0.5875" style="stop-color:#FCFCFC"/>
							<stop offset="0.6702" style="stop-color:#F1F1F1"/>
							<stop offset="0.7481" style="stop-color:#DFDFDF"/>
							<stop offset="0.8226" style="stop-color:#C6C6C6"/>
							<stop offset="0.8527" style="stop-color:#BABABA"/>
						</linearGradient>
						<path class="st17" d="M39.5,39.1c0,1-0.3,1.6-0.9,1.9l-6.9,4c0.5-0.3,0.9-1,0.9-1.9c0-1.9-1.3-4.3-3-5.2
						c-0.8-0.5-1.6-0.5-2.2-0.2l6.9-4c0.6-0.3,1.3-0.3,2.2,0.2C38.2,34.8,39.5,37.1,39.5,39.1z"/>
					</g>
					<g>
						<path class="st51" d="M29.6,37.9c1.7,1,3,3.3,3,5.2c0,1.9-1.4,2.7-3,1.7c-1.7-1-3-3.3-3-5.2C26.5,37.7,27.9,36.9,29.6,37.9z"/>
					</g>
					<g>
						<path class="st252" d="M29.5,39.5c0.9,0.5,1.6,1.7,1.6,2.8c0,1-0.7,1.4-1.6,0.9c-0.9-0.5-1.6-1.7-1.6-2.8
						C27.9,39.4,28.7,39,29.5,39.5z"/>
					</g>
				</g>
			</g>
			<g>
				<g class="st266">
					<g>
						<linearGradient id="SVGID_7_" gradientUnits="userSpaceOnUse" x1="39.5072" y1="39.4685" x2="43.7985" y2="46.5051">
							<stop offset="0" style="stop-color:#CCCCCC"/>
							<stop offset="3.594546e-02" style="stop-color:#D2D2D2"/>
							<stop offset="0.207" style="stop-color:#EBEBEB"/>
							<stop offset="0.3637" style="stop-color:#FAFAFA"/>
							<stop offset="0.4919" style="stop-color:#FFFFFF"/>
							<stop offset="0.5875" style="stop-color:#FCFCFC"/>
							<stop offset="0.6702" style="stop-color:#F1F1F1"/>
							<stop offset="0.7481" style="stop-color:#DFDFDF"/>
							<stop offset="0.8226" style="stop-color:#C6C6C6"/>
							<stop offset="0.8527" style="stop-color:#BABABA"/>
						</linearGradient>
						<path class="st18" d="M47.2,43.5c0,1-0.3,1.6-0.9,1.9l-6.9,4c0.5-0.3,0.9-1,0.9-1.9c0-1.9-1.3-4.3-3-5.2
						c-0.8-0.5-1.6-0.5-2.2-0.2l6.9-4c0.6-0.3,1.3-0.3,2.2,0.2C45.9,39.3,47.3,41.6,47.2,43.5z"/>
					</g>
					<g>
						<path class="st51" d="M37.3,42.3c1.7,1,3,3.3,3,5.2c0,1.9-1.4,2.7-3,1.7c-1.7-1-3-3.3-3-5.2C34.3,42.1,35.6,41.4,37.3,42.3z"/>
					</g>
					<g>
						<path class="st252" d="M37.3,44c0.9,0.5,1.6,1.7,1.6,2.8c0,1-0.7,1.4-1.6,0.9c-0.9-0.5-1.6-1.7-1.6-2.8
						C35.7,43.9,36.4,43.5,37.3,44z"/>
					</g>
				</g>
			</g>
			<g>
				<g class="st266">
					<g>
						<linearGradient id="SVGID_8_" gradientUnits="userSpaceOnUse" x1="47.5432" y1="44.47" x2="51.5419" y2="50.9528">
							<stop offset="0" style="stop-color:#CCCCCC"/>
							<stop offset="3.594546e-02" style="stop-color:#D2D2D2"/>
							<stop offset="0.207" style="stop-color:#EBEBEB"/>
							<stop offset="0.3637" style="stop-color:#FAFAFA"/>
							<stop offset="0.4919" style="stop-color:#FFFFFF"/>
							<stop offset="0.5875" style="stop-color:#FCFCFC"/>
							<stop offset="0.6702" style="stop-color:#F1F1F1"/>
							<stop offset="0.7481" style="stop-color:#DFDFDF"/>
							<stop offset="0.8226" style="stop-color:#C6C6C6"/>
							<stop offset="0.8527" style="stop-color:#BABABA"/>
						</linearGradient>
						<path class="st19" d="M55,48c0,1-0.3,1.6-0.9,1.9l-6.9,4c0.5-0.3,0.9-1,0.9-1.9c0-1.9-1.3-4.3-3-5.2c-0.8-0.5-1.6-0.5-2.2-0.2
						l6.9-4c0.6-0.3,1.3-0.3,2.2,0.2C53.7,43.8,55,46.1,55,48z"/>
					</g>
					<g>
						<path class="st51" d="M45.1,46.8c1.7,1,3,3.3,3,5.2c0,1.9-1.4,2.7-3,1.7s-3-3.3-3-5.2C42,46.6,43.4,45.8,45.1,46.8z"/>
					</g>
					<g>
						<path class="st252" d="M45,48.5c0.9,0.5,1.6,1.7,1.6,2.8c0,1-0.7,1.4-1.6,0.9c-0.9-0.5-1.6-1.7-1.6-2.8
						C43.4,48.4,44.2,47.9,45,48.5z"/>
					</g>
				</g>
			</g>
		</g>
		<g>
			<path class="st191" d="M46.3,44.9c3,1.7,5.4,5.9,5.3,9.2c0,3.4-2.4,4.8-5.4,3.1L13.8,38.5c-3.6-2.1-5.5-5.9-5.5-9.3
			c-0.1-3.2,2.1-4.8,5.4-3.1L46.3,44.9z M46.3,55.7c2.2,1.3,4,0.2,4-2.3c0-2.5-1.8-5.6-3.9-6.8L13.7,27.7c-2.2-1.3-4-0.2-4,2.3
			c0,2.5,1.8,5.6,3.9,6.8L46.3,55.7"/>
		</g>
		<linearGradient id="SVGID_9_" gradientUnits="userSpaceOnUse" x1="30.4936" y1="12.4347" x2="54.8992" y2="58.1564">
			<stop offset="2.191999e-02" style="stop-color:#0186BE"/>
			<stop offset="3.288405e-02" style="stop-color:#018CC1"/>
			<stop offset="4.712076e-02" style="stop-color:#029CCA"/>
			<stop offset="6.310233e-02" style="stop-color:#04B7D8"/>
			<stop offset="6.537464e-02" style="stop-color:#04BBDA"/>
			<stop offset="0.2669" style="stop-color:#03C1DC"/>
			<stop offset="0.525" style="stop-color:#02D1E0"/>
			<stop offset="0.7673" style="stop-color:#00E6E6"/>
			<stop offset="0.7941" style="stop-color:#00DDE2"/>
			<stop offset="0.8386" style="stop-color:#00C3D7"/>
			<stop offset="0.8951" style="stop-color:#019AC6"/>
			<stop offset="0.9195" style="stop-color:#0186BE"/>
		</linearGradient>
		<path class="st20" d="M50.6,57.2l20.6-12c1-0.6,1.6-1.7,1.6-3.4c0-0.9-0.2-1.8-0.4-2.7l0,0c-0.1-0.4-0.3-0.8-0.4-1.2
		c0,0,0-0.1-0.1-0.1c0,0,0,0,0-0.1c-1-2.2-2.6-4.1-4.4-5.2L42.1,17.8L40.7,17L35,13.7c-1.5-0.9-2.8-0.9-3.8-0.4L9.8,25.8
		c2-1.2,4.3,0.5,5.9,1.4c2.6,1.5,9.2,5.3,9.2,5.3l16.8,9.7c2.3,1.6,5.2,2.4,7.3,5C50.9,49.6,53,54.6,50.6,57.2"/>
		<g>
			<linearGradient id="SVGID_10_" gradientUnits="userSpaceOnUse" x1="25.9901" y1="23.0066" x2="56.4077" y2="23.0066">
				<stop offset="0" style="stop-color:#7A7A7A"/>
				<stop offset="9.573915e-02" style="stop-color:#7D7D7D"/>
				<stop offset="0.1783" style="stop-color:#888888"/>
				<stop offset="0.2559" style="stop-color:#9A9A9A"/>
				<stop offset="0.3306" style="stop-color:#B3B3B3"/>
				<stop offset="0.4031" style="stop-color:#D3D3D3"/>
				<stop offset="0.4731" style="stop-color:#FAFAFA"/>
				<stop offset="0.4812" style="stop-color:#FFFFFF"/>
				<stop offset="0.5172" style="stop-color:#EDEDED"/>
				<stop offset="0.582" style="stop-color:#D2D2D2"/>
				<stop offset="0.6529" style="stop-color:#BDBDBD"/>
				<stop offset="0.7321" style="stop-color:#AEAEAE"/>
				<stop offset="0.8262" style="stop-color:#A6A6A6"/>
				<stop offset="0.9739" style="stop-color:#A3A3A3"/>
			</linearGradient>
			<path class="st21" d="M26,10.2L26,29c0,0.3,0.2,0.7,0.5,0.8L38.7,37c0.8,0.5,1.9,0.5,2.7,0l14.4-8.3c0.4-0.2,0.6-0.6,0.6-1l0-19
			L26,10.2z"/>
			<linearGradient id="SVGID_11_" gradientUnits="userSpaceOnUse" x1="25.9901" y1="9.3092" x2="56.3809" y2="9.3092">
				<stop offset="0" style="stop-color:#EDEDED"/>
				<stop offset="0.2334" style="stop-color:#FAFAFA"/>
				<stop offset="0.4497" style="stop-color:#FFFFFF"/>
				<stop offset="0.5588" style="stop-color:#FCFCFC"/>
				<stop offset="0.6532" style="stop-color:#F1F1F1"/>
				<stop offset="0.7422" style="stop-color:#DFDFDF"/>
				<stop offset="0.8278" style="stop-color:#C6C6C6"/>
				<stop offset="0.9109" style="stop-color:#A6A6A6"/>
				<stop offset="0.9913" style="stop-color:#7F7F7F"/>
				<stop offset="1" style="stop-color:#7A7A7A"/>
			</linearGradient>
			<path class="st22" d="M38.5,17.9l-11.8-6.8c-0.9-0.5-0.9-1.8,0-2.3l14.5-8.3c0.8-0.5,1.8-0.5,2.6,0l12,6.9c0.9,0.5,0.9,1.8,0,2.4
			l-13.8,8.1C40.8,18.5,39.5,18.6,38.5,17.9z"/>
			<path class="st51" d="M32.5,5.5l15.4,8.9l4.1-2.4L36.6,3.1L32.5,5.5z M32.5,5.5"/>
			<path class="st26" d="M34.9,4.1l15.4,8.9l-0.8,0.5L34.1,4.5L34.9,4.1z M34.9,4.1"/>
			<path class="st247" d="M47.9,14.4v3.4l4.1-2.4V12L47.9,14.4z M47.9,14.4"/>
		</g>
	</g>
</svg>
