<?xml version="1.0" encoding="utf-8"?>
<!-- Generator: Adobe Illustrator 24.0.1, SVG Export Plug-In . SVG Version: 6.00 Build 0)  -->
<svg version="1.1" id="图层_5"
	xmlns="http://www.w3.org/2000/svg"
	xmlns:xlink="http://www.w3.org/1999/xlink" x="0px" y="0px" viewBox="0 0 79 86" width="79" height="86" xml:space="preserve">
	<style type="text/css">
	.st0{fill:#FFFFFF;}
	.st1{fill:#0087BE;}
	.st2{fill:#00E6E6;}
	.st3{fill:none;}
	.st4{fill:#556080;}
	.st5{fill:#F2F2F2;stroke:#00E6E6;stroke-width:0.5;stroke-linecap:square;stroke-linejoin:round;stroke-miterlimit:10;}
	.st6{fill:#E5E5E5;}
	.st7{fill:none;stroke:#00E6E6;stroke-width:0.5;stroke-linecap:square;stroke-linejoin:round;stroke-miterlimit:10;}
	.st8{fill:none;stroke:#0087BE;stroke-miterlimit:10;}
	.st9{fill:#F2F2F2;}
	.st10{fill:#F7F7F7;}
	.st11{fill:#D8D8D8;}
	.st12{fill:#E8E8E8;}
	.st13{fill:#EFEFEF;}
	.st14{fill:url(#SVGID_4_);}
	.st15{fill:url(#SVGID_5_);}
	.st16{fill:#04BCD8;}
	.st17{fill:url(#SVGID_6_);}
	.st18{fill:url(#SVGID_7_);}
	.st19{fill:url(#SVGID_8_);}
	.st20{fill:url(#SVGID_9_);}
	.st21{fill:url(#SVGID_10_);}
	.st22{fill:url(#SVGID_11_);}
	.st23{fill:url(#SVGID_12_);}
	.st24{fill:url(#SVGID_13_);}
	.st25{fill:#0186BE;}
	.st26{fill:#01FFB9;}
	.st27{fill:#06486D;}
	.st28{opacity:0.5;fill:#06486D;}
	.st29{fill:#B7B7B7;}
	.st30{fill:#A3A3A3;}
	.st31{fill:url(#SVGID_14_);}
	.st32{fill-rule:evenodd;clip-rule:evenodd;fill:#04BBDA;}
	.st33{fill-rule:evenodd;clip-rule:evenodd;fill:#05A2C6;}
	.st34{fill-rule:evenodd;clip-rule:evenodd;fill:#03E5E1;}
	.st35{fill-rule:evenodd;clip-rule:evenodd;fill:#0087BE;}
	.st36{fill-rule:evenodd;clip-rule:evenodd;fill:#00AEEB;}
	.st37{fill-rule:evenodd;clip-rule:evenodd;fill:#F7F7F7;}
	.st38{fill-rule:evenodd;clip-rule:evenodd;fill:#D8D8D8;}
	.st39{fill-rule:evenodd;clip-rule:evenodd;fill:#AB4C00;}
	.st40{fill-rule:evenodd;clip-rule:evenodd;fill:#E8E8E8;}
	.st41{fill-rule:evenodd;clip-rule:evenodd;fill:#8B3B00;}
	.st42{fill-rule:evenodd;clip-rule:evenodd;fill:#FFFFFF;}
	.st43{fill-rule:evenodd;clip-rule:evenodd;fill:#231815;}
	.st44{fill-rule:evenodd;clip-rule:evenodd;fill:#E5E5E6;}
	.st45{fill-rule:evenodd;clip-rule:evenodd;fill:#F0F0F0;}
	.st46{fill-rule:evenodd;clip-rule:evenodd;fill:#1AFFF3;}
	.st47{fill-rule:evenodd;clip-rule:evenodd;fill:#C8C9CA;}
	.st48{fill-rule:evenodd;clip-rule:evenodd;fill:url(#SVGID_15_);}
	.st49{fill-rule:evenodd;clip-rule:evenodd;fill:#FFD700;}
	.st50{fill-rule:evenodd;clip-rule:evenodd;fill:url(#SVGID_16_);}
	.st51{fill:#04BBDA;}
	.st52{fill:url(#SVGID_17_);}
	.st53{fill:url(#SVGID_18_);}
	.st54{fill:url(#SVGID_19_);}
	.st55{fill:url(#SVGID_20_);}
	.st56{fill:url(#SVGID_21_);}
	.st57{fill:url(#SVGID_22_);}
	.st58{fill:url(#SVGID_23_);}
	.st59{fill:url(#SVGID_24_);}
	.st60{fill:url(#SVGID_25_);}
	.st61{fill:#03E5E1;}
	.st62{fill:url(#SVGID_26_);}
	.st63{fill-rule:evenodd;clip-rule:evenodd;fill:#C6C6C6;}
	.st64{fill-rule:evenodd;clip-rule:evenodd;fill:#E0E0E0;}
	.st65{fill:url(#SVGID_27_);}
	.st66{fill:url(#SVGID_28_);}
	.st67{fill:#C6C6C6;}
	.st68{fill:url(#SVGID_29_);}
	.st69{fill:url(#SVGID_30_);}
	.st70{fill:url(#SVGID_31_);}
	.st71{fill:url(#SVGID_32_);}
	.st72{fill:url(#SVGID_33_);}
	.st73{fill:url(#SVGID_34_);}
	.st74{fill:url(#SVGID_35_);}
	.st75{fill:url(#SVGID_36_);}
	.st76{fill:url(#SVGID_37_);}
	.st77{fill:url(#SVGID_38_);}
	.st78{fill:url(#SVGID_39_);}
	.st79{fill:url(#SVGID_40_);}
	.st80{fill:url(#SVGID_41_);}
	.st81{fill:url(#SVGID_42_);}
	.st82{fill:#00FFFF;}
	.st83{fill:#0061A2;}
	.st84{opacity:0.3;fill:url(#SVGID_43_);}
	.st85{fill:url(#SVGID_44_);}
	.st86{fill:url(#SVGID_45_);}
	.st87{fill:url(#SVGID_46_);}
	.st88{fill:url(#SVGID_47_);}
	.st89{fill:url(#SVGID_48_);}
	.st90{fill:url(#SVGID_49_);}
	.st91{fill:url(#SVGID_50_);}
	.st92{fill:url(#SVGID_51_);}
	.st93{fill:url(#SVGID_52_);}
	.st94{fill:url(#SVGID_53_);}
	.st95{fill:url(#SVGID_54_);}
	.st96{fill:url(#SVGID_55_);}
	.st97{fill:url(#SVGID_56_);}
	.st98{fill:url(#SVGID_57_);}
	.st99{fill:url(#SVGID_58_);}
	.st100{fill:url(#SVGID_59_);}
	.st101{fill:url(#SVGID_60_);}
	.st102{fill:url(#SVGID_61_);}
	.st103{fill:url(#SVGID_62_);}
	.st104{fill:url(#SVGID_63_);}
	.st105{fill:url(#SVGID_64_);}
	.st106{fill:url(#SVGID_65_);}
	.st107{fill:url(#SVGID_66_);}
	.st108{fill:url(#SVGID_67_);}
	.st109{fill:url(#SVGID_68_);}
	.st110{opacity:0.3;fill:url(#SVGID_69_);}
	.st111{fill:url(#SVGID_70_);}
	.st112{fill:url(#SVGID_71_);}
	.st113{fill:url(#SVGID_72_);}
	.st114{fill:url(#SVGID_73_);}
	.st115{fill:url(#SVGID_74_);}
	.st116{fill:url(#SVGID_75_);}
	.st117{fill:url(#SVGID_76_);}
	.st118{fill:url(#SVGID_77_);}
	.st119{fill:url(#SVGID_78_);}
	.st120{fill:url(#SVGID_79_);}
	.st121{fill:url(#SVGID_80_);}
	.st122{fill:url(#SVGID_81_);}
	.st123{fill:url(#SVGID_82_);}
	.st124{fill:url(#SVGID_83_);}
	.st125{fill:url(#SVGID_84_);}
	.st126{fill:url(#SVGID_85_);}
	.st127{fill:url(#SVGID_86_);}
	.st128{fill:url(#SVGID_87_);}
	.st129{fill:url(#SVGID_88_);}
	.st130{fill:url(#SVGID_89_);}
	.st131{fill:url(#SVGID_90_);}
	.st132{fill:url(#SVGID_91_);}
	.st133{fill:url(#SVGID_92_);}
	.st134{fill:url(#SVGID_93_);}
	.st135{fill:url(#SVGID_94_);}
	.st136{opacity:0.3;fill:url(#SVGID_95_);}
	.st137{fill:url(#SVGID_96_);}
	.st138{fill:url(#SVGID_97_);}
	.st139{fill:url(#SVGID_98_);}
	.st140{fill:url(#SVGID_99_);}
	.st141{fill:url(#SVGID_100_);}
	.st142{fill:url(#SVGID_101_);}
	.st143{fill:url(#SVGID_102_);}
	.st144{fill:url(#SVGID_103_);}
	.st145{fill:url(#SVGID_104_);}
	.st146{fill:url(#SVGID_105_);}
	.st147{fill:url(#SVGID_106_);}
	.st148{fill:url(#SVGID_107_);}
	.st149{fill:url(#SVGID_108_);}
	.st150{fill:url(#SVGID_109_);}
	.st151{fill:url(#SVGID_110_);}
	.st152{fill:url(#SVGID_111_);}
	.st153{fill:url(#SVGID_112_);}
	.st154{fill:url(#SVGID_113_);}
	.st155{fill:url(#SVGID_114_);}
	.st156{fill:url(#SVGID_115_);}
	.st157{fill:url(#SVGID_116_);}
	.st158{fill:url(#SVGID_117_);}
	.st159{fill:url(#SVGID_118_);}
	.st160{fill:url(#SVGID_119_);}
	.st161{fill:url(#SVGID_120_);}
	.st162{opacity:0.3;fill:url(#SVGID_121_);}
	.st163{fill:url(#SVGID_122_);}
	.st164{fill:url(#SVGID_123_);}
	.st165{fill:url(#SVGID_124_);}
	.st166{fill:url(#SVGID_125_);}
	.st167{fill:url(#SVGID_126_);}
	.st168{fill:url(#SVGID_127_);}
	.st169{fill:url(#SVGID_128_);}
	.st170{fill:url(#SVGID_129_);}
	.st171{fill:url(#SVGID_130_);}
	.st172{fill:url(#SVGID_131_);}
	.st173{fill:url(#SVGID_132_);}
	.st174{fill:url(#SVGID_133_);}
	.st175{fill:url(#SVGID_134_);}
	.st176{fill:url(#SVGID_135_);}
	.st177{fill:url(#SVGID_136_);}
	.st178{fill:url(#SVGID_137_);}
	.st179{fill:url(#SVGID_138_);}
	.st180{fill:url(#SVGID_139_);}
	.st181{fill:url(#SVGID_140_);}
	.st182{fill:url(#SVGID_141_);}
	.st183{fill:url(#SVGID_142_);}
	.st184{fill:url(#SVGID_143_);}
	.st185{fill:url(#SVGID_144_);}
	.st186{fill:url(#SVGID_145_);}
	.st187{fill:url(#SVGID_146_);}
	.st188{fill:url(#SVGID_147_);}
	.st189{fill:url(#SVGID_148_);}
	.st190{fill:url(#SVGID_149_);}
	.st191{fill:#00686C;}
	.st192{fill:url(#SVGID_150_);}
	.st193{fill:url(#SVGID_151_);}
	.st194{fill:url(#SVGID_152_);}
	.st195{fill:url(#SVGID_153_);}
	.st196{fill:url(#SVGID_154_);}
	.st197{fill:url(#SVGID_155_);}
	.st198{fill:url(#SVGID_156_);}
	.st199{fill:url(#SVGID_157_);}
	.st200{fill:url(#SVGID_158_);}
	.st201{fill:url(#SVGID_159_);}
	.st202{fill:url(#SVGID_160_);}
	.st203{fill:url(#SVGID_161_);}
	.st204{fill:url(#SVGID_162_);}
	.st205{fill:url(#SVGID_163_);}
	.st206{fill:url(#SVGID_164_);}
	.st207{fill:url(#SVGID_165_);}
	.st208{fill:url(#SVGID_166_);}
	.st209{fill:url(#SVGID_167_);}
	.st210{fill:url(#SVGID_168_);}
	.st211{fill:url(#SVGID_169_);}
	.st212{fill:url(#SVGID_170_);}
	.st213{fill:url(#SVGID_171_);}
	.st214{fill:url(#SVGID_172_);}
	.st215{fill:url(#SVGID_173_);}
	.st216{fill:url(#SVGID_174_);}
	.st217{fill:url(#SVGID_175_);}
	.st218{fill:url(#SVGID_176_);}
	.st219{fill:url(#SVGID_177_);}
	.st220{fill:url(#SVGID_178_);}
	.st221{fill:url(#SVGID_179_);}
	.st222{fill:url(#SVGID_180_);}
	.st223{fill:url(#SVGID_181_);}
	.st224{fill:url(#SVGID_182_);}
	.st225{fill:url(#SVGID_183_);}
	.st226{fill:url(#SVGID_184_);}
	.st227{fill:url(#SVGID_185_);}
	.st228{fill:url(#SVGID_186_);}
	.st229{fill:url(#SVGID_187_);}
	.st230{fill:url(#SVGID_188_);}
	.st231{fill:url(#SVGID_189_);}
	.st232{fill:url(#SVGID_190_);}
	.st233{fill:url(#SVGID_191_);}
	.st234{fill:url(#SVGID_192_);}
	.st235{fill:url(#SVGID_193_);}
	.st236{fill:url(#SVGID_194_);}
	.st237{fill:url(#SVGID_195_);}
	.st238{fill:url(#SVGID_196_);}
	.st239{fill:url(#SVGID_197_);}
	.st240{fill:url(#SVGID_198_);}
	.st241{fill:url(#SVGID_199_);}
	.st242{fill:url(#SVGID_200_);}
	.st243{fill:url(#SVGID_201_);}
	.st244{fill:url(#SVGID_202_);}
	.st245{fill:url(#SVGID_203_);}
	.st246{fill:url(#SVGID_204_);}
	.st247{fill:#05B0C1;}
	.st248{clip-path:url(#SVGID_207_);}
	.st249{clip-path:url(#SVGID_208_);}
	.st250{clip-path:url(#SVGID_213_);}
	.st251{clip-path:url(#SVGID_214_);}
	.st252{fill:#06DAAE;}
	.st253{fill:url(#SVGID_217_);}
	.st254{fill:url(#SVGID_218_);}
	.st255{fill:url(#SVGID_219_);}
	.st256{fill:url(#SVGID_220_);}
	.st257{clip-path:url(#SVGID_223_);}
	.st258{clip-path:url(#SVGID_224_);}
	.st259{fill:#F2EFFA;}
	.st260{clip-path:url(#SVGID_229_);}
	.st261{clip-path:url(#SVGID_230_);}
	.st262{clip-path:url(#SVGID_235_);}
	.st263{clip-path:url(#SVGID_236_);}
	.st264{clip-path:url(#SVGID_241_);}
	.st265{clip-path:url(#SVGID_242_);}
	.st266{enable-background:new    ;}
	.st267{fill:url(#SVGID_245_);}
	.st268{fill:url(#SVGID_246_);}
	.st269{fill:url(#SVGID_247_);}
	.st270{fill:url(#SVGID_248_);}
	.st271{fill:url(#SVGID_249_);}
	.st272{fill:url(#SVGID_250_);}
	.st273{fill:url(#SVGID_251_);}
	.st274{fill:url(#SVGID_252_);}
	.st275{fill:url(#SVGID_253_);}
	.st276{fill:url(#SVGID_254_);}
	.st277{fill:url(#SVGID_255_);}
	.st278{fill:url(#SVGID_256_);}
	.st279{fill:url(#SVGID_257_);}
	.st280{fill:#4CFFD5;}
	.st281{fill:url(#SVGID_258_);}
	.st282{fill:url(#SVGID_259_);}
	.st283{fill:url(#SVGID_260_);}
	.st284{fill:url(#SVGID_261_);}
	.st285{opacity:0.4;fill:url(#SVGID_262_);}
	.st286{opacity:0.6;fill:url(#SVGID_263_);}
	.st287{fill:url(#SVGID_264_);}
	.st288{fill:url(#SVGID_265_);}
	.st289{fill:#00AEEB;}
	.st290{fill:url(#SVGID_266_);}
	.st291{opacity:0.4;fill:url(#SVGID_267_);}
	.st292{opacity:0.6;fill:url(#SVGID_268_);}
	.st293{fill:url(#SVGID_269_);}
	.st294{opacity:0.4;fill:url(#SVGID_270_);}
	.st295{opacity:0.6;fill:url(#SVGID_271_);}
	.st296{fill:url(#SVGID_272_);}
	.st297{opacity:0.4;fill:url(#SVGID_273_);}
	.st298{opacity:0.6;fill:url(#SVGID_274_);}
	.st299{fill:url(#SVGID_275_);}
	.st300{opacity:0.4;fill:url(#SVGID_276_);}
	.st301{opacity:0.6;fill:url(#SVGID_277_);}
	.st302{fill:url(#SVGID_278_);}
	.st303{fill:url(#SVGID_279_);}
	.st304{fill:url(#SVGID_280_);}
	.st305{fill:url(#SVGID_281_);}
	.st306{fill:url(#SVGID_282_);}
	.st307{fill:url(#SVGID_283_);}
	.st308{fill:url(#SVGID_284_);}
	.st309{fill:url(#SVGID_285_);}
	.st310{fill:url(#SVGID_286_);}
	.st311{fill:#131415;}
	.st312{fill:url(#SVGID_287_);}
	.st313{fill:url(#SVGID_288_);}
	.st314{fill:url(#SVGID_289_);}
	.st315{fill:url(#SVGID_290_);}
	.st316{fill:url(#SVGID_291_);}
	.st317{fill:url(#SVGID_292_);}
	.st318{fill:url(#SVGID_293_);}
	.st319{fill:url(#SVGID_294_);}
	.st320{fill:url(#SVGID_295_);}
	.st321{fill:#5C5C66;}
	.st322{fill:#546178;}
	.st323{fill:#4A79DE;}
	.st324{fill:url(#SVGID_296_);}
	.st325{fill-rule:evenodd;clip-rule:evenodd;fill:none;stroke:#D1D1D1;stroke-miterlimit:10;}
	.st326{fill:none;stroke:#45B4FF;}
	.st327{fill:none;stroke:#45B4FF;stroke-dasharray:1.9811,1.9811;}
	.st328{fill:none;stroke:#45B4FF;stroke-dasharray:1.9807,1.9807;}
	.st329{fill:none;stroke:#FF000D;}
	.st330{fill:none;stroke:#45B4FF;stroke-dasharray:2;}
	.st331{fill-rule:evenodd;clip-rule:evenodd;fill:none;stroke:#0ABAFF;stroke-miterlimit:10;}
	.st332{fill:none;stroke:url(#SVGID_297_);stroke-miterlimit:10;}
	.st333{fill:none;stroke:url(#SVGID_298_);stroke-miterlimit:10;}
	.st334{fill:none;stroke:url(#SVGID_299_);stroke-miterlimit:10;}
	.st335{fill:none;stroke:url(#SVGID_300_);stroke-miterlimit:10;}
	.st336{fill:none;stroke:url(#SVGID_301_);stroke-miterlimit:10;}
	.st337{fill:none;stroke:url(#SVGID_302_);stroke-miterlimit:10;}
	.st338{fill:none;stroke:url(#SVGID_303_);stroke-miterlimit:10;}
	.st339{fill:none;stroke:url(#SVGID_304_);stroke-miterlimit:10;}
	.st340{fill:none;stroke:url(#SVGID_305_);stroke-miterlimit:10;}
	.st341{fill:none;stroke:url(#SVGID_306_);stroke-miterlimit:10;}
	.st342{fill:none;stroke:url(#SVGID_307_);stroke-miterlimit:10;}
	.st343{fill:none;stroke:url(#SVGID_308_);stroke-miterlimit:10;}
	.st344{fill:#0ABAFF;}
	.st345{fill:url(#SVGID_309_);}
	</style>
	<g id="图层_855">
	</g>
	<g id="图层_854">
	</g>
	<g id="图层_853">
	</g>
	<g id="图层_840">
	</g>
	<g id="图层_823">
	</g>
	<g>
		<polygon class="st10" points="78.7,57.1 68.7,79.5 28.6,85.7 0.3,69.5 0.3,61.9 78.7,49.5 	"/>
		<polygon class="st11" points="78.7,57.1 68.7,79.5 68.7,71.9 78.7,49.5 	"/>
		<polygon class="st12" points="78.7,49.5 68.7,71.9 28.6,78.1 0.3,61.9 10.7,39.3 50.9,33.4 	"/>
		<polygon class="st13" points="68.7,71.9 68.7,79.5 28.6,85.7 28.6,78.1 	"/>
	</g>
	<g>
		<g>
			<g>
				<g>
					<polygon class="st25" points="57.1,3.6 21.1,24.4 21.1,66.1 24.5,67.5 24.5,25.8 60.6,5 				"/>
					<g>
						<linearGradient id="SVGID_4_" gradientUnits="userSpaceOnUse" x1="24.5146" y1="36.262" x2="60.5914" y2="36.262">
							<stop offset="0" style="stop-color:#019DBE"/>
							<stop offset="0.1435" style="stop-color:#00C1D2"/>
							<stop offset="0.2744" style="stop-color:#00DCE1"/>
							<stop offset="0.3516" style="stop-color:#00E6E6"/>
							<stop offset="0.4875" style="stop-color:#00DDE1"/>
							<stop offset="0.7134" style="stop-color:#00C3D4"/>
							<stop offset="1" style="stop-color:#019ABE"/>
						</linearGradient>
						<polygon class="st14" points="60.6,37.1 60.6,5 24.5,25.8 24.5,67.5 52.3,51.5 					"/>
						<path class="st25" d="M29.3,27.3c0,1-0.7,2.2-1.6,2.7c-0.9,0.5-1.6,0.1-1.6-0.9c0-1,0.7-2.2,1.6-2.7
						C28.6,25.8,29.3,26.2,29.3,27.3z"/>
						<path class="st25" d="M58.5,10.4c0,1-0.7,2.2-1.6,2.7c-0.9,0.5-1.6,0.1-1.6-0.9c0-1,0.7-2.2,1.6-2.7C57.8,9,58.5,9.4,58.5,10.4
						z"/>
					</g>
					<g>
						<polygon class="st280" points="23.6,59.2 23.6,61.3 21.8,60.2 21.8,58.1 					"/>
						<polygon class="st280" points="23.6,55.6 23.6,57.7 21.8,56.6 21.8,54.5 					"/>
						<polygon class="st280" points="23.6,52 23.6,54.1 21.8,53 21.8,50.9 					"/>
						<polygon class="st280" points="23.6,48.4 23.6,50.5 21.8,49.5 21.8,47.3 					"/>
						<polygon class="st280" points="23.6,44.8 23.6,46.9 21.8,45.9 21.8,43.8 					"/>
						<polygon class="st280" points="23.6,41.2 23.6,43.3 21.8,42.3 21.8,40.2 					"/>
						<polygon class="st280" points="23.6,37.6 23.6,39.7 21.8,38.7 21.8,36.6 					"/>
						<polygon class="st280" points="23.6,34.1 23.6,36.2 21.8,35.1 21.8,33 					"/>
					</g>
				</g>
				<g>
					<path class="st280" d="M44,58.5c0.3-0.2,0.5-0.6,0.5-0.9c0-0.3-0.2-0.4-0.4-0.4l0-2.8l3,1.7c0,0.1-0.1,0.2-0.1,0.4
					c0,0.3,0.2,0.5,0.5,0.3c0.3-0.2,0.5-0.6,0.5-0.9s-0.2-0.5-0.5-0.3c-0.1,0.1-0.2,0.2-0.3,0.3l-3.5-2v3.5
					c-0.2,0.2-0.4,0.6-0.4,0.8C43.5,58.5,43.7,58.7,44,58.5z M49,54.8c0,0.3,0.2,0.5,0.5,0.3c0.3-0.2,0.5-0.6,0.5-0.9
					c0-0.3-0.2-0.5-0.5-0.3c-0.1,0.1-0.2,0.1-0.3,0.2l-4.5-2.6v-9l-0.3,0.2l0,9.1l4.6,2.6C49,54.5,49,54.7,49,54.8z M51,56.4
					c-0.2,0.2-0.4,0.5-0.4,0.8c0,0.3,0.2,0.5,0.5,0.3s0.5-0.6,0.5-0.9c0-0.3-0.2-0.4-0.4-0.4v-3.9L47,49.9l0-8.6l-0.3,0.2v8.8
					l4.3,2.5V56.4z M37.7,61.3c-0.1,0-0.2,0-0.3,0.1c-0.3,0.2-0.5,0.6-0.5,0.9c0,0.3,0.2,0.5,0.5,0.3c0.3-0.2,0.5-0.6,0.5-0.9
					c0-0.1,0-0.2-0.1-0.3l3-5.2V59c-0.2,0.2-0.4,0.5-0.4,0.8c0,0.3,0.2,0.5,0.5,0.3c0.3-0.2,0.5-0.6,0.5-0.9c0-0.3-0.2-0.4-0.4-0.4
					v-3.5L37.7,61.3z M34,67.4c0.3-0.2,0.5-0.6,0.5-0.9c0-0.3-0.2-0.4-0.4-0.4v-3.8l4.3-7.4v-8.8l-0.3,0.2V55l-4.3,7.4v3.9
					c-0.2,0.2-0.4,0.6-0.4,0.9C33.4,67.5,33.7,67.6,34,67.4z M35.6,61.9c-0.3,0.2-0.5,0.6-0.5,0.9c0,0.3,0.2,0.5,0.5,0.3
					c0.3-0.2,0.5-0.6,0.5-0.9c0-0.1,0-0.2-0.1-0.3l4.6-7.9l0-9.1l-0.3,0.2v9l-4.5,7.8C35.8,61.8,35.7,61.9,35.6,61.9z M42.6,58.1
					l0-14.3l-0.3,0.2v17.7c-0.2,0.2-0.4,0.5-0.4,0.8c0,0.3,0.2,0.5,0.5,0.3c0.3-0.2,0.5-0.6,0.5-0.9c0-0.3-0.2-0.4-0.4-0.4
					L42.6,58.1"/>
					<linearGradient id="SVGID_5_" gradientUnits="userSpaceOnUse" x1="32.9913" y1="37.0718" x2="55.4551" y2="37.0718">
						<stop offset="0" style="stop-color:#EDEDED"/>
						<stop offset="0.2334" style="stop-color:#FAFAFA"/>
						<stop offset="0.4497" style="stop-color:#FFFFFF"/>
						<stop offset="0.5588" style="stop-color:#FCFCFC"/>
						<stop offset="0.6532" style="stop-color:#F1F1F1"/>
						<stop offset="0.7422" style="stop-color:#DFDFDF"/>
						<stop offset="0.8278" style="stop-color:#C6C6C6"/>
						<stop offset="0.9109" style="stop-color:#A6A6A6"/>
						<stop offset="0.9913" style="stop-color:#7F7F7F"/>
						<stop offset="1" style="stop-color:#7A7A7A"/>
					</linearGradient>
					<path class="st15" d="M55.5,21.8c0-1.1-0.4-1.9-1.1-2.3c-0.7-0.4-1.6-0.3-2.6,0.2l-16.4,9.4c-0.7,0.4-1.4,1.1-1.8,1.8
					c-0.4,0.7-0.7,1.6-0.7,2.5l0,18.9c0,1.1,0.4,1.9,1.1,2.3c0.7,0.4,1.6,0.3,2.5-0.2l0-2.2c0-0.4,0.2-1.1,0.6-1.7
					c0.4-0.6,0.8-1.1,1.2-1.3l13-7.5c0.2-0.1,0.3-0.1,0.4-0.1c0.1,0.1,0.2,0.2,0.2,0.4l0,3.5L53,45c0.7-0.4,1.4-1.1,1.8-1.8
					c0.4-0.7,0.7-1.6,0.7-2.5L55.5,21.8z"/>
					<g>
						<linearGradient id="SVGID_6_" gradientUnits="userSpaceOnUse" x1="62.7173" y1="22.826" x2="42.5284" y2="59.4545">
							<stop offset="7.048740e-02" style="stop-color:#3AA8C1"/>
							<stop offset="0.7309" style="stop-color:#252279"/>
							<stop offset="0.8137" style="stop-color:#252D7C"/>
							<stop offset="0.9605" style="stop-color:#254C85"/>
							<stop offset="0.9707" style="stop-color:#254E86"/>
						</linearGradient>
						<path class="st17" d="M51.7,41.7c-0.1-0.1-0.2,0-0.4,0.1l-1.1,0.6l0,2.4l1.7,0.8l0-3.5C51.9,41.9,51.8,41.8,51.7,41.7z"/>
						<linearGradient id="SVGID_7_" gradientUnits="userSpaceOnUse" x1="48.5727" y1="15.0297" x2="28.3836" y2="51.6586">
							<stop offset="0" style="stop-color:#EDEDED"/>
							<stop offset="0.2334" style="stop-color:#FAFAFA"/>
							<stop offset="0.4497" style="stop-color:#FFFFFF"/>
							<stop offset="0.5588" style="stop-color:#FCFCFC"/>
							<stop offset="0.6532" style="stop-color:#F1F1F1"/>
							<stop offset="0.7422" style="stop-color:#DFDFDF"/>
							<stop offset="0.8278" style="stop-color:#C6C6C6"/>
							<stop offset="0.9109" style="stop-color:#A6A6A6"/>
							<stop offset="0.9913" style="stop-color:#7F7F7F"/>
							<stop offset="1" style="stop-color:#7A7A7A"/>
						</linearGradient>
						<path class="st18" d="M33,52.3l0-18.9c0-0.9,0.2-1.8,0.7-2.5c0.4-0.7,1.1-1.4,1.8-1.8l16.4-9.4c0.9-0.5,1.9-0.6,2.6-0.2
						l-1.7-0.8c-0.7-0.4-1.6-0.3-2.6,0.2l-16.4,9.4c-0.7,0.4-1.4,1.1-1.8,1.8c-0.4,0.7-0.7,1.6-0.7,2.5l0,18.9
						c0,1.1,0.4,1.9,1.1,2.3l1.7,0.8C33.4,54.3,33,53.4,33,52.3z"/>
					</g>
					<path class="st26" d="M41.1,9.5c-0.3,0.2-0.5,0.6-0.5,0.9c0,0.3,0.2,0.4,0.4,0.4l0,2.8l-3-1.7c0-0.1,0.1-0.2,0.1-0.4
					c0-0.3-0.2-0.5-0.5-0.3c-0.3,0.2-0.5,0.6-0.5,0.9c0,0.3,0.2,0.5,0.5,0.3c0.1-0.1,0.2-0.2,0.3-0.3l3.5,2v-3.5
					c0.2-0.2,0.4-0.6,0.4-0.8C41.6,9.5,41.4,9.3,41.1,9.5z M36.1,13.2c0-0.3-0.2-0.5-0.5-0.3C35.3,13,35,13.5,35,13.8
					c0,0.3,0.2,0.5,0.5,0.3c0.1-0.1,0.2-0.1,0.3-0.2l4.5,2.6l0,9l0.3-0.2v-9.1L36,13.6C36.1,13.4,36.1,13.3,36.1,13.2z M34.1,11.6
					c0.2-0.2,0.4-0.5,0.4-0.8c0-0.3-0.2-0.5-0.5-0.3c-0.3,0.2-0.5,0.6-0.5,0.9c0,0.3,0.2,0.4,0.4,0.4l0,3.9l4.3,2.5v8.6l0.3-0.2
					v-8.8l-4.3-2.5V11.6z M47.4,6.6c0.1,0,0.2,0,0.3-0.1C48,6.4,48.2,6,48.2,5.6c0-0.3-0.2-0.5-0.5-0.3c-0.3,0.2-0.5,0.6-0.5,0.9
					c0,0.1,0,0.2,0.1,0.3l-3,5.2V8.9c0.2-0.2,0.4-0.5,0.4-0.8c0-0.3-0.2-0.5-0.5-0.3c-0.3,0.2-0.5,0.6-0.5,0.9
					c0,0.3,0.2,0.4,0.4,0.4v3.5L47.4,6.6z M51.1,0.5c-0.3,0.2-0.5,0.6-0.5,0.9c0,0.3,0.2,0.4,0.4,0.4v3.8L46.7,13v8.8l0.3-0.2V13
					l4.3-7.4V1.7c0.2-0.2,0.4-0.6,0.4-0.9C51.7,0.5,51.4,0.4,51.1,0.5z M49.5,6c0.3-0.2,0.5-0.6,0.5-0.9c0-0.3-0.2-0.5-0.5-0.3
					C49.2,5,49,5.4,49,5.7C49,5.9,49,6,49.1,6l-4.6,7.9V23l0.3-0.2l0-9l4.5-7.8C49.4,6.1,49.4,6.1,49.5,6z M42.5,9.9v14.3l0.3-0.2
					V6.4c0.2-0.2,0.4-0.5,0.4-0.8c0-0.3-0.2-0.5-0.5-0.3C42.3,5.4,42,5.8,42,6.2c0,0.3,0.2,0.4,0.4,0.4V9.9"/>
				</g>
			</g>
		</g>
	</g>
</svg>
