<svg id="图层_5" data-name="图层 5"
  xmlns="http://www.w3.org/2000/svg"
  xmlns:xlink="http://www.w3.org/1999/xlink" viewBox="0 0 79 81" width='79' height='81'>
  <defs>
    <style>.cls-1{fill:#f7f7f7;}.cls-2{fill:#d8d8d8;}.cls-3{fill:#e8e8e8;}.cls-4{fill:#efefef;}.cls-5{fill:#0087be;}.cls-6{fill:#00aeeb;}.cls-7{fill:#868686;}.cls-8{fill:#03e5e1;}.cls-9{fill:url(#未命名的渐变_38);}.cls-10{fill:#331500;}.cls-11,.cls-12,.cls-13{fill-rule:evenodd;}.cls-11{fill:url(#GradientFill_7);}.cls-12{fill:gold;}.cls-13{fill:url(#GradientFill_8);}.cls-14{fill:#fff;}</style>
    <radialGradient id="未命名的渐变_38" cx="39.22" cy="11.6" r="10.98" gradientUnits="userSpaceOnUse">
      <stop offset="0" stop-color="#4f1d00"/>
      <stop offset="1" stop-color="#331500"/>
    </radialGradient>
    <linearGradient id="GradientFill_7" x1="45.38" y1="16.31" x2="28.32" y2="16.31" gradientUnits="userSpaceOnUse">
      <stop offset="0" stop-color="#e8a900"/>
      <stop offset="1" stop-color="#fccf00"/>
    </linearGradient>
    <radialGradient id="GradientFill_8" cx="42.84" cy="3.49" r="19.63" gradientUnits="userSpaceOnUse">
      <stop offset="0" stop-color="#fccf00"/>
      <stop offset="1" stop-color="#e8a900"/>
    </radialGradient>
  </defs>
  <title>图标3</title>
  <polyline class="cls-1" points="0.25 56.39 78.75 43.98 78.75 51.61 68.69 74.03 28.59 80.25 0.25 64.03"/>
  <polygon class="cls-2" points="78.75 51.61 68.69 74.03 68.69 66.39 78.75 43.98 78.75 51.61"/>
  <polyline class="cls-3" points="0.25 56.39 10.7 33.84 50.95 27.95 78.75 43.98 68.69 66.39 28.59 72.62 0.25 56.39"/>
  <polygon class="cls-4" points="68.69 66.39 68.69 74.03 28.59 80.25 28.59 72.62 68.69 66.39"/>
  <path class="cls-5" d="M58.91,58.27V34.09l-10.73,6.2V64.47Zm0,0"/>
  <path class="cls-6" d="M29.35,17l-10.73,6.2L48.18,40.29l10.73-6.2Zm0,0"/>
  <path class="cls-7" d="M18.62,23.22V47.38L48.18,64.45V40.29Zm0,0"/>
  <path class="cls-8" d="M18.62,23.22V47.38L48.18,64.45V40.29Zm0,0"/>
  <path class="cls-9" d="M38.69,3.84,25.77,11.3l14,8.07,12.92-7.46Zm0,0"/>
  <path class="cls-3" d="M25.77,11.3v19l14,8.08V19.38Zm0,0"/>
  <path class="cls-2" d="M52.7,11.92,39.78,19.38v19L52.7,30.87Zm0,0"/>
  <path class="cls-10" d="M52.7,11.92,39.78,19.38v3.2l2.52-1.42v8.48l3.94-2.14V30l6.46-3.32ZM25.77,11.3v3.75l11.17,9V20.9l2.84,1.68v-3.2Zm0,0"/>
  <path class="cls-11" d="M38.51,20.5c-6.67,0-13.76-1-15-5.21L23.37,14c1.7.39,5.07.9,6.92,2.14,4.47,3,12,3.41,17.55,1,2.94-1.28,4.57-3.11,4.8-5-.12,3.1-1,5.08-5.88,6.8A29.59,29.59,0,0,1,38.51,20.5Z"/>
  <path class="cls-12" d="M25,16.26c-4.53-3,1.15-7.49,6.8-10s14.27-2.5,18.42,1q5.61,4.79-2,10C43.09,20.77,30.09,20.35,25,16.26Z"/>
  <path class="cls-13" d="M32.33,15.87c-1.7-1.15-2.52-2.53-2.51-3.9v0a11.43,11.43,0,0,1,22.85-.34v.19c0,1.84-1.44,3.68-4.28,4.93C43.47,19,36.28,18.55,32.33,15.87Z"/>
  <path class="cls-14" d="M29.47,53.78l2.79,1.61V34l-2.79-1.61Zm5,2.88,2.8,1.61V36.86l-2.8-1.61Zm0,0"/>
</svg>