<svg id="图层_5" data-name="图层 5"
  xmlns="http://www.w3.org/2000/svg" viewBox="0 0 45 51" width='45' height='51'>
  <defs>
    <style>.cls-1{fill:#f2f2f2;stroke:#00e6e6;stroke-linecap:square;stroke-linejoin:round;stroke-width:0.5px;}.cls-2{fill:#0087be;}.cls-3{fill:#e5e5e5;}.cls-4{fill:#00e6e6;}</style>
  </defs>
  <title>图标3</title>
  <path class="cls-1" d="M22.47,6.4A19.64,19.64,0,0,1,30.36,8l8,3.47V22a22.43,22.43,0,0,1-1.31,7.61h0a24.7,24.7,0,0,1-3.69,6.81l0,0v0a24.2,24.2,0,0,1-5.62,5.35,20.76,20.76,0,0,1-5.27,2.57,20,20,0,0,1-5.29-2.59,24,24,0,0,1-5.62-5.36h0v0A24.73,24.73,0,0,1,7.87,29.6h0A22.32,22.32,0,0,1,6.56,22V11.51l8-3.47A19.68,19.68,0,0,1,22.47,6.4"/>
  <path class="cls-2" d="M22.46,3.22a23.36,23.36,0,0,1,4.65.47,23.63,23.63,0,0,1,4.51,1.42l10,4.31V22a25.7,25.7,0,0,1-1.5,8.69,28.05,28.05,0,0,1-4.17,7.68h0a27.31,27.31,0,0,1-6.36,6.06,23.25,23.25,0,0,1-7.06,3.26,23.27,23.27,0,0,1-7.08-3.27A27.16,27.16,0,0,1,9,38.33H9a28.09,28.09,0,0,1-4.15-7.65h0A25.49,25.49,0,0,1,3.38,22V9.43l9.94-4.31a23.3,23.3,0,0,1,9.14-1.9m0-3.18A26.26,26.26,0,0,0,12,2.2L.18,7.33V22a29,29,0,0,0,1.68,9.77,31.58,31.58,0,0,0,4.61,8.53A30.72,30.72,0,0,0,13.58,47,26.68,26.68,0,0,0,22.46,51a26.51,26.51,0,0,0,8.85-3.91,30.32,30.32,0,0,0,7.11-6.78,31.39,31.39,0,0,0,4.65-8.55A29.26,29.26,0,0,0,44.75,22V7.33L32.88,2.19A26.35,26.35,0,0,0,22.46,0Zm0,0"/>
  <path class="cls-3" d="M22.57,6.65a19.48,19.48,0,0,1,7.78,1.62l7.93,3.43V22A22.16,22.16,0,0,1,37,29.53h0a24.13,24.13,0,0,1-3.64,6.71l0,0v0a23.79,23.79,0,0,1-5.55,5.28,20.07,20.07,0,0,1-5.2,2.54V6.65"/>
  <path class="cls-2" d="M24.56,32.88a.7.7,0,0,1,0,1.4H20.37a.7.7,0,0,1,0-1.4Z"/>
  <path class="cls-2" d="M22.46,13.82A7.9,7.9,0,0,1,26.18,28.7v1.86a1,1,0,0,1-.27.66.94.94,0,0,1-.66.27H19.67a.92.92,0,0,1-.93-.93V28.7a7.91,7.91,0,0,1,3.72-14.88Z"/>
  <path class="cls-2" d="M25.59,23.09a.69.69,0,0,1,0,.93l0,.06L23.16,26.5v5H21.77v-5l-2.43-2.42a.7.7,0,0,1,0-1,.69.69,0,0,1,1-.07l.06.05,2.13,2.14,2.14-2.14a.69.69,0,0,1,1,0Zm0,0"/>
  <path class="cls-4" d="M24.56,33.21a.7.7,0,0,1,0,1.39H20.37a.7.7,0,1,1,0-1.39Z"/>
  <path class="cls-4" d="M22.46,14.14A7.9,7.9,0,0,1,26.18,29v1.86a.91.91,0,0,1-.27.66.94.94,0,0,1-.66.27H19.67a.94.94,0,0,1-.93-.93V29a7.91,7.91,0,0,1,3.72-14.88Z"/>
  <path class="cls-2" d="M25.59,23.41a.72.72,0,0,1,.05.94l-.05,0-2.43,2.42v5H21.77v-5L19.34,24.4a.7.7,0,0,1,0-1,.71.71,0,0,1,1-.07l.06.05,2.13,2.14,2.14-2.14a.71.71,0,0,1,1,0Zm0,0"/>
</svg>