<svg id="图层_5" data-name="图层 5"
  xmlns="http://www.w3.org/2000/svg" viewBox="0 0 45 51" width='45' height='51'>
  <defs>
    <style>.cls-1{fill:#f2f2f2;stroke:#00e6e6;stroke-linecap:square;stroke-linejoin:round;stroke-width:0.5px;}.cls-2{fill:#0087be;}.cls-3{fill:#e5e5e5;}.cls-4{fill:#00e6e6;}</style>
  </defs>
  <title>图标3</title>
  <path class="cls-1" d="M22.51,6.39A19.84,19.84,0,0,1,30.4,8l8,3.48V22a22.68,22.68,0,0,1-1.31,7.61h0a24.81,24.81,0,0,1-3.7,6.8v0l0,0a24,24,0,0,1-5.62,5.36,20.44,20.44,0,0,1-5.27,2.57,20.4,20.4,0,0,1-5.28-2.59A23.65,23.65,0,0,1,11.6,36.4v0h0a24.67,24.67,0,0,1-3.67-6.79h0A22.48,22.48,0,0,1,6.59,22V11.5l8-3.48a19.8,19.8,0,0,1,7.89-1.63"/>
  <path class="cls-2" d="M22.5,3.21a22.72,22.72,0,0,1,4.65.47A23.15,23.15,0,0,1,31.66,5.1L41.6,9.41V22a25.49,25.49,0,0,1-1.49,8.69,27.88,27.88,0,0,1-4.18,7.67h0a27,27,0,0,1-6.36,6.07,23.49,23.49,0,0,1-7.06,3.26,23.74,23.74,0,0,1-7.08-3.27,27.56,27.56,0,0,1-6.36-6.07h0a28.12,28.12,0,0,1-4.14-7.66h0A25.44,25.44,0,0,1,3.42,22V9.41l9.94-4.3a23.09,23.09,0,0,1,4.5-1.43,22.55,22.55,0,0,1,4.64-.47M22.5,0A26,26,0,0,0,12.08,2.19L.22,7.32V22A28.76,28.76,0,0,0,1.9,31.72a31,31,0,0,0,4.61,8.52A30.52,30.52,0,0,0,13.62,47,26.45,26.45,0,0,0,22.49,51,26.67,26.67,0,0,0,31.35,47a30.52,30.52,0,0,0,7.11-6.78,31.24,31.24,0,0,0,4.64-8.55,28.76,28.76,0,0,0,1.68-9.77V7.32L32.91,2.18A26.14,26.14,0,0,0,22.5,0Zm0,0"/>
  <path class="cls-3" d="M22.6,6.64a19.51,19.51,0,0,1,7.79,1.61l7.92,3.43V22A22.09,22.09,0,0,1,37,29.51h0a24.48,24.48,0,0,1-3.65,6.72v0l0,0a23.94,23.94,0,0,1-5.54,5.28,20.23,20.23,0,0,1-5.2,2.54V6.64"/>
  <path class="cls-2" d="M21.69,23.44a9.07,9.07,0,0,0-6.22,3.72,1.41,1.41,0,0,0,1.19,2.15,1.41,1.41,0,0,0,1.23-.71A6.38,6.38,0,0,1,22,26.23c1.86-.19,3.71.68,5.52,2.61a1.4,1.4,0,0,0,2-1.92c-3-3.25-6-3.69-7.87-3.48Zm1,5.54a2.71,2.71,0,1,0,1.9.79,2.66,2.66,0,0,0-1.9-.79ZM22,18.38a14.22,14.22,0,0,0-9.52,4.79,1.39,1.39,0,0,0,.15,2,1.41,1.41,0,0,0,2-.12,11.56,11.56,0,0,1,7.53-3.82c2.89-.13,5.81,1.18,8.68,3.92a1.41,1.41,0,0,0,1.94-2c-3.44-3.28-7.06-4.86-10.75-4.69Zm0,0"/>
  <path class="cls-4" d="M21.57,23.91a9.07,9.07,0,0,0-6.22,3.72,1.41,1.41,0,0,0,0,1.42,1.41,1.41,0,0,0,2.45,0,6.38,6.38,0,0,1,4.1-2.37c1.85-.2,3.71.68,5.52,2.61a1.4,1.4,0,0,0,2.05-1.92c-3-3.25-6-3.69-7.87-3.48Zm.95,5.54a2.7,2.7,0,1,0,2.7,2.7,2.7,2.7,0,0,0-2.7-2.7Zm-.7-10.6a14.28,14.28,0,0,0-9.52,4.79,1.4,1.4,0,0,0,2.12,1.84c.33-.37,3.28-3.63,7.53-3.82,2.9-.13,5.82,1.18,8.69,3.92a1.4,1.4,0,0,0,1.93-2c-3.43-3.28-7-4.86-10.75-4.69Zm0,0"/>
</svg>