<svg width="80" height="79" viewBox="0 0 80 79" fill="none" xmlns="http://www.w3.org/2000/svg">
<path d="M16.7958 47.9003L47.7446 43.1895L70.4494 56.0845L62.2163 73.6113L31.1687 78.3186L8.52051 65.4594L16.7958 47.9003Z" fill="white"/>
<path d="M31.2195 78L62.0005 73.3048L69.69 58.6543L80 0H0L8.95328 65.889L31.2195 78Z" fill="url(#paint0_linear_6_533)" fill-opacity="0.4"/>
<path d="M47.8096 43.5571V26.6112L69.9342 39.2539V56.1998L47.8096 43.5571Z" fill="#A6E3CC" fill-opacity="0.4" stroke="white" stroke-linejoin="round"/>
<path d="M47.6254 26.6885L17.0723 31.2539V48.1224L47.6254 43.5569V26.6885Z" fill="#14A27A" fill-opacity="0.5" stroke="white" stroke-linejoin="round"/>
<path d="M9.17871 65.2333V48.7537L17.0722 31.75L17.0722 48.2295L9.17871 65.2333Z" fill="#1CD28E" fill-opacity="0.69" stroke="white" stroke-linejoin="round"/>
<path d="M9.17871 65.2335V48.6112L31.3034 61.2539L31.3034 77.8763L9.17871 65.2335Z" fill="#1CD28E" fill-opacity="0.69" stroke="white" stroke-linejoin="round"/>
<path d="M17.1511 30.6936L47.6357 26L70 38.8477L61.8904 56.31L31.3085 61L9 48.1881L17.1511 30.6936Z" fill="#1CD28E" fill-opacity="0.6" stroke="white"/>
<path d="M61.8568 56.6885L31.3037 61.2539V77.8759L61.8568 73.3105V56.6885Z" fill="#14A27A" fill-opacity="0.5" stroke="white" stroke-linejoin="round"/>
<path d="M69.9337 39.2539L61.8564 56.462V73.3106L69.9337 56.1025L69.9337 39.2539Z" fill="#14A27A" fill-opacity="0.5" stroke="white" stroke-linejoin="round"/>
<g filter="url(#filter0_d_6_533)">
<circle r="5.12697" transform="matrix(0.866025 0.5 -0.866025 0.5 40.2676 41.0879)" fill="white"/>
<path d="M51.3192 42.3418C51.3192 45.3451 47.1023 47.7798 41.9004 47.7798" stroke="white" stroke-width="2"/>
<path d="M28.6697 40.7217C28.6697 37.3693 33.0529 34.6516 38.46 34.6516" stroke="white" stroke-width="2"/>
<path d="M57.0281 42.5527C57.0281 47.2904 50.3759 51.1311 42.1699 51.1311" stroke="white" stroke-width="2"/>
<path d="M23.007 39.834C23.007 35.1087 29.6418 31.2782 37.8262 31.2782" stroke="white" stroke-width="2"/>
</g>
<defs>
<filter id="filter0_d_6_533" x="19.7822" y="30.5713" width="44.4707" height="29.2666" filterUnits="userSpaceOnUse" color-interpolation-filters="sRGB">
<feFlood flood-opacity="0" result="BackgroundImageFix"/>
<feColorMatrix in="SourceAlpha" type="matrix" values="0 0 0 0 0 0 0 0 0 0 0 0 0 0 0 0 0 0 127 0" result="hardAlpha"/>
<feOffset dx="2" dy="4"/>
<feGaussianBlur stdDeviation="2"/>
<feComposite in2="hardAlpha" operator="out"/>
<feColorMatrix type="matrix" values="0 0 0 0 0 0 0 0 0 0 0 0 0 0 0 0 0 0 0.25 0"/>
<feBlend mode="normal" in2="BackgroundImageFix" result="effect1_dropShadow_6_533"/>
<feBlend mode="normal" in="SourceGraphic" in2="effect1_dropShadow_6_533" result="shape"/>
</filter>
<linearGradient id="paint0_linear_6_533" x1="43.025" y1="85.6429" x2="43.025" y2="8.63067" gradientUnits="userSpaceOnUse">
<stop stop-color="#01D65A"/>
<stop offset="1" stop-color="#01D65A" stop-opacity="0"/>
</linearGradient>
</defs>
</svg>
