<?xml version="1.0" encoding="utf-8"?>
<!-- Generator: Adobe Illustrator 24.0.1, SVG Export Plug-In . SVG Version: 6.00 Build 0)  -->
<svg version="1.1" id="图层_1" xmlns="http://www.w3.org/2000/svg" xmlns:xlink="http://www.w3.org/1999/xlink" x="0px" y="0px"
	 width="62px" height="68px" viewBox="0 0 62 68" style="enable-background:new 0 0 62 68;" xml:space="preserve">
<style type="text/css">
	.st0{fill:#FFD732;stroke:#FFFFFF;}
	.st1{fill:#FED027;fill-opacity:0.5;stroke:#FFFFFF;stroke-linejoin:bevel;}
	.st2{fill:#B79000;fill-opacity:0.3;stroke:#FFFFFF;stroke-linejoin:bevel;}
	.st3{fill:#B79000;fill-opacity:0.4;stroke:#FFFFFF;stroke-linejoin:bevel;}
	.st4{fill:#B79000;fill-opacity:0.8;stroke:#FFFFFF;stroke-linejoin:bevel;}
</style>
<path class="st0" d="M8.8,37.1L39,32.5l21.5,12.2c0.4,0.2,0.6,0.7,0.4,1.2l-7.7,16.4l-30.4,4.6L1.4,54.7C1,54.4,0.8,53.9,1,53.5
	L8.8,37.1z"/>
<path class="st1" d="M0.9,54.1l30-52.9L23,66.8L0.9,54.1z"/>
<path class="st2" d="M22.9,66.9l8-65.8L53.5,62L22.9,66.9z"/>
<path class="st3" d="M53.5,61.9L31,1.1l30.4,44.2L53.5,61.9z"/>
<path class="st4" d="M0.7,54.2L30.6,1.5l-22.2,36L0.7,54.2z"/>
</svg>
