<svg width="51" height="55" viewBox="0 0 51 55" fill="none" xmlns="http://www.w3.org/2000/svg">
<g filter="url(#filter0_d_6_1522)">
<path d="M25.2942 45.8444C36.7331 45.8444 46.0063 41.8458 46.0063 36.9133V29.4541H4.58203V36.9133C4.58203 41.8458 13.8552 45.8444 25.2942 45.8444Z" fill="#001034"/>
</g>
<path d="M25.2942 36.0807C36.7331 36.0807 46.0063 32.0821 46.0063 27.1496V19.6904H4.58203V27.1496C4.58203 32.0821 13.8552 36.0807 25.2942 36.0807Z" fill="#001034"/>
<path d="M25.2942 26.3171C36.7331 26.3171 46.0063 22.3185 46.0063 17.386V9.92676H4.58203V17.386C4.58203 22.3185 13.8552 26.3171 25.2942 26.3171Z" fill="#001034"/>
<g filter="url(#filter1_d_6_1522)">
<path d="M25.2942 45.8444C36.7331 45.8444 46.0063 41.8458 46.0063 36.9133V29.4541H4.58203V36.9133C4.58203 41.8458 13.8552 45.8444 25.2942 45.8444Z" fill="#C2C2C2" fill-opacity="0.8" shape-rendering="crispEdges"/>
<path d="M25.2942 45.8444C36.7331 45.8444 46.0063 41.8458 46.0063 36.9133V29.4541H4.58203V36.9133C4.58203 41.8458 13.8552 45.8444 25.2942 45.8444Z" stroke="white" shape-rendering="crispEdges"/>
</g>
<ellipse cx="25.2942" cy="29.4173" rx="20.7121" ry="9.0296" fill="#969393" stroke="white"/>
<path d="M25.2942 36.0807C36.7331 36.0807 46.0063 32.0821 46.0063 27.1496V19.6904H4.58203V27.1496C4.58203 32.0821 13.8552 36.0807 25.2942 36.0807Z" fill="#C2C2C2" fill-opacity="0.8" stroke="white"/>
<ellipse cx="25.2942" cy="19.6536" rx="20.7121" ry="9.0296" fill="#969393" stroke="white"/>
<path d="M25.2942 26.3171C36.7331 26.3171 46.0063 22.3185 46.0063 17.386V9.92676H4.58203V17.386C4.58203 22.3185 13.8552 26.3171 25.2942 26.3171Z" fill="#C2C2C2" fill-opacity="0.8" stroke="white"/>
<ellipse cx="25.2942" cy="9.888" rx="20.7121" ry="9.0296" fill="#00CCCC" stroke="white"/>
<defs>
<filter id="filter0_d_6_1522" x="0.582031" y="29.4541" width="49.4238" height="24.3906" filterUnits="userSpaceOnUse" color-interpolation-filters="sRGB">
<feFlood flood-opacity="0" result="BackgroundImageFix"/>
<feColorMatrix in="SourceAlpha" type="matrix" values="0 0 0 0 0 0 0 0 0 0 0 0 0 0 0 0 0 0 127 0" result="hardAlpha"/>
<feOffset dy="4"/>
<feGaussianBlur stdDeviation="2"/>
<feComposite in2="hardAlpha" operator="out"/>
<feColorMatrix type="matrix" values="0 0 0 0 0 0 0 0 0 0 0 0 0 0 0 0 0 0 0.25 0"/>
<feBlend mode="normal" in2="BackgroundImageFix" result="effect1_dropShadow_6_1522"/>
<feBlend mode="normal" in="SourceGraphic" in2="effect1_dropShadow_6_1522" result="shape"/>
</filter>
<filter id="filter1_d_6_1522" x="0.0820312" y="28.9541" width="50.4238" height="25.3906" filterUnits="userSpaceOnUse" color-interpolation-filters="sRGB">
<feFlood flood-opacity="0" result="BackgroundImageFix"/>
<feColorMatrix in="SourceAlpha" type="matrix" values="0 0 0 0 0 0 0 0 0 0 0 0 0 0 0 0 0 0 127 0" result="hardAlpha"/>
<feOffset dy="4"/>
<feGaussianBlur stdDeviation="2"/>
<feComposite in2="hardAlpha" operator="out"/>
<feColorMatrix type="matrix" values="0 0 0 0 0 0 0 0 0 0 0 0 0 0 0 0 0 0 0.25 0"/>
<feBlend mode="normal" in2="BackgroundImageFix" result="effect1_dropShadow_6_1522"/>
<feBlend mode="normal" in="SourceGraphic" in2="effect1_dropShadow_6_1522" result="shape"/>
</filter>
</defs>
</svg>
