<svg width="88" height="86" viewBox="0 0 88 86" fill="none" xmlns="http://www.w3.org/2000/svg">
<path d="M12.5789 36.4943L55.8551 29.8945L87.6248 47.9376V53.8846L76.1186 78.4009L32.6818 85.0368L1.00018 67.0486L1 61.028L12.5789 36.4943Z" fill="#001034"/>
<path d="M1.11914 66.8965V60.8965L32.6191 78.8965V84.8965L1.11914 66.8965Z" fill="#737389" fill-opacity="0.7" stroke="white" stroke-opacity="0.5" stroke-width="0.5" stroke-linejoin="round"/>
<path d="M12.5759 36.4863L55.8689 29.8965L87.6297 47.9348L76.1128 72.4523L32.6816 79.0371L1 61.0489L12.5759 36.4863Z" fill="url(#paint0_linear_6_246)" stroke="white" stroke-opacity="0.5" stroke-width="0.5"/>
<path d="M76.1191 72.3965L32.6191 78.8965V84.8965L76.1191 78.3965V72.3965Z" fill="#4A5368" fill-opacity="0.7" stroke="white" stroke-opacity="0.5" stroke-width="0.5" stroke-linejoin="round"/>
<path d="M87.6191 47.8965L76.1191 72.3965V78.3965L87.6191 53.8965V47.8965Z" fill="#202D49" stroke="white" stroke-opacity="0.5" stroke-width="0.5" stroke-linejoin="round"/>
<path d="M41.1006 33.6602L71.9047 51.1479L47.8045 64.8298L17.0004 47.342L41.1006 33.6602Z" fill="#BAD2D7" stroke="white" stroke-linejoin="bevel"/>
<g filter="url(#filter0_d_6_246)">
<rect width="35.5134" height="4.34683" transform="matrix(0.869633 0.493698 -2.24047e-08 1 17 47.3457)" fill="#5B6C78"/>
<rect width="35.5134" height="4.34683" transform="matrix(0.869633 0.493698 -2.24047e-08 1 17 47.3457)" stroke="white" stroke-linejoin="bevel"/>
</g>
<g filter="url(#filter1_d_6_246)">
<rect width="27.6215" height="4.55422" transform="matrix(0.869633 -0.493698 2.24047e-08 1 47.8838 64.7842)" fill="#8499A5"/>
<rect width="27.6215" height="4.55422" transform="matrix(0.869633 -0.493698 2.24047e-08 1 47.8838 64.7842)" stroke="white" stroke-linejoin="bevel"/>
</g>
<g filter="url(#filter2_d_6_246)">
<rect width="20.5061" height="30.3737" transform="matrix(0.869633 0.493698 -2.24047e-08 1 29.0186 17.8203)" fill="#007082"/>
</g>
<g filter="url(#filter3_d_6_246)">
<rect width="17.0884" height="30.6512" transform="matrix(0.869633 -0.493698 2.24047e-08 1 46.75 27.8574)" fill="#01B2B2"/>
</g>
<path d="M43.9316 9.35449L61.6108 19.3911L46.6978 27.8573L29.0187 17.8207L43.9316 9.35449Z" fill="#A0EFD9"/>
<g filter="url(#filter4_d_6_246)">
<rect width="26.6351" height="35.2" transform="matrix(0.869633 0.493698 -2.24047e-08 1 22.5723 12.624)" fill="#5B6C78" fill-opacity="0.5" shape-rendering="crispEdges"/>
<rect width="26.6351" height="35.2" transform="matrix(0.869633 0.493698 -2.24047e-08 1 22.5723 12.624)" stroke="white" stroke-linejoin="bevel" shape-rendering="crispEdges"/>
</g>
<rect width="3.94593" height="14.7443" transform="matrix(0.869633 0.493698 -2.24047e-08 1 30.293 23.3652)" fill="white" fill-opacity="0.5"/>
<rect width="3.94593" height="4.05705" transform="matrix(0.869633 0.493698 -2.24047e-08 1 34.583 25.9385)" fill="white" fill-opacity="0.5"/>
<rect width="3.94593" height="4.05705" transform="matrix(0.869633 0.493698 -2.24047e-08 1 38.8721 28.5127)" fill="white" fill-opacity="0.5"/>
<rect width="3.94593" height="24.2994" transform="matrix(0.869633 0.493698 -2.24047e-08 1 26.0039 20.792)" fill="white" fill-opacity="0.5"/>
<g filter="url(#filter5_d_6_246)">
<rect width="23.6756" height="35.2228" transform="matrix(0.869633 -0.493698 2.24047e-08 1 45.7354 25.8896)" fill="#8499A5" fill-opacity="0.5" shape-rendering="crispEdges"/>
<rect width="23.6756" height="35.2228" transform="matrix(0.869633 -0.493698 2.24047e-08 1 45.7354 25.8896)" stroke="white" stroke-linejoin="bevel" shape-rendering="crispEdges"/>
</g>
<path d="M43.2148 1L66.3313 14.1234L45.7642 25.7994L22.6478 12.6761L43.2148 1Z" fill="#BAD2D7" fill-opacity="0.5" stroke="white" stroke-linejoin="bevel"/>
<rect width="3.94593" height="4.05705" transform="matrix(0.866025 -0.5 2.20305e-08 1 48.3086 30.4854)" fill="white" fill-opacity="0.5"/>
<rect width="3.94593" height="14.7149" transform="matrix(0.866025 -0.5 2.20305e-08 1 52.5977 27.9121)" fill="white" fill-opacity="0.5"/>
<rect width="3.94593" height="4.05705" transform="matrix(0.866025 -0.5 2.20305e-08 1 56.8877 25.3379)" fill="white" fill-opacity="0.5"/>
<rect width="3.94593" height="4.05705" transform="matrix(0.866025 -0.5 2.20305e-08 1 61.1768 22.7646)" fill="white" fill-opacity="0.5"/>
<defs>
<filter id="filter0_d_6_246" x="12.5654" y="46.8457" width="39.7529" height="30.8799" filterUnits="userSpaceOnUse" color-interpolation-filters="sRGB">
<feFlood flood-opacity="0" result="BackgroundImageFix"/>
<feColorMatrix in="SourceAlpha" type="matrix" values="0 0 0 0 0 0 0 0 0 0 0 0 0 0 0 0 0 0 127 0" result="hardAlpha"/>
<feOffset dy="4"/>
<feGaussianBlur stdDeviation="2"/>
<feComposite in2="hardAlpha" operator="out"/>
<feColorMatrix type="matrix" values="0 0 0 0 0 0 0 0 0 0 0 0 0 0 0 0 0 0 0.25 0"/>
<feBlend mode="normal" in2="BackgroundImageFix" result="effect1_dropShadow_6_246"/>
<feBlend mode="normal" in="SourceGraphic" in2="effect1_dropShadow_6_246" result="shape"/>
</filter>
<filter id="filter1_d_6_246" x="43.4492" y="50.6475" width="32.8896" height="27.1914" filterUnits="userSpaceOnUse" color-interpolation-filters="sRGB">
<feFlood flood-opacity="0" result="BackgroundImageFix"/>
<feColorMatrix in="SourceAlpha" type="matrix" values="0 0 0 0 0 0 0 0 0 0 0 0 0 0 0 0 0 0 127 0" result="hardAlpha"/>
<feOffset dy="4"/>
<feGaussianBlur stdDeviation="2"/>
<feComposite in2="hardAlpha" operator="out"/>
<feColorMatrix type="matrix" values="0 0 0 0 0 0 0 0 0 0 0 0 0 0 0 0 0 0 0.25 0"/>
<feBlend mode="normal" in2="BackgroundImageFix" result="effect1_dropShadow_6_246"/>
<feBlend mode="normal" in="SourceGraphic" in2="effect1_dropShadow_6_246" result="shape"/>
</filter>
<filter id="filter2_d_6_246" x="25.0186" y="17.8203" width="25.833" height="48.4971" filterUnits="userSpaceOnUse" color-interpolation-filters="sRGB">
<feFlood flood-opacity="0" result="BackgroundImageFix"/>
<feColorMatrix in="SourceAlpha" type="matrix" values="0 0 0 0 0 0 0 0 0 0 0 0 0 0 0 0 0 0 127 0" result="hardAlpha"/>
<feOffset dy="4"/>
<feGaussianBlur stdDeviation="2"/>
<feComposite in2="hardAlpha" operator="out"/>
<feColorMatrix type="matrix" values="0 0 0 0 0 0 0 0 0 0 0 0 0 0 0 0 0 0 0.25 0"/>
<feBlend mode="normal" in2="BackgroundImageFix" result="effect1_dropShadow_6_246"/>
<feBlend mode="normal" in="SourceGraphic" in2="effect1_dropShadow_6_246" result="shape"/>
</filter>
<filter id="filter3_d_6_246" x="42.75" y="19.4209" width="22.8604" height="47.0879" filterUnits="userSpaceOnUse" color-interpolation-filters="sRGB">
<feFlood flood-opacity="0" result="BackgroundImageFix"/>
<feColorMatrix in="SourceAlpha" type="matrix" values="0 0 0 0 0 0 0 0 0 0 0 0 0 0 0 0 0 0 127 0" result="hardAlpha"/>
<feOffset dy="4"/>
<feGaussianBlur stdDeviation="2"/>
<feComposite in2="hardAlpha" operator="out"/>
<feColorMatrix type="matrix" values="0 0 0 0 0 0 0 0 0 0 0 0 0 0 0 0 0 0 0.25 0"/>
<feBlend mode="normal" in2="BackgroundImageFix" result="effect1_dropShadow_6_246"/>
<feBlend mode="normal" in="SourceGraphic" in2="effect1_dropShadow_6_246" result="shape"/>
</filter>
<filter id="filter4_d_6_246" x="18.1377" y="12.124" width="32.0322" height="57.3496" filterUnits="userSpaceOnUse" color-interpolation-filters="sRGB">
<feFlood flood-opacity="0" result="BackgroundImageFix"/>
<feColorMatrix in="SourceAlpha" type="matrix" values="0 0 0 0 0 0 0 0 0 0 0 0 0 0 0 0 0 0 127 0" result="hardAlpha"/>
<feOffset dy="4"/>
<feGaussianBlur stdDeviation="2"/>
<feComposite in2="hardAlpha" operator="out"/>
<feColorMatrix type="matrix" values="0 0 0 0 0 0 0 0 0 0 0 0 0 0 0 0 0 0 0.25 0"/>
<feBlend mode="normal" in2="BackgroundImageFix" result="effect1_dropShadow_6_246"/>
<feBlend mode="normal" in="SourceGraphic" in2="effect1_dropShadow_6_246" result="shape"/>
</filter>
<filter id="filter5_d_6_246" x="41.3008" y="13.7012" width="29.458" height="55.9111" filterUnits="userSpaceOnUse" color-interpolation-filters="sRGB">
<feFlood flood-opacity="0" result="BackgroundImageFix"/>
<feColorMatrix in="SourceAlpha" type="matrix" values="0 0 0 0 0 0 0 0 0 0 0 0 0 0 0 0 0 0 127 0" result="hardAlpha"/>
<feOffset dy="4"/>
<feGaussianBlur stdDeviation="2"/>
<feComposite in2="hardAlpha" operator="out"/>
<feColorMatrix type="matrix" values="0 0 0 0 0 0 0 0 0 0 0 0 0 0 0 0 0 0 0.25 0"/>
<feBlend mode="normal" in2="BackgroundImageFix" result="effect1_dropShadow_6_246"/>
<feBlend mode="normal" in="SourceGraphic" in2="effect1_dropShadow_6_246" result="shape"/>
</filter>
<linearGradient id="paint0_linear_6_246" x1="-18.7807" y1="54.4668" x2="93.897" y2="65.4721" gradientUnits="userSpaceOnUse">
<stop stop-color="white" stop-opacity="0.4"/>
<stop offset="1" stop-color="#C4C4C4" stop-opacity="0"/>
</linearGradient>
</defs>
</svg>
