<svg width="49" height="46" viewBox="0 0 49 46" fill="none" xmlns="http://www.w3.org/2000/svg">
<path d="M47.5312 45.2784H1.15039L24.9628 1.33105L47.5312 45.2784Z" stroke="#FFD732"/>
<path d="M22.6057 33.3968H26.2457C25.7977 29.5328 31.9297 29.0288 31.9297 24.9408C31.9297 21.2168 28.9617 19.3128 24.9017 19.3128C21.9057 19.3128 19.4417 20.6848 17.6497 22.7568L19.9457 24.8568C21.3177 23.4288 22.7177 22.6448 24.4257 22.6448C26.6377 22.6448 27.9817 23.5968 27.9817 25.3048C27.9817 28.0208 22.0177 29.0008 22.6057 33.3968ZM24.4537 40.8728C25.8537 40.8728 26.9177 39.8368 26.9177 38.3808C26.9177 36.9248 25.8537 35.9168 24.4537 35.9168C23.0257 35.9168 21.9617 36.9248 21.9617 38.3808C21.9617 39.8368 22.9977 40.8728 24.4537 40.8728Z" fill="#CAA50D"/>
<path d="M22.6057 32.0081H26.2457C25.7977 28.1441 31.9297 27.6401 31.9297 23.5521C31.9297 19.8281 28.9617 17.9241 24.9017 17.9241C21.9057 17.9241 19.4417 19.2961 17.6497 21.3681L19.9457 23.4681C21.3177 22.0401 22.7177 21.2561 24.4257 21.2561C26.6377 21.2561 27.9817 22.2081 27.9817 23.9161C27.9817 26.6321 22.0177 27.6121 22.6057 32.0081ZM24.4537 39.4841C25.8537 39.4841 26.9177 38.4481 26.9177 36.9921C26.9177 35.5361 25.8537 34.5281 24.4537 34.5281C23.0257 34.5281 21.9617 35.5361 21.9617 36.9921C21.9617 38.4481 22.9977 39.4841 24.4537 39.4841Z" fill="white"/>
</svg>
