<svg width="49" height="47" viewBox="0 0 49 47" fill="none" xmlns="http://www.w3.org/2000/svg">
<path d="M47.8342 45.7202H1.51172L25.2942 1.82812L47.8342 45.7202Z" stroke="#FFD732"/>
<path d="M29.0515 23.8758C28.1048 20.6878 24.3872 18.446 22.6468 17.7236C22.902 18.0033 23.3429 18.7723 23.3429 19.751C23.3429 20.9416 22.8556 22.7572 21.9506 24.3651C21.3378 25.4539 19.3052 27.8141 18.3306 28.8394C16.7062 30.5406 14.1535 34.8517 16.9382 38.4871C19.7229 42.1225 23.3894 43.3109 24.8745 43.4508C24.6889 42.6584 24.3454 40.7522 24.4568 39.4659C24.5961 37.8579 26.2428 36.2534 27.1023 35.1314C27.7984 34.2226 28.7083 33.0341 29.3996 30.5173C29.9565 28.4899 29.9983 27.0637 29.0515 23.8758Z" fill="#CAA50D"/>
<path d="M33.2285 34.0128C33.3956 31.3842 31.7666 28.6297 30.9312 27.581C30.9312 28.3734 30.8615 30.2097 30.5831 31.2164C30.235 32.4748 29.7477 33.5934 28.9819 34.7818C28.2161 35.9703 27.4503 36.3199 26.1276 38.9066C25.0694 40.9759 25.6867 42.7983 26.1276 43.4508C26.2204 43.3342 26.4618 43.0033 26.6845 42.6118C26.963 42.1225 29.8173 40.5844 30.7223 39.8853C31.6273 39.1862 33.0197 37.2986 33.2285 34.0128Z" fill="#CAA50D"/>
<path d="M29.0515 22.1775C28.1048 18.9896 24.3872 16.7478 22.6468 16.0254C22.902 16.305 23.3429 17.0741 23.3429 18.0528C23.3429 19.2433 22.8556 21.059 21.9506 22.6669C21.3378 23.7556 19.3052 26.1158 18.3306 27.1412C16.7062 28.8423 14.1535 33.1535 16.9382 36.7889C19.7229 40.4242 23.3894 41.6127 24.8745 41.7525C24.6889 40.9602 24.3454 39.054 24.4568 37.7676C24.5961 36.1597 26.2428 34.5552 27.1023 33.4331C27.7984 32.5243 28.7083 31.3358 29.3996 28.819C29.9565 26.7916 29.9983 25.3655 29.0515 22.1775Z" fill="white"/>
<path d="M33.2285 32.3146C33.3956 29.6859 31.7666 26.9315 30.9312 25.8828C30.9312 26.6751 30.8615 28.5114 30.5831 29.5181C30.235 30.7765 29.7477 31.8951 28.9819 33.0836C28.2161 34.2721 27.4503 34.6216 26.1276 37.2083C25.0694 39.2777 25.6867 41.1 26.1276 41.7525C26.2204 41.636 26.4618 41.3051 26.6845 40.9136C26.963 40.4242 29.8173 38.8862 30.7223 38.1871C31.6273 37.488 33.0197 35.6004 33.2285 32.3146Z" fill="white"/>
</svg>
