<svg width="49" height="47" viewBox="0 0 49 47" fill="none" xmlns="http://www.w3.org/2000/svg">
<path d="M47.9302 45.7468H1.43945L25.3083 1.69531L47.9302 45.7468Z" stroke="#FFD732"/>
<path d="M23.3838 31.6194H26.2678L26.9958 22.0434L27.1358 17.8714H22.5158L22.6558 22.0434L23.3838 31.6194ZM24.8398 39.0954C26.2398 39.0954 27.3038 38.0594 27.3038 36.6034C27.3038 35.1474 26.2398 34.1394 24.8398 34.1394C23.4118 34.1394 22.3478 35.1474 22.3478 36.6034C22.3478 38.0594 23.3838 39.0954 24.8398 39.0954Z" fill="#CAA50D"/>
<path d="M23.3838 30.054H26.2678L26.9958 20.478L27.1358 16.306H22.5158L22.6558 20.478L23.3838 30.054ZM24.8398 37.53C26.2398 37.53 27.3038 36.494 27.3038 35.038C27.3038 33.582 26.2398 32.574 24.8398 32.574C23.4118 32.574 22.3478 33.582 22.3478 35.038C22.3478 36.494 23.3838 37.53 24.8398 37.53Z" fill="white"/>
</svg>
