<svg width="89" height="76" viewBox="0 0 89 76" fill="none" xmlns="http://www.w3.org/2000/svg">
<path d="M12.5789 26.4025L55.8551 19.8027L87.6248 37.8458V43.7928L76.1186 68.3091L32.6818 74.945L1.00018 56.9568L1 50.9362L12.5789 26.4025Z" fill="#001034"/>
<path d="M1.11914 56.8047V50.8047L32.6191 68.8047V74.8047L1.11914 56.8047Z" fill="#737389" fill-opacity="0.7" stroke="white" stroke-opacity="0.5" stroke-width="0.5" stroke-linejoin="round"/>
<path d="M12.5759 26.3945L55.8689 19.8047L87.6297 37.843L76.1128 62.3605L32.6816 68.9453L1 50.9571L12.5759 26.3945Z" fill="url(#paint0_linear_6_377)" stroke="white" stroke-opacity="0.5" stroke-width="0.5"/>
<path d="M76.1191 62.3047L32.6191 68.8047V74.8047L76.1191 68.3047V62.3047Z" fill="#4A5368" fill-opacity="0.7" stroke="white" stroke-opacity="0.5" stroke-width="0.5" stroke-linejoin="round"/>
<path d="M87.6191 37.8047L76.1191 62.3047V68.3047L87.6191 43.8047V37.8047Z" fill="#202D49" stroke="white" stroke-opacity="0.5" stroke-width="0.5" stroke-linejoin="round"/>
<g filter="url(#filter0_d_6_377)">
<path d="M12.337 29.6388L45.4078 48.4134L45.4078 58.2308L12.337 39.4562C12.337 39.4562 9.58115 39.1443 9.58105 35.2861C9.58095 31.4278 12.337 29.6388 12.337 29.6388Z" fill="url(#paint1_linear_6_377)"/>
<path d="M12.337 29.6388L45.4078 48.4134L45.4078 58.2308L12.337 39.4562C12.337 39.4562 9.58115 39.1443 9.58105 35.2861C9.58095 31.4278 12.337 29.6388 12.337 29.6388Z" stroke="white" stroke-linejoin="bevel"/>
</g>
<path d="M43.5791 12L77.2534 31.1172L46.706 48.4592L13.0317 29.342L43.5791 12Z" fill="#BAD2D7" stroke="white" stroke-linejoin="bevel"/>
<g filter="url(#filter1_d_6_377)">
<path d="M46.5096 47.4441L75.1498 31.1848C75.1498 31.1848 79.5805 30.3265 79.5805 34.736C79.5805 40.2478 75.1498 41.6057 75.1498 41.6057L46.5096 57.865C46.5096 57.865 42.6514 58.5515 42.6514 53.4762C42.6514 49.3652 46.5096 47.4441 46.5096 47.4441Z" fill="#8499A5"/>
<path d="M46.5096 47.4441L75.1498 31.1848C75.1498 31.1848 79.5805 30.3265 79.5805 34.736C79.5805 40.2478 75.1498 41.6057 75.1498 41.6057L46.5096 57.865C46.5096 57.865 42.6514 58.5515 42.6514 53.4762C42.6514 49.3652 46.5096 47.4441 46.5096 47.4441Z" stroke="white" stroke-linejoin="bevel"/>
</g>
<g filter="url(#filter2_d_6_377)">
<rect width="21.8375" height="16.2308" transform="matrix(0.869633 0.493698 -2.24047e-08 1 25.6377 11.918)" fill="#007082"/>
<rect width="21.8375" height="16.2308" transform="matrix(0.869633 0.493698 -2.24047e-08 1 25.6377 11.918)" stroke="white" stroke-linejoin="bevel"/>
</g>
<path d="M44.6377 1L63.6855 11.9973L44.6282 23L25.5804 12.0027L44.6377 1Z" fill="#A0EFD9" stroke="white" stroke-linejoin="bevel"/>
<g filter="url(#filter3_d_6_377)">
<rect width="21.848" height="16.1023" transform="matrix(0.869633 -0.493698 2.24047e-08 1 44.6396 22.6992)" fill="#00CCCC"/>
<rect width="21.848" height="16.1023" transform="matrix(0.869633 -0.493698 2.24047e-08 1 44.6396 22.6992)" stroke="white" stroke-linejoin="bevel"/>
</g>
<path d="M53.0811 17.5L35.0811 6.5M56.0811 20.5L61.0811 17.5" stroke="white"/>
<circle r="2.0458" transform="matrix(0.866025 -0.5 2.20305e-08 1 61.3922 44.0112)" fill="#00CCCC" stroke="#A0EFD9"/>
<circle r="2.0458" transform="matrix(0.866025 -0.5 2.20305e-08 1 50.3678 50.6245)" fill="#00CCCC" stroke="#A0EFD9"/>
<circle r="2.0458" transform="matrix(0.866025 -0.5 2.20305e-08 1 72.4157 37.3959)" fill="#00CCCC" stroke="#A0EFD9"/>
<defs>
<filter id="filter0_d_6_377" x="1.14648" y="29.1162" width="52.6963" height="45.6143" filterUnits="userSpaceOnUse" color-interpolation-filters="sRGB">
<feFlood flood-opacity="0" result="BackgroundImageFix"/>
<feColorMatrix in="SourceAlpha" type="matrix" values="0 0 0 0 0 0 0 0 0 0 0 0 0 0 0 0 0 0 127 0" result="hardAlpha"/>
<feOffset dy="8"/>
<feGaussianBlur stdDeviation="4"/>
<feComposite in2="hardAlpha" operator="out"/>
<feColorMatrix type="matrix" values="0 0 0 0 0 0 0 0 0 0 0 0 0 0 0 0 0 0 0.25 0"/>
<feBlend mode="normal" in2="BackgroundImageFix" result="effect1_dropShadow_6_377"/>
<feBlend mode="normal" in="SourceGraphic" in2="effect1_dropShadow_6_377" result="shape"/>
</filter>
<filter id="filter1_d_6_377" x="34.2168" y="30.5596" width="53.7988" height="43.8945" filterUnits="userSpaceOnUse" color-interpolation-filters="sRGB">
<feFlood flood-opacity="0" result="BackgroundImageFix"/>
<feColorMatrix in="SourceAlpha" type="matrix" values="0 0 0 0 0 0 0 0 0 0 0 0 0 0 0 0 0 0 127 0" result="hardAlpha"/>
<feOffset dy="8"/>
<feGaussianBlur stdDeviation="4"/>
<feComposite in2="hardAlpha" operator="out"/>
<feColorMatrix type="matrix" values="0 0 0 0 0 0 0 0 0 0 0 0 0 0 0 0 0 0 0.25 0"/>
<feBlend mode="normal" in2="BackgroundImageFix" result="effect1_dropShadow_6_377"/>
<feBlend mode="normal" in="SourceGraphic" in2="effect1_dropShadow_6_377" result="shape"/>
</filter>
<filter id="filter2_d_6_377" x="21.2031" y="11.418" width="27.8604" height="36.0117" filterUnits="userSpaceOnUse" color-interpolation-filters="sRGB">
<feFlood flood-opacity="0" result="BackgroundImageFix"/>
<feColorMatrix in="SourceAlpha" type="matrix" values="0 0 0 0 0 0 0 0 0 0 0 0 0 0 0 0 0 0 127 0" result="hardAlpha"/>
<feOffset dy="4"/>
<feGaussianBlur stdDeviation="2"/>
<feComposite in2="hardAlpha" operator="out"/>
<feColorMatrix type="matrix" values="0 0 0 0 0 0 0 0 0 0 0 0 0 0 0 0 0 0 0.25 0"/>
<feBlend mode="normal" in2="BackgroundImageFix" result="effect1_dropShadow_6_377"/>
<feBlend mode="normal" in="SourceGraphic" in2="effect1_dropShadow_6_377" result="shape"/>
</filter>
<filter id="filter3_d_6_377" x="40.2051" y="11.4131" width="27.8691" height="35.8887" filterUnits="userSpaceOnUse" color-interpolation-filters="sRGB">
<feFlood flood-opacity="0" result="BackgroundImageFix"/>
<feColorMatrix in="SourceAlpha" type="matrix" values="0 0 0 0 0 0 0 0 0 0 0 0 0 0 0 0 0 0 127 0" result="hardAlpha"/>
<feOffset dy="4"/>
<feGaussianBlur stdDeviation="2"/>
<feComposite in2="hardAlpha" operator="out"/>
<feColorMatrix type="matrix" values="0 0 0 0 0 0 0 0 0 0 0 0 0 0 0 0 0 0 0.25 0"/>
<feBlend mode="normal" in2="BackgroundImageFix" result="effect1_dropShadow_6_377"/>
<feBlend mode="normal" in="SourceGraphic" in2="effect1_dropShadow_6_377" result="shape"/>
</filter>
<linearGradient id="paint0_linear_6_377" x1="-18.7807" y1="44.375" x2="93.897" y2="55.3803" gradientUnits="userSpaceOnUse">
<stop stop-color="white" stop-opacity="0.4"/>
<stop offset="1" stop-color="#C4C4C4" stop-opacity="0"/>
</linearGradient>
<linearGradient id="paint1_linear_6_377" x1="28.8724" y1="39.0261" x2="24.6574" y2="46.4506" gradientUnits="userSpaceOnUse">
<stop stop-color="#5B6C78"/>
<stop offset="1" stop-color="#32393E"/>
</linearGradient>
</defs>
</svg>
