<svg width="92" height="79" viewBox="0 0 92 79" fill="none" xmlns="http://www.w3.org/2000/svg">
<path d="M14.5789 12.4025L57.8551 5.80273L89.6248 23.8458V29.7928L78.1186 54.3091L34.6818 60.945L3.00018 42.9568L3 36.9362L14.5789 12.4025Z" fill="#001034"/>
<path d="M3.11914 42.8047V36.8047L34.6191 54.8047V60.8047L3.11914 42.8047Z" fill="#737389" fill-opacity="0.7" stroke="white" stroke-opacity="0.5" stroke-width="0.5" stroke-linejoin="round"/>
<path d="M14.5759 12.3945L57.8689 5.80469L89.6297 23.843L78.1128 48.3605L34.6816 54.9453L3 36.9571L14.5759 12.3945Z" fill="url(#paint0_linear_6_423)" stroke="white" stroke-opacity="0.5" stroke-width="0.5"/>
<path d="M78.1191 48.3047L34.6191 54.8047V60.8047L78.1191 54.3047V48.3047Z" fill="#4A5368" fill-opacity="0.7" stroke="white" stroke-opacity="0.5" stroke-width="0.5" stroke-linejoin="round"/>
<path d="M89.6191 23.8047L78.1191 48.3047V54.3047L89.6191 29.8047V23.8047Z" fill="#202D49" stroke="white" stroke-opacity="0.5" stroke-width="0.5" stroke-linejoin="round"/>
<g filter="url(#filter0_d_6_423)">
<g filter="url(#filter1_d_6_423)">
<rect width="33.4026" height="9.71897" transform="matrix(0.869633 0.493698 -2.24047e-08 1 16.582 17.6836)" fill="#007082"/>
<rect width="33.4026" height="9.71897" transform="matrix(0.869633 0.493698 -2.24047e-08 1 16.582 17.6836)" stroke="white" stroke-linejoin="bevel"/>
</g>
<path d="M45.3789 1L73.8539 17.44L45.0851 34.0497L16.6101 17.6097L45.3789 1Z" fill="#A0EFD9" stroke="white" stroke-linejoin="bevel"/>
<path d="M45.373 8.64063L60.7587 17.5235L45.547 26.306L30.1614 17.4231L45.373 8.64063Z" fill="#00CCCC" stroke="#007082" stroke-width="4" stroke-linejoin="bevel"/>
<g filter="url(#filter2_d_6_423)">
<rect width="33.3474" height="9.53067" transform="matrix(0.869633 -0.493698 2.24047e-08 1 45.1602 34.0713)" fill="#00CCCC"/>
<rect width="33.3474" height="9.53067" transform="matrix(0.869633 -0.493698 2.24047e-08 1 45.1602 34.0713)" stroke="white" stroke-linejoin="bevel"/>
</g>
<g filter="url(#filter3_d_6_423)">
<g filter="url(#filter4_d_6_423)">
<rect width="2.29982" height="12.7314" transform="matrix(0.869633 -0.493698 2.24047e-08 1 56.1602 33.0439)" fill="#00CCCC"/>
<rect width="2.29982" height="12.7314" transform="matrix(0.869633 -0.493698 2.24047e-08 1 56.1602 33.0439)" stroke="white" stroke-width="0.5" stroke-linejoin="bevel"/>
</g>
<path d="M56.1438 32.9811L45.1602 26.6396L45.1602 29.1211L53.9948 34.2218L53.9948 44.6989L56.1438 45.9396L56.1438 32.9811Z" fill="#016D7F" stroke="white" stroke-width="0.5" stroke-linejoin="bevel"/>
<path d="M47.1279 25.5508L58.0594 31.862L56.1239 32.9795L45.1925 26.6682L47.1279 25.5508Z" fill="#A0EFD9" stroke="white" stroke-width="0.5" stroke-linejoin="bevel"/>
</g>
<g filter="url(#filter5_d_6_423)">
<g filter="url(#filter6_d_6_423)">
<rect width="2.29982" height="12.7314" transform="matrix(0.869633 -0.493698 2.24047e-08 1 65.1602 28.1338)" fill="#00CCCC"/>
<rect width="2.29982" height="12.7314" transform="matrix(0.869633 -0.493698 2.24047e-08 1 65.1602 28.1338)" stroke="white" stroke-width="0.5" stroke-linejoin="bevel"/>
</g>
<path d="M65.1438 28.0709L54.1602 21.7295L54.1602 24.2109L62.9948 29.3116L62.9948 39.7887L65.1438 41.0295L65.1438 28.0709Z" fill="#016D7F" stroke="white" stroke-width="0.5" stroke-linejoin="bevel"/>
<path d="M56.1279 20.6406L67.0594 26.9519L65.1239 28.0693L54.1925 21.7581L56.1279 20.6406Z" fill="#A0EFD9" stroke="white" stroke-width="0.5" stroke-linejoin="bevel"/>
</g>
<g filter="url(#filter7_d_6_423)">
<rect width="2.29982" height="12.7314" transform="matrix(0.869633 -0.493698 2.24047e-08 1 73.1602 23.1338)" fill="#00CCCC"/>
<rect width="2.29982" height="12.7314" transform="matrix(0.869633 -0.493698 2.24047e-08 1 73.1602 23.1338)" stroke="white" stroke-width="0.5" stroke-linejoin="bevel"/>
</g>
<path d="M73.1438 23.0709L62.1602 16.7295L62.1602 19.2109L70.9948 24.3116L70.9948 34.7887L73.1438 36.0295L73.1438 23.0709Z" fill="#016D7F" stroke="white" stroke-width="0.5" stroke-linejoin="bevel"/>
<path d="M64.1279 15.6406L75.0594 21.9519L73.1239 23.0693L62.1925 16.7581L64.1279 15.6406Z" fill="#A0EFD9" stroke="white" stroke-width="0.5" stroke-linejoin="bevel"/>
</g>
<defs>
<filter id="filter0_d_6_423" x="0.147461" y="0.75" width="91.2305" height="77.4395" filterUnits="userSpaceOnUse" color-interpolation-filters="sRGB">
<feFlood flood-opacity="0" result="BackgroundImageFix"/>
<feColorMatrix in="SourceAlpha" type="matrix" values="0 0 0 0 0 0 0 0 0 0 0 0 0 0 0 0 0 0 127 0" result="hardAlpha"/>
<feOffset dy="16"/>
<feGaussianBlur stdDeviation="8"/>
<feComposite in2="hardAlpha" operator="out"/>
<feColorMatrix type="matrix" values="0 0 0 0 0 0 0 0 0 0 0 0 0 0 0 0 0 0 0.25 0"/>
<feBlend mode="normal" in2="BackgroundImageFix" result="effect1_dropShadow_6_423"/>
<feBlend mode="normal" in="SourceGraphic" in2="effect1_dropShadow_6_423" result="shape"/>
</filter>
<filter id="filter1_d_6_423" x="12.1475" y="17.1836" width="37.917" height="35.21" filterUnits="userSpaceOnUse" color-interpolation-filters="sRGB">
<feFlood flood-opacity="0" result="BackgroundImageFix"/>
<feColorMatrix in="SourceAlpha" type="matrix" values="0 0 0 0 0 0 0 0 0 0 0 0 0 0 0 0 0 0 127 0" result="hardAlpha"/>
<feOffset dy="4"/>
<feGaussianBlur stdDeviation="2"/>
<feComposite in2="hardAlpha" operator="out"/>
<feColorMatrix type="matrix" values="0 0 0 0 0 0 0 0 0 0 0 0 0 0 0 0 0 0 0.25 0"/>
<feBlend mode="normal" in2="BackgroundImageFix" result="effect1_dropShadow_6_423"/>
<feBlend mode="normal" in="SourceGraphic" in2="effect1_dropShadow_6_423" result="shape"/>
</filter>
<filter id="filter2_d_6_423" x="40.7256" y="17.1074" width="37.8691" height="34.9941" filterUnits="userSpaceOnUse" color-interpolation-filters="sRGB">
<feFlood flood-opacity="0" result="BackgroundImageFix"/>
<feColorMatrix in="SourceAlpha" type="matrix" values="0 0 0 0 0 0 0 0 0 0 0 0 0 0 0 0 0 0 127 0" result="hardAlpha"/>
<feOffset dy="4"/>
<feGaussianBlur stdDeviation="2"/>
<feComposite in2="hardAlpha" operator="out"/>
<feColorMatrix type="matrix" values="0 0 0 0 0 0 0 0 0 0 0 0 0 0 0 0 0 0 0.25 0"/>
<feBlend mode="normal" in2="BackgroundImageFix" result="effect1_dropShadow_6_423"/>
<feBlend mode="normal" in="SourceGraphic" in2="effect1_dropShadow_6_423" result="shape"/>
</filter>
<filter id="filter3_d_6_423" x="40.9434" y="25.4258" width="21.4346" height="28.7637" filterUnits="userSpaceOnUse" color-interpolation-filters="sRGB">
<feFlood flood-opacity="0" result="BackgroundImageFix"/>
<feColorMatrix in="SourceAlpha" type="matrix" values="0 0 0 0 0 0 0 0 0 0 0 0 0 0 0 0 0 0 127 0" result="hardAlpha"/>
<feOffset dy="4"/>
<feGaussianBlur stdDeviation="2"/>
<feComposite in2="hardAlpha" operator="out"/>
<feColorMatrix type="matrix" values="0 0 0 0 0 0 0 0 0 0 0 0 0 0 0 0 0 0 0.25 0"/>
<feBlend mode="normal" in2="BackgroundImageFix" result="effect1_dropShadow_6_423"/>
<feBlend mode="normal" in="SourceGraphic" in2="effect1_dropShadow_6_423" result="shape"/>
</filter>
<filter id="filter4_d_6_423" x="51.9424" y="31.6582" width="10.4355" height="22.3672" filterUnits="userSpaceOnUse" color-interpolation-filters="sRGB">
<feFlood flood-opacity="0" result="BackgroundImageFix"/>
<feColorMatrix in="SourceAlpha" type="matrix" values="0 0 0 0 0 0 0 0 0 0 0 0 0 0 0 0 0 0 127 0" result="hardAlpha"/>
<feOffset dy="4"/>
<feGaussianBlur stdDeviation="2"/>
<feComposite in2="hardAlpha" operator="out"/>
<feColorMatrix type="matrix" values="0 0 0 0 0 0 0 0 0 0 0 0 0 0 0 0 0 0 0.25 0"/>
<feBlend mode="normal" in2="BackgroundImageFix" result="effect1_dropShadow_6_423"/>
<feBlend mode="normal" in="SourceGraphic" in2="effect1_dropShadow_6_423" result="shape"/>
</filter>
<filter id="filter5_d_6_423" x="49.9434" y="20.5156" width="21.4346" height="28.7637" filterUnits="userSpaceOnUse" color-interpolation-filters="sRGB">
<feFlood flood-opacity="0" result="BackgroundImageFix"/>
<feColorMatrix in="SourceAlpha" type="matrix" values="0 0 0 0 0 0 0 0 0 0 0 0 0 0 0 0 0 0 127 0" result="hardAlpha"/>
<feOffset dy="4"/>
<feGaussianBlur stdDeviation="2"/>
<feComposite in2="hardAlpha" operator="out"/>
<feColorMatrix type="matrix" values="0 0 0 0 0 0 0 0 0 0 0 0 0 0 0 0 0 0 0.25 0"/>
<feBlend mode="normal" in2="BackgroundImageFix" result="effect1_dropShadow_6_423"/>
<feBlend mode="normal" in="SourceGraphic" in2="effect1_dropShadow_6_423" result="shape"/>
</filter>
<filter id="filter6_d_6_423" x="60.9424" y="26.748" width="10.4355" height="22.3672" filterUnits="userSpaceOnUse" color-interpolation-filters="sRGB">
<feFlood flood-opacity="0" result="BackgroundImageFix"/>
<feColorMatrix in="SourceAlpha" type="matrix" values="0 0 0 0 0 0 0 0 0 0 0 0 0 0 0 0 0 0 127 0" result="hardAlpha"/>
<feOffset dy="4"/>
<feGaussianBlur stdDeviation="2"/>
<feComposite in2="hardAlpha" operator="out"/>
<feColorMatrix type="matrix" values="0 0 0 0 0 0 0 0 0 0 0 0 0 0 0 0 0 0 0.25 0"/>
<feBlend mode="normal" in2="BackgroundImageFix" result="effect1_dropShadow_6_423"/>
<feBlend mode="normal" in="SourceGraphic" in2="effect1_dropShadow_6_423" result="shape"/>
</filter>
<filter id="filter7_d_6_423" x="68.9424" y="21.748" width="10.4355" height="22.3672" filterUnits="userSpaceOnUse" color-interpolation-filters="sRGB">
<feFlood flood-opacity="0" result="BackgroundImageFix"/>
<feColorMatrix in="SourceAlpha" type="matrix" values="0 0 0 0 0 0 0 0 0 0 0 0 0 0 0 0 0 0 127 0" result="hardAlpha"/>
<feOffset dy="4"/>
<feGaussianBlur stdDeviation="2"/>
<feComposite in2="hardAlpha" operator="out"/>
<feColorMatrix type="matrix" values="0 0 0 0 0 0 0 0 0 0 0 0 0 0 0 0 0 0 0.25 0"/>
<feBlend mode="normal" in2="BackgroundImageFix" result="effect1_dropShadow_6_423"/>
<feBlend mode="normal" in="SourceGraphic" in2="effect1_dropShadow_6_423" result="shape"/>
</filter>
<linearGradient id="paint0_linear_6_423" x1="-16.7807" y1="30.375" x2="95.897" y2="41.3803" gradientUnits="userSpaceOnUse">
<stop stop-color="white" stop-opacity="0.4"/>
<stop offset="1" stop-color="#C4C4C4" stop-opacity="0"/>
</linearGradient>
</defs>
</svg>
