<svg width="80" height="73" viewBox="0 0 80 73" fill="none" xmlns="http://www.w3.org/2000/svg">
<path d="M39.8856 72.0596C61.3615 72.0596 78.7711 62.1632 78.7711 49.9553V43.4541H1V49.9553C1 62.1632 18.4097 72.0596 39.8856 72.0596Z" fill="#001034"/>
<path opacity="0.5" d="M39.8856 72.0596C61.3615 72.0596 78.7711 62.1632 78.7711 49.9553V43.4541H1V49.9553C1 62.1632 18.4097 72.0596 39.8856 72.0596Z" fill="url(#paint0_linear_6_282)" stroke="white" stroke-width="0.5"/>
<ellipse cx="39.8856" cy="44.348" rx="38.8856" ry="22.348" fill="#001034"/>
<ellipse opacity="0.5" cx="39.8856" cy="44.348" rx="38.8856" ry="22.348" fill="url(#paint1_linear_6_282)" stroke="white" stroke-width="0.5"/>
<g filter="url(#filter0_d_6_282)">
<rect width="3" height="19.666" transform="matrix(0.869633 0.493698 -2.24047e-08 1 10 22.6162)" fill="#007082"/>
<rect width="3" height="19.666" transform="matrix(0.869633 0.493698 -2.24047e-08 1 10 22.6162)" stroke="white" stroke-linejoin="bevel"/>
</g>
<g filter="url(#filter1_d_6_282)">
<rect width="35.8506" height="19.666" transform="matrix(0.869633 0.493698 -2.24047e-08 1 10 23)" fill="#033841"/>
<rect width="35.8506" height="19.666" transform="matrix(0.869633 0.493698 -2.24047e-08 1 10 23)" stroke="white" stroke-linejoin="bevel"/>
</g>
<path d="M24 41.5L15.5 26L36.5 38L24 41.5Z" fill="white" stroke="white"/>
<path d="M35.9805 7.86621L67.1574 25.5656L41.1766 40.3151L9.99971 22.6157L35.9805 7.86621Z" fill="#008686" stroke="white" stroke-linejoin="bevel"/>
<g filter="url(#filter2_d_6_282)">
<rect width="29.8755" height="19.666" transform="matrix(0.869633 -0.493698 2.24047e-08 1 41 40.3154)" fill="#005E5E"/>
<rect width="29.8755" height="19.666" transform="matrix(0.869633 -0.493698 2.24047e-08 1 41 40.3154)" stroke="white" stroke-linejoin="bevel"/>
</g>
<g filter="url(#filter3_d_6_282)">
<rect width="14.9378" height="12.7829" transform="matrix(0.869633 0.493698 -2.24047e-08 1 26 8.32422)" fill="#033841"/>
<rect width="14.9378" height="12.7829" transform="matrix(0.869633 0.493698 -2.24047e-08 1 26 8.32422)" stroke="white" stroke-linejoin="bevel"/>
</g>
<path d="M38.9902 1L51.9806 8.5L38.9902 16L25.9999 8.5L38.9902 1Z" fill="#008686" stroke="white" stroke-linejoin="bevel"/>
<g filter="url(#filter4_d_6_282)">
<rect width="14.9378" height="12.7829" transform="matrix(0.869633 -0.493698 2.24047e-08 1 39 15.6992)" fill="#005D5D"/>
<rect width="14.9378" height="12.7829" transform="matrix(0.869633 -0.493698 2.24047e-08 1 39 15.6992)" stroke="white" stroke-linejoin="bevel"/>
</g>
<g filter="url(#filter5_d_6_282)">
<rect width="5.74955" height="2.72917" transform="matrix(0.869633 0.493698 -2.24047e-08 1 22 30)" fill="#033841"/>
</g>
<g filter="url(#filter6_d_6_282)">
<rect width="2.29982" height="9.86458" transform="matrix(0.869633 0.493698 -2.24047e-08 1 23 34)" fill="#033841"/>
</g>
<ellipse cx="29.6182" cy="15.378" rx="0.735402" ry="1.60455" fill="white"/>
<ellipse cx="34.9825" cy="18.4034" rx="0.735402" ry="1.60455" fill="white"/>
<defs>
<filter id="filter0_d_6_282" x="5.56543" y="22.1162" width="11.4785" height="30.1475" filterUnits="userSpaceOnUse" color-interpolation-filters="sRGB">
<feFlood flood-opacity="0" result="BackgroundImageFix"/>
<feColorMatrix in="SourceAlpha" type="matrix" values="0 0 0 0 0 0 0 0 0 0 0 0 0 0 0 0 0 0 127 0" result="hardAlpha"/>
<feOffset dy="4"/>
<feGaussianBlur stdDeviation="2"/>
<feComposite in2="hardAlpha" operator="out"/>
<feColorMatrix type="matrix" values="0 0 0 0 0 0 0 0 0 0 0 0 0 0 0 0 0 0 0.25 0"/>
<feBlend mode="normal" in2="BackgroundImageFix" result="effect1_dropShadow_6_282"/>
<feBlend mode="normal" in="SourceGraphic" in2="effect1_dropShadow_6_282" result="shape"/>
</filter>
<filter id="filter1_d_6_282" x="5.56543" y="22.5" width="40.0459" height="46.3652" filterUnits="userSpaceOnUse" color-interpolation-filters="sRGB">
<feFlood flood-opacity="0" result="BackgroundImageFix"/>
<feColorMatrix in="SourceAlpha" type="matrix" values="0 0 0 0 0 0 0 0 0 0 0 0 0 0 0 0 0 0 127 0" result="hardAlpha"/>
<feOffset dy="4"/>
<feGaussianBlur stdDeviation="2"/>
<feComposite in2="hardAlpha" operator="out"/>
<feColorMatrix type="matrix" values="0 0 0 0 0 0 0 0 0 0 0 0 0 0 0 0 0 0 0.25 0"/>
<feBlend mode="normal" in2="BackgroundImageFix" result="effect1_dropShadow_6_282"/>
<feBlend mode="normal" in="SourceGraphic" in2="effect1_dropShadow_6_282" result="shape"/>
</filter>
<filter id="filter2_d_6_282" x="36.5654" y="25.0664" width="34.8506" height="43.415" filterUnits="userSpaceOnUse" color-interpolation-filters="sRGB">
<feFlood flood-opacity="0" result="BackgroundImageFix"/>
<feColorMatrix in="SourceAlpha" type="matrix" values="0 0 0 0 0 0 0 0 0 0 0 0 0 0 0 0 0 0 127 0" result="hardAlpha"/>
<feOffset dy="4"/>
<feGaussianBlur stdDeviation="2"/>
<feComposite in2="hardAlpha" operator="out"/>
<feColorMatrix type="matrix" values="0 0 0 0 0 0 0 0 0 0 0 0 0 0 0 0 0 0 0.25 0"/>
<feBlend mode="normal" in2="BackgroundImageFix" result="effect1_dropShadow_6_282"/>
<feBlend mode="normal" in="SourceGraphic" in2="effect1_dropShadow_6_282" result="shape"/>
</filter>
<filter id="filter3_d_6_282" x="21.5654" y="7.82422" width="21.8594" height="29.1572" filterUnits="userSpaceOnUse" color-interpolation-filters="sRGB">
<feFlood flood-opacity="0" result="BackgroundImageFix"/>
<feColorMatrix in="SourceAlpha" type="matrix" values="0 0 0 0 0 0 0 0 0 0 0 0 0 0 0 0 0 0 127 0" result="hardAlpha"/>
<feOffset dy="4"/>
<feGaussianBlur stdDeviation="2"/>
<feComposite in2="hardAlpha" operator="out"/>
<feColorMatrix type="matrix" values="0 0 0 0 0 0 0 0 0 0 0 0 0 0 0 0 0 0 0.25 0"/>
<feBlend mode="normal" in2="BackgroundImageFix" result="effect1_dropShadow_6_282"/>
<feBlend mode="normal" in="SourceGraphic" in2="effect1_dropShadow_6_282" result="shape"/>
</filter>
<filter id="filter4_d_6_282" x="34.5654" y="7.82422" width="21.8594" height="29.1582" filterUnits="userSpaceOnUse" color-interpolation-filters="sRGB">
<feFlood flood-opacity="0" result="BackgroundImageFix"/>
<feColorMatrix in="SourceAlpha" type="matrix" values="0 0 0 0 0 0 0 0 0 0 0 0 0 0 0 0 0 0 127 0" result="hardAlpha"/>
<feOffset dy="4"/>
<feGaussianBlur stdDeviation="2"/>
<feComposite in2="hardAlpha" operator="out"/>
<feColorMatrix type="matrix" values="0 0 0 0 0 0 0 0 0 0 0 0 0 0 0 0 0 0 0.25 0"/>
<feBlend mode="normal" in2="BackgroundImageFix" result="effect1_dropShadow_6_282"/>
<feBlend mode="normal" in="SourceGraphic" in2="effect1_dropShadow_6_282" result="shape"/>
</filter>
<filter id="filter5_d_6_282" x="18" y="30" width="13" height="13.5674" filterUnits="userSpaceOnUse" color-interpolation-filters="sRGB">
<feFlood flood-opacity="0" result="BackgroundImageFix"/>
<feColorMatrix in="SourceAlpha" type="matrix" values="0 0 0 0 0 0 0 0 0 0 0 0 0 0 0 0 0 0 127 0" result="hardAlpha"/>
<feOffset dy="4"/>
<feGaussianBlur stdDeviation="2"/>
<feComposite in2="hardAlpha" operator="out"/>
<feColorMatrix type="matrix" values="0 0 0 0 0 0 0 0 0 0 0 0 0 0 0 0 0 0 0.25 0"/>
<feBlend mode="normal" in2="BackgroundImageFix" result="effect1_dropShadow_6_282"/>
<feBlend mode="normal" in="SourceGraphic" in2="effect1_dropShadow_6_282" result="shape"/>
</filter>
<filter id="filter6_d_6_282" x="19" y="34" width="10" height="19" filterUnits="userSpaceOnUse" color-interpolation-filters="sRGB">
<feFlood flood-opacity="0" result="BackgroundImageFix"/>
<feColorMatrix in="SourceAlpha" type="matrix" values="0 0 0 0 0 0 0 0 0 0 0 0 0 0 0 0 0 0 127 0" result="hardAlpha"/>
<feOffset dy="4"/>
<feGaussianBlur stdDeviation="2"/>
<feComposite in2="hardAlpha" operator="out"/>
<feColorMatrix type="matrix" values="0 0 0 0 0 0 0 0 0 0 0 0 0 0 0 0 0 0 0.25 0"/>
<feBlend mode="normal" in2="BackgroundImageFix" result="effect1_dropShadow_6_282"/>
<feBlend mode="normal" in="SourceGraphic" in2="effect1_dropShadow_6_282" result="shape"/>
</filter>
<linearGradient id="paint0_linear_6_282" x1="-3.02264" y1="62.2264" x2="84.1346" y2="60.4386" gradientUnits="userSpaceOnUse">
<stop stop-color="#5C6061"/>
<stop offset="1" stop-color="#737389" stop-opacity="0"/>
</linearGradient>
<linearGradient id="paint1_linear_6_282" x1="-20.9011" y1="20.2122" x2="89.4982" y2="49.7116" gradientUnits="userSpaceOnUse">
<stop stop-color="#CFCFCF"/>
<stop offset="1" stop-color="#C4C4C4" stop-opacity="0"/>
</linearGradient>
</defs>
</svg>
