<svg width="82" height="78" viewBox="0 0 82 78" fill="none" xmlns="http://www.w3.org/2000/svg">
<path d="M42.6356 77.0342C64.1115 77.0342 81.5211 67.1378 81.5211 54.93V48.4287H3.75V54.93C3.75 67.1378 21.1597 77.0342 42.6356 77.0342Z" fill="#001034"/>
<path opacity="0.5" d="M42.6356 77.0342C64.1115 77.0342 81.5211 67.1378 81.5211 54.93V48.4287H3.75V54.93C3.75 67.1378 21.1597 77.0342 42.6356 77.0342Z" fill="url(#paint0_linear_6_330)" stroke="white" stroke-width="0.5"/>
<ellipse cx="42.6356" cy="49.3226" rx="38.8856" ry="22.348" fill="#001034"/>
<ellipse opacity="0.5" cx="42.6356" cy="49.3226" rx="38.8856" ry="22.348" fill="url(#paint1_linear_6_330)" stroke="white" stroke-width="0.5"/>
<path d="M63.1643 43.8609C63.1643 50.6325 60.8373 55.264 57.132 58.2161C53.4079 61.1832 48.2242 62.5072 42.4254 62.5072C36.6266 62.5072 31.4429 61.1832 27.7188 58.2161C24.0136 55.264 21.6865 50.6325 21.6865 43.8609C21.6865 30.2629 31.0446 19.3828 42.4254 19.3828C53.8062 19.3828 63.1643 30.2629 63.1643 43.8609Z" fill="url(#paint2_linear_6_330)" stroke="white"/>
<path d="M34.1659 36.9726L27.1787 27.2258L30.4738 23.6925L34.1659 21.5479H50.4129L56.0591 25.0602V33.3143L34.1659 36.9726Z" fill="white"/>
<g filter="url(#filter0_d_6_330)">
<circle cx="42.4878" cy="13.686" r="13.1118" fill="#016F80"/>
<circle cx="42.4878" cy="13.686" r="12.6118" stroke="white"/>
</g>
<path d="M43.9373 45.3188C41.5494 47.9858 39.0871 50.1062 37.0478 51.3825C36.0251 52.0225 35.1337 52.4344 34.4276 52.6081C33.7023 52.7864 33.3 52.6861 33.098 52.5053C32.8961 52.3244 32.7521 51.9356 32.8495 51.1951C32.9444 50.4741 33.2557 49.5428 33.7792 48.4559C34.8233 46.2885 36.6598 43.6078 39.0478 40.9408C41.4358 38.2738 43.898 36.1534 45.9373 34.8771C46.96 34.2372 47.8514 33.8252 48.5575 33.6516C49.2828 33.4732 49.6851 33.5736 49.8871 33.7544C50.089 33.9352 50.233 34.3241 50.1356 35.0646C50.0407 35.7855 49.7294 36.7168 49.2059 37.8037C48.1618 39.9711 46.3253 42.6518 43.9373 45.3188Z" fill="#007082" stroke="white"/>
<path d="M24.9004 34.7422L40.1808 43.5643L24.9004 52.3864L9.62003 43.5643L24.9004 34.7422Z" fill="#008686" stroke="white" stroke-linejoin="bevel"/>
<path d="M27.5283 38.126L33.8227 41.7601L29.545 44.2298L23.2506 40.5957L27.5283 38.126Z" fill="white" fill-opacity="0.5"/>
<path d="M19.3213 39.9307L31.6296 47.0369L25.1413 50.7829L12.833 43.6767L19.3213 39.9307Z" fill="white" fill-opacity="0.5"/>
<g filter="url(#filter1_d_6_330)">
<path d="M5.1748 30.8174L20.4552 39.4922L24.9117 52.033L9.63135 43.3582L5.1748 30.8174Z" fill="#033841"/>
<path d="M5.1748 30.8174L20.4552 39.4922L24.9117 52.033L9.63135 43.3582L5.1748 30.8174Z" stroke="white" stroke-linejoin="bevel"/>
</g>
<defs>
<filter id="filter0_d_6_330" x="25.376" y="0.574219" width="34.2236" height="34.2236" filterUnits="userSpaceOnUse" color-interpolation-filters="sRGB">
<feFlood flood-opacity="0" result="BackgroundImageFix"/>
<feColorMatrix in="SourceAlpha" type="matrix" values="0 0 0 0 0 0 0 0 0 0 0 0 0 0 0 0 0 0 127 0" result="hardAlpha"/>
<feOffset dy="4"/>
<feGaussianBlur stdDeviation="2"/>
<feComposite in2="hardAlpha" operator="out"/>
<feColorMatrix type="matrix" values="0 0 0 0 0 0 0 0 0 0 0 0 0 0 0 0 0 0 0.25 0"/>
<feBlend mode="normal" in2="BackgroundImageFix" result="effect1_dropShadow_6_330"/>
<feBlend mode="normal" in="SourceGraphic" in2="effect1_dropShadow_6_330" result="shape"/>
</filter>
<filter id="filter1_d_6_330" x="0.788086" y="30.3174" width="28.5107" height="30.2158" filterUnits="userSpaceOnUse" color-interpolation-filters="sRGB">
<feFlood flood-opacity="0" result="BackgroundImageFix"/>
<feColorMatrix in="SourceAlpha" type="matrix" values="0 0 0 0 0 0 0 0 0 0 0 0 0 0 0 0 0 0 127 0" result="hardAlpha"/>
<feOffset dy="4"/>
<feGaussianBlur stdDeviation="2"/>
<feComposite in2="hardAlpha" operator="out"/>
<feColorMatrix type="matrix" values="0 0 0 0 0 0 0 0 0 0 0 0 0 0 0 0 0 0 0.25 0"/>
<feBlend mode="normal" in2="BackgroundImageFix" result="effect1_dropShadow_6_330"/>
<feBlend mode="normal" in="SourceGraphic" in2="effect1_dropShadow_6_330" result="shape"/>
</filter>
<linearGradient id="paint0_linear_6_330" x1="-0.272644" y1="67.201" x2="86.8846" y2="65.4132" gradientUnits="userSpaceOnUse">
<stop stop-color="#5C6061"/>
<stop offset="1" stop-color="#737389" stop-opacity="0"/>
</linearGradient>
<linearGradient id="paint1_linear_6_330" x1="-18.1511" y1="25.1868" x2="92.2482" y2="54.6862" gradientUnits="userSpaceOnUse">
<stop stop-color="#CFCFCF"/>
<stop offset="1" stop-color="#C4C4C4" stop-opacity="0"/>
</linearGradient>
<linearGradient id="paint2_linear_6_330" x1="25.7813" y1="32.7605" x2="61.4019" y2="36.1549" gradientUnits="userSpaceOnUse">
<stop stop-color="#01CBCB"/>
<stop offset="0.383797" stop-color="#3FE3E3"/>
<stop offset="1" stop-color="#007082"/>
</linearGradient>
</defs>
</svg>
