<svg width="79" height="78" viewBox="0 0 79 78" fill="none" xmlns="http://www.w3.org/2000/svg">
<path d="M39.782 77.0342C61.2579 77.0342 78.6676 67.1378 78.6676 54.93V48.4287H0.896484V54.93C0.896484 67.1378 18.3061 77.0342 39.782 77.0342Z" fill="#001034"/>
<path opacity="0.5" d="M39.782 77.0342C61.2579 77.0342 78.6676 67.1378 78.6676 54.93V48.4287H0.896484V54.93C0.896484 67.1378 18.3061 77.0342 39.782 77.0342Z" fill="url(#paint0_linear_6_341)" stroke="white" stroke-width="0.5"/>
<ellipse cx="39.782" cy="49.3226" rx="38.8856" ry="22.348" fill="#001034"/>
<ellipse opacity="0.5" cx="39.782" cy="49.3226" rx="38.8856" ry="22.348" fill="url(#paint1_linear_6_341)" stroke="white" stroke-width="0.5"/>
<path d="M60.7838 43.8876C60.7838 50.6495 58.4601 55.2745 54.7602 58.2223C51.0415 61.1851 45.8651 62.5072 40.0745 62.5072C34.2839 62.5072 29.1076 61.1851 25.3889 58.2223C21.689 55.2745 19.3652 50.6495 19.3652 43.8876C19.3652 30.3088 28.7101 19.4443 40.0745 19.4443C51.439 19.4443 60.7838 30.3088 60.7838 43.8876Z" fill="url(#paint2_linear_6_341)" stroke="white"/>
<path d="M31.8251 37.0087L24.8477 27.2755L28.1381 23.7471L31.8251 21.6055H48.0495L53.6878 25.1129V33.3555L31.8251 37.0087Z" fill="white"/>
<path d="M25.8437 47.0209L24.9766 26.9071L28.2525 23.608L31.9232 21.6055H48.0758L53.6891 24.885V32.5921L25.8437 47.0209Z" fill="white"/>
<path d="M26.4486 45.6743L26.3164 38.3779L33.6337 27.7076L35.7442 29.5778L32.8147 42.501L26.4486 45.6743Z" fill="#033841"/>
<path d="M32.8147 27.2666L36.6593 29.3369L37.471 27.4023L34.0108 25.4678L32.8147 27.2666Z" fill="#033841"/>
<g filter="url(#filter0_d_6_341)">
<circle cx="40.1345" cy="13.7546" r="13.0935" fill="#033841"/>
<circle cx="40.1345" cy="13.7546" r="12.5935" stroke="white"/>
</g>
<defs>
<filter id="filter0_d_6_341" x="23.041" y="0.661133" width="34.1875" height="34.1875" filterUnits="userSpaceOnUse" color-interpolation-filters="sRGB">
<feFlood flood-opacity="0" result="BackgroundImageFix"/>
<feColorMatrix in="SourceAlpha" type="matrix" values="0 0 0 0 0 0 0 0 0 0 0 0 0 0 0 0 0 0 127 0" result="hardAlpha"/>
<feOffset dy="4"/>
<feGaussianBlur stdDeviation="2"/>
<feComposite in2="hardAlpha" operator="out"/>
<feColorMatrix type="matrix" values="0 0 0 0 0 0 0 0 0 0 0 0 0 0 0 0 0 0 0.25 0"/>
<feBlend mode="normal" in2="BackgroundImageFix" result="effect1_dropShadow_6_341"/>
<feBlend mode="normal" in="SourceGraphic" in2="effect1_dropShadow_6_341" result="shape"/>
</filter>
<linearGradient id="paint0_linear_6_341" x1="-3.12616" y1="67.201" x2="84.0311" y2="65.4132" gradientUnits="userSpaceOnUse">
<stop stop-color="#5C6061"/>
<stop offset="1" stop-color="#737389" stop-opacity="0"/>
</linearGradient>
<linearGradient id="paint1_linear_6_341" x1="-21.0046" y1="25.1868" x2="89.3947" y2="54.6862" gradientUnits="userSpaceOnUse">
<stop stop-color="#CFCFCF"/>
<stop offset="1" stop-color="#C4C4C4" stop-opacity="0"/>
</linearGradient>
<linearGradient id="paint2_linear_6_341" x1="23.4536" y1="32.8027" x2="59.0245" y2="36.1923" gradientUnits="userSpaceOnUse">
<stop stop-color="#0F7473"/>
<stop offset="0.383797" stop-color="#248E8D"/>
<stop offset="1" stop-color="#0A4B4A"/>
</linearGradient>
</defs>
</svg>
