<svg width="80" height="79" viewBox="0 0 80 79" fill="none" xmlns="http://www.w3.org/2000/svg">
<path d="M39.8856 78.0596C61.3615 78.0596 78.7711 68.1632 78.7711 55.9553V49.4541H1V55.9553C1 68.1632 18.4097 78.0596 39.8856 78.0596Z" fill="#001034"/>
<path opacity="0.5" d="M39.8856 78.0596C61.3615 78.0596 78.7711 68.1632 78.7711 55.9553V49.4541H1V55.9553C1 68.1632 18.4097 78.0596 39.8856 78.0596Z" fill="url(#paint0_linear_6_296)" stroke="white" stroke-width="0.5"/>
<ellipse cx="39.8856" cy="50.348" rx="38.8856" ry="22.348" fill="#001034"/>
<ellipse opacity="0.5" cx="39.8856" cy="50.348" rx="38.8856" ry="22.348" fill="url(#paint1_linear_6_296)" stroke="white" stroke-width="0.5"/>
<path d="M35.5898 27.5352L71.754 48.0659L41.1643 65.4319L5.00015 44.9012L35.5898 27.5352Z" fill="#018383" stroke="white" stroke-linejoin="bevel"/>
<g filter="url(#filter0_d_6_296)">
<rect width="35.8506" height="19.666" transform="matrix(0.869633 0.493698 -2.24047e-08 1 10 20.6162)" fill="#007082"/>
<rect width="35.8506" height="19.666" transform="matrix(0.869633 0.493698 -2.24047e-08 1 10 20.6162)" stroke="white" stroke-linejoin="bevel"/>
</g>
<g filter="url(#filter1_d_6_296)">
<rect width="41.3968" height="2.40104" transform="matrix(0.869633 0.493698 -2.24047e-08 1 5 45.1621)" fill="#033841"/>
<rect width="41.3968" height="2.40104" transform="matrix(0.869633 0.493698 -2.24047e-08 1 5 45.1621)" stroke="white" stroke-linejoin="bevel"/>
</g>
<g filter="url(#filter2_d_6_296)">
<rect width="16.0987" height="9.68088" transform="matrix(0.869633 0.493698 -2.24047e-08 1 23 31.1689)" fill="white"/>
<rect width="16.0987" height="9.68088" transform="matrix(0.869633 0.493698 -2.24047e-08 1 23 31.1689)" stroke="white" stroke-linejoin="bevel"/>
</g>
<path d="M26.7659 34.5937L27.68 35.1126L29.8294 42.3698L29.9035 42.4119L32.0528 37.5952L32.9669 38.1141L32.9669 45.3868L32.2505 44.9801L32.2505 39.4545L32.1887 39.4195L30.2123 43.823L29.5205 43.4303L27.5441 36.7827L27.4823 36.7476L27.4823 42.2732L26.7659 41.8664L26.7659 34.5937Z" fill="#026979"/>
<path d="M35.9805 5.86621L67.1574 23.5656L41.1766 38.3151L9.99971 20.6157L35.9805 5.86621Z" fill="#C5FFEF" stroke="white" stroke-linejoin="bevel"/>
<g filter="url(#filter3_d_6_296)">
<rect width="29.8755" height="19.666" transform="matrix(0.869633 -0.493698 2.24047e-08 1 41 38.3154)" fill="#00CCCC"/>
<rect width="29.8755" height="19.666" transform="matrix(0.869633 -0.493698 2.24047e-08 1 41 38.3154)" stroke="white" stroke-linejoin="bevel"/>
</g>
<g filter="url(#filter4_d_6_296)">
<rect width="35.6472" height="2.23057" transform="matrix(0.869633 -0.493698 2.24047e-08 1 41 65.7607)" fill="#005D5D"/>
<rect width="35.6472" height="2.23057" transform="matrix(0.869633 -0.493698 2.24047e-08 1 41 65.7607)" stroke="white" stroke-linejoin="bevel"/>
</g>
<g filter="url(#filter5_d_6_296)">
<rect width="14.9378" height="12.7829" transform="matrix(0.869633 0.493698 -2.24047e-08 1 25 8.32422)" fill="#007082"/>
<rect width="14.9378" height="12.7829" transform="matrix(0.869633 0.493698 -2.24047e-08 1 25 8.32422)" stroke="white" stroke-linejoin="bevel"/>
</g>
<path d="M37.9902 1L50.9806 8.5L37.9902 16L24.9999 8.5L37.9902 1Z" fill="#C5FFEF" stroke="white" stroke-linejoin="bevel"/>
<g filter="url(#filter6_d_6_296)">
<rect width="14.9378" height="12.7829" transform="matrix(0.869633 -0.493698 2.24047e-08 1 38 15.6992)" fill="#00CCCC"/>
<rect width="14.9378" height="12.7829" transform="matrix(0.869633 -0.493698 2.24047e-08 1 38 15.6992)" stroke="white" stroke-linejoin="bevel"/>
</g>
<ellipse cx="28.8126" cy="15.6094" rx="0.735402" ry="1.60455" fill="white"/>
<ellipse cx="34.1778" cy="18.6358" rx="0.735402" ry="1.60455" fill="white"/>
<defs>
<filter id="filter0_d_6_296" x="5.56543" y="20.1162" width="40.0459" height="46.3652" filterUnits="userSpaceOnUse" color-interpolation-filters="sRGB">
<feFlood flood-opacity="0" result="BackgroundImageFix"/>
<feColorMatrix in="SourceAlpha" type="matrix" values="0 0 0 0 0 0 0 0 0 0 0 0 0 0 0 0 0 0 127 0" result="hardAlpha"/>
<feOffset dy="4"/>
<feGaussianBlur stdDeviation="2"/>
<feComposite in2="hardAlpha" operator="out"/>
<feColorMatrix type="matrix" values="0 0 0 0 0 0 0 0 0 0 0 0 0 0 0 0 0 0 0.25 0"/>
<feBlend mode="normal" in2="BackgroundImageFix" result="effect1_dropShadow_6_296"/>
<feBlend mode="normal" in="SourceGraphic" in2="effect1_dropShadow_6_296" result="shape"/>
</filter>
<filter id="filter1_d_6_296" x="0.56543" y="44.6621" width="44.8691" height="31.8389" filterUnits="userSpaceOnUse" color-interpolation-filters="sRGB">
<feFlood flood-opacity="0" result="BackgroundImageFix"/>
<feColorMatrix in="SourceAlpha" type="matrix" values="0 0 0 0 0 0 0 0 0 0 0 0 0 0 0 0 0 0 127 0" result="hardAlpha"/>
<feOffset dy="4"/>
<feGaussianBlur stdDeviation="2"/>
<feComposite in2="hardAlpha" operator="out"/>
<feColorMatrix type="matrix" values="0 0 0 0 0 0 0 0 0 0 0 0 0 0 0 0 0 0 0.25 0"/>
<feBlend mode="normal" in2="BackgroundImageFix" result="effect1_dropShadow_6_296"/>
<feBlend mode="normal" in="SourceGraphic" in2="effect1_dropShadow_6_296" result="shape"/>
</filter>
<filter id="filter2_d_6_296" x="18.5654" y="30.6689" width="22.8691" height="26.6289" filterUnits="userSpaceOnUse" color-interpolation-filters="sRGB">
<feFlood flood-opacity="0" result="BackgroundImageFix"/>
<feColorMatrix in="SourceAlpha" type="matrix" values="0 0 0 0 0 0 0 0 0 0 0 0 0 0 0 0 0 0 127 0" result="hardAlpha"/>
<feOffset dy="4"/>
<feGaussianBlur stdDeviation="2"/>
<feComposite in2="hardAlpha" operator="out"/>
<feColorMatrix type="matrix" values="0 0 0 0 0 0 0 0 0 0 0 0 0 0 0 0 0 0 0.25 0"/>
<feBlend mode="normal" in2="BackgroundImageFix" result="effect1_dropShadow_6_296"/>
<feBlend mode="normal" in="SourceGraphic" in2="effect1_dropShadow_6_296" result="shape"/>
</filter>
<filter id="filter3_d_6_296" x="36.5654" y="23.0664" width="34.8506" height="43.415" filterUnits="userSpaceOnUse" color-interpolation-filters="sRGB">
<feFlood flood-opacity="0" result="BackgroundImageFix"/>
<feColorMatrix in="SourceAlpha" type="matrix" values="0 0 0 0 0 0 0 0 0 0 0 0 0 0 0 0 0 0 127 0" result="hardAlpha"/>
<feOffset dy="4"/>
<feGaussianBlur stdDeviation="2"/>
<feComposite in2="hardAlpha" operator="out"/>
<feColorMatrix type="matrix" values="0 0 0 0 0 0 0 0 0 0 0 0 0 0 0 0 0 0 0.25 0"/>
<feBlend mode="normal" in2="BackgroundImageFix" result="effect1_dropShadow_6_296"/>
<feBlend mode="normal" in="SourceGraphic" in2="effect1_dropShadow_6_296" result="shape"/>
</filter>
<filter id="filter4_d_6_296" x="36.5654" y="47.6621" width="39.8691" height="28.8291" filterUnits="userSpaceOnUse" color-interpolation-filters="sRGB">
<feFlood flood-opacity="0" result="BackgroundImageFix"/>
<feColorMatrix in="SourceAlpha" type="matrix" values="0 0 0 0 0 0 0 0 0 0 0 0 0 0 0 0 0 0 127 0" result="hardAlpha"/>
<feOffset dy="4"/>
<feGaussianBlur stdDeviation="2"/>
<feComposite in2="hardAlpha" operator="out"/>
<feColorMatrix type="matrix" values="0 0 0 0 0 0 0 0 0 0 0 0 0 0 0 0 0 0 0.25 0"/>
<feBlend mode="normal" in2="BackgroundImageFix" result="effect1_dropShadow_6_296"/>
<feBlend mode="normal" in="SourceGraphic" in2="effect1_dropShadow_6_296" result="shape"/>
</filter>
<filter id="filter5_d_6_296" x="20.5654" y="7.82422" width="21.8594" height="29.1572" filterUnits="userSpaceOnUse" color-interpolation-filters="sRGB">
<feFlood flood-opacity="0" result="BackgroundImageFix"/>
<feColorMatrix in="SourceAlpha" type="matrix" values="0 0 0 0 0 0 0 0 0 0 0 0 0 0 0 0 0 0 127 0" result="hardAlpha"/>
<feOffset dy="4"/>
<feGaussianBlur stdDeviation="2"/>
<feComposite in2="hardAlpha" operator="out"/>
<feColorMatrix type="matrix" values="0 0 0 0 0 0 0 0 0 0 0 0 0 0 0 0 0 0 0.25 0"/>
<feBlend mode="normal" in2="BackgroundImageFix" result="effect1_dropShadow_6_296"/>
<feBlend mode="normal" in="SourceGraphic" in2="effect1_dropShadow_6_296" result="shape"/>
</filter>
<filter id="filter6_d_6_296" x="33.5654" y="7.82422" width="21.8594" height="29.1582" filterUnits="userSpaceOnUse" color-interpolation-filters="sRGB">
<feFlood flood-opacity="0" result="BackgroundImageFix"/>
<feColorMatrix in="SourceAlpha" type="matrix" values="0 0 0 0 0 0 0 0 0 0 0 0 0 0 0 0 0 0 127 0" result="hardAlpha"/>
<feOffset dy="4"/>
<feGaussianBlur stdDeviation="2"/>
<feComposite in2="hardAlpha" operator="out"/>
<feColorMatrix type="matrix" values="0 0 0 0 0 0 0 0 0 0 0 0 0 0 0 0 0 0 0.25 0"/>
<feBlend mode="normal" in2="BackgroundImageFix" result="effect1_dropShadow_6_296"/>
<feBlend mode="normal" in="SourceGraphic" in2="effect1_dropShadow_6_296" result="shape"/>
</filter>
<linearGradient id="paint0_linear_6_296" x1="-3.02264" y1="68.2264" x2="84.1346" y2="66.4386" gradientUnits="userSpaceOnUse">
<stop stop-color="#5C6061"/>
<stop offset="1" stop-color="#737389" stop-opacity="0"/>
</linearGradient>
<linearGradient id="paint1_linear_6_296" x1="-20.9011" y1="26.2122" x2="89.4982" y2="55.7116" gradientUnits="userSpaceOnUse">
<stop stop-color="#CFCFCF"/>
<stop offset="1" stop-color="#C4C4C4" stop-opacity="0"/>
</linearGradient>
</defs>
</svg>
