<svg width="79" height="77" viewBox="0 0 79 77" fill="none" xmlns="http://www.w3.org/2000/svg">
<path d="M39.4637 76.0596C60.9396 76.0596 78.3492 66.1632 78.3492 53.9553V47.4541H0.578125V53.9553C0.578125 66.1632 17.9878 76.0596 39.4637 76.0596Z" fill="#001034"/>
<path opacity="0.5" d="M39.4637 76.0596C60.9396 76.0596 78.3492 66.1632 78.3492 53.9553V47.4541H0.578125V53.9553C0.578125 66.1632 17.9878 76.0596 39.4637 76.0596Z" fill="url(#paint0_linear_6_268)" stroke="white" stroke-width="0.5"/>
<ellipse cx="39.4637" cy="48.348" rx="38.8856" ry="22.348" fill="#001034"/>
<ellipse opacity="0.5" cx="39.4637" cy="48.348" rx="38.8856" ry="22.348" fill="url(#paint1_linear_6_268)" stroke="white" stroke-width="0.5"/>
<g filter="url(#filter0_d_6_268)">
<rect width="35.8506" height="19.666" transform="matrix(0.869633 0.493698 -2.24047e-08 1 9 27.0498)" fill="#007082"/>
<rect width="35.8506" height="19.666" transform="matrix(0.869633 0.493698 -2.24047e-08 1 9 27.0498)" stroke="white" stroke-linejoin="bevel"/>
</g>
<path d="M34.9805 12.3008L66.1574 30.0002L40.1766 44.7497L8.99971 27.0503L34.9805 12.3008Z" fill="#C5FFEF" stroke="white" stroke-linejoin="bevel"/>
<g filter="url(#filter1_d_6_268)">
<rect width="29.8755" height="19.666" transform="matrix(0.869633 -0.493698 2.24047e-08 1 40 44.75)" fill="#00CCCC"/>
<rect width="29.8755" height="19.666" transform="matrix(0.869633 -0.493698 2.24047e-08 1 40 44.75)" stroke="white" stroke-linejoin="bevel"/>
</g>
<g filter="url(#filter2_d_6_268)">
<rect width="5.74955" height="21.1743" transform="matrix(0.869633 -0.493698 2.24047e-08 1 53 42.2725)" fill="#00CCCC"/>
<rect width="5.74955" height="21.1743" transform="matrix(0.869633 -0.493698 2.24047e-08 1 53 42.2725)" stroke="white" stroke-linejoin="bevel"/>
</g>
<g filter="url(#filter3_d_6_268)">
<rect width="14.9378" height="12.7829" transform="matrix(0.869633 0.493698 -2.24047e-08 1 24 14.7588)" fill="#007082"/>
<rect width="14.9378" height="12.7829" transform="matrix(0.869633 0.493698 -2.24047e-08 1 24 14.7588)" stroke="white" stroke-linejoin="bevel"/>
</g>
<path d="M36.9902 7.43359L49.9806 14.9336L36.9902 22.4336L23.9999 14.9336L36.9902 7.43359Z" fill="#C5FFEF" stroke="white" stroke-linejoin="bevel"/>
<g filter="url(#filter4_d_6_268)">
<rect width="14.9378" height="12.7829" transform="matrix(0.869633 -0.493698 2.24047e-08 1 37 22.1338)" fill="#00CCCC"/>
<rect width="14.9378" height="12.7829" transform="matrix(0.869633 -0.493698 2.24047e-08 1 37 22.1338)" stroke="white" stroke-linejoin="bevel"/>
</g>
<path d="M50 14.2078C50 18.0137 43.9703 20.3028 38.5149 22.5346C35.0693 23.9441 31.5513 25.1187 28.7525 24.5445C25.6228 23.9024 21 21.9603 21 18.8019C21.8614 14.2078 30.4752 2.14844 38.5149 2.14844C46.5545 2.14844 50 10.402 50 14.2078Z" fill="#FEB30C" stroke="white"/>
<path d="M49.4255 13.0594C49.4255 16.8652 44.0263 19.9505 37.366 19.9505C30.7058 19.9505 25.3066 16.8652 25.3066 13.0594C25.3066 9.25356 29.9007 1 37.9403 1C45.9799 1 49.4255 9.25356 49.4255 13.0594Z" fill="#FED027" stroke="white"/>
<path d="M56.041 38.4336L58.0002 39.5459L52.9593 42.4076L51.0001 41.2954L56.041 38.4336Z" fill="#C5FFEF" stroke="white" stroke-linejoin="bevel"/>
<g filter="url(#filter5_d_6_268)">
<rect width="2.29982" height="20.8774" transform="matrix(0.869633 0.493698 -2.24047e-08 1 51 41.4336)" fill="#007082"/>
<rect width="2.29982" height="20.8774" transform="matrix(0.869633 0.493698 -2.24047e-08 1 51 41.4336)" stroke="white" stroke-linejoin="bevel"/>
</g>
<defs>
<filter id="filter0_d_6_268" x="4.56543" y="26.5498" width="40.0459" height="46.3652" filterUnits="userSpaceOnUse" color-interpolation-filters="sRGB">
<feFlood flood-opacity="0" result="BackgroundImageFix"/>
<feColorMatrix in="SourceAlpha" type="matrix" values="0 0 0 0 0 0 0 0 0 0 0 0 0 0 0 0 0 0 127 0" result="hardAlpha"/>
<feOffset dy="4"/>
<feGaussianBlur stdDeviation="2"/>
<feComposite in2="hardAlpha" operator="out"/>
<feColorMatrix type="matrix" values="0 0 0 0 0 0 0 0 0 0 0 0 0 0 0 0 0 0 0.25 0"/>
<feBlend mode="normal" in2="BackgroundImageFix" result="effect1_dropShadow_6_268"/>
<feBlend mode="normal" in="SourceGraphic" in2="effect1_dropShadow_6_268" result="shape"/>
</filter>
<filter id="filter1_d_6_268" x="35.5654" y="29.501" width="34.8506" height="43.415" filterUnits="userSpaceOnUse" color-interpolation-filters="sRGB">
<feFlood flood-opacity="0" result="BackgroundImageFix"/>
<feColorMatrix in="SourceAlpha" type="matrix" values="0 0 0 0 0 0 0 0 0 0 0 0 0 0 0 0 0 0 127 0" result="hardAlpha"/>
<feOffset dy="4"/>
<feGaussianBlur stdDeviation="2"/>
<feComposite in2="hardAlpha" operator="out"/>
<feColorMatrix type="matrix" values="0 0 0 0 0 0 0 0 0 0 0 0 0 0 0 0 0 0 0.25 0"/>
<feBlend mode="normal" in2="BackgroundImageFix" result="effect1_dropShadow_6_268"/>
<feBlend mode="normal" in="SourceGraphic" in2="effect1_dropShadow_6_268" result="shape"/>
</filter>
<filter id="filter2_d_6_268" x="48.5654" y="38.9336" width="13.8691" height="33.0127" filterUnits="userSpaceOnUse" color-interpolation-filters="sRGB">
<feFlood flood-opacity="0" result="BackgroundImageFix"/>
<feColorMatrix in="SourceAlpha" type="matrix" values="0 0 0 0 0 0 0 0 0 0 0 0 0 0 0 0 0 0 127 0" result="hardAlpha"/>
<feOffset dy="4"/>
<feGaussianBlur stdDeviation="2"/>
<feComposite in2="hardAlpha" operator="out"/>
<feColorMatrix type="matrix" values="0 0 0 0 0 0 0 0 0 0 0 0 0 0 0 0 0 0 0.25 0"/>
<feBlend mode="normal" in2="BackgroundImageFix" result="effect1_dropShadow_6_268"/>
<feBlend mode="normal" in="SourceGraphic" in2="effect1_dropShadow_6_268" result="shape"/>
</filter>
<filter id="filter3_d_6_268" x="19.5654" y="14.2588" width="21.8594" height="29.1572" filterUnits="userSpaceOnUse" color-interpolation-filters="sRGB">
<feFlood flood-opacity="0" result="BackgroundImageFix"/>
<feColorMatrix in="SourceAlpha" type="matrix" values="0 0 0 0 0 0 0 0 0 0 0 0 0 0 0 0 0 0 127 0" result="hardAlpha"/>
<feOffset dy="4"/>
<feGaussianBlur stdDeviation="2"/>
<feComposite in2="hardAlpha" operator="out"/>
<feColorMatrix type="matrix" values="0 0 0 0 0 0 0 0 0 0 0 0 0 0 0 0 0 0 0.25 0"/>
<feBlend mode="normal" in2="BackgroundImageFix" result="effect1_dropShadow_6_268"/>
<feBlend mode="normal" in="SourceGraphic" in2="effect1_dropShadow_6_268" result="shape"/>
</filter>
<filter id="filter4_d_6_268" x="32.5654" y="14.2588" width="21.8594" height="29.1582" filterUnits="userSpaceOnUse" color-interpolation-filters="sRGB">
<feFlood flood-opacity="0" result="BackgroundImageFix"/>
<feColorMatrix in="SourceAlpha" type="matrix" values="0 0 0 0 0 0 0 0 0 0 0 0 0 0 0 0 0 0 127 0" result="hardAlpha"/>
<feOffset dy="4"/>
<feGaussianBlur stdDeviation="2"/>
<feComposite in2="hardAlpha" operator="out"/>
<feColorMatrix type="matrix" values="0 0 0 0 0 0 0 0 0 0 0 0 0 0 0 0 0 0 0.25 0"/>
<feBlend mode="normal" in2="BackgroundImageFix" result="effect1_dropShadow_6_268"/>
<feBlend mode="normal" in="SourceGraphic" in2="effect1_dropShadow_6_268" result="shape"/>
</filter>
<filter id="filter5_d_6_268" x="46.5654" y="40.9336" width="10.8691" height="31.0127" filterUnits="userSpaceOnUse" color-interpolation-filters="sRGB">
<feFlood flood-opacity="0" result="BackgroundImageFix"/>
<feColorMatrix in="SourceAlpha" type="matrix" values="0 0 0 0 0 0 0 0 0 0 0 0 0 0 0 0 0 0 127 0" result="hardAlpha"/>
<feOffset dy="4"/>
<feGaussianBlur stdDeviation="2"/>
<feComposite in2="hardAlpha" operator="out"/>
<feColorMatrix type="matrix" values="0 0 0 0 0 0 0 0 0 0 0 0 0 0 0 0 0 0 0.25 0"/>
<feBlend mode="normal" in2="BackgroundImageFix" result="effect1_dropShadow_6_268"/>
<feBlend mode="normal" in="SourceGraphic" in2="effect1_dropShadow_6_268" result="shape"/>
</filter>
<linearGradient id="paint0_linear_6_268" x1="-3.44452" y1="66.2264" x2="83.7128" y2="64.4386" gradientUnits="userSpaceOnUse">
<stop stop-color="#5C6061"/>
<stop offset="1" stop-color="#737389" stop-opacity="0"/>
</linearGradient>
<linearGradient id="paint1_linear_6_268" x1="-21.3229" y1="24.2122" x2="89.0763" y2="53.7116" gradientUnits="userSpaceOnUse">
<stop stop-color="#CFCFCF"/>
<stop offset="1" stop-color="#C4C4C4" stop-opacity="0"/>
</linearGradient>
</defs>
</svg>
