<svg width="89" height="105" viewBox="0 0 89 105" fill="none" xmlns="http://www.w3.org/2000/svg">
<path d="M13.3289 55.3088L56.6051 48.709L88.3748 66.752V72.6991L76.8686 97.2153L33.4318 103.851L1.75018 85.863L1.75 79.8425L13.3289 55.3088Z" fill="#001034"/>
<path d="M1.86914 85.7109V79.7109L33.3691 97.7109V103.711L1.86914 85.7109Z" fill="#737389" fill-opacity="0.7" stroke="white" stroke-opacity="0.5" stroke-width="0.5" stroke-linejoin="round"/>
<path d="M13.3259 55.3008L56.6189 48.7109L88.3797 66.7493L76.8628 91.2667L33.4316 97.8516L1.75 79.8634L13.3259 55.3008Z" fill="url(#paint0_linear_6_195)" stroke="white" stroke-opacity="0.5" stroke-width="0.5"/>
<path d="M76.8691 91.2109L33.3691 97.7109V103.711L76.8691 97.2109V91.2109Z" fill="#4A5368" fill-opacity="0.7" stroke="white" stroke-opacity="0.5" stroke-width="0.5" stroke-linejoin="round"/>
<path d="M88.3691 66.7109L76.8691 91.2109V97.2109L88.3691 72.7109V66.7109Z" fill="#202D49" stroke="white" stroke-opacity="0.5" stroke-width="0.5" stroke-linejoin="round"/>
<g filter="url(#filter0_d_6_195)">
<rect width="31.3263" height="24.6021" transform="matrix(0.869633 0.493698 -2.24047e-08 1 18.2275 47.873)" fill="#0D73B0"/>
<rect width="31.3263" height="24.6021" transform="matrix(0.869633 0.493698 -2.24047e-08 1 18.2275 47.873)" stroke="white" stroke-linejoin="bevel"/>
</g>
<g filter="url(#filter1_d_6_195)">
<path d="M18.2272 47.9265L45.4697 63.3923L38.7424 74.9655L11.5 59.4998L18.2272 47.9265Z" fill="#0D73B0"/>
<path d="M18.2272 47.9265L45.4697 63.3923L38.7424 74.9655L11.5 59.4998L18.2272 47.9265Z" stroke="white" stroke-linejoin="bevel"/>
</g>
<g filter="url(#filter2_d_6_195)">
<rect width="31.3263" height="24.2094" transform="matrix(0.869633 -0.493698 2.24047e-08 1 45.4697 63.6816)" fill="#14B2D3"/>
<rect width="31.3263" height="24.2094" transform="matrix(0.869633 -0.493698 2.24047e-08 1 45.4697 63.6816)" stroke="white" stroke-linejoin="bevel"/>
</g>
<g filter="url(#filter3_d_6_195)">
<path d="M45.4697 63.3926L72.7122 47.9268L79 59.5L51.7576 74.9658L45.4697 63.3926Z" fill="#14B2D3"/>
<path d="M45.4697 63.3926L72.7122 47.9268L79 59.5L51.7576 74.9658L45.4697 63.3926Z" stroke="white" stroke-linejoin="bevel"/>
</g>
<path d="M45.7178 32.4834L73.2706 48.1254L45.7805 63.7317L18.2277 48.0898L45.7178 32.4834Z" fill="url(#paint1_linear_6_195)" stroke="white" stroke-linejoin="bevel"/>
<path d="M73 48.5L78.5 0H13L18 48.5L46 64L73 48.5Z" fill="url(#paint2_linear_6_195)" fill-opacity="0.4"/>
<circle cx="45" cy="41.5" r="16" fill="url(#paint3_linear_6_195)"/>
<path d="M35.4004 41.4996L43.4004 49.4996L55.6671 35.0996" stroke="white" stroke-width="2" stroke-linejoin="round"/>
<defs>
<filter id="filter0_d_6_195" x="13.793" y="47.373" width="36.1113" height="49.0674" filterUnits="userSpaceOnUse" color-interpolation-filters="sRGB">
<feFlood flood-opacity="0" result="BackgroundImageFix"/>
<feColorMatrix in="SourceAlpha" type="matrix" values="0 0 0 0 0 0 0 0 0 0 0 0 0 0 0 0 0 0 127 0" result="hardAlpha"/>
<feOffset dy="4"/>
<feGaussianBlur stdDeviation="2"/>
<feComposite in2="hardAlpha" operator="out"/>
<feColorMatrix type="matrix" values="0 0 0 0 0 0 0 0 0 0 0 0 0 0 0 0 0 0 0.25 0"/>
<feBlend mode="normal" in2="BackgroundImageFix" result="effect1_dropShadow_6_195"/>
<feBlend mode="normal" in="SourceGraphic" in2="effect1_dropShadow_6_195" result="shape"/>
</filter>
<filter id="filter1_d_6_195" x="7.11133" y="47.4268" width="42.7471" height="36.0391" filterUnits="userSpaceOnUse" color-interpolation-filters="sRGB">
<feFlood flood-opacity="0" result="BackgroundImageFix"/>
<feColorMatrix in="SourceAlpha" type="matrix" values="0 0 0 0 0 0 0 0 0 0 0 0 0 0 0 0 0 0 127 0" result="hardAlpha"/>
<feOffset dy="4"/>
<feGaussianBlur stdDeviation="2"/>
<feComposite in2="hardAlpha" operator="out"/>
<feColorMatrix type="matrix" values="0 0 0 0 0 0 0 0 0 0 0 0 0 0 0 0 0 0 0.25 0"/>
<feBlend mode="normal" in2="BackgroundImageFix" result="effect1_dropShadow_6_195"/>
<feBlend mode="normal" in="SourceGraphic" in2="effect1_dropShadow_6_195" result="shape"/>
</filter>
<filter id="filter2_d_6_195" x="41.0352" y="47.7158" width="36.1113" height="48.6748" filterUnits="userSpaceOnUse" color-interpolation-filters="sRGB">
<feFlood flood-opacity="0" result="BackgroundImageFix"/>
<feColorMatrix in="SourceAlpha" type="matrix" values="0 0 0 0 0 0 0 0 0 0 0 0 0 0 0 0 0 0 127 0" result="hardAlpha"/>
<feOffset dy="4"/>
<feGaussianBlur stdDeviation="2"/>
<feComposite in2="hardAlpha" operator="out"/>
<feColorMatrix type="matrix" values="0 0 0 0 0 0 0 0 0 0 0 0 0 0 0 0 0 0 0.25 0"/>
<feBlend mode="normal" in2="BackgroundImageFix" result="effect1_dropShadow_6_195"/>
<feBlend mode="normal" in="SourceGraphic" in2="effect1_dropShadow_6_195" result="shape"/>
</filter>
<filter id="filter3_d_6_195" x="41.0771" y="47.4268" width="42.3154" height="36.0391" filterUnits="userSpaceOnUse" color-interpolation-filters="sRGB">
<feFlood flood-opacity="0" result="BackgroundImageFix"/>
<feColorMatrix in="SourceAlpha" type="matrix" values="0 0 0 0 0 0 0 0 0 0 0 0 0 0 0 0 0 0 127 0" result="hardAlpha"/>
<feOffset dy="4"/>
<feGaussianBlur stdDeviation="2"/>
<feComposite in2="hardAlpha" operator="out"/>
<feColorMatrix type="matrix" values="0 0 0 0 0 0 0 0 0 0 0 0 0 0 0 0 0 0 0.25 0"/>
<feBlend mode="normal" in2="BackgroundImageFix" result="effect1_dropShadow_6_195"/>
<feBlend mode="normal" in="SourceGraphic" in2="effect1_dropShadow_6_195" result="shape"/>
</filter>
<linearGradient id="paint0_linear_6_195" x1="-18.0307" y1="73.2813" x2="94.647" y2="84.2866" gradientUnits="userSpaceOnUse">
<stop stop-color="white" stop-opacity="0.4"/>
<stop offset="1" stop-color="#C4C4C4" stop-opacity="0"/>
</linearGradient>
<linearGradient id="paint1_linear_6_195" x1="45.5086" y1="22.372" x2="38.0471" y2="71.6214" gradientUnits="userSpaceOnUse">
<stop stop-color="#0D73B0"/>
<stop offset="1" stop-color="#001034"/>
</linearGradient>
<linearGradient id="paint2_linear_6_195" x1="46" y1="64.5" x2="46" y2="6.5" gradientUnits="userSpaceOnUse">
<stop stop-color="#A6F8C7"/>
<stop offset="0.466889" stop-color="#B7FCD9" stop-opacity="0.458333"/>
<stop offset="1" stop-color="#C5FFE9" stop-opacity="0"/>
</linearGradient>
<linearGradient id="paint3_linear_6_195" x1="41" y1="29.5" x2="46" y2="65" gradientUnits="userSpaceOnUse">
<stop stop-color="#01D65A"/>
<stop offset="1" stop-color="#108641"/>
</linearGradient>
</defs>
</svg>
