<svg width="89" height="107" viewBox="0 0 89 107" fill="none" xmlns="http://www.w3.org/2000/svg">
<path d="M13.491 57.3088L56.7672 50.709L88.5369 68.752V74.6991L77.0308 99.2153L33.5939 105.851L1.91229 87.863L1.91211 81.8425L13.491 57.3088Z" fill="#001034"/>
<path d="M2.03125 87.7109V81.7109L33.5312 99.7109V105.711L2.03125 87.7109Z" fill="#737389" fill-opacity="0.7" stroke="white" stroke-opacity="0.5" stroke-width="0.5" stroke-linejoin="round"/>
<path d="M13.488 57.3008L56.781 50.7109L88.5418 68.7493L77.0249 93.2667L33.5938 99.8516L1.91211 81.8634L13.488 57.3008Z" fill="url(#paint0_linear_6_206)" stroke="white" stroke-opacity="0.5" stroke-width="0.5"/>
<path d="M77.0312 93.2109L33.5312 99.7109V105.711L77.0312 99.2109V93.2109Z" fill="#4A5368" fill-opacity="0.7" stroke="white" stroke-opacity="0.5" stroke-width="0.5" stroke-linejoin="round"/>
<path d="M88.5312 68.7109L77.0312 93.2109V99.2109L88.5312 74.7109V68.7109Z" fill="#202D49" stroke="white" stroke-opacity="0.5" stroke-width="0.5" stroke-linejoin="round"/>
<g filter="url(#filter0_d_6_206)">
<rect width="31.3263" height="24.6021" transform="matrix(0.869633 0.493698 -2.24047e-08 1 18.2266 48.4795)" fill="#0D73B0"/>
<rect width="31.3263" height="24.6021" transform="matrix(0.869633 0.493698 -2.24047e-08 1 18.2266 48.4795)" stroke="white" stroke-linejoin="bevel"/>
</g>
<g filter="url(#filter1_d_6_206)">
<path d="M18.2272 48.533L45.4697 63.9987L38.7424 75.572L11.5 60.1062L18.2272 48.533Z" fill="#0D73B0"/>
<path d="M18.2272 48.533L45.4697 63.9987L38.7424 75.572L11.5 60.1062L18.2272 48.533Z" stroke="white" stroke-linejoin="bevel"/>
</g>
<g filter="url(#filter2_d_6_206)">
<rect width="31.3263" height="24.2094" transform="matrix(0.869633 -0.493698 2.24047e-08 1 45.4697 64.2881)" fill="#14B2D3"/>
<rect width="31.3263" height="24.2094" transform="matrix(0.869633 -0.493698 2.24047e-08 1 45.4697 64.2881)" stroke="white" stroke-linejoin="bevel"/>
</g>
<g filter="url(#filter3_d_6_206)">
<rect width="11.4991" height="3.15666" transform="matrix(0.869633 -0.493698 -2.24047e-08 -1 48 84.6436)" fill="#EBEBEB" fill-opacity="0.5" shape-rendering="crispEdges"/>
</g>
<g filter="url(#filter4_d_6_206)">
<rect width="2.29982" height="3.15666" transform="matrix(0.869633 -0.493698 -2.24047e-08 -1 60 77.9658)" fill="#EBEBEB" fill-opacity="0.5" shape-rendering="crispEdges"/>
</g>
<g filter="url(#filter5_d_6_206)">
<rect width="11.4991" height="3.15666" transform="matrix(0.869633 -0.493698 -2.24047e-08 -1 48 79.9404)" fill="#EBEBEB" fill-opacity="0.5" shape-rendering="crispEdges"/>
</g>
<g filter="url(#filter6_d_6_206)">
<path d="M45.4697 63.999L72.7122 48.5333L79 60.1064L51.7576 75.5722L45.4697 63.999Z" fill="#14B2D3"/>
<path d="M45.4697 63.999L72.7122 48.5333L79 60.1064L51.7576 75.5722L45.4697 63.999Z" stroke="white" stroke-linejoin="bevel"/>
</g>
<path d="M45.7168 33.0898L73.2696 48.7318L45.7795 64.3382L18.2267 48.6962L45.7168 33.0898Z" fill="url(#paint1_linear_6_206)" stroke="white" stroke-linejoin="bevel"/>
<path d="M73 49.1064L78.5 0.606445H13L18 49.1064L46 64.6064L73 49.1064Z" fill="url(#paint2_linear_6_206)" fill-opacity="0.4"/>
<circle cx="45" cy="41.1064" r="16" fill="url(#paint3_linear_6_206)"/>
<path d="M35.4004 41.1061L43.4004 49.1061L55.6671 34.7061" stroke="white" stroke-width="2" stroke-linejoin="round"/>
<circle cx="44.7419" cy="41.364" r="16.2576" fill="url(#paint4_linear_6_206)"/>
<path d="M44.7417 38.1123V30.5254M46.9094 41.3638H55.5801M44.7417 44.6153V52.2021M42.574 41.3638H33.9033M47.9932 38.1123L53.4124 32.6931M47.9932 44.6153L53.4124 50.0345M41.4902 38.1123L36.071 32.6931M41.4902 44.6153L36.071 50.0345" stroke="#373737" stroke-opacity="0.4" stroke-width="2" stroke-linejoin="round"/>
<defs>
<filter id="filter0_d_6_206" x="13.792" y="47.9795" width="36.1113" height="49.0674" filterUnits="userSpaceOnUse" color-interpolation-filters="sRGB">
<feFlood flood-opacity="0" result="BackgroundImageFix"/>
<feColorMatrix in="SourceAlpha" type="matrix" values="0 0 0 0 0 0 0 0 0 0 0 0 0 0 0 0 0 0 127 0" result="hardAlpha"/>
<feOffset dy="4"/>
<feGaussianBlur stdDeviation="2"/>
<feComposite in2="hardAlpha" operator="out"/>
<feColorMatrix type="matrix" values="0 0 0 0 0 0 0 0 0 0 0 0 0 0 0 0 0 0 0.25 0"/>
<feBlend mode="normal" in2="BackgroundImageFix" result="effect1_dropShadow_6_206"/>
<feBlend mode="normal" in="SourceGraphic" in2="effect1_dropShadow_6_206" result="shape"/>
</filter>
<filter id="filter1_d_6_206" x="7.11133" y="48.0332" width="42.7471" height="36.0391" filterUnits="userSpaceOnUse" color-interpolation-filters="sRGB">
<feFlood flood-opacity="0" result="BackgroundImageFix"/>
<feColorMatrix in="SourceAlpha" type="matrix" values="0 0 0 0 0 0 0 0 0 0 0 0 0 0 0 0 0 0 127 0" result="hardAlpha"/>
<feOffset dy="4"/>
<feGaussianBlur stdDeviation="2"/>
<feComposite in2="hardAlpha" operator="out"/>
<feColorMatrix type="matrix" values="0 0 0 0 0 0 0 0 0 0 0 0 0 0 0 0 0 0 0.25 0"/>
<feBlend mode="normal" in2="BackgroundImageFix" result="effect1_dropShadow_6_206"/>
<feBlend mode="normal" in="SourceGraphic" in2="effect1_dropShadow_6_206" result="shape"/>
</filter>
<filter id="filter2_d_6_206" x="41.0352" y="48.3223" width="36.1113" height="48.6748" filterUnits="userSpaceOnUse" color-interpolation-filters="sRGB">
<feFlood flood-opacity="0" result="BackgroundImageFix"/>
<feColorMatrix in="SourceAlpha" type="matrix" values="0 0 0 0 0 0 0 0 0 0 0 0 0 0 0 0 0 0 127 0" result="hardAlpha"/>
<feOffset dy="4"/>
<feGaussianBlur stdDeviation="2"/>
<feComposite in2="hardAlpha" operator="out"/>
<feColorMatrix type="matrix" values="0 0 0 0 0 0 0 0 0 0 0 0 0 0 0 0 0 0 0.25 0"/>
<feBlend mode="normal" in2="BackgroundImageFix" result="effect1_dropShadow_6_206"/>
<feBlend mode="normal" in="SourceGraphic" in2="effect1_dropShadow_6_206" result="shape"/>
</filter>
<filter id="filter3_d_6_206" x="44" y="75.8096" width="18" height="16.834" filterUnits="userSpaceOnUse" color-interpolation-filters="sRGB">
<feFlood flood-opacity="0" result="BackgroundImageFix"/>
<feColorMatrix in="SourceAlpha" type="matrix" values="0 0 0 0 0 0 0 0 0 0 0 0 0 0 0 0 0 0 127 0" result="hardAlpha"/>
<feOffset dy="4"/>
<feGaussianBlur stdDeviation="2"/>
<feComposite in2="hardAlpha" operator="out"/>
<feColorMatrix type="matrix" values="0 0 0 0 0 0 0 0 0 0 0 0 0 0 0 0 0 0 0.25 0"/>
<feBlend mode="normal" in2="BackgroundImageFix" result="effect1_dropShadow_6_206"/>
<feBlend mode="normal" in="SourceGraphic" in2="effect1_dropShadow_6_206" result="shape"/>
</filter>
<filter id="filter4_d_6_206" x="56" y="73.6738" width="10" height="12.292" filterUnits="userSpaceOnUse" color-interpolation-filters="sRGB">
<feFlood flood-opacity="0" result="BackgroundImageFix"/>
<feColorMatrix in="SourceAlpha" type="matrix" values="0 0 0 0 0 0 0 0 0 0 0 0 0 0 0 0 0 0 127 0" result="hardAlpha"/>
<feOffset dy="4"/>
<feGaussianBlur stdDeviation="2"/>
<feComposite in2="hardAlpha" operator="out"/>
<feColorMatrix type="matrix" values="0 0 0 0 0 0 0 0 0 0 0 0 0 0 0 0 0 0 0.25 0"/>
<feBlend mode="normal" in2="BackgroundImageFix" result="effect1_dropShadow_6_206"/>
<feBlend mode="normal" in="SourceGraphic" in2="effect1_dropShadow_6_206" result="shape"/>
</filter>
<filter id="filter5_d_6_206" x="44" y="71.1064" width="18" height="16.834" filterUnits="userSpaceOnUse" color-interpolation-filters="sRGB">
<feFlood flood-opacity="0" result="BackgroundImageFix"/>
<feColorMatrix in="SourceAlpha" type="matrix" values="0 0 0 0 0 0 0 0 0 0 0 0 0 0 0 0 0 0 127 0" result="hardAlpha"/>
<feOffset dy="4"/>
<feGaussianBlur stdDeviation="2"/>
<feComposite in2="hardAlpha" operator="out"/>
<feColorMatrix type="matrix" values="0 0 0 0 0 0 0 0 0 0 0 0 0 0 0 0 0 0 0.25 0"/>
<feBlend mode="normal" in2="BackgroundImageFix" result="effect1_dropShadow_6_206"/>
<feBlend mode="normal" in="SourceGraphic" in2="effect1_dropShadow_6_206" result="shape"/>
</filter>
<filter id="filter6_d_6_206" x="41.0771" y="48.0332" width="42.3154" height="36.0391" filterUnits="userSpaceOnUse" color-interpolation-filters="sRGB">
<feFlood flood-opacity="0" result="BackgroundImageFix"/>
<feColorMatrix in="SourceAlpha" type="matrix" values="0 0 0 0 0 0 0 0 0 0 0 0 0 0 0 0 0 0 127 0" result="hardAlpha"/>
<feOffset dy="4"/>
<feGaussianBlur stdDeviation="2"/>
<feComposite in2="hardAlpha" operator="out"/>
<feColorMatrix type="matrix" values="0 0 0 0 0 0 0 0 0 0 0 0 0 0 0 0 0 0 0.25 0"/>
<feBlend mode="normal" in2="BackgroundImageFix" result="effect1_dropShadow_6_206"/>
<feBlend mode="normal" in="SourceGraphic" in2="effect1_dropShadow_6_206" result="shape"/>
</filter>
<linearGradient id="paint0_linear_6_206" x1="-17.8686" y1="75.2813" x2="94.8091" y2="86.2866" gradientUnits="userSpaceOnUse">
<stop stop-color="white" stop-opacity="0.4"/>
<stop offset="1" stop-color="#C4C4C4" stop-opacity="0"/>
</linearGradient>
<linearGradient id="paint1_linear_6_206" x1="45.5076" y1="22.9785" x2="38.0461" y2="72.2278" gradientUnits="userSpaceOnUse">
<stop stop-color="#0D73B0"/>
<stop offset="1" stop-color="#001034"/>
</linearGradient>
<linearGradient id="paint2_linear_6_206" x1="46" y1="65.1064" x2="46" y2="7.10644" gradientUnits="userSpaceOnUse">
<stop stop-color="#FFF0B9"/>
<stop offset="1" stop-color="#001034"/>
</linearGradient>
<linearGradient id="paint3_linear_6_206" x1="41" y1="29.1064" x2="46" y2="64.6064" gradientUnits="userSpaceOnUse">
<stop stop-color="#01D65A"/>
<stop offset="1" stop-color="#108641"/>
</linearGradient>
<linearGradient id="paint4_linear_6_206" x1="44.7419" y1="25.1064" x2="44.7419" y2="57.6216" gradientUnits="userSpaceOnUse">
<stop offset="0.00100313" stop-color="#FFD732"/>
<stop offset="1" stop-color="#C29C0F"/>
</linearGradient>
</defs>
</svg>
