<svg width="44" height="43" viewBox="0 0 44 43" fill="none" xmlns="http://www.w3.org/2000/svg">
<path d="M31.47 41.5344L0.712891 38.1334V8.85509L16.6829 1.16602L43.2994 4.86276V34.5846L31.47 41.5344Z" fill="#001034"/>
<path d="M0.712891 8.85509L31.47 12.5518M0.712891 8.85509V38.1334L31.47 41.5344M0.712891 8.85509L16.6829 1.16602L43.2994 4.86276M31.47 12.5518V41.5344M31.47 12.5518L43.2994 4.86276M31.47 41.5344L43.2994 34.5846V4.86276" stroke="white"/>
<path d="M31.5703 12.3779L43.1934 5.17383V34.5359L31.5703 41.377V12.3779Z" fill="#5B6C78" fill-opacity="0.8"/>
<path d="M8.44531 23.0744V10.1157L21.5498 1.95892L30.0739 3.1397L16.8443 11.0756V24.1542L12.4048 21.0345L8.44531 23.0744Z" fill="#08CECE" stroke="white"/>
<path d="M31.47 41.5344L0.712891 38.1334V8.85509L16.6829 1.16602L43.2994 4.86276V34.5846L31.47 41.5344Z" fill="white" fill-opacity="0.3"/>
<path d="M0.712891 8.85509L31.47 12.5518M0.712891 8.85509V38.1334L31.47 41.5344M0.712891 8.85509L16.6829 1.16602L43.2994 4.86276M31.47 12.5518V41.5344M31.47 12.5518L43.2994 4.86276M31.47 41.5344L43.2994 34.5846V4.86276" stroke="white"/>
</svg>
