<svg width="89" height="107" viewBox="0 0 89 107" fill="none" xmlns="http://www.w3.org/2000/svg">
<path d="M13.0174 57.3088L56.2936 50.709L88.0633 68.752V74.6991L76.5571 99.2153L33.1203 105.851L1.43865 87.863L1.43848 81.8425L13.0174 57.3088Z" fill="#001034"/>
<path d="M1.55762 87.7109V81.7109L33.0576 99.7109V105.711L1.55762 87.7109Z" fill="#737389" fill-opacity="0.7" stroke="white" stroke-opacity="0.5" stroke-width="0.5" stroke-linejoin="round"/>
<path d="M13.0144 57.3008L56.3073 50.7109L88.0682 68.7493L76.5513 93.2667L33.1201 99.8516L1.43848 81.8634L13.0144 57.3008Z" fill="url(#paint0_linear_6_223)" stroke="white" stroke-opacity="0.5" stroke-width="0.5"/>
<path d="M76.5576 93.2109L33.0576 99.7109V105.711L76.5576 99.2109V93.2109Z" fill="#4A5368" fill-opacity="0.7" stroke="white" stroke-opacity="0.5" stroke-width="0.5" stroke-linejoin="round"/>
<path d="M88.0576 68.7109L76.5576 93.2109V99.2109L88.0576 74.7109V68.7109Z" fill="#202D49" stroke="white" stroke-opacity="0.5" stroke-width="0.5" stroke-linejoin="round"/>
<g filter="url(#filter0_d_6_223)">
<rect width="31.3263" height="24.6021" transform="matrix(0.869633 0.493698 -2.24047e-08 1 17.2275 48.4795)" fill="#0D73B0"/>
<rect width="31.3263" height="24.6021" transform="matrix(0.869633 0.493698 -2.24047e-08 1 17.2275 48.4795)" stroke="white" stroke-linejoin="bevel"/>
</g>
<g filter="url(#filter1_d_6_223)">
<path d="M17.2272 48.533L44.4697 63.9987L37.7424 75.572L10.5 60.1062L17.2272 48.533Z" fill="#0D73B0"/>
<path d="M17.2272 48.533L44.4697 63.9987L37.7424 75.572L10.5 60.1062L17.2272 48.533Z" stroke="white" stroke-linejoin="bevel"/>
</g>
<g filter="url(#filter2_d_6_223)">
<rect width="31.3263" height="24.2094" transform="matrix(0.869633 -0.493698 2.24047e-08 1 44.4697 64.2881)" fill="#14B2D3"/>
<rect width="31.3263" height="24.2094" transform="matrix(0.869633 -0.493698 2.24047e-08 1 44.4697 64.2881)" stroke="white" stroke-linejoin="bevel"/>
</g>
<g filter="url(#filter3_d_6_223)">
<rect width="11.4991" height="3.15666" transform="matrix(0.869633 -0.493698 -2.24047e-08 -1 47 84.6436)" fill="#EBEBEB" fill-opacity="0.5" shape-rendering="crispEdges"/>
</g>
<g filter="url(#filter4_d_6_223)">
<rect width="2.29982" height="3.15666" transform="matrix(0.869633 -0.493698 -2.24047e-08 -1 59 77.9658)" fill="#EBEBEB" fill-opacity="0.5" shape-rendering="crispEdges"/>
</g>
<g filter="url(#filter5_d_6_223)">
<rect width="11.4991" height="3.15666" transform="matrix(0.869633 -0.493698 -2.24047e-08 -1 47 79.9404)" fill="#EBEBEB" fill-opacity="0.5" shape-rendering="crispEdges"/>
</g>
<g filter="url(#filter6_d_6_223)">
<path d="M44.4697 63.999L71.7122 48.5333L78 60.1064L50.7576 75.5722L44.4697 63.999Z" fill="#14B2D3"/>
<path d="M44.4697 63.999L71.7122 48.5333L78 60.1064L50.7576 75.5722L44.4697 63.999Z" stroke="white" stroke-linejoin="bevel"/>
</g>
<path d="M44.7178 33.0898L72.2706 48.7318L44.7805 64.3382L17.2277 48.6962L44.7178 33.0898Z" fill="url(#paint1_linear_6_223)" stroke="white" stroke-linejoin="bevel"/>
<path d="M72 49.1064L77.5 0.606445H12L17 49.1064L45 64.6064L72 49.1064Z" fill="url(#paint2_linear_6_223)" fill-opacity="0.4"/>
<circle cx="44" cy="41.1064" r="16" fill="url(#paint3_linear_6_223)"/>
<path d="M34.4004 41.1061L42.4004 49.1061L54.6671 34.7061" stroke="white" stroke-width="2" stroke-linejoin="round"/>
<circle cx="43.7429" cy="41.364" r="16.2576" fill="url(#paint4_linear_6_223)"/>
<path d="M43.7427 38.1123V30.5254M45.9104 41.3638H54.5811M43.7427 44.6153V52.2021M41.575 41.3638H32.9043M46.9942 38.1123L52.4134 32.6931M46.9942 44.6153L52.4134 50.0345M40.4912 38.1123L35.072 32.6931M40.4912 44.6153L35.072 50.0345" stroke="#373737" stroke-opacity="0.4" stroke-width="2" stroke-linejoin="round"/>
<circle cx="43.7429" cy="41.364" r="16.2576" fill="url(#paint5_linear_6_223)"/>
<path d="M43.7432 31.6094L48.0376 35.4682L49.2323 29.8197L43.7432 31.6094ZM47.9398 32.9963C50.9666 34.3592 52.9977 37.1272 52.9977 40.2801H53.9977C53.9977 36.6712 51.6751 33.5815 48.3504 32.0845L47.9398 32.9963Z" fill="white" fill-opacity="0.9"/>
<path d="M36.2334 46.4189L37.0426 40.7024L31.6874 42.8599L36.2334 46.4189ZM35.0469 42.1748C34.5992 39.002 35.8832 35.6959 38.6621 33.6948L38.0777 32.8833C34.9856 35.11 33.5591 38.7885 34.0567 42.3146L35.0469 42.1748Z" fill="white" fill-opacity="0.9"/>
<path d="M52.6475 44.8604L47.3594 47.1777L52.0103 50.5986L52.6475 44.8604ZM49.6612 48.1011C47.1978 50.1502 43.7104 50.7963 40.5471 49.4846L40.1641 50.4084C43.684 51.8679 47.563 51.1471 50.3007 48.87L49.6612 48.1011Z" fill="white" fill-opacity="0.9"/>
<defs>
<filter id="filter0_d_6_223" x="12.793" y="47.9795" width="36.1113" height="49.0674" filterUnits="userSpaceOnUse" color-interpolation-filters="sRGB">
<feFlood flood-opacity="0" result="BackgroundImageFix"/>
<feColorMatrix in="SourceAlpha" type="matrix" values="0 0 0 0 0 0 0 0 0 0 0 0 0 0 0 0 0 0 127 0" result="hardAlpha"/>
<feOffset dy="4"/>
<feGaussianBlur stdDeviation="2"/>
<feComposite in2="hardAlpha" operator="out"/>
<feColorMatrix type="matrix" values="0 0 0 0 0 0 0 0 0 0 0 0 0 0 0 0 0 0 0.25 0"/>
<feBlend mode="normal" in2="BackgroundImageFix" result="effect1_dropShadow_6_223"/>
<feBlend mode="normal" in="SourceGraphic" in2="effect1_dropShadow_6_223" result="shape"/>
</filter>
<filter id="filter1_d_6_223" x="6.11133" y="48.0332" width="42.7471" height="36.0391" filterUnits="userSpaceOnUse" color-interpolation-filters="sRGB">
<feFlood flood-opacity="0" result="BackgroundImageFix"/>
<feColorMatrix in="SourceAlpha" type="matrix" values="0 0 0 0 0 0 0 0 0 0 0 0 0 0 0 0 0 0 127 0" result="hardAlpha"/>
<feOffset dy="4"/>
<feGaussianBlur stdDeviation="2"/>
<feComposite in2="hardAlpha" operator="out"/>
<feColorMatrix type="matrix" values="0 0 0 0 0 0 0 0 0 0 0 0 0 0 0 0 0 0 0.25 0"/>
<feBlend mode="normal" in2="BackgroundImageFix" result="effect1_dropShadow_6_223"/>
<feBlend mode="normal" in="SourceGraphic" in2="effect1_dropShadow_6_223" result="shape"/>
</filter>
<filter id="filter2_d_6_223" x="40.0352" y="48.3223" width="36.1113" height="48.6748" filterUnits="userSpaceOnUse" color-interpolation-filters="sRGB">
<feFlood flood-opacity="0" result="BackgroundImageFix"/>
<feColorMatrix in="SourceAlpha" type="matrix" values="0 0 0 0 0 0 0 0 0 0 0 0 0 0 0 0 0 0 127 0" result="hardAlpha"/>
<feOffset dy="4"/>
<feGaussianBlur stdDeviation="2"/>
<feComposite in2="hardAlpha" operator="out"/>
<feColorMatrix type="matrix" values="0 0 0 0 0 0 0 0 0 0 0 0 0 0 0 0 0 0 0.25 0"/>
<feBlend mode="normal" in2="BackgroundImageFix" result="effect1_dropShadow_6_223"/>
<feBlend mode="normal" in="SourceGraphic" in2="effect1_dropShadow_6_223" result="shape"/>
</filter>
<filter id="filter3_d_6_223" x="43" y="75.8096" width="18" height="16.834" filterUnits="userSpaceOnUse" color-interpolation-filters="sRGB">
<feFlood flood-opacity="0" result="BackgroundImageFix"/>
<feColorMatrix in="SourceAlpha" type="matrix" values="0 0 0 0 0 0 0 0 0 0 0 0 0 0 0 0 0 0 127 0" result="hardAlpha"/>
<feOffset dy="4"/>
<feGaussianBlur stdDeviation="2"/>
<feComposite in2="hardAlpha" operator="out"/>
<feColorMatrix type="matrix" values="0 0 0 0 0 0 0 0 0 0 0 0 0 0 0 0 0 0 0.25 0"/>
<feBlend mode="normal" in2="BackgroundImageFix" result="effect1_dropShadow_6_223"/>
<feBlend mode="normal" in="SourceGraphic" in2="effect1_dropShadow_6_223" result="shape"/>
</filter>
<filter id="filter4_d_6_223" x="55" y="73.6738" width="10" height="12.292" filterUnits="userSpaceOnUse" color-interpolation-filters="sRGB">
<feFlood flood-opacity="0" result="BackgroundImageFix"/>
<feColorMatrix in="SourceAlpha" type="matrix" values="0 0 0 0 0 0 0 0 0 0 0 0 0 0 0 0 0 0 127 0" result="hardAlpha"/>
<feOffset dy="4"/>
<feGaussianBlur stdDeviation="2"/>
<feComposite in2="hardAlpha" operator="out"/>
<feColorMatrix type="matrix" values="0 0 0 0 0 0 0 0 0 0 0 0 0 0 0 0 0 0 0.25 0"/>
<feBlend mode="normal" in2="BackgroundImageFix" result="effect1_dropShadow_6_223"/>
<feBlend mode="normal" in="SourceGraphic" in2="effect1_dropShadow_6_223" result="shape"/>
</filter>
<filter id="filter5_d_6_223" x="43" y="71.1064" width="18" height="16.834" filterUnits="userSpaceOnUse" color-interpolation-filters="sRGB">
<feFlood flood-opacity="0" result="BackgroundImageFix"/>
<feColorMatrix in="SourceAlpha" type="matrix" values="0 0 0 0 0 0 0 0 0 0 0 0 0 0 0 0 0 0 127 0" result="hardAlpha"/>
<feOffset dy="4"/>
<feGaussianBlur stdDeviation="2"/>
<feComposite in2="hardAlpha" operator="out"/>
<feColorMatrix type="matrix" values="0 0 0 0 0 0 0 0 0 0 0 0 0 0 0 0 0 0 0.25 0"/>
<feBlend mode="normal" in2="BackgroundImageFix" result="effect1_dropShadow_6_223"/>
<feBlend mode="normal" in="SourceGraphic" in2="effect1_dropShadow_6_223" result="shape"/>
</filter>
<filter id="filter6_d_6_223" x="40.0771" y="48.0332" width="42.3154" height="36.0391" filterUnits="userSpaceOnUse" color-interpolation-filters="sRGB">
<feFlood flood-opacity="0" result="BackgroundImageFix"/>
<feColorMatrix in="SourceAlpha" type="matrix" values="0 0 0 0 0 0 0 0 0 0 0 0 0 0 0 0 0 0 127 0" result="hardAlpha"/>
<feOffset dy="4"/>
<feGaussianBlur stdDeviation="2"/>
<feComposite in2="hardAlpha" operator="out"/>
<feColorMatrix type="matrix" values="0 0 0 0 0 0 0 0 0 0 0 0 0 0 0 0 0 0 0.25 0"/>
<feBlend mode="normal" in2="BackgroundImageFix" result="effect1_dropShadow_6_223"/>
<feBlend mode="normal" in="SourceGraphic" in2="effect1_dropShadow_6_223" result="shape"/>
</filter>
<linearGradient id="paint0_linear_6_223" x1="-18.3422" y1="75.2813" x2="94.3354" y2="86.2866" gradientUnits="userSpaceOnUse">
<stop stop-color="white" stop-opacity="0.4"/>
<stop offset="1" stop-color="#C4C4C4" stop-opacity="0"/>
</linearGradient>
<linearGradient id="paint1_linear_6_223" x1="44.5086" y1="22.9785" x2="37.0471" y2="72.2278" gradientUnits="userSpaceOnUse">
<stop stop-color="#0D73B0"/>
<stop offset="1" stop-color="#001034"/>
</linearGradient>
<linearGradient id="paint2_linear_6_223" x1="45" y1="65.1064" x2="45" y2="7.10644" gradientUnits="userSpaceOnUse">
<stop stop-color="#BEFFFF"/>
<stop offset="1" stop-color="#BEFFFF" stop-opacity="0"/>
</linearGradient>
<linearGradient id="paint3_linear_6_223" x1="40" y1="29.1064" x2="45" y2="64.6064" gradientUnits="userSpaceOnUse">
<stop stop-color="#01D65A"/>
<stop offset="1" stop-color="#108641"/>
</linearGradient>
<linearGradient id="paint4_linear_6_223" x1="43.7429" y1="25.1064" x2="43.7429" y2="57.6216" gradientUnits="userSpaceOnUse">
<stop offset="0.00100313" stop-color="#FFD732"/>
<stop offset="1" stop-color="#C29C0F"/>
</linearGradient>
<linearGradient id="paint5_linear_6_223" x1="43.7429" y1="25.1064" x2="43.7429" y2="57.6216" gradientUnits="userSpaceOnUse">
<stop stop-color="#00CCCC"/>
<stop offset="1" stop-color="#129F9F"/>
</linearGradient>
</defs>
</svg>
