<svg width="28" height="41" viewBox="0 0 28 41" fill="none" xmlns="http://www.w3.org/2000/svg">
<rect x="10.0664" y="38.5078" width="8.6409" height="1.5914" fill="white"/>
<rect x="8.21484" y="35.0332" width="12.3441" height="1.64157" fill="white"/>
<path d="M26.7855 13.9434C27.0995 20.9142 23.7214 22.746 22.5472 24.558C21.674 25.9056 20.6112 29.9973 20.3496 32.0041H7.63467C7.42537 30.6839 6.09632 26.7126 4.9661 24.558C3.55333 21.8647 0.884766 20.2805 0.884766 13.9434" stroke="white" stroke-width="1.5"/>
<path d="M20.3496 31.0752H7.63467C7.42537 29.7549 6.09632 25.7837 4.9661 23.6291C3.55333 20.9358 0.884766 19.3515 0.884766 13.0144C0.884766 6.67732 7.63467 1.44922 13.9136 1.44922C20.1926 1.44922 26.4716 6.04361 26.7855 13.0144C27.0995 19.9852 23.7214 21.817 22.5472 23.6291C21.674 24.9766 20.6112 29.0684 20.3496 31.0752Z" stroke="#1CD28E" stroke-width="1.5"/>
<path d="M11.7694 30.9107C10.3113 27.2627 7.83258 19.9668 9.58226 19.9668C11.7694 19.9668 11.7693 22.1224 13.8002 22.1224C15.8311 22.1224 16.1435 19.9668 18.1744 19.9668C19.7991 19.9668 17.2722 27.4838 16.387 30.9107" stroke="#1CD28E" stroke-width="1.5"/>
<rect x="8.21484" y="34.1045" width="12.3441" height="1.64157" fill="#1CD28E"/>
<rect x="10.0684" y="37.5791" width="8.6409" height="1.5914" fill="#1CD28E"/>
</svg>
