<svg width="55" height="27" viewBox="0 0 55 27" fill="none" xmlns="http://www.w3.org/2000/svg">
<circle cx="27.7125" cy="13.6207" r="7.08551" fill="white"/>
<path d="M38.2634 6.37531C42.414 10.5259 42.414 17.2553 38.2634 21.4059" stroke="white" stroke-width="2"/>
<path d="M17.952 22.2121C13.3189 17.5791 13.0605 10.3258 17.3748 6.01153" stroke="white" stroke-width="2"/>
<path d="M43.1113 2.11628C49.6588 8.66384 49.6588 19.2795 43.1113 25.8271" stroke="white" stroke-width="2"/>
<path d="M12.2051 25.501C5.67473 18.9706 5.67473 8.38287 12.2051 1.85253" stroke="white" stroke-width="2"/>
<circle cx="27.7125" cy="12.6207" r="7.08551" fill="#1CD28E"/>
<path d="M38.2634 5.53547C42.414 9.68606 42.414 16.4155 38.2634 20.5661" stroke="#1CD28E" stroke-width="2"/>
<path d="M17.952 21.3723C13.3189 16.7392 13.0605 9.48597 17.3748 5.17168" stroke="#1CD28E" stroke-width="2"/>
<path d="M43.1113 1.27546C49.6588 7.82302 49.6588 18.4387 43.1113 24.9863" stroke="#1CD28E" stroke-width="2"/>
<path d="M12.2051 24.6602C5.67473 18.1298 5.67473 7.54205 12.2051 1.01171" stroke="#1CD28E" stroke-width="2"/>
</svg>
